%FSLAX45Y45*%
G04 Gerber Fmt 4.5, Leading zero omitted, Abs format (unit mm)*
G04 Created by KiCad (PCBNEW 4.0.7) date 06/06/19 13:44:00*
%MOMM*%
%LPD*%
G01*
G04 APERTURE LIST*
%ADD10C,0.127000*%
%ADD11C,0.150000*%
%ADD12C,0.200000*%
%ADD13C,0.300000*%
G04 APERTURE END LIST*
D10*
D11*
X18690000Y-4200000D02*
X9980000Y-4200000D01*
X18690000Y-9950000D02*
X9980000Y-9950000D01*
X18690000Y-4200000D02*
X18690000Y-9950000D01*
X9980000Y-9950000D02*
X9980000Y-4200000D01*
D12*
X10140000Y-7480000D02*
X10220000Y-7560000D01*
X10220000Y-7480000D02*
X10140000Y-7560000D01*
X10770000Y-8720000D02*
X10850000Y-8800000D01*
X10850000Y-8720000D02*
X10770000Y-8800000D01*
X10820000Y-7820000D02*
X10900000Y-7900000D01*
X10900000Y-7820000D02*
X10820000Y-7900000D01*
X10950000Y-8040000D02*
X11030000Y-8120000D01*
X11030000Y-8040000D02*
X10950000Y-8120000D01*
X11340000Y-7560000D02*
X11420000Y-7640000D01*
X11420000Y-7560000D02*
X11340000Y-7640000D01*
X11350000Y-7280000D02*
X11430000Y-7360000D01*
X11430000Y-7280000D02*
X11350000Y-7360000D01*
X11610000Y-7880000D02*
X11690000Y-7960000D01*
X11690000Y-7880000D02*
X11610000Y-7960000D01*
X11758420Y-5274310D02*
X11838420Y-5354310D01*
X11838420Y-5274310D02*
X11758420Y-5354310D01*
X11860000Y-6350000D02*
X11940000Y-6430000D01*
X11940000Y-6350000D02*
X11860000Y-6430000D01*
X12890000Y-6840000D02*
X12970000Y-6920000D01*
X12970000Y-6840000D02*
X12890000Y-6920000D01*
X13380000Y-6840000D02*
X13460000Y-6920000D01*
X13460000Y-6840000D02*
X13380000Y-6920000D01*
X13840000Y-8960000D02*
X13920000Y-9040000D01*
X13920000Y-8960000D02*
X13840000Y-9040000D01*
X13910000Y-8580000D02*
X13990000Y-8660000D01*
X13990000Y-8580000D02*
X13910000Y-8660000D01*
X14130000Y-7620000D02*
X14210000Y-7700000D01*
X14210000Y-7620000D02*
X14130000Y-7700000D01*
X14473900Y-7685820D02*
X14553900Y-7765820D01*
X14553900Y-7685820D02*
X14473900Y-7765820D01*
X14690000Y-7660000D02*
X14770000Y-7740000D01*
X14770000Y-7660000D02*
X14690000Y-7740000D01*
X14940300Y-7687200D02*
X15020300Y-7767200D01*
X15020300Y-7687200D02*
X14940300Y-7767200D01*
X16270000Y-7120000D02*
X16350000Y-7200000D01*
X16350000Y-7120000D02*
X16270000Y-7200000D01*
X16500000Y-7300000D02*
X16580000Y-7380000D01*
X16580000Y-7300000D02*
X16500000Y-7380000D01*
X16620000Y-5000000D02*
X16700000Y-5080000D01*
X16700000Y-5000000D02*
X16620000Y-5080000D01*
X16950000Y-7650000D02*
X17030000Y-7730000D01*
X17030000Y-7650000D02*
X16950000Y-7730000D01*
X17120000Y-7980000D02*
X17200000Y-8060000D01*
X17200000Y-7980000D02*
X17120000Y-8060000D01*
X12200000Y-8752000D02*
G75*
G03X12200000Y-8752000I-50000J0D01*
G01*
X12200000Y-9006000D02*
G75*
G03X12200000Y-9006000I-50000J0D01*
G01*
X12200000Y-9260000D02*
G75*
G03X12200000Y-9260000I-50000J0D01*
G01*
X12670000Y-8752000D02*
G75*
G03X12670000Y-8752000I-50000J0D01*
G01*
X12670000Y-9006000D02*
G75*
G03X12670000Y-9006000I-50000J0D01*
G01*
X12670000Y-9260000D02*
G75*
G03X12670000Y-9260000I-50000J0D01*
G01*
X12960000Y-6062000D02*
G75*
G03X12960000Y-6062000I-50000J0D01*
G01*
X12960000Y-6316000D02*
G75*
G03X12960000Y-6316000I-50000J0D01*
G01*
X12960000Y-6570000D02*
G75*
G03X12960000Y-6570000I-50000J0D01*
G01*
X13170000Y-8752000D02*
G75*
G03X13170000Y-8752000I-50000J0D01*
G01*
X13170000Y-9006000D02*
G75*
G03X13170000Y-9006000I-50000J0D01*
G01*
X13170000Y-9260000D02*
G75*
G03X13170000Y-9260000I-50000J0D01*
G01*
X13630000Y-8752000D02*
G75*
G03X13630000Y-8752000I-50000J0D01*
G01*
X13630000Y-9006000D02*
G75*
G03X13630000Y-9006000I-50000J0D01*
G01*
X13630000Y-9260000D02*
G75*
G03X13630000Y-9260000I-50000J0D01*
G01*
X14240000Y-5920000D02*
G75*
G03X14240000Y-5920000I-50000J0D01*
G01*
X14470000Y-8752000D02*
G75*
G03X14470000Y-8752000I-50000J0D01*
G01*
X14470000Y-9006000D02*
G75*
G03X14470000Y-9006000I-50000J0D01*
G01*
X14470000Y-9260000D02*
G75*
G03X14470000Y-9260000I-50000J0D01*
G01*
X14494000Y-5920000D02*
G75*
G03X14494000Y-5920000I-50000J0D01*
G01*
X15330000Y-8752000D02*
G75*
G03X15330000Y-8752000I-50000J0D01*
G01*
X15330000Y-9006000D02*
G75*
G03X15330000Y-9006000I-50000J0D01*
G01*
X15330000Y-9260000D02*
G75*
G03X15330000Y-9260000I-50000J0D01*
G01*
X16230000Y-8752000D02*
G75*
G03X16230000Y-8752000I-50000J0D01*
G01*
X16230000Y-9006000D02*
G75*
G03X16230000Y-9006000I-50000J0D01*
G01*
X16230000Y-9260000D02*
G75*
G03X16230000Y-9260000I-50000J0D01*
G01*
X17040000Y-4590000D02*
G75*
G03X17040000Y-4590000I-50000J0D01*
G01*
X17140000Y-8752000D02*
G75*
G03X17140000Y-8752000I-50000J0D01*
G01*
X17140000Y-9006000D02*
G75*
G03X17140000Y-9006000I-50000J0D01*
G01*
X17140000Y-9260000D02*
G75*
G03X17140000Y-9260000I-50000J0D01*
G01*
X17294000Y-4590000D02*
G75*
G03X17294000Y-4590000I-50000J0D01*
G01*
X17548000Y-4590000D02*
G75*
G03X17548000Y-4590000I-50000J0D01*
G01*
X10610000Y-6169962D02*
X10610000Y-6270038D01*
X10559962Y-6220000D02*
X10660038Y-6220000D01*
X10610000Y-6423962D02*
X10610000Y-6524038D01*
X10559962Y-6474000D02*
X10660038Y-6474000D01*
X10610000Y-6677962D02*
X10610000Y-6778038D01*
X10559962Y-6728000D02*
X10660038Y-6728000D01*
X10610000Y-6931962D02*
X10610000Y-7032038D01*
X10559962Y-6982000D02*
X10660038Y-6982000D01*
X10610000Y-7185962D02*
X10610000Y-7286038D01*
X10559962Y-7236000D02*
X10660038Y-7236000D01*
X10864000Y-6169962D02*
X10864000Y-6270038D01*
X10813962Y-6220000D02*
X10914038Y-6220000D01*
X10864000Y-6423962D02*
X10864000Y-6524038D01*
X10813962Y-6474000D02*
X10914038Y-6474000D01*
X10864000Y-6677962D02*
X10864000Y-6778038D01*
X10813962Y-6728000D02*
X10914038Y-6728000D01*
X10864000Y-6931962D02*
X10864000Y-7032038D01*
X10813962Y-6982000D02*
X10914038Y-6982000D01*
X10864000Y-7185962D02*
X10864000Y-7286038D01*
X10813962Y-7236000D02*
X10914038Y-7236000D01*
X11958891Y-7568891D02*
X11958891Y-7491109D01*
X11881109Y-7491109D01*
X11881109Y-7568891D01*
X11958891Y-7568891D01*
X11958891Y-8018891D02*
X11958891Y-7941109D01*
X11881109Y-7941109D01*
X11881109Y-8018891D01*
X11958891Y-8018891D01*
X12608891Y-7568891D02*
X12608891Y-7491109D01*
X12531109Y-7491109D01*
X12531109Y-7568891D01*
X12608891Y-7568891D01*
X12608891Y-8018891D02*
X12608891Y-7941109D01*
X12531109Y-7941109D01*
X12531109Y-8018891D01*
X12608891Y-8018891D01*
X14860000Y-8470000D02*
X14920000Y-8410000D01*
X14860000Y-8350000D01*
X14800000Y-8410000D01*
X14860000Y-8470000D01*
X14860000Y-9486000D02*
X14920000Y-9426000D01*
X14860000Y-9366000D01*
X14800000Y-9426000D01*
X14860000Y-9486000D01*
X15760000Y-8460000D02*
X15820000Y-8400000D01*
X15760000Y-8340000D01*
X15700000Y-8400000D01*
X15760000Y-8460000D01*
X15760000Y-9476000D02*
X15820000Y-9416000D01*
X15760000Y-9356000D01*
X15700000Y-9416000D01*
X15760000Y-9476000D01*
X16630000Y-8440000D02*
X16690000Y-8380000D01*
X16630000Y-8320000D01*
X16570000Y-8380000D01*
X16630000Y-8440000D01*
X16630000Y-9456000D02*
X16690000Y-9396000D01*
X16630000Y-9336000D01*
X16570000Y-9396000D01*
X16630000Y-9456000D01*
X17520000Y-8440000D02*
X17580000Y-8380000D01*
X17520000Y-8320000D01*
X17460000Y-8380000D01*
X17520000Y-8440000D01*
X17520000Y-9456000D02*
X17580000Y-9396000D01*
X17520000Y-9336000D01*
X17460000Y-9396000D01*
X17520000Y-9456000D01*
X10544976Y-4644976D02*
X10675024Y-4775024D01*
X10675024Y-4644976D02*
X10544976Y-4775024D01*
X10675024Y-4710000D02*
G75*
G03X10675024Y-4710000I-65024J0D01*
G01*
X11074976Y-9514976D02*
X11205024Y-9645024D01*
X11205024Y-9514976D02*
X11074976Y-9645024D01*
X11205024Y-9580000D02*
G75*
G03X11205024Y-9580000I-65024J0D01*
G01*
X11444976Y-5174976D02*
X11575024Y-5305024D01*
X11575024Y-5174976D02*
X11444976Y-5305024D01*
X11575024Y-5240000D02*
G75*
G03X11575024Y-5240000I-65024J0D01*
G01*
X11604976Y-9514976D02*
X11735024Y-9645024D01*
X11735024Y-9514976D02*
X11604976Y-9645024D01*
X11735024Y-9580000D02*
G75*
G03X11735024Y-9580000I-65024J0D01*
G01*
X12034976Y-5174976D02*
X12165024Y-5305024D01*
X12165024Y-5174976D02*
X12034976Y-5305024D01*
X12165024Y-5240000D02*
G75*
G03X12165024Y-5240000I-65024J0D01*
G01*
X12134976Y-6844976D02*
X12265024Y-6975024D01*
X12265024Y-6844976D02*
X12134976Y-6975024D01*
X12265024Y-6910000D02*
G75*
G03X12265024Y-6910000I-65024J0D01*
G01*
X12184976Y-6034976D02*
X12315024Y-6165024D01*
X12315024Y-6034976D02*
X12184976Y-6165024D01*
X12315024Y-6100000D02*
G75*
G03X12315024Y-6100000I-65024J0D01*
G01*
X12774976Y-5214976D02*
X12905024Y-5345024D01*
X12905024Y-5214976D02*
X12774976Y-5345024D01*
X12905024Y-5280000D02*
G75*
G03X12905024Y-5280000I-65024J0D01*
G01*
X13214976Y-5214976D02*
X13345024Y-5345024D01*
X13345024Y-5214976D02*
X13214976Y-5345024D01*
X13345024Y-5280000D02*
G75*
G03X13345024Y-5280000I-65024J0D01*
G01*
X14234976Y-5154976D02*
X14365024Y-5285024D01*
X14365024Y-5154976D02*
X14234976Y-5285024D01*
X14365024Y-5220000D02*
G75*
G03X14365024Y-5220000I-65024J0D01*
G01*
X14684976Y-5154976D02*
X14815024Y-5285024D01*
X14815024Y-5154976D02*
X14684976Y-5285024D01*
X14815024Y-5220000D02*
G75*
G03X14815024Y-5220000I-65024J0D01*
G01*
X15474976Y-5084976D02*
X15605024Y-5215024D01*
X15605024Y-5084976D02*
X15474976Y-5215024D01*
X15605024Y-5150000D02*
G75*
G03X15605024Y-5150000I-65024J0D01*
G01*
X16024976Y-5084976D02*
X16155024Y-5215024D01*
X16155024Y-5084976D02*
X16024976Y-5215024D01*
X16155024Y-5150000D02*
G75*
G03X16155024Y-5150000I-65024J0D01*
G01*
X17294976Y-4934976D02*
X17425024Y-5065024D01*
X17425024Y-4934976D02*
X17294976Y-5065024D01*
X17425024Y-5000000D02*
G75*
G03X17425024Y-5000000I-65024J0D01*
G01*
X11454000Y-4669000D02*
X11588000Y-4803000D01*
X11588000Y-4669000D02*
X11454000Y-4803000D01*
X11521000Y-4669000D02*
X11521000Y-4803000D01*
X11454000Y-4736000D02*
X11588000Y-4736000D01*
X11708000Y-4669000D02*
X11842000Y-4803000D01*
X11842000Y-4669000D02*
X11708000Y-4803000D01*
X11775000Y-4669000D02*
X11775000Y-4803000D01*
X11708000Y-4736000D02*
X11842000Y-4736000D01*
X11962000Y-4669000D02*
X12096000Y-4803000D01*
X12096000Y-4669000D02*
X11962000Y-4803000D01*
X12029000Y-4669000D02*
X12029000Y-4803000D01*
X11962000Y-4736000D02*
X12096000Y-4736000D01*
X12963000Y-4673000D02*
X13097000Y-4807000D01*
X13097000Y-4673000D02*
X12963000Y-4807000D01*
X13030000Y-4673000D02*
X13030000Y-4807000D01*
X12963000Y-4740000D02*
X13097000Y-4740000D01*
X13217000Y-4673000D02*
X13351000Y-4807000D01*
X13351000Y-4673000D02*
X13217000Y-4807000D01*
X13284000Y-4673000D02*
X13284000Y-4807000D01*
X13217000Y-4740000D02*
X13351000Y-4740000D01*
X13471000Y-4673000D02*
X13605000Y-4807000D01*
X13605000Y-4673000D02*
X13471000Y-4807000D01*
X13538000Y-4673000D02*
X13538000Y-4807000D01*
X13471000Y-4740000D02*
X13605000Y-4740000D01*
X14433000Y-4643000D02*
X14567000Y-4777000D01*
X14567000Y-4643000D02*
X14433000Y-4777000D01*
X14500000Y-4643000D02*
X14500000Y-4777000D01*
X14433000Y-4710000D02*
X14567000Y-4710000D01*
X14687000Y-4643000D02*
X14821000Y-4777000D01*
X14821000Y-4643000D02*
X14687000Y-4777000D01*
X14754000Y-4643000D02*
X14754000Y-4777000D01*
X14687000Y-4710000D02*
X14821000Y-4710000D01*
X14941000Y-4643000D02*
X15075000Y-4777000D01*
X15075000Y-4643000D02*
X14941000Y-4777000D01*
X15008000Y-4643000D02*
X15008000Y-4777000D01*
X14941000Y-4710000D02*
X15075000Y-4710000D01*
X15773000Y-4633000D02*
X15907000Y-4767000D01*
X15907000Y-4633000D02*
X15773000Y-4767000D01*
X15840000Y-4633000D02*
X15840000Y-4767000D01*
X15773000Y-4700000D02*
X15907000Y-4700000D01*
X16027000Y-4633000D02*
X16161000Y-4767000D01*
X16161000Y-4633000D02*
X16027000Y-4767000D01*
X16094000Y-4633000D02*
X16094000Y-4767000D01*
X16027000Y-4700000D02*
X16161000Y-4700000D01*
X16281000Y-4633000D02*
X16415000Y-4767000D01*
X16415000Y-4633000D02*
X16281000Y-4767000D01*
X16348000Y-4633000D02*
X16348000Y-4767000D01*
X16281000Y-4700000D02*
X16415000Y-4700000D01*
X17925000Y-4825000D02*
X18135000Y-5035000D01*
X18135000Y-4825000D02*
X17925000Y-5035000D01*
X18104247Y-5004247D02*
X18104247Y-4855753D01*
X17955753Y-4855753D01*
X17955753Y-5004247D01*
X18104247Y-5004247D01*
X17925000Y-6025000D02*
X18135000Y-6235000D01*
X18135000Y-6025000D02*
X17925000Y-6235000D01*
X18104247Y-6204247D02*
X18104247Y-6055753D01*
X17955753Y-6055753D01*
X17955753Y-6204247D01*
X18104247Y-6204247D01*
X17925000Y-7225000D02*
X18135000Y-7435000D01*
X18135000Y-7225000D02*
X17925000Y-7435000D01*
X18104247Y-7404247D02*
X18104247Y-7255753D01*
X17955753Y-7255753D01*
X17955753Y-7404247D01*
X18104247Y-7404247D01*
X17925000Y-8425000D02*
X18135000Y-8635000D01*
X18135000Y-8425000D02*
X17925000Y-8635000D01*
X18104247Y-8604247D02*
X18104247Y-8455753D01*
X17955753Y-8455753D01*
X17955753Y-8604247D01*
X18104247Y-8604247D01*
X18375000Y-4825000D02*
X18585000Y-5035000D01*
X18585000Y-4825000D02*
X18375000Y-5035000D01*
X18554247Y-5004247D02*
X18554247Y-4855753D01*
X18405753Y-4855753D01*
X18405753Y-5004247D01*
X18554247Y-5004247D01*
X18375000Y-6025000D02*
X18585000Y-6235000D01*
X18585000Y-6025000D02*
X18375000Y-6235000D01*
X18554247Y-6204247D02*
X18554247Y-6055753D01*
X18405753Y-6055753D01*
X18405753Y-6204247D01*
X18554247Y-6204247D01*
X18375000Y-7225000D02*
X18585000Y-7435000D01*
X18585000Y-7225000D02*
X18375000Y-7435000D01*
X18554247Y-7404247D02*
X18554247Y-7255753D01*
X18405753Y-7255753D01*
X18405753Y-7404247D01*
X18554247Y-7404247D01*
X18375000Y-8425000D02*
X18585000Y-8635000D01*
X18585000Y-8425000D02*
X18375000Y-8635000D01*
X18554247Y-8604247D02*
X18554247Y-8455753D01*
X18405753Y-8455753D01*
X18405753Y-8604247D01*
X18554247Y-8604247D01*
D13*
X10243929Y-10423214D02*
X10243929Y-10123214D01*
X10315357Y-10123214D01*
X10358214Y-10137500D01*
X10386786Y-10166072D01*
X10401071Y-10194643D01*
X10415357Y-10251786D01*
X10415357Y-10294643D01*
X10401071Y-10351786D01*
X10386786Y-10380357D01*
X10358214Y-10408929D01*
X10315357Y-10423214D01*
X10243929Y-10423214D01*
X10543929Y-10423214D02*
X10543929Y-10223214D01*
X10543929Y-10280357D02*
X10558214Y-10251786D01*
X10572500Y-10237500D01*
X10601071Y-10223214D01*
X10629643Y-10223214D01*
X10729643Y-10423214D02*
X10729643Y-10223214D01*
X10729643Y-10123214D02*
X10715357Y-10137500D01*
X10729643Y-10151786D01*
X10743929Y-10137500D01*
X10729643Y-10123214D01*
X10729643Y-10151786D01*
X10915357Y-10423214D02*
X10886786Y-10408929D01*
X10872500Y-10380357D01*
X10872500Y-10123214D01*
X11072500Y-10423214D02*
X11043929Y-10408929D01*
X11029643Y-10380357D01*
X11029643Y-10123214D01*
X11415357Y-10423214D02*
X11415357Y-10123214D01*
X11515357Y-10337500D01*
X11615357Y-10123214D01*
X11615357Y-10423214D01*
X11886786Y-10423214D02*
X11886786Y-10266072D01*
X11872500Y-10237500D01*
X11843928Y-10223214D01*
X11786786Y-10223214D01*
X11758214Y-10237500D01*
X11886786Y-10408929D02*
X11858214Y-10423214D01*
X11786786Y-10423214D01*
X11758214Y-10408929D01*
X11743928Y-10380357D01*
X11743928Y-10351786D01*
X11758214Y-10323214D01*
X11786786Y-10308929D01*
X11858214Y-10308929D01*
X11886786Y-10294643D01*
X12029643Y-10223214D02*
X12029643Y-10523214D01*
X12029643Y-10237500D02*
X12058214Y-10223214D01*
X12115357Y-10223214D01*
X12143928Y-10237500D01*
X12158214Y-10251786D01*
X12172500Y-10280357D01*
X12172500Y-10366072D01*
X12158214Y-10394643D01*
X12143928Y-10408929D01*
X12115357Y-10423214D01*
X12058214Y-10423214D01*
X12029643Y-10408929D01*
X12301071Y-10394643D02*
X12315357Y-10408929D01*
X12301071Y-10423214D01*
X12286786Y-10408929D01*
X12301071Y-10394643D01*
X12301071Y-10423214D01*
X12301071Y-10237500D02*
X12315357Y-10251786D01*
X12301071Y-10266072D01*
X12286786Y-10251786D01*
X12301071Y-10237500D01*
X12301071Y-10266072D01*
X9892500Y-10877500D02*
X9972500Y-10957500D01*
X9972500Y-10877500D02*
X9892500Y-10957500D01*
X10301071Y-10753214D02*
X10329643Y-10753214D01*
X10358214Y-10767500D01*
X10372500Y-10781786D01*
X10386786Y-10810357D01*
X10401071Y-10867500D01*
X10401071Y-10938929D01*
X10386786Y-10996072D01*
X10372500Y-11024643D01*
X10358214Y-11038929D01*
X10329643Y-11053214D01*
X10301071Y-11053214D01*
X10272500Y-11038929D01*
X10258214Y-11024643D01*
X10243929Y-10996072D01*
X10229643Y-10938929D01*
X10229643Y-10867500D01*
X10243929Y-10810357D01*
X10258214Y-10781786D01*
X10272500Y-10767500D01*
X10301071Y-10753214D01*
X10529643Y-11024643D02*
X10543929Y-11038929D01*
X10529643Y-11053214D01*
X10515357Y-11038929D01*
X10529643Y-11024643D01*
X10529643Y-11053214D01*
X10715357Y-10881786D02*
X10686786Y-10867500D01*
X10672500Y-10853214D01*
X10658214Y-10824643D01*
X10658214Y-10810357D01*
X10672500Y-10781786D01*
X10686786Y-10767500D01*
X10715357Y-10753214D01*
X10772500Y-10753214D01*
X10801071Y-10767500D01*
X10815357Y-10781786D01*
X10829643Y-10810357D01*
X10829643Y-10824643D01*
X10815357Y-10853214D01*
X10801071Y-10867500D01*
X10772500Y-10881786D01*
X10715357Y-10881786D01*
X10686786Y-10896072D01*
X10672500Y-10910357D01*
X10658214Y-10938929D01*
X10658214Y-10996072D01*
X10672500Y-11024643D01*
X10686786Y-11038929D01*
X10715357Y-11053214D01*
X10772500Y-11053214D01*
X10801071Y-11038929D01*
X10815357Y-11024643D01*
X10829643Y-10996072D01*
X10829643Y-10938929D01*
X10815357Y-10910357D01*
X10801071Y-10896072D01*
X10772500Y-10881786D01*
X11015357Y-10753214D02*
X11043929Y-10753214D01*
X11072500Y-10767500D01*
X11086786Y-10781786D01*
X11101071Y-10810357D01*
X11115357Y-10867500D01*
X11115357Y-10938929D01*
X11101071Y-10996072D01*
X11086786Y-11024643D01*
X11072500Y-11038929D01*
X11043929Y-11053214D01*
X11015357Y-11053214D01*
X10986786Y-11038929D01*
X10972500Y-11024643D01*
X10958214Y-10996072D01*
X10943929Y-10938929D01*
X10943929Y-10867500D01*
X10958214Y-10810357D01*
X10972500Y-10781786D01*
X10986786Y-10767500D01*
X11015357Y-10753214D01*
X11243928Y-11053214D02*
X11243928Y-10853214D01*
X11243928Y-10881786D02*
X11258214Y-10867500D01*
X11286786Y-10853214D01*
X11329643Y-10853214D01*
X11358214Y-10867500D01*
X11372500Y-10896072D01*
X11372500Y-11053214D01*
X11372500Y-10896072D02*
X11386786Y-10867500D01*
X11415357Y-10853214D01*
X11458214Y-10853214D01*
X11486786Y-10867500D01*
X11501071Y-10896072D01*
X11501071Y-11053214D01*
X11643928Y-11053214D02*
X11643928Y-10853214D01*
X11643928Y-10881786D02*
X11658214Y-10867500D01*
X11686786Y-10853214D01*
X11729643Y-10853214D01*
X11758214Y-10867500D01*
X11772500Y-10896072D01*
X11772500Y-11053214D01*
X11772500Y-10896072D02*
X11786786Y-10867500D01*
X11815357Y-10853214D01*
X11858214Y-10853214D01*
X11886786Y-10867500D01*
X11901071Y-10896072D01*
X11901071Y-11053214D01*
X12486786Y-10738929D02*
X12229643Y-11124643D01*
X12872500Y-10753214D02*
X12901071Y-10753214D01*
X12929643Y-10767500D01*
X12943928Y-10781786D01*
X12958214Y-10810357D01*
X12972500Y-10867500D01*
X12972500Y-10938929D01*
X12958214Y-10996072D01*
X12943928Y-11024643D01*
X12929643Y-11038929D01*
X12901071Y-11053214D01*
X12872500Y-11053214D01*
X12843928Y-11038929D01*
X12829643Y-11024643D01*
X12815357Y-10996072D01*
X12801071Y-10938929D01*
X12801071Y-10867500D01*
X12815357Y-10810357D01*
X12829643Y-10781786D01*
X12843928Y-10767500D01*
X12872500Y-10753214D01*
X13101071Y-11024643D02*
X13115357Y-11038929D01*
X13101071Y-11053214D01*
X13086786Y-11038929D01*
X13101071Y-11024643D01*
X13101071Y-11053214D01*
X13301071Y-10753214D02*
X13329643Y-10753214D01*
X13358214Y-10767500D01*
X13372500Y-10781786D01*
X13386785Y-10810357D01*
X13401071Y-10867500D01*
X13401071Y-10938929D01*
X13386785Y-10996072D01*
X13372500Y-11024643D01*
X13358214Y-11038929D01*
X13329643Y-11053214D01*
X13301071Y-11053214D01*
X13272500Y-11038929D01*
X13258214Y-11024643D01*
X13243928Y-10996072D01*
X13229643Y-10938929D01*
X13229643Y-10867500D01*
X13243928Y-10810357D01*
X13258214Y-10781786D01*
X13272500Y-10767500D01*
X13301071Y-10753214D01*
X13501071Y-10753214D02*
X13686785Y-10753214D01*
X13586785Y-10867500D01*
X13629643Y-10867500D01*
X13658214Y-10881786D01*
X13672500Y-10896072D01*
X13686785Y-10924643D01*
X13686785Y-10996072D01*
X13672500Y-11024643D01*
X13658214Y-11038929D01*
X13629643Y-11053214D01*
X13543928Y-11053214D01*
X13515357Y-11038929D01*
X13501071Y-11024643D01*
X13972500Y-11053214D02*
X13801071Y-11053214D01*
X13886785Y-11053214D02*
X13886785Y-10753214D01*
X13858214Y-10796072D01*
X13829643Y-10824643D01*
X13801071Y-10838929D01*
X14086786Y-10753214D02*
X14086786Y-10810357D01*
X14201071Y-10753214D02*
X14201071Y-10810357D01*
X14643928Y-11167500D02*
X14629643Y-11153214D01*
X14601071Y-11110357D01*
X14586785Y-11081786D01*
X14572500Y-11038929D01*
X14558214Y-10967500D01*
X14558214Y-10910357D01*
X14572500Y-10838929D01*
X14586785Y-10796072D01*
X14601071Y-10767500D01*
X14629643Y-10724643D01*
X14643928Y-10710357D01*
X14743928Y-10781786D02*
X14758214Y-10767500D01*
X14786785Y-10753214D01*
X14858214Y-10753214D01*
X14886785Y-10767500D01*
X14901071Y-10781786D01*
X14915357Y-10810357D01*
X14915357Y-10838929D01*
X14901071Y-10881786D01*
X14729643Y-11053214D01*
X14915357Y-11053214D01*
X15029643Y-10781786D02*
X15043928Y-10767500D01*
X15072500Y-10753214D01*
X15143928Y-10753214D01*
X15172500Y-10767500D01*
X15186785Y-10781786D01*
X15201071Y-10810357D01*
X15201071Y-10838929D01*
X15186785Y-10881786D01*
X15015357Y-11053214D01*
X15201071Y-11053214D01*
X15558214Y-11053214D02*
X15558214Y-10753214D01*
X15686785Y-11053214D02*
X15686785Y-10896072D01*
X15672500Y-10867500D01*
X15643928Y-10853214D01*
X15601071Y-10853214D01*
X15572500Y-10867500D01*
X15558214Y-10881786D01*
X15872500Y-11053214D02*
X15843928Y-11038929D01*
X15829643Y-11024643D01*
X15815357Y-10996072D01*
X15815357Y-10910357D01*
X15829643Y-10881786D01*
X15843928Y-10867500D01*
X15872500Y-10853214D01*
X15915357Y-10853214D01*
X15943928Y-10867500D01*
X15958214Y-10881786D01*
X15972500Y-10910357D01*
X15972500Y-10996072D01*
X15958214Y-11024643D01*
X15943928Y-11038929D01*
X15915357Y-11053214D01*
X15872500Y-11053214D01*
X16143928Y-11053214D02*
X16115357Y-11038929D01*
X16101071Y-11010357D01*
X16101071Y-10753214D01*
X16372500Y-11038929D02*
X16343928Y-11053214D01*
X16286786Y-11053214D01*
X16258214Y-11038929D01*
X16243928Y-11010357D01*
X16243928Y-10896072D01*
X16258214Y-10867500D01*
X16286786Y-10853214D01*
X16343928Y-10853214D01*
X16372500Y-10867500D01*
X16386786Y-10896072D01*
X16386786Y-10924643D01*
X16243928Y-10953214D01*
X16501071Y-11038929D02*
X16529643Y-11053214D01*
X16586786Y-11053214D01*
X16615357Y-11038929D01*
X16629643Y-11010357D01*
X16629643Y-10996072D01*
X16615357Y-10967500D01*
X16586786Y-10953214D01*
X16543928Y-10953214D01*
X16515357Y-10938929D01*
X16501071Y-10910357D01*
X16501071Y-10896072D01*
X16515357Y-10867500D01*
X16543928Y-10853214D01*
X16586786Y-10853214D01*
X16615357Y-10867500D01*
X16729643Y-11167500D02*
X16743928Y-11153214D01*
X16772500Y-11110357D01*
X16786786Y-11081786D01*
X16801071Y-11038929D01*
X16815357Y-10967500D01*
X16815357Y-10910357D01*
X16801071Y-10838929D01*
X16786786Y-10796072D01*
X16772500Y-10767500D01*
X16743928Y-10724643D01*
X16729643Y-10710357D01*
X9972500Y-11313500D02*
G75*
G03X9972500Y-11313500I-50000J0D01*
G01*
X10401071Y-11449214D02*
X10229643Y-11449214D01*
X10315357Y-11449214D02*
X10315357Y-11149214D01*
X10286786Y-11192071D01*
X10258214Y-11220643D01*
X10229643Y-11234929D01*
X10529643Y-11420643D02*
X10543929Y-11434929D01*
X10529643Y-11449214D01*
X10515357Y-11434929D01*
X10529643Y-11420643D01*
X10529643Y-11449214D01*
X10729643Y-11149214D02*
X10758214Y-11149214D01*
X10786786Y-11163500D01*
X10801071Y-11177786D01*
X10815357Y-11206357D01*
X10829643Y-11263500D01*
X10829643Y-11334929D01*
X10815357Y-11392071D01*
X10801071Y-11420643D01*
X10786786Y-11434929D01*
X10758214Y-11449214D01*
X10729643Y-11449214D01*
X10701071Y-11434929D01*
X10686786Y-11420643D01*
X10672500Y-11392071D01*
X10658214Y-11334929D01*
X10658214Y-11263500D01*
X10672500Y-11206357D01*
X10686786Y-11177786D01*
X10701071Y-11163500D01*
X10729643Y-11149214D01*
X11015357Y-11149214D02*
X11043929Y-11149214D01*
X11072500Y-11163500D01*
X11086786Y-11177786D01*
X11101071Y-11206357D01*
X11115357Y-11263500D01*
X11115357Y-11334929D01*
X11101071Y-11392071D01*
X11086786Y-11420643D01*
X11072500Y-11434929D01*
X11043929Y-11449214D01*
X11015357Y-11449214D01*
X10986786Y-11434929D01*
X10972500Y-11420643D01*
X10958214Y-11392071D01*
X10943929Y-11334929D01*
X10943929Y-11263500D01*
X10958214Y-11206357D01*
X10972500Y-11177786D01*
X10986786Y-11163500D01*
X11015357Y-11149214D01*
X11243928Y-11449214D02*
X11243928Y-11249214D01*
X11243928Y-11277786D02*
X11258214Y-11263500D01*
X11286786Y-11249214D01*
X11329643Y-11249214D01*
X11358214Y-11263500D01*
X11372500Y-11292071D01*
X11372500Y-11449214D01*
X11372500Y-11292071D02*
X11386786Y-11263500D01*
X11415357Y-11249214D01*
X11458214Y-11249214D01*
X11486786Y-11263500D01*
X11501071Y-11292071D01*
X11501071Y-11449214D01*
X11643928Y-11449214D02*
X11643928Y-11249214D01*
X11643928Y-11277786D02*
X11658214Y-11263500D01*
X11686786Y-11249214D01*
X11729643Y-11249214D01*
X11758214Y-11263500D01*
X11772500Y-11292071D01*
X11772500Y-11449214D01*
X11772500Y-11292071D02*
X11786786Y-11263500D01*
X11815357Y-11249214D01*
X11858214Y-11249214D01*
X11886786Y-11263500D01*
X11901071Y-11292071D01*
X11901071Y-11449214D01*
X12486786Y-11134929D02*
X12229643Y-11520643D01*
X12872500Y-11149214D02*
X12901071Y-11149214D01*
X12929643Y-11163500D01*
X12943928Y-11177786D01*
X12958214Y-11206357D01*
X12972500Y-11263500D01*
X12972500Y-11334929D01*
X12958214Y-11392071D01*
X12943928Y-11420643D01*
X12929643Y-11434929D01*
X12901071Y-11449214D01*
X12872500Y-11449214D01*
X12843928Y-11434929D01*
X12829643Y-11420643D01*
X12815357Y-11392071D01*
X12801071Y-11334929D01*
X12801071Y-11263500D01*
X12815357Y-11206357D01*
X12829643Y-11177786D01*
X12843928Y-11163500D01*
X12872500Y-11149214D01*
X13101071Y-11420643D02*
X13115357Y-11434929D01*
X13101071Y-11449214D01*
X13086786Y-11434929D01*
X13101071Y-11420643D01*
X13101071Y-11449214D01*
X13301071Y-11149214D02*
X13329643Y-11149214D01*
X13358214Y-11163500D01*
X13372500Y-11177786D01*
X13386785Y-11206357D01*
X13401071Y-11263500D01*
X13401071Y-11334929D01*
X13386785Y-11392071D01*
X13372500Y-11420643D01*
X13358214Y-11434929D01*
X13329643Y-11449214D01*
X13301071Y-11449214D01*
X13272500Y-11434929D01*
X13258214Y-11420643D01*
X13243928Y-11392071D01*
X13229643Y-11334929D01*
X13229643Y-11263500D01*
X13243928Y-11206357D01*
X13258214Y-11177786D01*
X13272500Y-11163500D01*
X13301071Y-11149214D01*
X13501071Y-11149214D02*
X13686785Y-11149214D01*
X13586785Y-11263500D01*
X13629643Y-11263500D01*
X13658214Y-11277786D01*
X13672500Y-11292071D01*
X13686785Y-11320643D01*
X13686785Y-11392071D01*
X13672500Y-11420643D01*
X13658214Y-11434929D01*
X13629643Y-11449214D01*
X13543928Y-11449214D01*
X13515357Y-11434929D01*
X13501071Y-11420643D01*
X13829643Y-11449214D02*
X13886785Y-11449214D01*
X13915357Y-11434929D01*
X13929643Y-11420643D01*
X13958214Y-11377786D01*
X13972500Y-11320643D01*
X13972500Y-11206357D01*
X13958214Y-11177786D01*
X13943928Y-11163500D01*
X13915357Y-11149214D01*
X13858214Y-11149214D01*
X13829643Y-11163500D01*
X13815357Y-11177786D01*
X13801071Y-11206357D01*
X13801071Y-11277786D01*
X13815357Y-11306357D01*
X13829643Y-11320643D01*
X13858214Y-11334929D01*
X13915357Y-11334929D01*
X13943928Y-11320643D01*
X13958214Y-11306357D01*
X13972500Y-11277786D01*
X14086786Y-11149214D02*
X14086786Y-11206357D01*
X14201071Y-11149214D02*
X14201071Y-11206357D01*
X14643928Y-11563500D02*
X14629643Y-11549214D01*
X14601071Y-11506357D01*
X14586785Y-11477786D01*
X14572500Y-11434929D01*
X14558214Y-11363500D01*
X14558214Y-11306357D01*
X14572500Y-11234929D01*
X14586785Y-11192071D01*
X14601071Y-11163500D01*
X14629643Y-11120643D01*
X14643928Y-11106357D01*
X14729643Y-11149214D02*
X14915357Y-11149214D01*
X14815357Y-11263500D01*
X14858214Y-11263500D01*
X14886785Y-11277786D01*
X14901071Y-11292071D01*
X14915357Y-11320643D01*
X14915357Y-11392071D01*
X14901071Y-11420643D01*
X14886785Y-11434929D01*
X14858214Y-11449214D01*
X14772500Y-11449214D01*
X14743928Y-11434929D01*
X14729643Y-11420643D01*
X15029643Y-11177786D02*
X15043928Y-11163500D01*
X15072500Y-11149214D01*
X15143928Y-11149214D01*
X15172500Y-11163500D01*
X15186785Y-11177786D01*
X15201071Y-11206357D01*
X15201071Y-11234929D01*
X15186785Y-11277786D01*
X15015357Y-11449214D01*
X15201071Y-11449214D01*
X15558214Y-11449214D02*
X15558214Y-11149214D01*
X15686785Y-11449214D02*
X15686785Y-11292071D01*
X15672500Y-11263500D01*
X15643928Y-11249214D01*
X15601071Y-11249214D01*
X15572500Y-11263500D01*
X15558214Y-11277786D01*
X15872500Y-11449214D02*
X15843928Y-11434929D01*
X15829643Y-11420643D01*
X15815357Y-11392071D01*
X15815357Y-11306357D01*
X15829643Y-11277786D01*
X15843928Y-11263500D01*
X15872500Y-11249214D01*
X15915357Y-11249214D01*
X15943928Y-11263500D01*
X15958214Y-11277786D01*
X15972500Y-11306357D01*
X15972500Y-11392071D01*
X15958214Y-11420643D01*
X15943928Y-11434929D01*
X15915357Y-11449214D01*
X15872500Y-11449214D01*
X16143928Y-11449214D02*
X16115357Y-11434929D01*
X16101071Y-11406357D01*
X16101071Y-11149214D01*
X16372500Y-11434929D02*
X16343928Y-11449214D01*
X16286786Y-11449214D01*
X16258214Y-11434929D01*
X16243928Y-11406357D01*
X16243928Y-11292071D01*
X16258214Y-11263500D01*
X16286786Y-11249214D01*
X16343928Y-11249214D01*
X16372500Y-11263500D01*
X16386786Y-11292071D01*
X16386786Y-11320643D01*
X16243928Y-11349214D01*
X16501071Y-11434929D02*
X16529643Y-11449214D01*
X16586786Y-11449214D01*
X16615357Y-11434929D01*
X16629643Y-11406357D01*
X16629643Y-11392071D01*
X16615357Y-11363500D01*
X16586786Y-11349214D01*
X16543928Y-11349214D01*
X16515357Y-11334929D01*
X16501071Y-11306357D01*
X16501071Y-11292071D01*
X16515357Y-11263500D01*
X16543928Y-11249214D01*
X16586786Y-11249214D01*
X16615357Y-11263500D01*
X16729643Y-11563500D02*
X16743928Y-11549214D01*
X16772500Y-11506357D01*
X16786786Y-11477786D01*
X16801071Y-11434929D01*
X16815357Y-11363500D01*
X16815357Y-11306357D01*
X16801071Y-11234929D01*
X16786786Y-11192071D01*
X16772500Y-11163500D01*
X16743928Y-11120643D01*
X16729643Y-11106357D01*
X9922462Y-11659462D02*
X9922462Y-11759538D01*
X9872424Y-11709500D02*
X9972500Y-11709500D01*
X10401071Y-11845214D02*
X10229643Y-11845214D01*
X10315357Y-11845214D02*
X10315357Y-11545214D01*
X10286786Y-11588071D01*
X10258214Y-11616643D01*
X10229643Y-11630929D01*
X10529643Y-11816643D02*
X10543929Y-11830929D01*
X10529643Y-11845214D01*
X10515357Y-11830929D01*
X10529643Y-11816643D01*
X10529643Y-11845214D01*
X10729643Y-11545214D02*
X10758214Y-11545214D01*
X10786786Y-11559500D01*
X10801071Y-11573786D01*
X10815357Y-11602357D01*
X10829643Y-11659500D01*
X10829643Y-11730929D01*
X10815357Y-11788071D01*
X10801071Y-11816643D01*
X10786786Y-11830929D01*
X10758214Y-11845214D01*
X10729643Y-11845214D01*
X10701071Y-11830929D01*
X10686786Y-11816643D01*
X10672500Y-11788071D01*
X10658214Y-11730929D01*
X10658214Y-11659500D01*
X10672500Y-11602357D01*
X10686786Y-11573786D01*
X10701071Y-11559500D01*
X10729643Y-11545214D01*
X11015357Y-11545214D02*
X11043929Y-11545214D01*
X11072500Y-11559500D01*
X11086786Y-11573786D01*
X11101071Y-11602357D01*
X11115357Y-11659500D01*
X11115357Y-11730929D01*
X11101071Y-11788071D01*
X11086786Y-11816643D01*
X11072500Y-11830929D01*
X11043929Y-11845214D01*
X11015357Y-11845214D01*
X10986786Y-11830929D01*
X10972500Y-11816643D01*
X10958214Y-11788071D01*
X10943929Y-11730929D01*
X10943929Y-11659500D01*
X10958214Y-11602357D01*
X10972500Y-11573786D01*
X10986786Y-11559500D01*
X11015357Y-11545214D01*
X11243928Y-11845214D02*
X11243928Y-11645214D01*
X11243928Y-11673786D02*
X11258214Y-11659500D01*
X11286786Y-11645214D01*
X11329643Y-11645214D01*
X11358214Y-11659500D01*
X11372500Y-11688071D01*
X11372500Y-11845214D01*
X11372500Y-11688071D02*
X11386786Y-11659500D01*
X11415357Y-11645214D01*
X11458214Y-11645214D01*
X11486786Y-11659500D01*
X11501071Y-11688071D01*
X11501071Y-11845214D01*
X11643928Y-11845214D02*
X11643928Y-11645214D01*
X11643928Y-11673786D02*
X11658214Y-11659500D01*
X11686786Y-11645214D01*
X11729643Y-11645214D01*
X11758214Y-11659500D01*
X11772500Y-11688071D01*
X11772500Y-11845214D01*
X11772500Y-11688071D02*
X11786786Y-11659500D01*
X11815357Y-11645214D01*
X11858214Y-11645214D01*
X11886786Y-11659500D01*
X11901071Y-11688071D01*
X11901071Y-11845214D01*
X12486786Y-11530929D02*
X12229643Y-11916643D01*
X12872500Y-11545214D02*
X12901071Y-11545214D01*
X12929643Y-11559500D01*
X12943928Y-11573786D01*
X12958214Y-11602357D01*
X12972500Y-11659500D01*
X12972500Y-11730929D01*
X12958214Y-11788071D01*
X12943928Y-11816643D01*
X12929643Y-11830929D01*
X12901071Y-11845214D01*
X12872500Y-11845214D01*
X12843928Y-11830929D01*
X12829643Y-11816643D01*
X12815357Y-11788071D01*
X12801071Y-11730929D01*
X12801071Y-11659500D01*
X12815357Y-11602357D01*
X12829643Y-11573786D01*
X12843928Y-11559500D01*
X12872500Y-11545214D01*
X13101071Y-11816643D02*
X13115357Y-11830929D01*
X13101071Y-11845214D01*
X13086786Y-11830929D01*
X13101071Y-11816643D01*
X13101071Y-11845214D01*
X13301071Y-11545214D02*
X13329643Y-11545214D01*
X13358214Y-11559500D01*
X13372500Y-11573786D01*
X13386785Y-11602357D01*
X13401071Y-11659500D01*
X13401071Y-11730929D01*
X13386785Y-11788071D01*
X13372500Y-11816643D01*
X13358214Y-11830929D01*
X13329643Y-11845214D01*
X13301071Y-11845214D01*
X13272500Y-11830929D01*
X13258214Y-11816643D01*
X13243928Y-11788071D01*
X13229643Y-11730929D01*
X13229643Y-11659500D01*
X13243928Y-11602357D01*
X13258214Y-11573786D01*
X13272500Y-11559500D01*
X13301071Y-11545214D01*
X13501071Y-11545214D02*
X13686785Y-11545214D01*
X13586785Y-11659500D01*
X13629643Y-11659500D01*
X13658214Y-11673786D01*
X13672500Y-11688071D01*
X13686785Y-11716643D01*
X13686785Y-11788071D01*
X13672500Y-11816643D01*
X13658214Y-11830929D01*
X13629643Y-11845214D01*
X13543928Y-11845214D01*
X13515357Y-11830929D01*
X13501071Y-11816643D01*
X13829643Y-11845214D02*
X13886785Y-11845214D01*
X13915357Y-11830929D01*
X13929643Y-11816643D01*
X13958214Y-11773786D01*
X13972500Y-11716643D01*
X13972500Y-11602357D01*
X13958214Y-11573786D01*
X13943928Y-11559500D01*
X13915357Y-11545214D01*
X13858214Y-11545214D01*
X13829643Y-11559500D01*
X13815357Y-11573786D01*
X13801071Y-11602357D01*
X13801071Y-11673786D01*
X13815357Y-11702357D01*
X13829643Y-11716643D01*
X13858214Y-11730929D01*
X13915357Y-11730929D01*
X13943928Y-11716643D01*
X13958214Y-11702357D01*
X13972500Y-11673786D01*
X14086786Y-11545214D02*
X14086786Y-11602357D01*
X14201071Y-11545214D02*
X14201071Y-11602357D01*
X14643928Y-11959500D02*
X14629643Y-11945214D01*
X14601071Y-11902357D01*
X14586785Y-11873786D01*
X14572500Y-11830929D01*
X14558214Y-11759500D01*
X14558214Y-11702357D01*
X14572500Y-11630929D01*
X14586785Y-11588071D01*
X14601071Y-11559500D01*
X14629643Y-11516643D01*
X14643928Y-11502357D01*
X14915357Y-11845214D02*
X14743928Y-11845214D01*
X14829643Y-11845214D02*
X14829643Y-11545214D01*
X14801071Y-11588071D01*
X14772500Y-11616643D01*
X14743928Y-11630929D01*
X15101071Y-11545214D02*
X15129643Y-11545214D01*
X15158214Y-11559500D01*
X15172500Y-11573786D01*
X15186785Y-11602357D01*
X15201071Y-11659500D01*
X15201071Y-11730929D01*
X15186785Y-11788071D01*
X15172500Y-11816643D01*
X15158214Y-11830929D01*
X15129643Y-11845214D01*
X15101071Y-11845214D01*
X15072500Y-11830929D01*
X15058214Y-11816643D01*
X15043928Y-11788071D01*
X15029643Y-11730929D01*
X15029643Y-11659500D01*
X15043928Y-11602357D01*
X15058214Y-11573786D01*
X15072500Y-11559500D01*
X15101071Y-11545214D01*
X15558214Y-11845214D02*
X15558214Y-11545214D01*
X15686785Y-11845214D02*
X15686785Y-11688071D01*
X15672500Y-11659500D01*
X15643928Y-11645214D01*
X15601071Y-11645214D01*
X15572500Y-11659500D01*
X15558214Y-11673786D01*
X15872500Y-11845214D02*
X15843928Y-11830929D01*
X15829643Y-11816643D01*
X15815357Y-11788071D01*
X15815357Y-11702357D01*
X15829643Y-11673786D01*
X15843928Y-11659500D01*
X15872500Y-11645214D01*
X15915357Y-11645214D01*
X15943928Y-11659500D01*
X15958214Y-11673786D01*
X15972500Y-11702357D01*
X15972500Y-11788071D01*
X15958214Y-11816643D01*
X15943928Y-11830929D01*
X15915357Y-11845214D01*
X15872500Y-11845214D01*
X16143928Y-11845214D02*
X16115357Y-11830929D01*
X16101071Y-11802357D01*
X16101071Y-11545214D01*
X16372500Y-11830929D02*
X16343928Y-11845214D01*
X16286786Y-11845214D01*
X16258214Y-11830929D01*
X16243928Y-11802357D01*
X16243928Y-11688071D01*
X16258214Y-11659500D01*
X16286786Y-11645214D01*
X16343928Y-11645214D01*
X16372500Y-11659500D01*
X16386786Y-11688071D01*
X16386786Y-11716643D01*
X16243928Y-11745214D01*
X16501071Y-11830929D02*
X16529643Y-11845214D01*
X16586786Y-11845214D01*
X16615357Y-11830929D01*
X16629643Y-11802357D01*
X16629643Y-11788071D01*
X16615357Y-11759500D01*
X16586786Y-11745214D01*
X16543928Y-11745214D01*
X16515357Y-11730929D01*
X16501071Y-11702357D01*
X16501071Y-11688071D01*
X16515357Y-11659500D01*
X16543928Y-11645214D01*
X16586786Y-11645214D01*
X16615357Y-11659500D01*
X16729643Y-11959500D02*
X16743928Y-11945214D01*
X16772500Y-11902357D01*
X16786786Y-11873786D01*
X16801071Y-11830929D01*
X16815357Y-11759500D01*
X16815357Y-11702357D01*
X16801071Y-11630929D01*
X16786786Y-11588071D01*
X16772500Y-11559500D01*
X16743928Y-11516643D01*
X16729643Y-11502357D01*
X9956391Y-12144391D02*
X9956391Y-12066609D01*
X9878609Y-12066609D01*
X9878609Y-12144391D01*
X9956391Y-12144391D01*
X10401071Y-12241214D02*
X10229643Y-12241214D01*
X10315357Y-12241214D02*
X10315357Y-11941214D01*
X10286786Y-11984071D01*
X10258214Y-12012643D01*
X10229643Y-12026929D01*
X10529643Y-12212643D02*
X10543929Y-12226929D01*
X10529643Y-12241214D01*
X10515357Y-12226929D01*
X10529643Y-12212643D01*
X10529643Y-12241214D01*
X10829643Y-12241214D02*
X10658214Y-12241214D01*
X10743928Y-12241214D02*
X10743928Y-11941214D01*
X10715357Y-11984071D01*
X10686786Y-12012643D01*
X10658214Y-12026929D01*
X11015357Y-11941214D02*
X11043929Y-11941214D01*
X11072500Y-11955500D01*
X11086786Y-11969786D01*
X11101071Y-11998357D01*
X11115357Y-12055500D01*
X11115357Y-12126929D01*
X11101071Y-12184071D01*
X11086786Y-12212643D01*
X11072500Y-12226929D01*
X11043929Y-12241214D01*
X11015357Y-12241214D01*
X10986786Y-12226929D01*
X10972500Y-12212643D01*
X10958214Y-12184071D01*
X10943929Y-12126929D01*
X10943929Y-12055500D01*
X10958214Y-11998357D01*
X10972500Y-11969786D01*
X10986786Y-11955500D01*
X11015357Y-11941214D01*
X11243928Y-12241214D02*
X11243928Y-12041214D01*
X11243928Y-12069786D02*
X11258214Y-12055500D01*
X11286786Y-12041214D01*
X11329643Y-12041214D01*
X11358214Y-12055500D01*
X11372500Y-12084071D01*
X11372500Y-12241214D01*
X11372500Y-12084071D02*
X11386786Y-12055500D01*
X11415357Y-12041214D01*
X11458214Y-12041214D01*
X11486786Y-12055500D01*
X11501071Y-12084071D01*
X11501071Y-12241214D01*
X11643928Y-12241214D02*
X11643928Y-12041214D01*
X11643928Y-12069786D02*
X11658214Y-12055500D01*
X11686786Y-12041214D01*
X11729643Y-12041214D01*
X11758214Y-12055500D01*
X11772500Y-12084071D01*
X11772500Y-12241214D01*
X11772500Y-12084071D02*
X11786786Y-12055500D01*
X11815357Y-12041214D01*
X11858214Y-12041214D01*
X11886786Y-12055500D01*
X11901071Y-12084071D01*
X11901071Y-12241214D01*
X12486786Y-11926929D02*
X12229643Y-12312643D01*
X12872500Y-11941214D02*
X12901071Y-11941214D01*
X12929643Y-11955500D01*
X12943928Y-11969786D01*
X12958214Y-11998357D01*
X12972500Y-12055500D01*
X12972500Y-12126929D01*
X12958214Y-12184071D01*
X12943928Y-12212643D01*
X12929643Y-12226929D01*
X12901071Y-12241214D01*
X12872500Y-12241214D01*
X12843928Y-12226929D01*
X12829643Y-12212643D01*
X12815357Y-12184071D01*
X12801071Y-12126929D01*
X12801071Y-12055500D01*
X12815357Y-11998357D01*
X12829643Y-11969786D01*
X12843928Y-11955500D01*
X12872500Y-11941214D01*
X13101071Y-12212643D02*
X13115357Y-12226929D01*
X13101071Y-12241214D01*
X13086786Y-12226929D01*
X13101071Y-12212643D01*
X13101071Y-12241214D01*
X13301071Y-11941214D02*
X13329643Y-11941214D01*
X13358214Y-11955500D01*
X13372500Y-11969786D01*
X13386785Y-11998357D01*
X13401071Y-12055500D01*
X13401071Y-12126929D01*
X13386785Y-12184071D01*
X13372500Y-12212643D01*
X13358214Y-12226929D01*
X13329643Y-12241214D01*
X13301071Y-12241214D01*
X13272500Y-12226929D01*
X13258214Y-12212643D01*
X13243928Y-12184071D01*
X13229643Y-12126929D01*
X13229643Y-12055500D01*
X13243928Y-11998357D01*
X13258214Y-11969786D01*
X13272500Y-11955500D01*
X13301071Y-11941214D01*
X13658214Y-12041214D02*
X13658214Y-12241214D01*
X13586785Y-11926929D02*
X13515357Y-12141214D01*
X13701071Y-12141214D01*
X13786785Y-11941214D02*
X13972500Y-11941214D01*
X13872500Y-12055500D01*
X13915357Y-12055500D01*
X13943928Y-12069786D01*
X13958214Y-12084071D01*
X13972500Y-12112643D01*
X13972500Y-12184071D01*
X13958214Y-12212643D01*
X13943928Y-12226929D01*
X13915357Y-12241214D01*
X13829643Y-12241214D01*
X13801071Y-12226929D01*
X13786785Y-12212643D01*
X14086786Y-11941214D02*
X14086786Y-11998357D01*
X14201071Y-11941214D02*
X14201071Y-11998357D01*
X14643928Y-12355500D02*
X14629643Y-12341214D01*
X14601071Y-12298357D01*
X14586785Y-12269786D01*
X14572500Y-12226929D01*
X14558214Y-12155500D01*
X14558214Y-12098357D01*
X14572500Y-12026929D01*
X14586785Y-11984071D01*
X14601071Y-11955500D01*
X14629643Y-11912643D01*
X14643928Y-11898357D01*
X14886785Y-12041214D02*
X14886785Y-12241214D01*
X14815357Y-11926929D02*
X14743928Y-12141214D01*
X14929643Y-12141214D01*
X15272500Y-12241214D02*
X15272500Y-11941214D01*
X15401071Y-12241214D02*
X15401071Y-12084071D01*
X15386785Y-12055500D01*
X15358214Y-12041214D01*
X15315357Y-12041214D01*
X15286785Y-12055500D01*
X15272500Y-12069786D01*
X15586785Y-12241214D02*
X15558214Y-12226929D01*
X15543928Y-12212643D01*
X15529643Y-12184071D01*
X15529643Y-12098357D01*
X15543928Y-12069786D01*
X15558214Y-12055500D01*
X15586785Y-12041214D01*
X15629643Y-12041214D01*
X15658214Y-12055500D01*
X15672500Y-12069786D01*
X15686785Y-12098357D01*
X15686785Y-12184071D01*
X15672500Y-12212643D01*
X15658214Y-12226929D01*
X15629643Y-12241214D01*
X15586785Y-12241214D01*
X15858214Y-12241214D02*
X15829643Y-12226929D01*
X15815357Y-12198357D01*
X15815357Y-11941214D01*
X16086786Y-12226929D02*
X16058214Y-12241214D01*
X16001071Y-12241214D01*
X15972500Y-12226929D01*
X15958214Y-12198357D01*
X15958214Y-12084071D01*
X15972500Y-12055500D01*
X16001071Y-12041214D01*
X16058214Y-12041214D01*
X16086786Y-12055500D01*
X16101071Y-12084071D01*
X16101071Y-12112643D01*
X15958214Y-12141214D01*
X16215357Y-12226929D02*
X16243928Y-12241214D01*
X16301071Y-12241214D01*
X16329643Y-12226929D01*
X16343928Y-12198357D01*
X16343928Y-12184071D01*
X16329643Y-12155500D01*
X16301071Y-12141214D01*
X16258214Y-12141214D01*
X16229643Y-12126929D01*
X16215357Y-12098357D01*
X16215357Y-12084071D01*
X16229643Y-12055500D01*
X16258214Y-12041214D01*
X16301071Y-12041214D01*
X16329643Y-12055500D01*
X16443928Y-12355500D02*
X16458214Y-12341214D01*
X16486786Y-12298357D01*
X16501071Y-12269786D01*
X16515357Y-12226929D01*
X16529643Y-12155500D01*
X16529643Y-12098357D01*
X16515357Y-12026929D01*
X16501071Y-11984071D01*
X16486786Y-11955500D01*
X16458214Y-11912643D01*
X16443928Y-11898357D01*
X9912500Y-12561500D02*
X9972500Y-12501500D01*
X9912500Y-12441500D01*
X9852500Y-12501500D01*
X9912500Y-12561500D01*
X10401071Y-12637214D02*
X10229643Y-12637214D01*
X10315357Y-12637214D02*
X10315357Y-12337214D01*
X10286786Y-12380071D01*
X10258214Y-12408643D01*
X10229643Y-12422929D01*
X10529643Y-12608643D02*
X10543929Y-12622929D01*
X10529643Y-12637214D01*
X10515357Y-12622929D01*
X10529643Y-12608643D01*
X10529643Y-12637214D01*
X10658214Y-12365786D02*
X10672500Y-12351500D01*
X10701071Y-12337214D01*
X10772500Y-12337214D01*
X10801071Y-12351500D01*
X10815357Y-12365786D01*
X10829643Y-12394357D01*
X10829643Y-12422929D01*
X10815357Y-12465786D01*
X10643928Y-12637214D01*
X10829643Y-12637214D01*
X11015357Y-12337214D02*
X11043929Y-12337214D01*
X11072500Y-12351500D01*
X11086786Y-12365786D01*
X11101071Y-12394357D01*
X11115357Y-12451500D01*
X11115357Y-12522929D01*
X11101071Y-12580071D01*
X11086786Y-12608643D01*
X11072500Y-12622929D01*
X11043929Y-12637214D01*
X11015357Y-12637214D01*
X10986786Y-12622929D01*
X10972500Y-12608643D01*
X10958214Y-12580071D01*
X10943929Y-12522929D01*
X10943929Y-12451500D01*
X10958214Y-12394357D01*
X10972500Y-12365786D01*
X10986786Y-12351500D01*
X11015357Y-12337214D01*
X11243928Y-12637214D02*
X11243928Y-12437214D01*
X11243928Y-12465786D02*
X11258214Y-12451500D01*
X11286786Y-12437214D01*
X11329643Y-12437214D01*
X11358214Y-12451500D01*
X11372500Y-12480071D01*
X11372500Y-12637214D01*
X11372500Y-12480071D02*
X11386786Y-12451500D01*
X11415357Y-12437214D01*
X11458214Y-12437214D01*
X11486786Y-12451500D01*
X11501071Y-12480071D01*
X11501071Y-12637214D01*
X11643928Y-12637214D02*
X11643928Y-12437214D01*
X11643928Y-12465786D02*
X11658214Y-12451500D01*
X11686786Y-12437214D01*
X11729643Y-12437214D01*
X11758214Y-12451500D01*
X11772500Y-12480071D01*
X11772500Y-12637214D01*
X11772500Y-12480071D02*
X11786786Y-12451500D01*
X11815357Y-12437214D01*
X11858214Y-12437214D01*
X11886786Y-12451500D01*
X11901071Y-12480071D01*
X11901071Y-12637214D01*
X12486786Y-12322929D02*
X12229643Y-12708643D01*
X12872500Y-12337214D02*
X12901071Y-12337214D01*
X12929643Y-12351500D01*
X12943928Y-12365786D01*
X12958214Y-12394357D01*
X12972500Y-12451500D01*
X12972500Y-12522929D01*
X12958214Y-12580071D01*
X12943928Y-12608643D01*
X12929643Y-12622929D01*
X12901071Y-12637214D01*
X12872500Y-12637214D01*
X12843928Y-12622929D01*
X12829643Y-12608643D01*
X12815357Y-12580071D01*
X12801071Y-12522929D01*
X12801071Y-12451500D01*
X12815357Y-12394357D01*
X12829643Y-12365786D01*
X12843928Y-12351500D01*
X12872500Y-12337214D01*
X13101071Y-12608643D02*
X13115357Y-12622929D01*
X13101071Y-12637214D01*
X13086786Y-12622929D01*
X13101071Y-12608643D01*
X13101071Y-12637214D01*
X13301071Y-12337214D02*
X13329643Y-12337214D01*
X13358214Y-12351500D01*
X13372500Y-12365786D01*
X13386785Y-12394357D01*
X13401071Y-12451500D01*
X13401071Y-12522929D01*
X13386785Y-12580071D01*
X13372500Y-12608643D01*
X13358214Y-12622929D01*
X13329643Y-12637214D01*
X13301071Y-12637214D01*
X13272500Y-12622929D01*
X13258214Y-12608643D01*
X13243928Y-12580071D01*
X13229643Y-12522929D01*
X13229643Y-12451500D01*
X13243928Y-12394357D01*
X13258214Y-12365786D01*
X13272500Y-12351500D01*
X13301071Y-12337214D01*
X13658214Y-12437214D02*
X13658214Y-12637214D01*
X13586785Y-12322929D02*
X13515357Y-12537214D01*
X13701071Y-12537214D01*
X13786785Y-12337214D02*
X13986785Y-12337214D01*
X13858214Y-12637214D01*
X14086786Y-12337214D02*
X14086786Y-12394357D01*
X14201071Y-12337214D02*
X14201071Y-12394357D01*
X14643928Y-12751500D02*
X14629643Y-12737214D01*
X14601071Y-12694357D01*
X14586785Y-12665786D01*
X14572500Y-12622929D01*
X14558214Y-12551500D01*
X14558214Y-12494357D01*
X14572500Y-12422929D01*
X14586785Y-12380071D01*
X14601071Y-12351500D01*
X14629643Y-12308643D01*
X14643928Y-12294357D01*
X14801071Y-12465786D02*
X14772500Y-12451500D01*
X14758214Y-12437214D01*
X14743928Y-12408643D01*
X14743928Y-12394357D01*
X14758214Y-12365786D01*
X14772500Y-12351500D01*
X14801071Y-12337214D01*
X14858214Y-12337214D01*
X14886785Y-12351500D01*
X14901071Y-12365786D01*
X14915357Y-12394357D01*
X14915357Y-12408643D01*
X14901071Y-12437214D01*
X14886785Y-12451500D01*
X14858214Y-12465786D01*
X14801071Y-12465786D01*
X14772500Y-12480071D01*
X14758214Y-12494357D01*
X14743928Y-12522929D01*
X14743928Y-12580071D01*
X14758214Y-12608643D01*
X14772500Y-12622929D01*
X14801071Y-12637214D01*
X14858214Y-12637214D01*
X14886785Y-12622929D01*
X14901071Y-12608643D01*
X14915357Y-12580071D01*
X14915357Y-12522929D01*
X14901071Y-12494357D01*
X14886785Y-12480071D01*
X14858214Y-12465786D01*
X15272500Y-12637214D02*
X15272500Y-12337214D01*
X15401071Y-12637214D02*
X15401071Y-12480071D01*
X15386785Y-12451500D01*
X15358214Y-12437214D01*
X15315357Y-12437214D01*
X15286785Y-12451500D01*
X15272500Y-12465786D01*
X15586785Y-12637214D02*
X15558214Y-12622929D01*
X15543928Y-12608643D01*
X15529643Y-12580071D01*
X15529643Y-12494357D01*
X15543928Y-12465786D01*
X15558214Y-12451500D01*
X15586785Y-12437214D01*
X15629643Y-12437214D01*
X15658214Y-12451500D01*
X15672500Y-12465786D01*
X15686785Y-12494357D01*
X15686785Y-12580071D01*
X15672500Y-12608643D01*
X15658214Y-12622929D01*
X15629643Y-12637214D01*
X15586785Y-12637214D01*
X15858214Y-12637214D02*
X15829643Y-12622929D01*
X15815357Y-12594357D01*
X15815357Y-12337214D01*
X16086786Y-12622929D02*
X16058214Y-12637214D01*
X16001071Y-12637214D01*
X15972500Y-12622929D01*
X15958214Y-12594357D01*
X15958214Y-12480071D01*
X15972500Y-12451500D01*
X16001071Y-12437214D01*
X16058214Y-12437214D01*
X16086786Y-12451500D01*
X16101071Y-12480071D01*
X16101071Y-12508643D01*
X15958214Y-12537214D01*
X16215357Y-12622929D02*
X16243928Y-12637214D01*
X16301071Y-12637214D01*
X16329643Y-12622929D01*
X16343928Y-12594357D01*
X16343928Y-12580071D01*
X16329643Y-12551500D01*
X16301071Y-12537214D01*
X16258214Y-12537214D01*
X16229643Y-12522929D01*
X16215357Y-12494357D01*
X16215357Y-12480071D01*
X16229643Y-12451500D01*
X16258214Y-12437214D01*
X16301071Y-12437214D01*
X16329643Y-12451500D01*
X16443928Y-12751500D02*
X16458214Y-12737214D01*
X16486786Y-12694357D01*
X16501071Y-12665786D01*
X16515357Y-12622929D01*
X16529643Y-12551500D01*
X16529643Y-12494357D01*
X16515357Y-12422929D01*
X16501071Y-12380071D01*
X16486786Y-12351500D01*
X16458214Y-12308643D01*
X16443928Y-12294357D01*
X9842452Y-12832476D02*
X9972500Y-12962524D01*
X9972500Y-12832476D02*
X9842452Y-12962524D01*
X9972500Y-12897500D02*
G75*
G03X9972500Y-12897500I-65024J0D01*
G01*
X10401071Y-13033214D02*
X10229643Y-13033214D01*
X10315357Y-13033214D02*
X10315357Y-12733214D01*
X10286786Y-12776071D01*
X10258214Y-12804643D01*
X10229643Y-12818929D01*
X10529643Y-13004643D02*
X10543929Y-13018929D01*
X10529643Y-13033214D01*
X10515357Y-13018929D01*
X10529643Y-13004643D01*
X10529643Y-13033214D01*
X10643928Y-12733214D02*
X10829643Y-12733214D01*
X10729643Y-12847500D01*
X10772500Y-12847500D01*
X10801071Y-12861786D01*
X10815357Y-12876071D01*
X10829643Y-12904643D01*
X10829643Y-12976071D01*
X10815357Y-13004643D01*
X10801071Y-13018929D01*
X10772500Y-13033214D01*
X10686786Y-13033214D01*
X10658214Y-13018929D01*
X10643928Y-13004643D01*
X11015357Y-12733214D02*
X11043929Y-12733214D01*
X11072500Y-12747500D01*
X11086786Y-12761786D01*
X11101071Y-12790357D01*
X11115357Y-12847500D01*
X11115357Y-12918929D01*
X11101071Y-12976071D01*
X11086786Y-13004643D01*
X11072500Y-13018929D01*
X11043929Y-13033214D01*
X11015357Y-13033214D01*
X10986786Y-13018929D01*
X10972500Y-13004643D01*
X10958214Y-12976071D01*
X10943929Y-12918929D01*
X10943929Y-12847500D01*
X10958214Y-12790357D01*
X10972500Y-12761786D01*
X10986786Y-12747500D01*
X11015357Y-12733214D01*
X11243928Y-13033214D02*
X11243928Y-12833214D01*
X11243928Y-12861786D02*
X11258214Y-12847500D01*
X11286786Y-12833214D01*
X11329643Y-12833214D01*
X11358214Y-12847500D01*
X11372500Y-12876071D01*
X11372500Y-13033214D01*
X11372500Y-12876071D02*
X11386786Y-12847500D01*
X11415357Y-12833214D01*
X11458214Y-12833214D01*
X11486786Y-12847500D01*
X11501071Y-12876071D01*
X11501071Y-13033214D01*
X11643928Y-13033214D02*
X11643928Y-12833214D01*
X11643928Y-12861786D02*
X11658214Y-12847500D01*
X11686786Y-12833214D01*
X11729643Y-12833214D01*
X11758214Y-12847500D01*
X11772500Y-12876071D01*
X11772500Y-13033214D01*
X11772500Y-12876071D02*
X11786786Y-12847500D01*
X11815357Y-12833214D01*
X11858214Y-12833214D01*
X11886786Y-12847500D01*
X11901071Y-12876071D01*
X11901071Y-13033214D01*
X12486786Y-12718929D02*
X12229643Y-13104643D01*
X12872500Y-12733214D02*
X12901071Y-12733214D01*
X12929643Y-12747500D01*
X12943928Y-12761786D01*
X12958214Y-12790357D01*
X12972500Y-12847500D01*
X12972500Y-12918929D01*
X12958214Y-12976071D01*
X12943928Y-13004643D01*
X12929643Y-13018929D01*
X12901071Y-13033214D01*
X12872500Y-13033214D01*
X12843928Y-13018929D01*
X12829643Y-13004643D01*
X12815357Y-12976071D01*
X12801071Y-12918929D01*
X12801071Y-12847500D01*
X12815357Y-12790357D01*
X12829643Y-12761786D01*
X12843928Y-12747500D01*
X12872500Y-12733214D01*
X13101071Y-13004643D02*
X13115357Y-13018929D01*
X13101071Y-13033214D01*
X13086786Y-13018929D01*
X13101071Y-13004643D01*
X13101071Y-13033214D01*
X13301071Y-12733214D02*
X13329643Y-12733214D01*
X13358214Y-12747500D01*
X13372500Y-12761786D01*
X13386785Y-12790357D01*
X13401071Y-12847500D01*
X13401071Y-12918929D01*
X13386785Y-12976071D01*
X13372500Y-13004643D01*
X13358214Y-13018929D01*
X13329643Y-13033214D01*
X13301071Y-13033214D01*
X13272500Y-13018929D01*
X13258214Y-13004643D01*
X13243928Y-12976071D01*
X13229643Y-12918929D01*
X13229643Y-12847500D01*
X13243928Y-12790357D01*
X13258214Y-12761786D01*
X13272500Y-12747500D01*
X13301071Y-12733214D01*
X13672500Y-12733214D02*
X13529643Y-12733214D01*
X13515357Y-12876071D01*
X13529643Y-12861786D01*
X13558214Y-12847500D01*
X13629643Y-12847500D01*
X13658214Y-12861786D01*
X13672500Y-12876071D01*
X13686785Y-12904643D01*
X13686785Y-12976071D01*
X13672500Y-13004643D01*
X13658214Y-13018929D01*
X13629643Y-13033214D01*
X13558214Y-13033214D01*
X13529643Y-13018929D01*
X13515357Y-13004643D01*
X13972500Y-13033214D02*
X13801071Y-13033214D01*
X13886785Y-13033214D02*
X13886785Y-12733214D01*
X13858214Y-12776071D01*
X13829643Y-12804643D01*
X13801071Y-12818929D01*
X14086786Y-12733214D02*
X14086786Y-12790357D01*
X14201071Y-12733214D02*
X14201071Y-12790357D01*
X14643928Y-13147500D02*
X14629643Y-13133214D01*
X14601071Y-13090357D01*
X14586785Y-13061786D01*
X14572500Y-13018929D01*
X14558214Y-12947500D01*
X14558214Y-12890357D01*
X14572500Y-12818929D01*
X14586785Y-12776071D01*
X14601071Y-12747500D01*
X14629643Y-12704643D01*
X14643928Y-12690357D01*
X14915357Y-13033214D02*
X14743928Y-13033214D01*
X14829643Y-13033214D02*
X14829643Y-12733214D01*
X14801071Y-12776071D01*
X14772500Y-12804643D01*
X14743928Y-12818929D01*
X15172500Y-12833214D02*
X15172500Y-13033214D01*
X15101071Y-12718929D02*
X15029643Y-12933214D01*
X15215357Y-12933214D01*
X15558214Y-13033214D02*
X15558214Y-12733214D01*
X15686785Y-13033214D02*
X15686785Y-12876071D01*
X15672500Y-12847500D01*
X15643928Y-12833214D01*
X15601071Y-12833214D01*
X15572500Y-12847500D01*
X15558214Y-12861786D01*
X15872500Y-13033214D02*
X15843928Y-13018929D01*
X15829643Y-13004643D01*
X15815357Y-12976071D01*
X15815357Y-12890357D01*
X15829643Y-12861786D01*
X15843928Y-12847500D01*
X15872500Y-12833214D01*
X15915357Y-12833214D01*
X15943928Y-12847500D01*
X15958214Y-12861786D01*
X15972500Y-12890357D01*
X15972500Y-12976071D01*
X15958214Y-13004643D01*
X15943928Y-13018929D01*
X15915357Y-13033214D01*
X15872500Y-13033214D01*
X16143928Y-13033214D02*
X16115357Y-13018929D01*
X16101071Y-12990357D01*
X16101071Y-12733214D01*
X16372500Y-13018929D02*
X16343928Y-13033214D01*
X16286786Y-13033214D01*
X16258214Y-13018929D01*
X16243928Y-12990357D01*
X16243928Y-12876071D01*
X16258214Y-12847500D01*
X16286786Y-12833214D01*
X16343928Y-12833214D01*
X16372500Y-12847500D01*
X16386786Y-12876071D01*
X16386786Y-12904643D01*
X16243928Y-12933214D01*
X16501071Y-13018929D02*
X16529643Y-13033214D01*
X16586786Y-13033214D01*
X16615357Y-13018929D01*
X16629643Y-12990357D01*
X16629643Y-12976071D01*
X16615357Y-12947500D01*
X16586786Y-12933214D01*
X16543928Y-12933214D01*
X16515357Y-12918929D01*
X16501071Y-12890357D01*
X16501071Y-12876071D01*
X16515357Y-12847500D01*
X16543928Y-12833214D01*
X16586786Y-12833214D01*
X16615357Y-12847500D01*
X16729643Y-13147500D02*
X16743928Y-13133214D01*
X16772500Y-13090357D01*
X16786786Y-13061786D01*
X16801071Y-13018929D01*
X16815357Y-12947500D01*
X16815357Y-12890357D01*
X16801071Y-12818929D01*
X16786786Y-12776071D01*
X16772500Y-12747500D01*
X16743928Y-12704643D01*
X16729643Y-12690357D01*
X9838500Y-13226500D02*
X9972500Y-13360500D01*
X9972500Y-13226500D02*
X9838500Y-13360500D01*
X9905500Y-13226500D02*
X9905500Y-13360500D01*
X9838500Y-13293500D02*
X9972500Y-13293500D01*
X10401071Y-13429214D02*
X10229643Y-13429214D01*
X10315357Y-13429214D02*
X10315357Y-13129214D01*
X10286786Y-13172071D01*
X10258214Y-13200643D01*
X10229643Y-13214929D01*
X10529643Y-13400643D02*
X10543929Y-13414929D01*
X10529643Y-13429214D01*
X10515357Y-13414929D01*
X10529643Y-13400643D01*
X10529643Y-13429214D01*
X10643928Y-13129214D02*
X10829643Y-13129214D01*
X10729643Y-13243500D01*
X10772500Y-13243500D01*
X10801071Y-13257786D01*
X10815357Y-13272071D01*
X10829643Y-13300643D01*
X10829643Y-13372071D01*
X10815357Y-13400643D01*
X10801071Y-13414929D01*
X10772500Y-13429214D01*
X10686786Y-13429214D01*
X10658214Y-13414929D01*
X10643928Y-13400643D01*
X11086786Y-13229214D02*
X11086786Y-13429214D01*
X11015357Y-13114929D02*
X10943929Y-13329214D01*
X11129643Y-13329214D01*
X11243928Y-13429214D02*
X11243928Y-13229214D01*
X11243928Y-13257786D02*
X11258214Y-13243500D01*
X11286786Y-13229214D01*
X11329643Y-13229214D01*
X11358214Y-13243500D01*
X11372500Y-13272071D01*
X11372500Y-13429214D01*
X11372500Y-13272071D02*
X11386786Y-13243500D01*
X11415357Y-13229214D01*
X11458214Y-13229214D01*
X11486786Y-13243500D01*
X11501071Y-13272071D01*
X11501071Y-13429214D01*
X11643928Y-13429214D02*
X11643928Y-13229214D01*
X11643928Y-13257786D02*
X11658214Y-13243500D01*
X11686786Y-13229214D01*
X11729643Y-13229214D01*
X11758214Y-13243500D01*
X11772500Y-13272071D01*
X11772500Y-13429214D01*
X11772500Y-13272071D02*
X11786786Y-13243500D01*
X11815357Y-13229214D01*
X11858214Y-13229214D01*
X11886786Y-13243500D01*
X11901071Y-13272071D01*
X11901071Y-13429214D01*
X12486786Y-13114929D02*
X12229643Y-13500643D01*
X12872500Y-13129214D02*
X12901071Y-13129214D01*
X12929643Y-13143500D01*
X12943928Y-13157786D01*
X12958214Y-13186357D01*
X12972500Y-13243500D01*
X12972500Y-13314929D01*
X12958214Y-13372071D01*
X12943928Y-13400643D01*
X12929643Y-13414929D01*
X12901071Y-13429214D01*
X12872500Y-13429214D01*
X12843928Y-13414929D01*
X12829643Y-13400643D01*
X12815357Y-13372071D01*
X12801071Y-13314929D01*
X12801071Y-13243500D01*
X12815357Y-13186357D01*
X12829643Y-13157786D01*
X12843928Y-13143500D01*
X12872500Y-13129214D01*
X13101071Y-13400643D02*
X13115357Y-13414929D01*
X13101071Y-13429214D01*
X13086786Y-13414929D01*
X13101071Y-13400643D01*
X13101071Y-13429214D01*
X13301071Y-13129214D02*
X13329643Y-13129214D01*
X13358214Y-13143500D01*
X13372500Y-13157786D01*
X13386785Y-13186357D01*
X13401071Y-13243500D01*
X13401071Y-13314929D01*
X13386785Y-13372071D01*
X13372500Y-13400643D01*
X13358214Y-13414929D01*
X13329643Y-13429214D01*
X13301071Y-13429214D01*
X13272500Y-13414929D01*
X13258214Y-13400643D01*
X13243928Y-13372071D01*
X13229643Y-13314929D01*
X13229643Y-13243500D01*
X13243928Y-13186357D01*
X13258214Y-13157786D01*
X13272500Y-13143500D01*
X13301071Y-13129214D01*
X13672500Y-13129214D02*
X13529643Y-13129214D01*
X13515357Y-13272071D01*
X13529643Y-13257786D01*
X13558214Y-13243500D01*
X13629643Y-13243500D01*
X13658214Y-13257786D01*
X13672500Y-13272071D01*
X13686785Y-13300643D01*
X13686785Y-13372071D01*
X13672500Y-13400643D01*
X13658214Y-13414929D01*
X13629643Y-13429214D01*
X13558214Y-13429214D01*
X13529643Y-13414929D01*
X13515357Y-13400643D01*
X13786785Y-13129214D02*
X13972500Y-13129214D01*
X13872500Y-13243500D01*
X13915357Y-13243500D01*
X13943928Y-13257786D01*
X13958214Y-13272071D01*
X13972500Y-13300643D01*
X13972500Y-13372071D01*
X13958214Y-13400643D01*
X13943928Y-13414929D01*
X13915357Y-13429214D01*
X13829643Y-13429214D01*
X13801071Y-13414929D01*
X13786785Y-13400643D01*
X14086786Y-13129214D02*
X14086786Y-13186357D01*
X14201071Y-13129214D02*
X14201071Y-13186357D01*
X14643928Y-13543500D02*
X14629643Y-13529214D01*
X14601071Y-13486357D01*
X14586785Y-13457786D01*
X14572500Y-13414929D01*
X14558214Y-13343500D01*
X14558214Y-13286357D01*
X14572500Y-13214929D01*
X14586785Y-13172071D01*
X14601071Y-13143500D01*
X14629643Y-13100643D01*
X14643928Y-13086357D01*
X14915357Y-13429214D02*
X14743928Y-13429214D01*
X14829643Y-13429214D02*
X14829643Y-13129214D01*
X14801071Y-13172071D01*
X14772500Y-13200643D01*
X14743928Y-13214929D01*
X15029643Y-13157786D02*
X15043928Y-13143500D01*
X15072500Y-13129214D01*
X15143928Y-13129214D01*
X15172500Y-13143500D01*
X15186785Y-13157786D01*
X15201071Y-13186357D01*
X15201071Y-13214929D01*
X15186785Y-13257786D01*
X15015357Y-13429214D01*
X15201071Y-13429214D01*
X15558214Y-13429214D02*
X15558214Y-13129214D01*
X15686785Y-13429214D02*
X15686785Y-13272071D01*
X15672500Y-13243500D01*
X15643928Y-13229214D01*
X15601071Y-13229214D01*
X15572500Y-13243500D01*
X15558214Y-13257786D01*
X15872500Y-13429214D02*
X15843928Y-13414929D01*
X15829643Y-13400643D01*
X15815357Y-13372071D01*
X15815357Y-13286357D01*
X15829643Y-13257786D01*
X15843928Y-13243500D01*
X15872500Y-13229214D01*
X15915357Y-13229214D01*
X15943928Y-13243500D01*
X15958214Y-13257786D01*
X15972500Y-13286357D01*
X15972500Y-13372071D01*
X15958214Y-13400643D01*
X15943928Y-13414929D01*
X15915357Y-13429214D01*
X15872500Y-13429214D01*
X16143928Y-13429214D02*
X16115357Y-13414929D01*
X16101071Y-13386357D01*
X16101071Y-13129214D01*
X16372500Y-13414929D02*
X16343928Y-13429214D01*
X16286786Y-13429214D01*
X16258214Y-13414929D01*
X16243928Y-13386357D01*
X16243928Y-13272071D01*
X16258214Y-13243500D01*
X16286786Y-13229214D01*
X16343928Y-13229214D01*
X16372500Y-13243500D01*
X16386786Y-13272071D01*
X16386786Y-13300643D01*
X16243928Y-13329214D01*
X16501071Y-13414929D02*
X16529643Y-13429214D01*
X16586786Y-13429214D01*
X16615357Y-13414929D01*
X16629643Y-13386357D01*
X16629643Y-13372071D01*
X16615357Y-13343500D01*
X16586786Y-13329214D01*
X16543928Y-13329214D01*
X16515357Y-13314929D01*
X16501071Y-13286357D01*
X16501071Y-13272071D01*
X16515357Y-13243500D01*
X16543928Y-13229214D01*
X16586786Y-13229214D01*
X16615357Y-13243500D01*
X16729643Y-13543500D02*
X16743928Y-13529214D01*
X16772500Y-13486357D01*
X16786786Y-13457786D01*
X16801071Y-13414929D01*
X16815357Y-13343500D01*
X16815357Y-13286357D01*
X16801071Y-13214929D01*
X16786786Y-13172071D01*
X16772500Y-13143500D01*
X16743928Y-13100643D01*
X16729643Y-13086357D01*
X9762500Y-13584500D02*
X9972500Y-13794500D01*
X9972500Y-13584500D02*
X9762500Y-13794500D01*
X9941747Y-13763747D02*
X9941747Y-13615253D01*
X9793253Y-13615253D01*
X9793253Y-13763747D01*
X9941747Y-13763747D01*
X10229643Y-13553786D02*
X10243929Y-13539500D01*
X10272500Y-13525214D01*
X10343929Y-13525214D01*
X10372500Y-13539500D01*
X10386786Y-13553786D01*
X10401071Y-13582357D01*
X10401071Y-13610929D01*
X10386786Y-13653786D01*
X10215357Y-13825214D01*
X10401071Y-13825214D01*
X10529643Y-13796643D02*
X10543929Y-13810929D01*
X10529643Y-13825214D01*
X10515357Y-13810929D01*
X10529643Y-13796643D01*
X10529643Y-13825214D01*
X10829643Y-13825214D02*
X10658214Y-13825214D01*
X10743928Y-13825214D02*
X10743928Y-13525214D01*
X10715357Y-13568071D01*
X10686786Y-13596643D01*
X10658214Y-13610929D01*
X11015357Y-13525214D02*
X11043929Y-13525214D01*
X11072500Y-13539500D01*
X11086786Y-13553786D01*
X11101071Y-13582357D01*
X11115357Y-13639500D01*
X11115357Y-13710929D01*
X11101071Y-13768071D01*
X11086786Y-13796643D01*
X11072500Y-13810929D01*
X11043929Y-13825214D01*
X11015357Y-13825214D01*
X10986786Y-13810929D01*
X10972500Y-13796643D01*
X10958214Y-13768071D01*
X10943929Y-13710929D01*
X10943929Y-13639500D01*
X10958214Y-13582357D01*
X10972500Y-13553786D01*
X10986786Y-13539500D01*
X11015357Y-13525214D01*
X11243928Y-13825214D02*
X11243928Y-13625214D01*
X11243928Y-13653786D02*
X11258214Y-13639500D01*
X11286786Y-13625214D01*
X11329643Y-13625214D01*
X11358214Y-13639500D01*
X11372500Y-13668071D01*
X11372500Y-13825214D01*
X11372500Y-13668071D02*
X11386786Y-13639500D01*
X11415357Y-13625214D01*
X11458214Y-13625214D01*
X11486786Y-13639500D01*
X11501071Y-13668071D01*
X11501071Y-13825214D01*
X11643928Y-13825214D02*
X11643928Y-13625214D01*
X11643928Y-13653786D02*
X11658214Y-13639500D01*
X11686786Y-13625214D01*
X11729643Y-13625214D01*
X11758214Y-13639500D01*
X11772500Y-13668071D01*
X11772500Y-13825214D01*
X11772500Y-13668071D02*
X11786786Y-13639500D01*
X11815357Y-13625214D01*
X11858214Y-13625214D01*
X11886786Y-13639500D01*
X11901071Y-13668071D01*
X11901071Y-13825214D01*
X12486786Y-13510929D02*
X12229643Y-13896643D01*
X12872500Y-13525214D02*
X12901071Y-13525214D01*
X12929643Y-13539500D01*
X12943928Y-13553786D01*
X12958214Y-13582357D01*
X12972500Y-13639500D01*
X12972500Y-13710929D01*
X12958214Y-13768071D01*
X12943928Y-13796643D01*
X12929643Y-13810929D01*
X12901071Y-13825214D01*
X12872500Y-13825214D01*
X12843928Y-13810929D01*
X12829643Y-13796643D01*
X12815357Y-13768071D01*
X12801071Y-13710929D01*
X12801071Y-13639500D01*
X12815357Y-13582357D01*
X12829643Y-13553786D01*
X12843928Y-13539500D01*
X12872500Y-13525214D01*
X13101071Y-13796643D02*
X13115357Y-13810929D01*
X13101071Y-13825214D01*
X13086786Y-13810929D01*
X13101071Y-13796643D01*
X13101071Y-13825214D01*
X13301071Y-13525214D02*
X13329643Y-13525214D01*
X13358214Y-13539500D01*
X13372500Y-13553786D01*
X13386785Y-13582357D01*
X13401071Y-13639500D01*
X13401071Y-13710929D01*
X13386785Y-13768071D01*
X13372500Y-13796643D01*
X13358214Y-13810929D01*
X13329643Y-13825214D01*
X13301071Y-13825214D01*
X13272500Y-13810929D01*
X13258214Y-13796643D01*
X13243928Y-13768071D01*
X13229643Y-13710929D01*
X13229643Y-13639500D01*
X13243928Y-13582357D01*
X13258214Y-13553786D01*
X13272500Y-13539500D01*
X13301071Y-13525214D01*
X13572500Y-13653786D02*
X13543928Y-13639500D01*
X13529643Y-13625214D01*
X13515357Y-13596643D01*
X13515357Y-13582357D01*
X13529643Y-13553786D01*
X13543928Y-13539500D01*
X13572500Y-13525214D01*
X13629643Y-13525214D01*
X13658214Y-13539500D01*
X13672500Y-13553786D01*
X13686785Y-13582357D01*
X13686785Y-13596643D01*
X13672500Y-13625214D01*
X13658214Y-13639500D01*
X13629643Y-13653786D01*
X13572500Y-13653786D01*
X13543928Y-13668071D01*
X13529643Y-13682357D01*
X13515357Y-13710929D01*
X13515357Y-13768071D01*
X13529643Y-13796643D01*
X13543928Y-13810929D01*
X13572500Y-13825214D01*
X13629643Y-13825214D01*
X13658214Y-13810929D01*
X13672500Y-13796643D01*
X13686785Y-13768071D01*
X13686785Y-13710929D01*
X13672500Y-13682357D01*
X13658214Y-13668071D01*
X13629643Y-13653786D01*
X13786785Y-13525214D02*
X13972500Y-13525214D01*
X13872500Y-13639500D01*
X13915357Y-13639500D01*
X13943928Y-13653786D01*
X13958214Y-13668071D01*
X13972500Y-13696643D01*
X13972500Y-13768071D01*
X13958214Y-13796643D01*
X13943928Y-13810929D01*
X13915357Y-13825214D01*
X13829643Y-13825214D01*
X13801071Y-13810929D01*
X13786785Y-13796643D01*
X14086786Y-13525214D02*
X14086786Y-13582357D01*
X14201071Y-13525214D02*
X14201071Y-13582357D01*
X14643928Y-13939500D02*
X14629643Y-13925214D01*
X14601071Y-13882357D01*
X14586785Y-13853786D01*
X14572500Y-13810929D01*
X14558214Y-13739500D01*
X14558214Y-13682357D01*
X14572500Y-13610929D01*
X14586785Y-13568071D01*
X14601071Y-13539500D01*
X14629643Y-13496643D01*
X14643928Y-13482357D01*
X14801071Y-13653786D02*
X14772500Y-13639500D01*
X14758214Y-13625214D01*
X14743928Y-13596643D01*
X14743928Y-13582357D01*
X14758214Y-13553786D01*
X14772500Y-13539500D01*
X14801071Y-13525214D01*
X14858214Y-13525214D01*
X14886785Y-13539500D01*
X14901071Y-13553786D01*
X14915357Y-13582357D01*
X14915357Y-13596643D01*
X14901071Y-13625214D01*
X14886785Y-13639500D01*
X14858214Y-13653786D01*
X14801071Y-13653786D01*
X14772500Y-13668071D01*
X14758214Y-13682357D01*
X14743928Y-13710929D01*
X14743928Y-13768071D01*
X14758214Y-13796643D01*
X14772500Y-13810929D01*
X14801071Y-13825214D01*
X14858214Y-13825214D01*
X14886785Y-13810929D01*
X14901071Y-13796643D01*
X14915357Y-13768071D01*
X14915357Y-13710929D01*
X14901071Y-13682357D01*
X14886785Y-13668071D01*
X14858214Y-13653786D01*
X15272500Y-13825214D02*
X15272500Y-13525214D01*
X15401071Y-13825214D02*
X15401071Y-13668071D01*
X15386785Y-13639500D01*
X15358214Y-13625214D01*
X15315357Y-13625214D01*
X15286785Y-13639500D01*
X15272500Y-13653786D01*
X15586785Y-13825214D02*
X15558214Y-13810929D01*
X15543928Y-13796643D01*
X15529643Y-13768071D01*
X15529643Y-13682357D01*
X15543928Y-13653786D01*
X15558214Y-13639500D01*
X15586785Y-13625214D01*
X15629643Y-13625214D01*
X15658214Y-13639500D01*
X15672500Y-13653786D01*
X15686785Y-13682357D01*
X15686785Y-13768071D01*
X15672500Y-13796643D01*
X15658214Y-13810929D01*
X15629643Y-13825214D01*
X15586785Y-13825214D01*
X15858214Y-13825214D02*
X15829643Y-13810929D01*
X15815357Y-13782357D01*
X15815357Y-13525214D01*
X16086786Y-13810929D02*
X16058214Y-13825214D01*
X16001071Y-13825214D01*
X15972500Y-13810929D01*
X15958214Y-13782357D01*
X15958214Y-13668071D01*
X15972500Y-13639500D01*
X16001071Y-13625214D01*
X16058214Y-13625214D01*
X16086786Y-13639500D01*
X16101071Y-13668071D01*
X16101071Y-13696643D01*
X15958214Y-13725214D01*
X16215357Y-13810929D02*
X16243928Y-13825214D01*
X16301071Y-13825214D01*
X16329643Y-13810929D01*
X16343928Y-13782357D01*
X16343928Y-13768071D01*
X16329643Y-13739500D01*
X16301071Y-13725214D01*
X16258214Y-13725214D01*
X16229643Y-13710929D01*
X16215357Y-13682357D01*
X16215357Y-13668071D01*
X16229643Y-13639500D01*
X16258214Y-13625214D01*
X16301071Y-13625214D01*
X16329643Y-13639500D01*
X16443928Y-13939500D02*
X16458214Y-13925214D01*
X16486786Y-13882357D01*
X16501071Y-13853786D01*
X16515357Y-13810929D01*
X16529643Y-13739500D01*
X16529643Y-13682357D01*
X16515357Y-13610929D01*
X16501071Y-13568071D01*
X16486786Y-13539500D01*
X16458214Y-13496643D01*
X16443928Y-13482357D01*
M02*
