%FSLAX45Y45*%
G04 Gerber Fmt 4.5, Leading zero omitted, Abs format (unit mm)*
G04 Created by KiCad (PCBNEW 4.0.7) date 05/29/19 08:08:42*
%MOMM*%
%LPD*%
G01*
G04 APERTURE LIST*
%ADD10C,0.127000*%
%ADD11C,0.150000*%
%ADD12C,0.200000*%
%ADD13C,0.300000*%
G04 APERTURE END LIST*
D10*
D11*
X3080000Y-19090000D02*
X3080000Y-2420000D01*
X22480000Y-19090000D02*
X3080000Y-19090000D01*
X22480000Y-2420000D02*
X22480000Y-19090000D01*
X3080000Y-2420000D02*
X22480000Y-2420000D01*
X3080000Y-19090000D02*
X3080000Y-16480000D01*
X22480000Y-19090000D02*
X3080000Y-19090000D01*
X22480000Y-16470000D02*
X22480000Y-19090000D01*
X3080000Y-2420000D02*
X3080000Y-16480000D01*
X22480000Y-2420000D02*
X22480000Y-16480000D01*
X3080000Y-2420000D02*
X22480000Y-2420000D01*
D12*
X8020000Y-12800000D02*
X8100000Y-12880000D01*
X8100000Y-12800000D02*
X8020000Y-12880000D01*
X8220000Y-12800000D02*
X8300000Y-12880000D01*
X8300000Y-12800000D02*
X8220000Y-12880000D01*
X8240000Y-9600000D02*
X8320000Y-9680000D01*
X8320000Y-9600000D02*
X8240000Y-9680000D01*
X8400000Y-9120000D02*
X8480000Y-9200000D01*
X8480000Y-9120000D02*
X8400000Y-9200000D01*
X10070000Y-7030000D02*
X10150000Y-7110000D01*
X10150000Y-7030000D02*
X10070000Y-7110000D01*
X10110000Y-9790000D02*
X10190000Y-9870000D01*
X10190000Y-9790000D02*
X10110000Y-9870000D01*
X10140000Y-10380000D02*
X10220000Y-10460000D01*
X10220000Y-10380000D02*
X10140000Y-10460000D01*
X10400000Y-7300000D02*
X10480000Y-7380000D01*
X10480000Y-7300000D02*
X10400000Y-7380000D01*
X10440000Y-5970000D02*
X10520000Y-6050000D01*
X10520000Y-5970000D02*
X10440000Y-6050000D01*
X13260000Y-3450000D02*
X13340000Y-3530000D01*
X13340000Y-3450000D02*
X13260000Y-3530000D01*
X15210000Y-7680000D02*
X15290000Y-7760000D01*
X15290000Y-7680000D02*
X15210000Y-7760000D01*
X15560000Y-7870000D02*
X15640000Y-7950000D01*
X15640000Y-7870000D02*
X15560000Y-7950000D01*
X15840000Y-6370000D02*
X15920000Y-6450000D01*
X15920000Y-6370000D02*
X15840000Y-6450000D01*
X16120000Y-7260000D02*
X16200000Y-7340000D01*
X16200000Y-7260000D02*
X16120000Y-7340000D01*
X17570000Y-11980000D02*
X17650000Y-12060000D01*
X17650000Y-11980000D02*
X17570000Y-12060000D01*
X17900000Y-11860000D02*
X17980000Y-11940000D01*
X17980000Y-11860000D02*
X17900000Y-11940000D01*
X7190000Y-13152000D02*
G75*
G03X7190000Y-13152000I-50000J0D01*
G01*
X7190000Y-13660000D02*
G75*
G03X7190000Y-13660000I-50000J0D01*
G01*
X7571000Y-13152000D02*
G75*
G03X7571000Y-13152000I-50000J0D01*
G01*
X7571000Y-13660000D02*
G75*
G03X7571000Y-13660000I-50000J0D01*
G01*
X8906000Y-12645000D02*
G75*
G03X8906000Y-12645000I-50000J0D01*
G01*
X8906000Y-12899000D02*
G75*
G03X8906000Y-12899000I-50000J0D01*
G01*
X8906000Y-13661000D02*
G75*
G03X8906000Y-13661000I-50000J0D01*
G01*
X8906000Y-13915000D02*
G75*
G03X8906000Y-13915000I-50000J0D01*
G01*
X9152000Y-3256500D02*
G75*
G03X9152000Y-3256500I-50000J0D01*
G01*
X9152000Y-3510500D02*
G75*
G03X9152000Y-3510500I-50000J0D01*
G01*
X9152000Y-3764500D02*
G75*
G03X9152000Y-3764500I-50000J0D01*
G01*
X9152000Y-4018500D02*
G75*
G03X9152000Y-4018500I-50000J0D01*
G01*
X9152000Y-4272500D02*
G75*
G03X9152000Y-4272500I-50000J0D01*
G01*
X9152000Y-4526500D02*
G75*
G03X9152000Y-4526500I-50000J0D01*
G01*
X9152000Y-4780500D02*
G75*
G03X9152000Y-4780500I-50000J0D01*
G01*
X9152000Y-5034500D02*
G75*
G03X9152000Y-5034500I-50000J0D01*
G01*
X9152000Y-5288500D02*
G75*
G03X9152000Y-5288500I-50000J0D01*
G01*
X9152000Y-5542500D02*
G75*
G03X9152000Y-5542500I-50000J0D01*
G01*
X9152000Y-5796500D02*
G75*
G03X9152000Y-5796500I-50000J0D01*
G01*
X9152000Y-6050500D02*
G75*
G03X9152000Y-6050500I-50000J0D01*
G01*
X9152000Y-6304500D02*
G75*
G03X9152000Y-6304500I-50000J0D01*
G01*
X9152000Y-6558500D02*
G75*
G03X9152000Y-6558500I-50000J0D01*
G01*
X9152000Y-6812500D02*
G75*
G03X9152000Y-6812500I-50000J0D01*
G01*
X9152000Y-7066500D02*
G75*
G03X9152000Y-7066500I-50000J0D01*
G01*
X9152000Y-7320500D02*
G75*
G03X9152000Y-7320500I-50000J0D01*
G01*
X9152000Y-7574500D02*
G75*
G03X9152000Y-7574500I-50000J0D01*
G01*
X9152000Y-7828500D02*
G75*
G03X9152000Y-7828500I-50000J0D01*
G01*
X9152000Y-8082500D02*
G75*
G03X9152000Y-8082500I-50000J0D01*
G01*
X9406000Y-3256500D02*
G75*
G03X9406000Y-3256500I-50000J0D01*
G01*
X9406000Y-3510500D02*
G75*
G03X9406000Y-3510500I-50000J0D01*
G01*
X9406000Y-3764500D02*
G75*
G03X9406000Y-3764500I-50000J0D01*
G01*
X9406000Y-4018500D02*
G75*
G03X9406000Y-4018500I-50000J0D01*
G01*
X9406000Y-4272500D02*
G75*
G03X9406000Y-4272500I-50000J0D01*
G01*
X9406000Y-4526500D02*
G75*
G03X9406000Y-4526500I-50000J0D01*
G01*
X9406000Y-4780500D02*
G75*
G03X9406000Y-4780500I-50000J0D01*
G01*
X9406000Y-5034500D02*
G75*
G03X9406000Y-5034500I-50000J0D01*
G01*
X9406000Y-5288500D02*
G75*
G03X9406000Y-5288500I-50000J0D01*
G01*
X9406000Y-5542500D02*
G75*
G03X9406000Y-5542500I-50000J0D01*
G01*
X9406000Y-5796500D02*
G75*
G03X9406000Y-5796500I-50000J0D01*
G01*
X9406000Y-6050500D02*
G75*
G03X9406000Y-6050500I-50000J0D01*
G01*
X9406000Y-6304500D02*
G75*
G03X9406000Y-6304500I-50000J0D01*
G01*
X9406000Y-6558500D02*
G75*
G03X9406000Y-6558500I-50000J0D01*
G01*
X9406000Y-6812500D02*
G75*
G03X9406000Y-6812500I-50000J0D01*
G01*
X9406000Y-7066500D02*
G75*
G03X9406000Y-7066500I-50000J0D01*
G01*
X9406000Y-7320500D02*
G75*
G03X9406000Y-7320500I-50000J0D01*
G01*
X9406000Y-7574500D02*
G75*
G03X9406000Y-7574500I-50000J0D01*
G01*
X9406000Y-7828500D02*
G75*
G03X9406000Y-7828500I-50000J0D01*
G01*
X9406000Y-8082500D02*
G75*
G03X9406000Y-8082500I-50000J0D01*
G01*
X9780000Y-14350000D02*
G75*
G03X9780000Y-14350000I-50000J0D01*
G01*
X11954000Y-12137000D02*
G75*
G03X11954000Y-12137000I-50000J0D01*
G01*
X11954000Y-12391000D02*
G75*
G03X11954000Y-12391000I-50000J0D01*
G01*
X11954000Y-14169000D02*
G75*
G03X11954000Y-14169000I-50000J0D01*
G01*
X11954000Y-14423000D02*
G75*
G03X11954000Y-14423000I-50000J0D01*
G01*
X12730000Y-9338000D02*
G75*
G03X12730000Y-9338000I-50000J0D01*
G01*
X12730000Y-9592000D02*
G75*
G03X12730000Y-9592000I-50000J0D01*
G01*
X12730000Y-9846000D02*
G75*
G03X12730000Y-9846000I-50000J0D01*
G01*
X12730000Y-10100000D02*
G75*
G03X12730000Y-10100000I-50000J0D01*
G01*
X12760000Y-6760000D02*
G75*
G03X12760000Y-6760000I-50000J0D01*
G01*
X12760000Y-7014000D02*
G75*
G03X12760000Y-7014000I-50000J0D01*
G01*
X12760000Y-7630000D02*
G75*
G03X12760000Y-7630000I-50000J0D01*
G01*
X12760000Y-7884000D02*
G75*
G03X12760000Y-7884000I-50000J0D01*
G01*
X12760000Y-8138000D02*
G75*
G03X12760000Y-8138000I-50000J0D01*
G01*
X12760000Y-8392000D02*
G75*
G03X12760000Y-8392000I-50000J0D01*
G01*
X12760000Y-8646000D02*
G75*
G03X12760000Y-8646000I-50000J0D01*
G01*
X12830000Y-4210000D02*
G75*
G03X12830000Y-4210000I-50000J0D01*
G01*
X12830000Y-4464000D02*
G75*
G03X12830000Y-4464000I-50000J0D01*
G01*
X12830000Y-4718000D02*
G75*
G03X12830000Y-4718000I-50000J0D01*
G01*
X12830000Y-4972000D02*
G75*
G03X12830000Y-4972000I-50000J0D01*
G01*
X12830000Y-5226000D02*
G75*
G03X12830000Y-5226000I-50000J0D01*
G01*
X13320000Y-13630000D02*
G75*
G03X13320000Y-13630000I-50000J0D01*
G01*
X13320000Y-13884000D02*
G75*
G03X13320000Y-13884000I-50000J0D01*
G01*
X13320000Y-14138000D02*
G75*
G03X13320000Y-14138000I-50000J0D01*
G01*
X13570000Y-17050000D02*
G75*
G03X13570000Y-17050000I-50000J0D01*
G01*
X13824000Y-17050000D02*
G75*
G03X13824000Y-17050000I-50000J0D01*
G01*
X13894000Y-10210000D02*
G75*
G03X13894000Y-10210000I-50000J0D01*
G01*
X14078000Y-17050000D02*
G75*
G03X14078000Y-17050000I-50000J0D01*
G01*
X14148000Y-10210000D02*
G75*
G03X14148000Y-10210000I-50000J0D01*
G01*
X14402000Y-10210000D02*
G75*
G03X14402000Y-10210000I-50000J0D01*
G01*
X14656000Y-10210000D02*
G75*
G03X14656000Y-10210000I-50000J0D01*
G01*
X14740000Y-17060000D02*
G75*
G03X14740000Y-17060000I-50000J0D01*
G01*
X14910000Y-10210000D02*
G75*
G03X14910000Y-10210000I-50000J0D01*
G01*
X14994000Y-17060000D02*
G75*
G03X14994000Y-17060000I-50000J0D01*
G01*
X15248000Y-17060000D02*
G75*
G03X15248000Y-17060000I-50000J0D01*
G01*
X15770000Y-17060000D02*
G75*
G03X15770000Y-17060000I-50000J0D01*
G01*
X15950000Y-15272000D02*
G75*
G03X15950000Y-15272000I-50000J0D01*
G01*
X15950000Y-15526000D02*
G75*
G03X15950000Y-15526000I-50000J0D01*
G01*
X15950000Y-15780000D02*
G75*
G03X15950000Y-15780000I-50000J0D01*
G01*
X16024000Y-17060000D02*
G75*
G03X16024000Y-17060000I-50000J0D01*
G01*
X16278000Y-17060000D02*
G75*
G03X16278000Y-17060000I-50000J0D01*
G01*
X16420000Y-15272000D02*
G75*
G03X16420000Y-15272000I-50000J0D01*
G01*
X16420000Y-15526000D02*
G75*
G03X16420000Y-15526000I-50000J0D01*
G01*
X16420000Y-15780000D02*
G75*
G03X16420000Y-15780000I-50000J0D01*
G01*
X16710000Y-12582000D02*
G75*
G03X16710000Y-12582000I-50000J0D01*
G01*
X16710000Y-12836000D02*
G75*
G03X16710000Y-12836000I-50000J0D01*
G01*
X16710000Y-13090000D02*
G75*
G03X16710000Y-13090000I-50000J0D01*
G01*
X16780000Y-17050000D02*
G75*
G03X16780000Y-17050000I-50000J0D01*
G01*
X16920000Y-15272000D02*
G75*
G03X16920000Y-15272000I-50000J0D01*
G01*
X16920000Y-15526000D02*
G75*
G03X16920000Y-15526000I-50000J0D01*
G01*
X16920000Y-15780000D02*
G75*
G03X16920000Y-15780000I-50000J0D01*
G01*
X17034000Y-17050000D02*
G75*
G03X17034000Y-17050000I-50000J0D01*
G01*
X17130000Y-8410000D02*
G75*
G03X17130000Y-8410000I-50000J0D01*
G01*
X17288000Y-17050000D02*
G75*
G03X17288000Y-17050000I-50000J0D01*
G01*
X17380000Y-15272000D02*
G75*
G03X17380000Y-15272000I-50000J0D01*
G01*
X17380000Y-15526000D02*
G75*
G03X17380000Y-15526000I-50000J0D01*
G01*
X17380000Y-15780000D02*
G75*
G03X17380000Y-15780000I-50000J0D01*
G01*
X17782000Y-17040000D02*
G75*
G03X17782000Y-17040000I-50000J0D01*
G01*
X17990000Y-12440000D02*
G75*
G03X17990000Y-12440000I-50000J0D01*
G01*
X18036000Y-17040000D02*
G75*
G03X18036000Y-17040000I-50000J0D01*
G01*
X18220000Y-15272000D02*
G75*
G03X18220000Y-15272000I-50000J0D01*
G01*
X18220000Y-15526000D02*
G75*
G03X18220000Y-15526000I-50000J0D01*
G01*
X18220000Y-15780000D02*
G75*
G03X18220000Y-15780000I-50000J0D01*
G01*
X18244000Y-12440000D02*
G75*
G03X18244000Y-12440000I-50000J0D01*
G01*
X18290000Y-17040000D02*
G75*
G03X18290000Y-17040000I-50000J0D01*
G01*
X18772000Y-17040000D02*
G75*
G03X18772000Y-17040000I-50000J0D01*
G01*
X19026000Y-17040000D02*
G75*
G03X19026000Y-17040000I-50000J0D01*
G01*
X19080000Y-15272000D02*
G75*
G03X19080000Y-15272000I-50000J0D01*
G01*
X19080000Y-15526000D02*
G75*
G03X19080000Y-15526000I-50000J0D01*
G01*
X19080000Y-15780000D02*
G75*
G03X19080000Y-15780000I-50000J0D01*
G01*
X19280000Y-17040000D02*
G75*
G03X19280000Y-17040000I-50000J0D01*
G01*
X19742000Y-17030000D02*
G75*
G03X19742000Y-17030000I-50000J0D01*
G01*
X19980000Y-15272000D02*
G75*
G03X19980000Y-15272000I-50000J0D01*
G01*
X19980000Y-15526000D02*
G75*
G03X19980000Y-15526000I-50000J0D01*
G01*
X19980000Y-15780000D02*
G75*
G03X19980000Y-15780000I-50000J0D01*
G01*
X19996000Y-17030000D02*
G75*
G03X19996000Y-17030000I-50000J0D01*
G01*
X20250000Y-17030000D02*
G75*
G03X20250000Y-17030000I-50000J0D01*
G01*
X20600000Y-11990000D02*
G75*
G03X20600000Y-11990000I-50000J0D01*
G01*
X20732000Y-17030000D02*
G75*
G03X20732000Y-17030000I-50000J0D01*
G01*
X20790000Y-11110000D02*
G75*
G03X20790000Y-11110000I-50000J0D01*
G01*
X20890000Y-15272000D02*
G75*
G03X20890000Y-15272000I-50000J0D01*
G01*
X20890000Y-15526000D02*
G75*
G03X20890000Y-15526000I-50000J0D01*
G01*
X20890000Y-15780000D02*
G75*
G03X20890000Y-15780000I-50000J0D01*
G01*
X20986000Y-17030000D02*
G75*
G03X20986000Y-17030000I-50000J0D01*
G01*
X21044000Y-11110000D02*
G75*
G03X21044000Y-11110000I-50000J0D01*
G01*
X21240000Y-17030000D02*
G75*
G03X21240000Y-17030000I-50000J0D01*
G01*
X21298000Y-11110000D02*
G75*
G03X21298000Y-11110000I-50000J0D01*
G01*
X13822000Y-6566200D02*
X13822000Y-6667800D01*
X13771200Y-6617000D02*
X13872800Y-6617000D01*
X13822000Y-6820200D02*
X13822000Y-6921800D01*
X13771200Y-6871000D02*
X13872800Y-6871000D01*
X13822000Y-7074200D02*
X13822000Y-7175800D01*
X13771200Y-7125000D02*
X13872800Y-7125000D01*
X13822000Y-7328200D02*
X13822000Y-7429800D01*
X13771200Y-7379000D02*
X13872800Y-7379000D01*
X13822000Y-7582200D02*
X13822000Y-7683800D01*
X13771200Y-7633000D02*
X13872800Y-7633000D01*
X13822000Y-7836200D02*
X13822000Y-7937800D01*
X13771200Y-7887000D02*
X13872800Y-7887000D01*
X13822000Y-8090200D02*
X13822000Y-8191800D01*
X13771200Y-8141000D02*
X13872800Y-8141000D01*
X13822000Y-8344200D02*
X13822000Y-8445800D01*
X13771200Y-8395000D02*
X13872800Y-8395000D01*
X14775700Y-3427700D02*
X14775700Y-3529300D01*
X14724900Y-3478500D02*
X14826500Y-3478500D01*
X15029700Y-3427700D02*
X15029700Y-3529300D01*
X14978900Y-3478500D02*
X15080500Y-3478500D01*
X15283700Y-3427700D02*
X15283700Y-3529300D01*
X15232900Y-3478500D02*
X15334500Y-3478500D01*
X15359900Y-6704300D02*
X15359900Y-6805900D01*
X15309100Y-6755100D02*
X15410700Y-6755100D01*
X15537700Y-3427700D02*
X15537700Y-3529300D01*
X15486900Y-3478500D02*
X15588500Y-3478500D01*
X15613900Y-6704300D02*
X15613900Y-6805900D01*
X15563100Y-6755100D02*
X15664700Y-6755100D01*
X15715500Y-8609300D02*
X15715500Y-8710900D01*
X15664700Y-8660100D02*
X15766300Y-8660100D01*
X15791700Y-3427700D02*
X15791700Y-3529300D01*
X15740900Y-3478500D02*
X15842500Y-3478500D01*
X15867900Y-6704300D02*
X15867900Y-6805900D01*
X15817100Y-6755100D02*
X15918700Y-6755100D01*
X15969500Y-8609300D02*
X15969500Y-8710900D01*
X15918700Y-8660100D02*
X16020300Y-8660100D01*
X16045700Y-3427700D02*
X16045700Y-3529300D01*
X15994900Y-3478500D02*
X16096500Y-3478500D01*
X16121900Y-6704300D02*
X16121900Y-6805900D01*
X16071100Y-6755100D02*
X16172700Y-6755100D01*
X16233500Y-8609300D02*
X16233500Y-8710900D01*
X16182700Y-8660100D02*
X16284300Y-8660100D01*
X20594000Y-8951200D02*
X20594000Y-9052800D01*
X20543200Y-9002000D02*
X20644800Y-9002000D01*
X20848000Y-8951200D02*
X20848000Y-9052800D01*
X20797200Y-9002000D02*
X20898800Y-9002000D01*
X21102000Y-8951200D02*
X21102000Y-9052800D01*
X21051200Y-9002000D02*
X21152800Y-9002000D01*
X21356000Y-8951200D02*
X21356000Y-9052800D01*
X21305200Y-9002000D02*
X21406800Y-9002000D01*
X21610000Y-8951200D02*
X21610000Y-9052800D01*
X21559200Y-9002000D02*
X21660800Y-9002000D01*
X7190979Y-14950979D02*
X7190979Y-14859021D01*
X7099021Y-14859021D01*
X7099021Y-14950979D01*
X7190979Y-14950979D01*
X9820979Y-15700979D02*
X9820979Y-15609021D01*
X9729021Y-15609021D01*
X9729021Y-15700979D01*
X9820979Y-15700979D01*
X11630979Y-6370979D02*
X11630979Y-6279021D01*
X11539021Y-6279021D01*
X11539021Y-6370979D01*
X11630979Y-6370979D01*
X11630979Y-7130979D02*
X11630979Y-7039021D01*
X11539021Y-7039021D01*
X11539021Y-7130979D01*
X11630979Y-7130979D01*
X12450979Y-15540979D02*
X12450979Y-15449021D01*
X12359021Y-15449021D01*
X12359021Y-15540979D01*
X12450979Y-15540979D01*
X12740979Y-11550979D02*
X12740979Y-11459021D01*
X12649021Y-11459021D01*
X12649021Y-11550979D01*
X12740979Y-11550979D01*
X12740979Y-12270979D02*
X12740979Y-12179021D01*
X12649021Y-12179021D01*
X12649021Y-12270979D01*
X12740979Y-12270979D01*
X12755979Y-5895979D02*
X12755979Y-5804021D01*
X12664021Y-5804021D01*
X12664021Y-5895979D01*
X12755979Y-5895979D01*
X12755979Y-6305979D02*
X12755979Y-6214021D01*
X12664021Y-6214021D01*
X12664021Y-6305979D01*
X12755979Y-6305979D01*
X21470000Y-18487000D02*
X21597000Y-18360000D01*
X21470000Y-18233000D01*
X21343000Y-18360000D01*
X21470000Y-18487000D01*
X21587000Y-18360000D02*
X21587000Y-18360000D01*
X21353000Y-18360000D02*
X21353000Y-18360000D01*
X21587000Y-18360000D02*
G75*
G03X21353000Y-18360000I-117000J0D01*
G01*
X21353000Y-18360000D02*
G75*
G03X21587000Y-18360000I117000J0D01*
G01*
X21851000Y-17979000D02*
X21978000Y-17852000D01*
X21851000Y-17725000D01*
X21724000Y-17852000D01*
X21851000Y-17979000D01*
X21968000Y-17852000D02*
X21968000Y-17852000D01*
X21734000Y-17852000D02*
X21734000Y-17852000D01*
X21968000Y-17852000D02*
G75*
G03X21734000Y-17852000I-117000J0D01*
G01*
X21734000Y-17852000D02*
G75*
G03X21968000Y-17852000I117000J0D01*
G01*
X22080000Y-18487000D02*
X22207000Y-18360000D01*
X22080000Y-18233000D01*
X21953000Y-18360000D01*
X22080000Y-18487000D01*
X3345000Y-11270000D02*
X3645000Y-11570000D01*
X3645000Y-11270000D02*
X3345000Y-11570000D01*
X3645000Y-11420000D02*
G75*
G03X3645000Y-11420000I-150000J0D01*
G01*
X4178000Y-2625000D02*
X4478000Y-2925000D01*
X4478000Y-2625000D02*
X4178000Y-2925000D01*
X4478000Y-2775000D02*
G75*
G03X4478000Y-2775000I-150000J0D01*
G01*
X4178000Y-8425000D02*
X4478000Y-8725000D01*
X4478000Y-8425000D02*
X4178000Y-8725000D01*
X4478000Y-8575000D02*
G75*
G03X4478000Y-8575000I-150000J0D01*
G01*
X9077000Y-2625000D02*
X9377000Y-2925000D01*
X9377000Y-2625000D02*
X9077000Y-2925000D01*
X9377000Y-2775000D02*
G75*
G03X9377000Y-2775000I-150000J0D01*
G01*
X9077000Y-8425000D02*
X9377000Y-8725000D01*
X9377000Y-8425000D02*
X9077000Y-8725000D01*
X9377000Y-8575000D02*
G75*
G03X9377000Y-8575000I-150000J0D01*
G01*
X9910000Y-11270000D02*
X10210000Y-11570000D01*
X10210000Y-11270000D02*
X9910000Y-11570000D01*
X10210000Y-11420000D02*
G75*
G03X10210000Y-11420000I-150000J0D01*
G01*
X6465000Y-8325000D02*
X7065000Y-8925000D01*
X7065000Y-8325000D02*
X6465000Y-8925000D01*
X6765000Y-8325000D02*
X6765000Y-8925000D01*
X6465000Y-8625000D02*
X7065000Y-8625000D01*
X5915000Y-8915000D02*
X7615000Y-8915000D01*
X5915000Y-8335000D02*
X7615000Y-8335000D01*
X7615000Y-8915000D02*
G75*
G03X7615000Y-8335000I0J290000D01*
G01*
X5915000Y-8335000D02*
G75*
G03X5915000Y-8915000I0J-290000D01*
G01*
X6465000Y-11045000D02*
X7065000Y-11645000D01*
X7065000Y-11045000D02*
X6465000Y-11645000D01*
X6765000Y-11045000D02*
X6765000Y-11645000D01*
X6465000Y-11345000D02*
X7065000Y-11345000D01*
X5915000Y-11635000D02*
X7615000Y-11635000D01*
X5915000Y-11055000D02*
X7615000Y-11055000D01*
X7615000Y-11635000D02*
G75*
G03X7615000Y-11055000I0J290000D01*
G01*
X5915000Y-11055000D02*
G75*
G03X5915000Y-11635000I0J-290000D01*
G01*
X7930000Y-2478000D02*
X8730000Y-3278000D01*
X8730000Y-2478000D02*
X7930000Y-3278000D01*
X8612845Y-3160845D02*
X8612845Y-2595155D01*
X8047155Y-2595155D01*
X8047155Y-3160845D01*
X8612845Y-3160845D01*
D13*
X3343928Y-19563214D02*
X3343928Y-19263214D01*
X3415357Y-19263214D01*
X3458214Y-19277500D01*
X3486786Y-19306072D01*
X3501071Y-19334643D01*
X3515357Y-19391786D01*
X3515357Y-19434643D01*
X3501071Y-19491786D01*
X3486786Y-19520357D01*
X3458214Y-19548929D01*
X3415357Y-19563214D01*
X3343928Y-19563214D01*
X3643928Y-19563214D02*
X3643928Y-19363214D01*
X3643928Y-19420357D02*
X3658214Y-19391786D01*
X3672500Y-19377500D01*
X3701071Y-19363214D01*
X3729643Y-19363214D01*
X3829643Y-19563214D02*
X3829643Y-19363214D01*
X3829643Y-19263214D02*
X3815357Y-19277500D01*
X3829643Y-19291786D01*
X3843928Y-19277500D01*
X3829643Y-19263214D01*
X3829643Y-19291786D01*
X4015357Y-19563214D02*
X3986786Y-19548929D01*
X3972500Y-19520357D01*
X3972500Y-19263214D01*
X4172500Y-19563214D02*
X4143928Y-19548929D01*
X4129643Y-19520357D01*
X4129643Y-19263214D01*
X4515357Y-19563214D02*
X4515357Y-19263214D01*
X4615357Y-19477500D01*
X4715357Y-19263214D01*
X4715357Y-19563214D01*
X4986786Y-19563214D02*
X4986786Y-19406072D01*
X4972500Y-19377500D01*
X4943929Y-19363214D01*
X4886786Y-19363214D01*
X4858214Y-19377500D01*
X4986786Y-19548929D02*
X4958214Y-19563214D01*
X4886786Y-19563214D01*
X4858214Y-19548929D01*
X4843929Y-19520357D01*
X4843929Y-19491786D01*
X4858214Y-19463214D01*
X4886786Y-19448929D01*
X4958214Y-19448929D01*
X4986786Y-19434643D01*
X5129643Y-19363214D02*
X5129643Y-19663214D01*
X5129643Y-19377500D02*
X5158214Y-19363214D01*
X5215357Y-19363214D01*
X5243929Y-19377500D01*
X5258214Y-19391786D01*
X5272500Y-19420357D01*
X5272500Y-19506072D01*
X5258214Y-19534643D01*
X5243929Y-19548929D01*
X5215357Y-19563214D01*
X5158214Y-19563214D01*
X5129643Y-19548929D01*
X5401071Y-19534643D02*
X5415357Y-19548929D01*
X5401071Y-19563214D01*
X5386786Y-19548929D01*
X5401071Y-19534643D01*
X5401071Y-19563214D01*
X5401071Y-19377500D02*
X5415357Y-19391786D01*
X5401071Y-19406072D01*
X5386786Y-19391786D01*
X5401071Y-19377500D01*
X5401071Y-19406072D01*
X2992500Y-20017500D02*
X3072500Y-20097500D01*
X3072500Y-20017500D02*
X2992500Y-20097500D01*
X3401071Y-19893214D02*
X3429643Y-19893214D01*
X3458214Y-19907500D01*
X3472500Y-19921786D01*
X3486786Y-19950357D01*
X3501071Y-20007500D01*
X3501071Y-20078929D01*
X3486786Y-20136072D01*
X3472500Y-20164643D01*
X3458214Y-20178929D01*
X3429643Y-20193214D01*
X3401071Y-20193214D01*
X3372500Y-20178929D01*
X3358214Y-20164643D01*
X3343928Y-20136072D01*
X3329643Y-20078929D01*
X3329643Y-20007500D01*
X3343928Y-19950357D01*
X3358214Y-19921786D01*
X3372500Y-19907500D01*
X3401071Y-19893214D01*
X3629643Y-20164643D02*
X3643928Y-20178929D01*
X3629643Y-20193214D01*
X3615357Y-20178929D01*
X3629643Y-20164643D01*
X3629643Y-20193214D01*
X3815357Y-20021786D02*
X3786786Y-20007500D01*
X3772500Y-19993214D01*
X3758214Y-19964643D01*
X3758214Y-19950357D01*
X3772500Y-19921786D01*
X3786786Y-19907500D01*
X3815357Y-19893214D01*
X3872500Y-19893214D01*
X3901071Y-19907500D01*
X3915357Y-19921786D01*
X3929643Y-19950357D01*
X3929643Y-19964643D01*
X3915357Y-19993214D01*
X3901071Y-20007500D01*
X3872500Y-20021786D01*
X3815357Y-20021786D01*
X3786786Y-20036072D01*
X3772500Y-20050357D01*
X3758214Y-20078929D01*
X3758214Y-20136072D01*
X3772500Y-20164643D01*
X3786786Y-20178929D01*
X3815357Y-20193214D01*
X3872500Y-20193214D01*
X3901071Y-20178929D01*
X3915357Y-20164643D01*
X3929643Y-20136072D01*
X3929643Y-20078929D01*
X3915357Y-20050357D01*
X3901071Y-20036072D01*
X3872500Y-20021786D01*
X4115357Y-19893214D02*
X4143928Y-19893214D01*
X4172500Y-19907500D01*
X4186786Y-19921786D01*
X4201071Y-19950357D01*
X4215357Y-20007500D01*
X4215357Y-20078929D01*
X4201071Y-20136072D01*
X4186786Y-20164643D01*
X4172500Y-20178929D01*
X4143928Y-20193214D01*
X4115357Y-20193214D01*
X4086786Y-20178929D01*
X4072500Y-20164643D01*
X4058214Y-20136072D01*
X4043928Y-20078929D01*
X4043928Y-20007500D01*
X4058214Y-19950357D01*
X4072500Y-19921786D01*
X4086786Y-19907500D01*
X4115357Y-19893214D01*
X4343929Y-20193214D02*
X4343929Y-19993214D01*
X4343929Y-20021786D02*
X4358214Y-20007500D01*
X4386786Y-19993214D01*
X4429643Y-19993214D01*
X4458214Y-20007500D01*
X4472500Y-20036072D01*
X4472500Y-20193214D01*
X4472500Y-20036072D02*
X4486786Y-20007500D01*
X4515357Y-19993214D01*
X4558214Y-19993214D01*
X4586786Y-20007500D01*
X4601071Y-20036072D01*
X4601071Y-20193214D01*
X4743929Y-20193214D02*
X4743929Y-19993214D01*
X4743929Y-20021786D02*
X4758214Y-20007500D01*
X4786786Y-19993214D01*
X4829643Y-19993214D01*
X4858214Y-20007500D01*
X4872500Y-20036072D01*
X4872500Y-20193214D01*
X4872500Y-20036072D02*
X4886786Y-20007500D01*
X4915357Y-19993214D01*
X4958214Y-19993214D01*
X4986786Y-20007500D01*
X5001071Y-20036072D01*
X5001071Y-20193214D01*
X5586786Y-19878929D02*
X5329643Y-20264643D01*
X5972500Y-19893214D02*
X6001071Y-19893214D01*
X6029643Y-19907500D01*
X6043928Y-19921786D01*
X6058214Y-19950357D01*
X6072500Y-20007500D01*
X6072500Y-20078929D01*
X6058214Y-20136072D01*
X6043928Y-20164643D01*
X6029643Y-20178929D01*
X6001071Y-20193214D01*
X5972500Y-20193214D01*
X5943928Y-20178929D01*
X5929643Y-20164643D01*
X5915357Y-20136072D01*
X5901071Y-20078929D01*
X5901071Y-20007500D01*
X5915357Y-19950357D01*
X5929643Y-19921786D01*
X5943928Y-19907500D01*
X5972500Y-19893214D01*
X6201071Y-20164643D02*
X6215357Y-20178929D01*
X6201071Y-20193214D01*
X6186786Y-20178929D01*
X6201071Y-20164643D01*
X6201071Y-20193214D01*
X6401071Y-19893214D02*
X6429643Y-19893214D01*
X6458214Y-19907500D01*
X6472500Y-19921786D01*
X6486785Y-19950357D01*
X6501071Y-20007500D01*
X6501071Y-20078929D01*
X6486785Y-20136072D01*
X6472500Y-20164643D01*
X6458214Y-20178929D01*
X6429643Y-20193214D01*
X6401071Y-20193214D01*
X6372500Y-20178929D01*
X6358214Y-20164643D01*
X6343928Y-20136072D01*
X6329643Y-20078929D01*
X6329643Y-20007500D01*
X6343928Y-19950357D01*
X6358214Y-19921786D01*
X6372500Y-19907500D01*
X6401071Y-19893214D01*
X6601071Y-19893214D02*
X6786785Y-19893214D01*
X6686785Y-20007500D01*
X6729643Y-20007500D01*
X6758214Y-20021786D01*
X6772500Y-20036072D01*
X6786785Y-20064643D01*
X6786785Y-20136072D01*
X6772500Y-20164643D01*
X6758214Y-20178929D01*
X6729643Y-20193214D01*
X6643928Y-20193214D01*
X6615357Y-20178929D01*
X6601071Y-20164643D01*
X7072500Y-20193214D02*
X6901071Y-20193214D01*
X6986785Y-20193214D02*
X6986785Y-19893214D01*
X6958214Y-19936072D01*
X6929643Y-19964643D01*
X6901071Y-19978929D01*
X7186786Y-19893214D02*
X7186786Y-19950357D01*
X7301071Y-19893214D02*
X7301071Y-19950357D01*
X7743928Y-20307500D02*
X7729643Y-20293214D01*
X7701071Y-20250357D01*
X7686785Y-20221786D01*
X7672500Y-20178929D01*
X7658214Y-20107500D01*
X7658214Y-20050357D01*
X7672500Y-19978929D01*
X7686785Y-19936072D01*
X7701071Y-19907500D01*
X7729643Y-19864643D01*
X7743928Y-19850357D01*
X8015357Y-20193214D02*
X7843928Y-20193214D01*
X7929643Y-20193214D02*
X7929643Y-19893214D01*
X7901071Y-19936072D01*
X7872500Y-19964643D01*
X7843928Y-19978929D01*
X8272500Y-19893214D02*
X8215357Y-19893214D01*
X8186785Y-19907500D01*
X8172500Y-19921786D01*
X8143928Y-19964643D01*
X8129643Y-20021786D01*
X8129643Y-20136072D01*
X8143928Y-20164643D01*
X8158214Y-20178929D01*
X8186785Y-20193214D01*
X8243928Y-20193214D01*
X8272500Y-20178929D01*
X8286785Y-20164643D01*
X8301071Y-20136072D01*
X8301071Y-20064643D01*
X8286785Y-20036072D01*
X8272500Y-20021786D01*
X8243928Y-20007500D01*
X8186785Y-20007500D01*
X8158214Y-20021786D01*
X8143928Y-20036072D01*
X8129643Y-20064643D01*
X8658214Y-20193214D02*
X8658214Y-19893214D01*
X8786786Y-20193214D02*
X8786786Y-20036072D01*
X8772500Y-20007500D01*
X8743928Y-19993214D01*
X8701071Y-19993214D01*
X8672500Y-20007500D01*
X8658214Y-20021786D01*
X8972500Y-20193214D02*
X8943928Y-20178929D01*
X8929643Y-20164643D01*
X8915357Y-20136072D01*
X8915357Y-20050357D01*
X8929643Y-20021786D01*
X8943928Y-20007500D01*
X8972500Y-19993214D01*
X9015357Y-19993214D01*
X9043928Y-20007500D01*
X9058214Y-20021786D01*
X9072500Y-20050357D01*
X9072500Y-20136072D01*
X9058214Y-20164643D01*
X9043928Y-20178929D01*
X9015357Y-20193214D01*
X8972500Y-20193214D01*
X9243928Y-20193214D02*
X9215357Y-20178929D01*
X9201071Y-20150357D01*
X9201071Y-19893214D01*
X9472500Y-20178929D02*
X9443929Y-20193214D01*
X9386786Y-20193214D01*
X9358214Y-20178929D01*
X9343929Y-20150357D01*
X9343929Y-20036072D01*
X9358214Y-20007500D01*
X9386786Y-19993214D01*
X9443929Y-19993214D01*
X9472500Y-20007500D01*
X9486786Y-20036072D01*
X9486786Y-20064643D01*
X9343929Y-20093214D01*
X9601071Y-20178929D02*
X9629643Y-20193214D01*
X9686786Y-20193214D01*
X9715357Y-20178929D01*
X9729643Y-20150357D01*
X9729643Y-20136072D01*
X9715357Y-20107500D01*
X9686786Y-20093214D01*
X9643929Y-20093214D01*
X9615357Y-20078929D01*
X9601071Y-20050357D01*
X9601071Y-20036072D01*
X9615357Y-20007500D01*
X9643929Y-19993214D01*
X9686786Y-19993214D01*
X9715357Y-20007500D01*
X9829643Y-20307500D02*
X9843929Y-20293214D01*
X9872500Y-20250357D01*
X9886786Y-20221786D01*
X9901071Y-20178929D01*
X9915357Y-20107500D01*
X9915357Y-20050357D01*
X9901071Y-19978929D01*
X9886786Y-19936072D01*
X9872500Y-19907500D01*
X9843929Y-19864643D01*
X9829643Y-19850357D01*
X3072500Y-20453500D02*
G75*
G03X3072500Y-20453500I-50000J0D01*
G01*
X3501071Y-20589214D02*
X3329643Y-20589214D01*
X3415357Y-20589214D02*
X3415357Y-20289214D01*
X3386786Y-20332072D01*
X3358214Y-20360643D01*
X3329643Y-20374929D01*
X3629643Y-20560643D02*
X3643928Y-20574929D01*
X3629643Y-20589214D01*
X3615357Y-20574929D01*
X3629643Y-20560643D01*
X3629643Y-20589214D01*
X3829643Y-20289214D02*
X3858214Y-20289214D01*
X3886786Y-20303500D01*
X3901071Y-20317786D01*
X3915357Y-20346357D01*
X3929643Y-20403500D01*
X3929643Y-20474929D01*
X3915357Y-20532072D01*
X3901071Y-20560643D01*
X3886786Y-20574929D01*
X3858214Y-20589214D01*
X3829643Y-20589214D01*
X3801071Y-20574929D01*
X3786786Y-20560643D01*
X3772500Y-20532072D01*
X3758214Y-20474929D01*
X3758214Y-20403500D01*
X3772500Y-20346357D01*
X3786786Y-20317786D01*
X3801071Y-20303500D01*
X3829643Y-20289214D01*
X4115357Y-20289214D02*
X4143928Y-20289214D01*
X4172500Y-20303500D01*
X4186786Y-20317786D01*
X4201071Y-20346357D01*
X4215357Y-20403500D01*
X4215357Y-20474929D01*
X4201071Y-20532072D01*
X4186786Y-20560643D01*
X4172500Y-20574929D01*
X4143928Y-20589214D01*
X4115357Y-20589214D01*
X4086786Y-20574929D01*
X4072500Y-20560643D01*
X4058214Y-20532072D01*
X4043928Y-20474929D01*
X4043928Y-20403500D01*
X4058214Y-20346357D01*
X4072500Y-20317786D01*
X4086786Y-20303500D01*
X4115357Y-20289214D01*
X4343929Y-20589214D02*
X4343929Y-20389214D01*
X4343929Y-20417786D02*
X4358214Y-20403500D01*
X4386786Y-20389214D01*
X4429643Y-20389214D01*
X4458214Y-20403500D01*
X4472500Y-20432072D01*
X4472500Y-20589214D01*
X4472500Y-20432072D02*
X4486786Y-20403500D01*
X4515357Y-20389214D01*
X4558214Y-20389214D01*
X4586786Y-20403500D01*
X4601071Y-20432072D01*
X4601071Y-20589214D01*
X4743929Y-20589214D02*
X4743929Y-20389214D01*
X4743929Y-20417786D02*
X4758214Y-20403500D01*
X4786786Y-20389214D01*
X4829643Y-20389214D01*
X4858214Y-20403500D01*
X4872500Y-20432072D01*
X4872500Y-20589214D01*
X4872500Y-20432072D02*
X4886786Y-20403500D01*
X4915357Y-20389214D01*
X4958214Y-20389214D01*
X4986786Y-20403500D01*
X5001071Y-20432072D01*
X5001071Y-20589214D01*
X5586786Y-20274929D02*
X5329643Y-20660643D01*
X5972500Y-20289214D02*
X6001071Y-20289214D01*
X6029643Y-20303500D01*
X6043928Y-20317786D01*
X6058214Y-20346357D01*
X6072500Y-20403500D01*
X6072500Y-20474929D01*
X6058214Y-20532072D01*
X6043928Y-20560643D01*
X6029643Y-20574929D01*
X6001071Y-20589214D01*
X5972500Y-20589214D01*
X5943928Y-20574929D01*
X5929643Y-20560643D01*
X5915357Y-20532072D01*
X5901071Y-20474929D01*
X5901071Y-20403500D01*
X5915357Y-20346357D01*
X5929643Y-20317786D01*
X5943928Y-20303500D01*
X5972500Y-20289214D01*
X6201071Y-20560643D02*
X6215357Y-20574929D01*
X6201071Y-20589214D01*
X6186786Y-20574929D01*
X6201071Y-20560643D01*
X6201071Y-20589214D01*
X6401071Y-20289214D02*
X6429643Y-20289214D01*
X6458214Y-20303500D01*
X6472500Y-20317786D01*
X6486785Y-20346357D01*
X6501071Y-20403500D01*
X6501071Y-20474929D01*
X6486785Y-20532072D01*
X6472500Y-20560643D01*
X6458214Y-20574929D01*
X6429643Y-20589214D01*
X6401071Y-20589214D01*
X6372500Y-20574929D01*
X6358214Y-20560643D01*
X6343928Y-20532072D01*
X6329643Y-20474929D01*
X6329643Y-20403500D01*
X6343928Y-20346357D01*
X6358214Y-20317786D01*
X6372500Y-20303500D01*
X6401071Y-20289214D01*
X6601071Y-20289214D02*
X6786785Y-20289214D01*
X6686785Y-20403500D01*
X6729643Y-20403500D01*
X6758214Y-20417786D01*
X6772500Y-20432072D01*
X6786785Y-20460643D01*
X6786785Y-20532072D01*
X6772500Y-20560643D01*
X6758214Y-20574929D01*
X6729643Y-20589214D01*
X6643928Y-20589214D01*
X6615357Y-20574929D01*
X6601071Y-20560643D01*
X6929643Y-20589214D02*
X6986785Y-20589214D01*
X7015357Y-20574929D01*
X7029643Y-20560643D01*
X7058214Y-20517786D01*
X7072500Y-20460643D01*
X7072500Y-20346357D01*
X7058214Y-20317786D01*
X7043928Y-20303500D01*
X7015357Y-20289214D01*
X6958214Y-20289214D01*
X6929643Y-20303500D01*
X6915357Y-20317786D01*
X6901071Y-20346357D01*
X6901071Y-20417786D01*
X6915357Y-20446357D01*
X6929643Y-20460643D01*
X6958214Y-20474929D01*
X7015357Y-20474929D01*
X7043928Y-20460643D01*
X7058214Y-20446357D01*
X7072500Y-20417786D01*
X7186786Y-20289214D02*
X7186786Y-20346357D01*
X7301071Y-20289214D02*
X7301071Y-20346357D01*
X7743928Y-20703500D02*
X7729643Y-20689214D01*
X7701071Y-20646357D01*
X7686785Y-20617786D01*
X7672500Y-20574929D01*
X7658214Y-20503500D01*
X7658214Y-20446357D01*
X7672500Y-20374929D01*
X7686785Y-20332072D01*
X7701071Y-20303500D01*
X7729643Y-20260643D01*
X7743928Y-20246357D01*
X8015357Y-20589214D02*
X7843928Y-20589214D01*
X7929643Y-20589214D02*
X7929643Y-20289214D01*
X7901071Y-20332072D01*
X7872500Y-20360643D01*
X7843928Y-20374929D01*
X8115357Y-20289214D02*
X8301071Y-20289214D01*
X8201071Y-20403500D01*
X8243928Y-20403500D01*
X8272500Y-20417786D01*
X8286785Y-20432072D01*
X8301071Y-20460643D01*
X8301071Y-20532072D01*
X8286785Y-20560643D01*
X8272500Y-20574929D01*
X8243928Y-20589214D01*
X8158214Y-20589214D01*
X8129643Y-20574929D01*
X8115357Y-20560643D01*
X8572500Y-20289214D02*
X8429643Y-20289214D01*
X8415357Y-20432072D01*
X8429643Y-20417786D01*
X8458214Y-20403500D01*
X8529643Y-20403500D01*
X8558214Y-20417786D01*
X8572500Y-20432072D01*
X8586786Y-20460643D01*
X8586786Y-20532072D01*
X8572500Y-20560643D01*
X8558214Y-20574929D01*
X8529643Y-20589214D01*
X8458214Y-20589214D01*
X8429643Y-20574929D01*
X8415357Y-20560643D01*
X8943928Y-20589214D02*
X8943928Y-20289214D01*
X9072500Y-20589214D02*
X9072500Y-20432072D01*
X9058214Y-20403500D01*
X9029643Y-20389214D01*
X8986786Y-20389214D01*
X8958214Y-20403500D01*
X8943928Y-20417786D01*
X9258214Y-20589214D02*
X9229643Y-20574929D01*
X9215357Y-20560643D01*
X9201071Y-20532072D01*
X9201071Y-20446357D01*
X9215357Y-20417786D01*
X9229643Y-20403500D01*
X9258214Y-20389214D01*
X9301071Y-20389214D01*
X9329643Y-20403500D01*
X9343928Y-20417786D01*
X9358214Y-20446357D01*
X9358214Y-20532072D01*
X9343928Y-20560643D01*
X9329643Y-20574929D01*
X9301071Y-20589214D01*
X9258214Y-20589214D01*
X9529643Y-20589214D02*
X9501071Y-20574929D01*
X9486786Y-20546357D01*
X9486786Y-20289214D01*
X9758214Y-20574929D02*
X9729643Y-20589214D01*
X9672500Y-20589214D01*
X9643929Y-20574929D01*
X9629643Y-20546357D01*
X9629643Y-20432072D01*
X9643929Y-20403500D01*
X9672500Y-20389214D01*
X9729643Y-20389214D01*
X9758214Y-20403500D01*
X9772500Y-20432072D01*
X9772500Y-20460643D01*
X9629643Y-20489214D01*
X9886786Y-20574929D02*
X9915357Y-20589214D01*
X9972500Y-20589214D01*
X10001071Y-20574929D01*
X10015357Y-20546357D01*
X10015357Y-20532072D01*
X10001071Y-20503500D01*
X9972500Y-20489214D01*
X9929643Y-20489214D01*
X9901071Y-20474929D01*
X9886786Y-20446357D01*
X9886786Y-20432072D01*
X9901071Y-20403500D01*
X9929643Y-20389214D01*
X9972500Y-20389214D01*
X10001071Y-20403500D01*
X10115357Y-20703500D02*
X10129643Y-20689214D01*
X10158214Y-20646357D01*
X10172500Y-20617786D01*
X10186786Y-20574929D01*
X10201071Y-20503500D01*
X10201071Y-20446357D01*
X10186786Y-20374929D01*
X10172500Y-20332072D01*
X10158214Y-20303500D01*
X10129643Y-20260643D01*
X10115357Y-20246357D01*
X3021700Y-20798700D02*
X3021700Y-20900300D01*
X2970900Y-20849500D02*
X3072500Y-20849500D01*
X3501071Y-20985214D02*
X3329643Y-20985214D01*
X3415357Y-20985214D02*
X3415357Y-20685214D01*
X3386786Y-20728072D01*
X3358214Y-20756643D01*
X3329643Y-20770929D01*
X3629643Y-20956643D02*
X3643928Y-20970929D01*
X3629643Y-20985214D01*
X3615357Y-20970929D01*
X3629643Y-20956643D01*
X3629643Y-20985214D01*
X3829643Y-20685214D02*
X3858214Y-20685214D01*
X3886786Y-20699500D01*
X3901071Y-20713786D01*
X3915357Y-20742357D01*
X3929643Y-20799500D01*
X3929643Y-20870929D01*
X3915357Y-20928072D01*
X3901071Y-20956643D01*
X3886786Y-20970929D01*
X3858214Y-20985214D01*
X3829643Y-20985214D01*
X3801071Y-20970929D01*
X3786786Y-20956643D01*
X3772500Y-20928072D01*
X3758214Y-20870929D01*
X3758214Y-20799500D01*
X3772500Y-20742357D01*
X3786786Y-20713786D01*
X3801071Y-20699500D01*
X3829643Y-20685214D01*
X4043928Y-20713786D02*
X4058214Y-20699500D01*
X4086786Y-20685214D01*
X4158214Y-20685214D01*
X4186786Y-20699500D01*
X4201071Y-20713786D01*
X4215357Y-20742357D01*
X4215357Y-20770929D01*
X4201071Y-20813786D01*
X4029643Y-20985214D01*
X4215357Y-20985214D01*
X4343929Y-20985214D02*
X4343929Y-20785214D01*
X4343929Y-20813786D02*
X4358214Y-20799500D01*
X4386786Y-20785214D01*
X4429643Y-20785214D01*
X4458214Y-20799500D01*
X4472500Y-20828072D01*
X4472500Y-20985214D01*
X4472500Y-20828072D02*
X4486786Y-20799500D01*
X4515357Y-20785214D01*
X4558214Y-20785214D01*
X4586786Y-20799500D01*
X4601071Y-20828072D01*
X4601071Y-20985214D01*
X4743929Y-20985214D02*
X4743929Y-20785214D01*
X4743929Y-20813786D02*
X4758214Y-20799500D01*
X4786786Y-20785214D01*
X4829643Y-20785214D01*
X4858214Y-20799500D01*
X4872500Y-20828072D01*
X4872500Y-20985214D01*
X4872500Y-20828072D02*
X4886786Y-20799500D01*
X4915357Y-20785214D01*
X4958214Y-20785214D01*
X4986786Y-20799500D01*
X5001071Y-20828072D01*
X5001071Y-20985214D01*
X5586786Y-20670929D02*
X5329643Y-21056643D01*
X5972500Y-20685214D02*
X6001071Y-20685214D01*
X6029643Y-20699500D01*
X6043928Y-20713786D01*
X6058214Y-20742357D01*
X6072500Y-20799500D01*
X6072500Y-20870929D01*
X6058214Y-20928072D01*
X6043928Y-20956643D01*
X6029643Y-20970929D01*
X6001071Y-20985214D01*
X5972500Y-20985214D01*
X5943928Y-20970929D01*
X5929643Y-20956643D01*
X5915357Y-20928072D01*
X5901071Y-20870929D01*
X5901071Y-20799500D01*
X5915357Y-20742357D01*
X5929643Y-20713786D01*
X5943928Y-20699500D01*
X5972500Y-20685214D01*
X6201071Y-20956643D02*
X6215357Y-20970929D01*
X6201071Y-20985214D01*
X6186786Y-20970929D01*
X6201071Y-20956643D01*
X6201071Y-20985214D01*
X6401071Y-20685214D02*
X6429643Y-20685214D01*
X6458214Y-20699500D01*
X6472500Y-20713786D01*
X6486785Y-20742357D01*
X6501071Y-20799500D01*
X6501071Y-20870929D01*
X6486785Y-20928072D01*
X6472500Y-20956643D01*
X6458214Y-20970929D01*
X6429643Y-20985214D01*
X6401071Y-20985214D01*
X6372500Y-20970929D01*
X6358214Y-20956643D01*
X6343928Y-20928072D01*
X6329643Y-20870929D01*
X6329643Y-20799500D01*
X6343928Y-20742357D01*
X6358214Y-20713786D01*
X6372500Y-20699500D01*
X6401071Y-20685214D01*
X6758214Y-20785214D02*
X6758214Y-20985214D01*
X6686785Y-20670929D02*
X6615357Y-20885214D01*
X6801071Y-20885214D01*
X6972500Y-20685214D02*
X7001071Y-20685214D01*
X7029643Y-20699500D01*
X7043928Y-20713786D01*
X7058214Y-20742357D01*
X7072500Y-20799500D01*
X7072500Y-20870929D01*
X7058214Y-20928072D01*
X7043928Y-20956643D01*
X7029643Y-20970929D01*
X7001071Y-20985214D01*
X6972500Y-20985214D01*
X6943928Y-20970929D01*
X6929643Y-20956643D01*
X6915357Y-20928072D01*
X6901071Y-20870929D01*
X6901071Y-20799500D01*
X6915357Y-20742357D01*
X6929643Y-20713786D01*
X6943928Y-20699500D01*
X6972500Y-20685214D01*
X7186786Y-20685214D02*
X7186786Y-20742357D01*
X7301071Y-20685214D02*
X7301071Y-20742357D01*
X7743928Y-21099500D02*
X7729643Y-21085214D01*
X7701071Y-21042357D01*
X7686785Y-21013786D01*
X7672500Y-20970929D01*
X7658214Y-20899500D01*
X7658214Y-20842357D01*
X7672500Y-20770929D01*
X7686785Y-20728072D01*
X7701071Y-20699500D01*
X7729643Y-20656643D01*
X7743928Y-20642357D01*
X7843928Y-20713786D02*
X7858214Y-20699500D01*
X7886785Y-20685214D01*
X7958214Y-20685214D01*
X7986785Y-20699500D01*
X8001071Y-20713786D01*
X8015357Y-20742357D01*
X8015357Y-20770929D01*
X8001071Y-20813786D01*
X7829643Y-20985214D01*
X8015357Y-20985214D01*
X8272500Y-20685214D02*
X8215357Y-20685214D01*
X8186785Y-20699500D01*
X8172500Y-20713786D01*
X8143928Y-20756643D01*
X8129643Y-20813786D01*
X8129643Y-20928072D01*
X8143928Y-20956643D01*
X8158214Y-20970929D01*
X8186785Y-20985214D01*
X8243928Y-20985214D01*
X8272500Y-20970929D01*
X8286785Y-20956643D01*
X8301071Y-20928072D01*
X8301071Y-20856643D01*
X8286785Y-20828072D01*
X8272500Y-20813786D01*
X8243928Y-20799500D01*
X8186785Y-20799500D01*
X8158214Y-20813786D01*
X8143928Y-20828072D01*
X8129643Y-20856643D01*
X8658214Y-20985214D02*
X8658214Y-20685214D01*
X8786786Y-20985214D02*
X8786786Y-20828072D01*
X8772500Y-20799500D01*
X8743928Y-20785214D01*
X8701071Y-20785214D01*
X8672500Y-20799500D01*
X8658214Y-20813786D01*
X8972500Y-20985214D02*
X8943928Y-20970929D01*
X8929643Y-20956643D01*
X8915357Y-20928072D01*
X8915357Y-20842357D01*
X8929643Y-20813786D01*
X8943928Y-20799500D01*
X8972500Y-20785214D01*
X9015357Y-20785214D01*
X9043928Y-20799500D01*
X9058214Y-20813786D01*
X9072500Y-20842357D01*
X9072500Y-20928072D01*
X9058214Y-20956643D01*
X9043928Y-20970929D01*
X9015357Y-20985214D01*
X8972500Y-20985214D01*
X9243928Y-20985214D02*
X9215357Y-20970929D01*
X9201071Y-20942357D01*
X9201071Y-20685214D01*
X9472500Y-20970929D02*
X9443929Y-20985214D01*
X9386786Y-20985214D01*
X9358214Y-20970929D01*
X9343929Y-20942357D01*
X9343929Y-20828072D01*
X9358214Y-20799500D01*
X9386786Y-20785214D01*
X9443929Y-20785214D01*
X9472500Y-20799500D01*
X9486786Y-20828072D01*
X9486786Y-20856643D01*
X9343929Y-20885214D01*
X9601071Y-20970929D02*
X9629643Y-20985214D01*
X9686786Y-20985214D01*
X9715357Y-20970929D01*
X9729643Y-20942357D01*
X9729643Y-20928072D01*
X9715357Y-20899500D01*
X9686786Y-20885214D01*
X9643929Y-20885214D01*
X9615357Y-20870929D01*
X9601071Y-20842357D01*
X9601071Y-20828072D01*
X9615357Y-20799500D01*
X9643929Y-20785214D01*
X9686786Y-20785214D01*
X9715357Y-20799500D01*
X9829643Y-21099500D02*
X9843929Y-21085214D01*
X9872500Y-21042357D01*
X9886786Y-21013786D01*
X9901071Y-20970929D01*
X9915357Y-20899500D01*
X9915357Y-20842357D01*
X9901071Y-20770929D01*
X9886786Y-20728072D01*
X9872500Y-20699500D01*
X9843929Y-20656643D01*
X9829643Y-20642357D01*
X3053455Y-21291480D02*
X3053455Y-21199521D01*
X2961496Y-21199521D01*
X2961496Y-21291480D01*
X3053455Y-21291480D01*
X3501071Y-21381214D02*
X3329643Y-21381214D01*
X3415357Y-21381214D02*
X3415357Y-21081214D01*
X3386786Y-21124072D01*
X3358214Y-21152643D01*
X3329643Y-21166929D01*
X3629643Y-21352643D02*
X3643928Y-21366929D01*
X3629643Y-21381214D01*
X3615357Y-21366929D01*
X3629643Y-21352643D01*
X3629643Y-21381214D01*
X3743928Y-21081214D02*
X3929643Y-21081214D01*
X3829643Y-21195500D01*
X3872500Y-21195500D01*
X3901071Y-21209786D01*
X3915357Y-21224072D01*
X3929643Y-21252643D01*
X3929643Y-21324072D01*
X3915357Y-21352643D01*
X3901071Y-21366929D01*
X3872500Y-21381214D01*
X3786786Y-21381214D01*
X3758214Y-21366929D01*
X3743928Y-21352643D01*
X4115357Y-21081214D02*
X4143928Y-21081214D01*
X4172500Y-21095500D01*
X4186786Y-21109786D01*
X4201071Y-21138357D01*
X4215357Y-21195500D01*
X4215357Y-21266929D01*
X4201071Y-21324072D01*
X4186786Y-21352643D01*
X4172500Y-21366929D01*
X4143928Y-21381214D01*
X4115357Y-21381214D01*
X4086786Y-21366929D01*
X4072500Y-21352643D01*
X4058214Y-21324072D01*
X4043928Y-21266929D01*
X4043928Y-21195500D01*
X4058214Y-21138357D01*
X4072500Y-21109786D01*
X4086786Y-21095500D01*
X4115357Y-21081214D01*
X4343929Y-21381214D02*
X4343929Y-21181214D01*
X4343929Y-21209786D02*
X4358214Y-21195500D01*
X4386786Y-21181214D01*
X4429643Y-21181214D01*
X4458214Y-21195500D01*
X4472500Y-21224072D01*
X4472500Y-21381214D01*
X4472500Y-21224072D02*
X4486786Y-21195500D01*
X4515357Y-21181214D01*
X4558214Y-21181214D01*
X4586786Y-21195500D01*
X4601071Y-21224072D01*
X4601071Y-21381214D01*
X4743929Y-21381214D02*
X4743929Y-21181214D01*
X4743929Y-21209786D02*
X4758214Y-21195500D01*
X4786786Y-21181214D01*
X4829643Y-21181214D01*
X4858214Y-21195500D01*
X4872500Y-21224072D01*
X4872500Y-21381214D01*
X4872500Y-21224072D02*
X4886786Y-21195500D01*
X4915357Y-21181214D01*
X4958214Y-21181214D01*
X4986786Y-21195500D01*
X5001071Y-21224072D01*
X5001071Y-21381214D01*
X5586786Y-21066929D02*
X5329643Y-21452643D01*
X5972500Y-21081214D02*
X6001071Y-21081214D01*
X6029643Y-21095500D01*
X6043928Y-21109786D01*
X6058214Y-21138357D01*
X6072500Y-21195500D01*
X6072500Y-21266929D01*
X6058214Y-21324072D01*
X6043928Y-21352643D01*
X6029643Y-21366929D01*
X6001071Y-21381214D01*
X5972500Y-21381214D01*
X5943928Y-21366929D01*
X5929643Y-21352643D01*
X5915357Y-21324072D01*
X5901071Y-21266929D01*
X5901071Y-21195500D01*
X5915357Y-21138357D01*
X5929643Y-21109786D01*
X5943928Y-21095500D01*
X5972500Y-21081214D01*
X6201071Y-21352643D02*
X6215357Y-21366929D01*
X6201071Y-21381214D01*
X6186786Y-21366929D01*
X6201071Y-21352643D01*
X6201071Y-21381214D01*
X6401071Y-21081214D02*
X6429643Y-21081214D01*
X6458214Y-21095500D01*
X6472500Y-21109786D01*
X6486785Y-21138357D01*
X6501071Y-21195500D01*
X6501071Y-21266929D01*
X6486785Y-21324072D01*
X6472500Y-21352643D01*
X6458214Y-21366929D01*
X6429643Y-21381214D01*
X6401071Y-21381214D01*
X6372500Y-21366929D01*
X6358214Y-21352643D01*
X6343928Y-21324072D01*
X6329643Y-21266929D01*
X6329643Y-21195500D01*
X6343928Y-21138357D01*
X6358214Y-21109786D01*
X6372500Y-21095500D01*
X6401071Y-21081214D01*
X6772500Y-21081214D02*
X6629643Y-21081214D01*
X6615357Y-21224072D01*
X6629643Y-21209786D01*
X6658214Y-21195500D01*
X6729643Y-21195500D01*
X6758214Y-21209786D01*
X6772500Y-21224072D01*
X6786785Y-21252643D01*
X6786785Y-21324072D01*
X6772500Y-21352643D01*
X6758214Y-21366929D01*
X6729643Y-21381214D01*
X6658214Y-21381214D01*
X6629643Y-21366929D01*
X6615357Y-21352643D01*
X7072500Y-21381214D02*
X6901071Y-21381214D01*
X6986785Y-21381214D02*
X6986785Y-21081214D01*
X6958214Y-21124072D01*
X6929643Y-21152643D01*
X6901071Y-21166929D01*
X7186786Y-21081214D02*
X7186786Y-21138357D01*
X7301071Y-21081214D02*
X7301071Y-21138357D01*
X7743928Y-21495500D02*
X7729643Y-21481214D01*
X7701071Y-21438357D01*
X7686785Y-21409786D01*
X7672500Y-21366929D01*
X7658214Y-21295500D01*
X7658214Y-21238357D01*
X7672500Y-21166929D01*
X7686785Y-21124072D01*
X7701071Y-21095500D01*
X7729643Y-21052643D01*
X7743928Y-21038357D01*
X7872500Y-21381214D02*
X7929643Y-21381214D01*
X7958214Y-21366929D01*
X7972500Y-21352643D01*
X8001071Y-21309786D01*
X8015357Y-21252643D01*
X8015357Y-21138357D01*
X8001071Y-21109786D01*
X7986785Y-21095500D01*
X7958214Y-21081214D01*
X7901071Y-21081214D01*
X7872500Y-21095500D01*
X7858214Y-21109786D01*
X7843928Y-21138357D01*
X7843928Y-21209786D01*
X7858214Y-21238357D01*
X7872500Y-21252643D01*
X7901071Y-21266929D01*
X7958214Y-21266929D01*
X7986785Y-21252643D01*
X8001071Y-21238357D01*
X8015357Y-21209786D01*
X8372500Y-21381214D02*
X8372500Y-21081214D01*
X8501071Y-21381214D02*
X8501071Y-21224072D01*
X8486786Y-21195500D01*
X8458214Y-21181214D01*
X8415357Y-21181214D01*
X8386785Y-21195500D01*
X8372500Y-21209786D01*
X8686786Y-21381214D02*
X8658214Y-21366929D01*
X8643928Y-21352643D01*
X8629643Y-21324072D01*
X8629643Y-21238357D01*
X8643928Y-21209786D01*
X8658214Y-21195500D01*
X8686786Y-21181214D01*
X8729643Y-21181214D01*
X8758214Y-21195500D01*
X8772500Y-21209786D01*
X8786786Y-21238357D01*
X8786786Y-21324072D01*
X8772500Y-21352643D01*
X8758214Y-21366929D01*
X8729643Y-21381214D01*
X8686786Y-21381214D01*
X8958214Y-21381214D02*
X8929643Y-21366929D01*
X8915357Y-21338357D01*
X8915357Y-21081214D01*
X9186786Y-21366929D02*
X9158214Y-21381214D01*
X9101071Y-21381214D01*
X9072500Y-21366929D01*
X9058214Y-21338357D01*
X9058214Y-21224072D01*
X9072500Y-21195500D01*
X9101071Y-21181214D01*
X9158214Y-21181214D01*
X9186786Y-21195500D01*
X9201071Y-21224072D01*
X9201071Y-21252643D01*
X9058214Y-21281214D01*
X9315357Y-21366929D02*
X9343929Y-21381214D01*
X9401071Y-21381214D01*
X9429643Y-21366929D01*
X9443929Y-21338357D01*
X9443929Y-21324072D01*
X9429643Y-21295500D01*
X9401071Y-21281214D01*
X9358214Y-21281214D01*
X9329643Y-21266929D01*
X9315357Y-21238357D01*
X9315357Y-21224072D01*
X9329643Y-21195500D01*
X9358214Y-21181214D01*
X9401071Y-21181214D01*
X9429643Y-21195500D01*
X9543928Y-21495500D02*
X9558214Y-21481214D01*
X9586786Y-21438357D01*
X9601071Y-21409786D01*
X9615357Y-21366929D01*
X9629643Y-21295500D01*
X9629643Y-21238357D01*
X9615357Y-21166929D01*
X9601071Y-21124072D01*
X9586786Y-21095500D01*
X9558214Y-21052643D01*
X9543928Y-21038357D01*
X2945500Y-21768500D02*
X3072500Y-21641500D01*
X2945500Y-21514500D01*
X2818500Y-21641500D01*
X2945500Y-21768500D01*
X3329643Y-21505786D02*
X3343928Y-21491500D01*
X3372500Y-21477214D01*
X3443928Y-21477214D01*
X3472500Y-21491500D01*
X3486786Y-21505786D01*
X3501071Y-21534357D01*
X3501071Y-21562929D01*
X3486786Y-21605786D01*
X3315357Y-21777214D01*
X3501071Y-21777214D01*
X3629643Y-21748643D02*
X3643928Y-21762929D01*
X3629643Y-21777214D01*
X3615357Y-21762929D01*
X3629643Y-21748643D01*
X3629643Y-21777214D01*
X3915357Y-21477214D02*
X3772500Y-21477214D01*
X3758214Y-21620072D01*
X3772500Y-21605786D01*
X3801071Y-21591500D01*
X3872500Y-21591500D01*
X3901071Y-21605786D01*
X3915357Y-21620072D01*
X3929643Y-21648643D01*
X3929643Y-21720072D01*
X3915357Y-21748643D01*
X3901071Y-21762929D01*
X3872500Y-21777214D01*
X3801071Y-21777214D01*
X3772500Y-21762929D01*
X3758214Y-21748643D01*
X4186786Y-21577214D02*
X4186786Y-21777214D01*
X4115357Y-21462929D02*
X4043928Y-21677214D01*
X4229643Y-21677214D01*
X4343929Y-21777214D02*
X4343929Y-21577214D01*
X4343929Y-21605786D02*
X4358214Y-21591500D01*
X4386786Y-21577214D01*
X4429643Y-21577214D01*
X4458214Y-21591500D01*
X4472500Y-21620072D01*
X4472500Y-21777214D01*
X4472500Y-21620072D02*
X4486786Y-21591500D01*
X4515357Y-21577214D01*
X4558214Y-21577214D01*
X4586786Y-21591500D01*
X4601071Y-21620072D01*
X4601071Y-21777214D01*
X4743929Y-21777214D02*
X4743929Y-21577214D01*
X4743929Y-21605786D02*
X4758214Y-21591500D01*
X4786786Y-21577214D01*
X4829643Y-21577214D01*
X4858214Y-21591500D01*
X4872500Y-21620072D01*
X4872500Y-21777214D01*
X4872500Y-21620072D02*
X4886786Y-21591500D01*
X4915357Y-21577214D01*
X4958214Y-21577214D01*
X4986786Y-21591500D01*
X5001071Y-21620072D01*
X5001071Y-21777214D01*
X5586786Y-21462929D02*
X5329643Y-21848643D01*
X5972500Y-21477214D02*
X6001071Y-21477214D01*
X6029643Y-21491500D01*
X6043928Y-21505786D01*
X6058214Y-21534357D01*
X6072500Y-21591500D01*
X6072500Y-21662929D01*
X6058214Y-21720072D01*
X6043928Y-21748643D01*
X6029643Y-21762929D01*
X6001071Y-21777214D01*
X5972500Y-21777214D01*
X5943928Y-21762929D01*
X5929643Y-21748643D01*
X5915357Y-21720072D01*
X5901071Y-21662929D01*
X5901071Y-21591500D01*
X5915357Y-21534357D01*
X5929643Y-21505786D01*
X5943928Y-21491500D01*
X5972500Y-21477214D01*
X6201071Y-21748643D02*
X6215357Y-21762929D01*
X6201071Y-21777214D01*
X6186786Y-21762929D01*
X6201071Y-21748643D01*
X6201071Y-21777214D01*
X6501071Y-21777214D02*
X6329643Y-21777214D01*
X6415357Y-21777214D02*
X6415357Y-21477214D01*
X6386785Y-21520072D01*
X6358214Y-21548643D01*
X6329643Y-21562929D01*
X6686785Y-21477214D02*
X6715357Y-21477214D01*
X6743928Y-21491500D01*
X6758214Y-21505786D01*
X6772500Y-21534357D01*
X6786785Y-21591500D01*
X6786785Y-21662929D01*
X6772500Y-21720072D01*
X6758214Y-21748643D01*
X6743928Y-21762929D01*
X6715357Y-21777214D01*
X6686785Y-21777214D01*
X6658214Y-21762929D01*
X6643928Y-21748643D01*
X6629643Y-21720072D01*
X6615357Y-21662929D01*
X6615357Y-21591500D01*
X6629643Y-21534357D01*
X6643928Y-21505786D01*
X6658214Y-21491500D01*
X6686785Y-21477214D01*
X6972500Y-21477214D02*
X7001071Y-21477214D01*
X7029643Y-21491500D01*
X7043928Y-21505786D01*
X7058214Y-21534357D01*
X7072500Y-21591500D01*
X7072500Y-21662929D01*
X7058214Y-21720072D01*
X7043928Y-21748643D01*
X7029643Y-21762929D01*
X7001071Y-21777214D01*
X6972500Y-21777214D01*
X6943928Y-21762929D01*
X6929643Y-21748643D01*
X6915357Y-21720072D01*
X6901071Y-21662929D01*
X6901071Y-21591500D01*
X6915357Y-21534357D01*
X6929643Y-21505786D01*
X6943928Y-21491500D01*
X6972500Y-21477214D01*
X7186786Y-21477214D02*
X7186786Y-21534357D01*
X7301071Y-21477214D02*
X7301071Y-21534357D01*
X7743928Y-21891500D02*
X7729643Y-21877214D01*
X7701071Y-21834357D01*
X7686785Y-21805786D01*
X7672500Y-21762929D01*
X7658214Y-21691500D01*
X7658214Y-21634357D01*
X7672500Y-21562929D01*
X7686785Y-21520072D01*
X7701071Y-21491500D01*
X7729643Y-21448643D01*
X7743928Y-21434357D01*
X8015357Y-21777214D02*
X7843928Y-21777214D01*
X7929643Y-21777214D02*
X7929643Y-21477214D01*
X7901071Y-21520072D01*
X7872500Y-21548643D01*
X7843928Y-21562929D01*
X8372500Y-21777214D02*
X8372500Y-21477214D01*
X8501071Y-21777214D02*
X8501071Y-21620072D01*
X8486786Y-21591500D01*
X8458214Y-21577214D01*
X8415357Y-21577214D01*
X8386785Y-21591500D01*
X8372500Y-21605786D01*
X8686786Y-21777214D02*
X8658214Y-21762929D01*
X8643928Y-21748643D01*
X8629643Y-21720072D01*
X8629643Y-21634357D01*
X8643928Y-21605786D01*
X8658214Y-21591500D01*
X8686786Y-21577214D01*
X8729643Y-21577214D01*
X8758214Y-21591500D01*
X8772500Y-21605786D01*
X8786786Y-21634357D01*
X8786786Y-21720072D01*
X8772500Y-21748643D01*
X8758214Y-21762929D01*
X8729643Y-21777214D01*
X8686786Y-21777214D01*
X8958214Y-21777214D02*
X8929643Y-21762929D01*
X8915357Y-21734357D01*
X8915357Y-21477214D01*
X9186786Y-21762929D02*
X9158214Y-21777214D01*
X9101071Y-21777214D01*
X9072500Y-21762929D01*
X9058214Y-21734357D01*
X9058214Y-21620072D01*
X9072500Y-21591500D01*
X9101071Y-21577214D01*
X9158214Y-21577214D01*
X9186786Y-21591500D01*
X9201071Y-21620072D01*
X9201071Y-21648643D01*
X9058214Y-21677214D01*
X9315357Y-21762929D02*
X9343929Y-21777214D01*
X9401071Y-21777214D01*
X9429643Y-21762929D01*
X9443929Y-21734357D01*
X9443929Y-21720072D01*
X9429643Y-21691500D01*
X9401071Y-21677214D01*
X9358214Y-21677214D01*
X9329643Y-21662929D01*
X9315357Y-21634357D01*
X9315357Y-21620072D01*
X9329643Y-21591500D01*
X9358214Y-21577214D01*
X9401071Y-21577214D01*
X9429643Y-21591500D01*
X9801071Y-21662929D02*
X10029643Y-21662929D01*
X9915357Y-21777214D02*
X9915357Y-21548643D01*
X10386786Y-21505786D02*
X10401071Y-21491500D01*
X10429643Y-21477214D01*
X10501071Y-21477214D01*
X10529643Y-21491500D01*
X10543928Y-21505786D01*
X10558214Y-21534357D01*
X10558214Y-21562929D01*
X10543928Y-21605786D01*
X10372500Y-21777214D01*
X10558214Y-21777214D01*
X10901071Y-21762929D02*
X10929643Y-21777214D01*
X10986786Y-21777214D01*
X11015357Y-21762929D01*
X11029643Y-21734357D01*
X11029643Y-21720072D01*
X11015357Y-21691500D01*
X10986786Y-21677214D01*
X10943928Y-21677214D01*
X10915357Y-21662929D01*
X10901071Y-21634357D01*
X10901071Y-21620072D01*
X10915357Y-21591500D01*
X10943928Y-21577214D01*
X10986786Y-21577214D01*
X11015357Y-21591500D01*
X11201071Y-21777214D02*
X11172500Y-21762929D01*
X11158214Y-21734357D01*
X11158214Y-21477214D01*
X11358214Y-21777214D02*
X11329643Y-21762929D01*
X11315357Y-21748643D01*
X11301071Y-21720072D01*
X11301071Y-21634357D01*
X11315357Y-21605786D01*
X11329643Y-21591500D01*
X11358214Y-21577214D01*
X11401071Y-21577214D01*
X11429643Y-21591500D01*
X11443928Y-21605786D01*
X11458214Y-21634357D01*
X11458214Y-21720072D01*
X11443928Y-21748643D01*
X11429643Y-21762929D01*
X11401071Y-21777214D01*
X11358214Y-21777214D01*
X11543928Y-21577214D02*
X11658214Y-21577214D01*
X11586786Y-21477214D02*
X11586786Y-21734357D01*
X11601071Y-21762929D01*
X11629643Y-21777214D01*
X11658214Y-21777214D01*
X11743928Y-21762929D02*
X11772500Y-21777214D01*
X11829643Y-21777214D01*
X11858214Y-21762929D01*
X11872500Y-21734357D01*
X11872500Y-21720072D01*
X11858214Y-21691500D01*
X11829643Y-21677214D01*
X11786786Y-21677214D01*
X11758214Y-21662929D01*
X11743928Y-21634357D01*
X11743928Y-21620072D01*
X11758214Y-21591500D01*
X11786786Y-21577214D01*
X11829643Y-21577214D01*
X11858214Y-21591500D01*
X11972500Y-21891500D02*
X11986786Y-21877214D01*
X12015357Y-21834357D01*
X12029643Y-21805786D01*
X12043928Y-21762929D01*
X12058214Y-21691500D01*
X12058214Y-21634357D01*
X12043928Y-21562929D01*
X12029643Y-21520072D01*
X12015357Y-21491500D01*
X11986786Y-21448643D01*
X11972500Y-21434357D01*
X2772500Y-21887500D02*
X3072500Y-22187500D01*
X3072500Y-21887500D02*
X2772500Y-22187500D01*
X3072500Y-22037500D02*
G75*
G03X3072500Y-22037500I-150000J0D01*
G01*
X3315357Y-21873214D02*
X3501071Y-21873214D01*
X3401071Y-21987500D01*
X3443928Y-21987500D01*
X3472500Y-22001786D01*
X3486786Y-22016072D01*
X3501071Y-22044643D01*
X3501071Y-22116072D01*
X3486786Y-22144643D01*
X3472500Y-22158929D01*
X3443928Y-22173214D01*
X3358214Y-22173214D01*
X3329643Y-22158929D01*
X3315357Y-22144643D01*
X3629643Y-22144643D02*
X3643928Y-22158929D01*
X3629643Y-22173214D01*
X3615357Y-22158929D01*
X3629643Y-22144643D01*
X3629643Y-22173214D01*
X3829643Y-21873214D02*
X3858214Y-21873214D01*
X3886786Y-21887500D01*
X3901071Y-21901786D01*
X3915357Y-21930357D01*
X3929643Y-21987500D01*
X3929643Y-22058929D01*
X3915357Y-22116072D01*
X3901071Y-22144643D01*
X3886786Y-22158929D01*
X3858214Y-22173214D01*
X3829643Y-22173214D01*
X3801071Y-22158929D01*
X3786786Y-22144643D01*
X3772500Y-22116072D01*
X3758214Y-22058929D01*
X3758214Y-21987500D01*
X3772500Y-21930357D01*
X3786786Y-21901786D01*
X3801071Y-21887500D01*
X3829643Y-21873214D01*
X4115357Y-21873214D02*
X4143928Y-21873214D01*
X4172500Y-21887500D01*
X4186786Y-21901786D01*
X4201071Y-21930357D01*
X4215357Y-21987500D01*
X4215357Y-22058929D01*
X4201071Y-22116072D01*
X4186786Y-22144643D01*
X4172500Y-22158929D01*
X4143928Y-22173214D01*
X4115357Y-22173214D01*
X4086786Y-22158929D01*
X4072500Y-22144643D01*
X4058214Y-22116072D01*
X4043928Y-22058929D01*
X4043928Y-21987500D01*
X4058214Y-21930357D01*
X4072500Y-21901786D01*
X4086786Y-21887500D01*
X4115357Y-21873214D01*
X4343929Y-22173214D02*
X4343929Y-21973214D01*
X4343929Y-22001786D02*
X4358214Y-21987500D01*
X4386786Y-21973214D01*
X4429643Y-21973214D01*
X4458214Y-21987500D01*
X4472500Y-22016072D01*
X4472500Y-22173214D01*
X4472500Y-22016072D02*
X4486786Y-21987500D01*
X4515357Y-21973214D01*
X4558214Y-21973214D01*
X4586786Y-21987500D01*
X4601071Y-22016072D01*
X4601071Y-22173214D01*
X4743929Y-22173214D02*
X4743929Y-21973214D01*
X4743929Y-22001786D02*
X4758214Y-21987500D01*
X4786786Y-21973214D01*
X4829643Y-21973214D01*
X4858214Y-21987500D01*
X4872500Y-22016072D01*
X4872500Y-22173214D01*
X4872500Y-22016072D02*
X4886786Y-21987500D01*
X4915357Y-21973214D01*
X4958214Y-21973214D01*
X4986786Y-21987500D01*
X5001071Y-22016072D01*
X5001071Y-22173214D01*
X5586786Y-21858929D02*
X5329643Y-22244643D01*
X5972500Y-21873214D02*
X6001071Y-21873214D01*
X6029643Y-21887500D01*
X6043928Y-21901786D01*
X6058214Y-21930357D01*
X6072500Y-21987500D01*
X6072500Y-22058929D01*
X6058214Y-22116072D01*
X6043928Y-22144643D01*
X6029643Y-22158929D01*
X6001071Y-22173214D01*
X5972500Y-22173214D01*
X5943928Y-22158929D01*
X5929643Y-22144643D01*
X5915357Y-22116072D01*
X5901071Y-22058929D01*
X5901071Y-21987500D01*
X5915357Y-21930357D01*
X5929643Y-21901786D01*
X5943928Y-21887500D01*
X5972500Y-21873214D01*
X6201071Y-22144643D02*
X6215357Y-22158929D01*
X6201071Y-22173214D01*
X6186786Y-22158929D01*
X6201071Y-22144643D01*
X6201071Y-22173214D01*
X6501071Y-22173214D02*
X6329643Y-22173214D01*
X6415357Y-22173214D02*
X6415357Y-21873214D01*
X6386785Y-21916072D01*
X6358214Y-21944643D01*
X6329643Y-21958929D01*
X6786785Y-22173214D02*
X6615357Y-22173214D01*
X6701071Y-22173214D02*
X6701071Y-21873214D01*
X6672500Y-21916072D01*
X6643928Y-21944643D01*
X6615357Y-21958929D01*
X6958214Y-22001786D02*
X6929643Y-21987500D01*
X6915357Y-21973214D01*
X6901071Y-21944643D01*
X6901071Y-21930357D01*
X6915357Y-21901786D01*
X6929643Y-21887500D01*
X6958214Y-21873214D01*
X7015357Y-21873214D01*
X7043928Y-21887500D01*
X7058214Y-21901786D01*
X7072500Y-21930357D01*
X7072500Y-21944643D01*
X7058214Y-21973214D01*
X7043928Y-21987500D01*
X7015357Y-22001786D01*
X6958214Y-22001786D01*
X6929643Y-22016072D01*
X6915357Y-22030357D01*
X6901071Y-22058929D01*
X6901071Y-22116072D01*
X6915357Y-22144643D01*
X6929643Y-22158929D01*
X6958214Y-22173214D01*
X7015357Y-22173214D01*
X7043928Y-22158929D01*
X7058214Y-22144643D01*
X7072500Y-22116072D01*
X7072500Y-22058929D01*
X7058214Y-22030357D01*
X7043928Y-22016072D01*
X7015357Y-22001786D01*
X7186786Y-21873214D02*
X7186786Y-21930357D01*
X7301071Y-21873214D02*
X7301071Y-21930357D01*
X7743928Y-22287500D02*
X7729643Y-22273214D01*
X7701071Y-22230357D01*
X7686785Y-22201786D01*
X7672500Y-22158929D01*
X7658214Y-22087500D01*
X7658214Y-22030357D01*
X7672500Y-21958929D01*
X7686785Y-21916072D01*
X7701071Y-21887500D01*
X7729643Y-21844643D01*
X7743928Y-21830357D01*
X7986785Y-21873214D02*
X7929643Y-21873214D01*
X7901071Y-21887500D01*
X7886785Y-21901786D01*
X7858214Y-21944643D01*
X7843928Y-22001786D01*
X7843928Y-22116072D01*
X7858214Y-22144643D01*
X7872500Y-22158929D01*
X7901071Y-22173214D01*
X7958214Y-22173214D01*
X7986785Y-22158929D01*
X8001071Y-22144643D01*
X8015357Y-22116072D01*
X8015357Y-22044643D01*
X8001071Y-22016072D01*
X7986785Y-22001786D01*
X7958214Y-21987500D01*
X7901071Y-21987500D01*
X7872500Y-22001786D01*
X7858214Y-22016072D01*
X7843928Y-22044643D01*
X8372500Y-22173214D02*
X8372500Y-21873214D01*
X8501071Y-22173214D02*
X8501071Y-22016072D01*
X8486786Y-21987500D01*
X8458214Y-21973214D01*
X8415357Y-21973214D01*
X8386785Y-21987500D01*
X8372500Y-22001786D01*
X8686786Y-22173214D02*
X8658214Y-22158929D01*
X8643928Y-22144643D01*
X8629643Y-22116072D01*
X8629643Y-22030357D01*
X8643928Y-22001786D01*
X8658214Y-21987500D01*
X8686786Y-21973214D01*
X8729643Y-21973214D01*
X8758214Y-21987500D01*
X8772500Y-22001786D01*
X8786786Y-22030357D01*
X8786786Y-22116072D01*
X8772500Y-22144643D01*
X8758214Y-22158929D01*
X8729643Y-22173214D01*
X8686786Y-22173214D01*
X8958214Y-22173214D02*
X8929643Y-22158929D01*
X8915357Y-22130357D01*
X8915357Y-21873214D01*
X9186786Y-22158929D02*
X9158214Y-22173214D01*
X9101071Y-22173214D01*
X9072500Y-22158929D01*
X9058214Y-22130357D01*
X9058214Y-22016072D01*
X9072500Y-21987500D01*
X9101071Y-21973214D01*
X9158214Y-21973214D01*
X9186786Y-21987500D01*
X9201071Y-22016072D01*
X9201071Y-22044643D01*
X9058214Y-22073214D01*
X9315357Y-22158929D02*
X9343929Y-22173214D01*
X9401071Y-22173214D01*
X9429643Y-22158929D01*
X9443929Y-22130357D01*
X9443929Y-22116072D01*
X9429643Y-22087500D01*
X9401071Y-22073214D01*
X9358214Y-22073214D01*
X9329643Y-22058929D01*
X9315357Y-22030357D01*
X9315357Y-22016072D01*
X9329643Y-21987500D01*
X9358214Y-21973214D01*
X9401071Y-21973214D01*
X9429643Y-21987500D01*
X9543928Y-22287500D02*
X9558214Y-22273214D01*
X9586786Y-22230357D01*
X9601071Y-22201786D01*
X9615357Y-22158929D01*
X9629643Y-22087500D01*
X9629643Y-22030357D01*
X9615357Y-21958929D01*
X9601071Y-21916072D01*
X9586786Y-21887500D01*
X9558214Y-21844643D01*
X9543928Y-21830357D01*
X2472500Y-22167500D02*
X3072500Y-22767500D01*
X3072500Y-22167500D02*
X2472500Y-22767500D01*
X2772500Y-22167500D02*
X2772500Y-22767500D01*
X2472500Y-22467500D02*
X3072500Y-22467500D01*
X3472500Y-22303214D02*
X3415357Y-22303214D01*
X3386786Y-22317500D01*
X3372500Y-22331786D01*
X3343928Y-22374643D01*
X3329643Y-22431786D01*
X3329643Y-22546071D01*
X3343928Y-22574643D01*
X3358214Y-22588929D01*
X3386786Y-22603214D01*
X3443928Y-22603214D01*
X3472500Y-22588929D01*
X3486786Y-22574643D01*
X3501071Y-22546071D01*
X3501071Y-22474643D01*
X3486786Y-22446071D01*
X3472500Y-22431786D01*
X3443928Y-22417500D01*
X3386786Y-22417500D01*
X3358214Y-22431786D01*
X3343928Y-22446071D01*
X3329643Y-22474643D01*
X3629643Y-22574643D02*
X3643928Y-22588929D01*
X3629643Y-22603214D01*
X3615357Y-22588929D01*
X3629643Y-22574643D01*
X3629643Y-22603214D01*
X3829643Y-22303214D02*
X3858214Y-22303214D01*
X3886786Y-22317500D01*
X3901071Y-22331786D01*
X3915357Y-22360357D01*
X3929643Y-22417500D01*
X3929643Y-22488929D01*
X3915357Y-22546071D01*
X3901071Y-22574643D01*
X3886786Y-22588929D01*
X3858214Y-22603214D01*
X3829643Y-22603214D01*
X3801071Y-22588929D01*
X3786786Y-22574643D01*
X3772500Y-22546071D01*
X3758214Y-22488929D01*
X3758214Y-22417500D01*
X3772500Y-22360357D01*
X3786786Y-22331786D01*
X3801071Y-22317500D01*
X3829643Y-22303214D01*
X4115357Y-22303214D02*
X4143928Y-22303214D01*
X4172500Y-22317500D01*
X4186786Y-22331786D01*
X4201071Y-22360357D01*
X4215357Y-22417500D01*
X4215357Y-22488929D01*
X4201071Y-22546071D01*
X4186786Y-22574643D01*
X4172500Y-22588929D01*
X4143928Y-22603214D01*
X4115357Y-22603214D01*
X4086786Y-22588929D01*
X4072500Y-22574643D01*
X4058214Y-22546071D01*
X4043928Y-22488929D01*
X4043928Y-22417500D01*
X4058214Y-22360357D01*
X4072500Y-22331786D01*
X4086786Y-22317500D01*
X4115357Y-22303214D01*
X4343929Y-22603214D02*
X4343929Y-22403214D01*
X4343929Y-22431786D02*
X4358214Y-22417500D01*
X4386786Y-22403214D01*
X4429643Y-22403214D01*
X4458214Y-22417500D01*
X4472500Y-22446071D01*
X4472500Y-22603214D01*
X4472500Y-22446071D02*
X4486786Y-22417500D01*
X4515357Y-22403214D01*
X4558214Y-22403214D01*
X4586786Y-22417500D01*
X4601071Y-22446071D01*
X4601071Y-22603214D01*
X4743929Y-22603214D02*
X4743929Y-22403214D01*
X4743929Y-22431786D02*
X4758214Y-22417500D01*
X4786786Y-22403214D01*
X4829643Y-22403214D01*
X4858214Y-22417500D01*
X4872500Y-22446071D01*
X4872500Y-22603214D01*
X4872500Y-22446071D02*
X4886786Y-22417500D01*
X4915357Y-22403214D01*
X4958214Y-22403214D01*
X4986786Y-22417500D01*
X5001071Y-22446071D01*
X5001071Y-22603214D01*
X5586786Y-22288929D02*
X5329643Y-22674643D01*
X5972500Y-22303214D02*
X6001071Y-22303214D01*
X6029643Y-22317500D01*
X6043928Y-22331786D01*
X6058214Y-22360357D01*
X6072500Y-22417500D01*
X6072500Y-22488929D01*
X6058214Y-22546071D01*
X6043928Y-22574643D01*
X6029643Y-22588929D01*
X6001071Y-22603214D01*
X5972500Y-22603214D01*
X5943928Y-22588929D01*
X5929643Y-22574643D01*
X5915357Y-22546071D01*
X5901071Y-22488929D01*
X5901071Y-22417500D01*
X5915357Y-22360357D01*
X5929643Y-22331786D01*
X5943928Y-22317500D01*
X5972500Y-22303214D01*
X6201071Y-22574643D02*
X6215357Y-22588929D01*
X6201071Y-22603214D01*
X6186786Y-22588929D01*
X6201071Y-22574643D01*
X6201071Y-22603214D01*
X6329643Y-22331786D02*
X6343928Y-22317500D01*
X6372500Y-22303214D01*
X6443928Y-22303214D01*
X6472500Y-22317500D01*
X6486785Y-22331786D01*
X6501071Y-22360357D01*
X6501071Y-22388929D01*
X6486785Y-22431786D01*
X6315357Y-22603214D01*
X6501071Y-22603214D01*
X6601071Y-22303214D02*
X6786785Y-22303214D01*
X6686785Y-22417500D01*
X6729643Y-22417500D01*
X6758214Y-22431786D01*
X6772500Y-22446071D01*
X6786785Y-22474643D01*
X6786785Y-22546071D01*
X6772500Y-22574643D01*
X6758214Y-22588929D01*
X6729643Y-22603214D01*
X6643928Y-22603214D01*
X6615357Y-22588929D01*
X6601071Y-22574643D01*
X7043928Y-22303214D02*
X6986785Y-22303214D01*
X6958214Y-22317500D01*
X6943928Y-22331786D01*
X6915357Y-22374643D01*
X6901071Y-22431786D01*
X6901071Y-22546071D01*
X6915357Y-22574643D01*
X6929643Y-22588929D01*
X6958214Y-22603214D01*
X7015357Y-22603214D01*
X7043928Y-22588929D01*
X7058214Y-22574643D01*
X7072500Y-22546071D01*
X7072500Y-22474643D01*
X7058214Y-22446071D01*
X7043928Y-22431786D01*
X7015357Y-22417500D01*
X6958214Y-22417500D01*
X6929643Y-22431786D01*
X6915357Y-22446071D01*
X6901071Y-22474643D01*
X7186786Y-22303214D02*
X7186786Y-22360357D01*
X7301071Y-22303214D02*
X7301071Y-22360357D01*
X7743928Y-22717500D02*
X7729643Y-22703214D01*
X7701071Y-22660357D01*
X7686785Y-22631786D01*
X7672500Y-22588929D01*
X7658214Y-22517500D01*
X7658214Y-22460357D01*
X7672500Y-22388929D01*
X7686785Y-22346072D01*
X7701071Y-22317500D01*
X7729643Y-22274643D01*
X7743928Y-22260357D01*
X7915357Y-22303214D02*
X7943928Y-22303214D01*
X7972500Y-22317500D01*
X7986785Y-22331786D01*
X8001071Y-22360357D01*
X8015357Y-22417500D01*
X8015357Y-22488929D01*
X8001071Y-22546071D01*
X7986785Y-22574643D01*
X7972500Y-22588929D01*
X7943928Y-22603214D01*
X7915357Y-22603214D01*
X7886785Y-22588929D01*
X7872500Y-22574643D01*
X7858214Y-22546071D01*
X7843928Y-22488929D01*
X7843928Y-22417500D01*
X7858214Y-22360357D01*
X7872500Y-22331786D01*
X7886785Y-22317500D01*
X7915357Y-22303214D01*
X8372500Y-22603214D02*
X8372500Y-22303214D01*
X8501071Y-22603214D02*
X8501071Y-22446071D01*
X8486786Y-22417500D01*
X8458214Y-22403214D01*
X8415357Y-22403214D01*
X8386785Y-22417500D01*
X8372500Y-22431786D01*
X8686786Y-22603214D02*
X8658214Y-22588929D01*
X8643928Y-22574643D01*
X8629643Y-22546071D01*
X8629643Y-22460357D01*
X8643928Y-22431786D01*
X8658214Y-22417500D01*
X8686786Y-22403214D01*
X8729643Y-22403214D01*
X8758214Y-22417500D01*
X8772500Y-22431786D01*
X8786786Y-22460357D01*
X8786786Y-22546071D01*
X8772500Y-22574643D01*
X8758214Y-22588929D01*
X8729643Y-22603214D01*
X8686786Y-22603214D01*
X8958214Y-22603214D02*
X8929643Y-22588929D01*
X8915357Y-22560357D01*
X8915357Y-22303214D01*
X9186786Y-22588929D02*
X9158214Y-22603214D01*
X9101071Y-22603214D01*
X9072500Y-22588929D01*
X9058214Y-22560357D01*
X9058214Y-22446071D01*
X9072500Y-22417500D01*
X9101071Y-22403214D01*
X9158214Y-22403214D01*
X9186786Y-22417500D01*
X9201071Y-22446071D01*
X9201071Y-22474643D01*
X9058214Y-22503214D01*
X9315357Y-22588929D02*
X9343929Y-22603214D01*
X9401071Y-22603214D01*
X9429643Y-22588929D01*
X9443929Y-22560357D01*
X9443929Y-22546071D01*
X9429643Y-22517500D01*
X9401071Y-22503214D01*
X9358214Y-22503214D01*
X9329643Y-22488929D01*
X9315357Y-22460357D01*
X9315357Y-22446071D01*
X9329643Y-22417500D01*
X9358214Y-22403214D01*
X9401071Y-22403214D01*
X9429643Y-22417500D01*
X9801071Y-22488929D02*
X10029643Y-22488929D01*
X9915357Y-22603214D02*
X9915357Y-22374643D01*
X10386786Y-22331786D02*
X10401071Y-22317500D01*
X10429643Y-22303214D01*
X10501071Y-22303214D01*
X10529643Y-22317500D01*
X10543928Y-22331786D01*
X10558214Y-22360357D01*
X10558214Y-22388929D01*
X10543928Y-22431786D01*
X10372500Y-22603214D01*
X10558214Y-22603214D01*
X10901071Y-22588929D02*
X10929643Y-22603214D01*
X10986786Y-22603214D01*
X11015357Y-22588929D01*
X11029643Y-22560357D01*
X11029643Y-22546071D01*
X11015357Y-22517500D01*
X10986786Y-22503214D01*
X10943928Y-22503214D01*
X10915357Y-22488929D01*
X10901071Y-22460357D01*
X10901071Y-22446071D01*
X10915357Y-22417500D01*
X10943928Y-22403214D01*
X10986786Y-22403214D01*
X11015357Y-22417500D01*
X11201071Y-22603214D02*
X11172500Y-22588929D01*
X11158214Y-22560357D01*
X11158214Y-22303214D01*
X11358214Y-22603214D02*
X11329643Y-22588929D01*
X11315357Y-22574643D01*
X11301071Y-22546071D01*
X11301071Y-22460357D01*
X11315357Y-22431786D01*
X11329643Y-22417500D01*
X11358214Y-22403214D01*
X11401071Y-22403214D01*
X11429643Y-22417500D01*
X11443928Y-22431786D01*
X11458214Y-22460357D01*
X11458214Y-22546071D01*
X11443928Y-22574643D01*
X11429643Y-22588929D01*
X11401071Y-22603214D01*
X11358214Y-22603214D01*
X11543928Y-22403214D02*
X11658214Y-22403214D01*
X11586786Y-22303214D02*
X11586786Y-22560357D01*
X11601071Y-22588929D01*
X11629643Y-22603214D01*
X11658214Y-22603214D01*
X11743928Y-22588929D02*
X11772500Y-22603214D01*
X11829643Y-22603214D01*
X11858214Y-22588929D01*
X11872500Y-22560357D01*
X11872500Y-22546071D01*
X11858214Y-22517500D01*
X11829643Y-22503214D01*
X11786786Y-22503214D01*
X11758214Y-22488929D01*
X11743928Y-22460357D01*
X11743928Y-22446071D01*
X11758214Y-22417500D01*
X11786786Y-22403214D01*
X11829643Y-22403214D01*
X11858214Y-22417500D01*
X11972500Y-22717500D02*
X11986786Y-22703214D01*
X12015357Y-22660357D01*
X12029643Y-22631786D01*
X12043928Y-22588929D01*
X12058214Y-22517500D01*
X12058214Y-22460357D01*
X12043928Y-22388929D01*
X12029643Y-22346072D01*
X12015357Y-22317500D01*
X11986786Y-22274643D01*
X11972500Y-22260357D01*
X2272500Y-22797500D02*
X3072500Y-23597500D01*
X3072500Y-22797500D02*
X2272500Y-23597500D01*
X2955345Y-23480345D02*
X2955345Y-22914655D01*
X2389655Y-22914655D01*
X2389655Y-23480345D01*
X2955345Y-23480345D01*
X3386786Y-23161786D02*
X3358214Y-23147500D01*
X3343928Y-23133214D01*
X3329643Y-23104643D01*
X3329643Y-23090357D01*
X3343928Y-23061786D01*
X3358214Y-23047500D01*
X3386786Y-23033214D01*
X3443928Y-23033214D01*
X3472500Y-23047500D01*
X3486786Y-23061786D01*
X3501071Y-23090357D01*
X3501071Y-23104643D01*
X3486786Y-23133214D01*
X3472500Y-23147500D01*
X3443928Y-23161786D01*
X3386786Y-23161786D01*
X3358214Y-23176071D01*
X3343928Y-23190357D01*
X3329643Y-23218929D01*
X3329643Y-23276071D01*
X3343928Y-23304643D01*
X3358214Y-23318929D01*
X3386786Y-23333214D01*
X3443928Y-23333214D01*
X3472500Y-23318929D01*
X3486786Y-23304643D01*
X3501071Y-23276071D01*
X3501071Y-23218929D01*
X3486786Y-23190357D01*
X3472500Y-23176071D01*
X3443928Y-23161786D01*
X3629643Y-23304643D02*
X3643928Y-23318929D01*
X3629643Y-23333214D01*
X3615357Y-23318929D01*
X3629643Y-23304643D01*
X3629643Y-23333214D01*
X3829643Y-23033214D02*
X3858214Y-23033214D01*
X3886786Y-23047500D01*
X3901071Y-23061786D01*
X3915357Y-23090357D01*
X3929643Y-23147500D01*
X3929643Y-23218929D01*
X3915357Y-23276071D01*
X3901071Y-23304643D01*
X3886786Y-23318929D01*
X3858214Y-23333214D01*
X3829643Y-23333214D01*
X3801071Y-23318929D01*
X3786786Y-23304643D01*
X3772500Y-23276071D01*
X3758214Y-23218929D01*
X3758214Y-23147500D01*
X3772500Y-23090357D01*
X3786786Y-23061786D01*
X3801071Y-23047500D01*
X3829643Y-23033214D01*
X4115357Y-23033214D02*
X4143928Y-23033214D01*
X4172500Y-23047500D01*
X4186786Y-23061786D01*
X4201071Y-23090357D01*
X4215357Y-23147500D01*
X4215357Y-23218929D01*
X4201071Y-23276071D01*
X4186786Y-23304643D01*
X4172500Y-23318929D01*
X4143928Y-23333214D01*
X4115357Y-23333214D01*
X4086786Y-23318929D01*
X4072500Y-23304643D01*
X4058214Y-23276071D01*
X4043928Y-23218929D01*
X4043928Y-23147500D01*
X4058214Y-23090357D01*
X4072500Y-23061786D01*
X4086786Y-23047500D01*
X4115357Y-23033214D01*
X4343929Y-23333214D02*
X4343929Y-23133214D01*
X4343929Y-23161786D02*
X4358214Y-23147500D01*
X4386786Y-23133214D01*
X4429643Y-23133214D01*
X4458214Y-23147500D01*
X4472500Y-23176071D01*
X4472500Y-23333214D01*
X4472500Y-23176071D02*
X4486786Y-23147500D01*
X4515357Y-23133214D01*
X4558214Y-23133214D01*
X4586786Y-23147500D01*
X4601071Y-23176071D01*
X4601071Y-23333214D01*
X4743929Y-23333214D02*
X4743929Y-23133214D01*
X4743929Y-23161786D02*
X4758214Y-23147500D01*
X4786786Y-23133214D01*
X4829643Y-23133214D01*
X4858214Y-23147500D01*
X4872500Y-23176071D01*
X4872500Y-23333214D01*
X4872500Y-23176071D02*
X4886786Y-23147500D01*
X4915357Y-23133214D01*
X4958214Y-23133214D01*
X4986786Y-23147500D01*
X5001071Y-23176071D01*
X5001071Y-23333214D01*
X5586786Y-23018929D02*
X5329643Y-23404643D01*
X5972500Y-23033214D02*
X6001071Y-23033214D01*
X6029643Y-23047500D01*
X6043928Y-23061786D01*
X6058214Y-23090357D01*
X6072500Y-23147500D01*
X6072500Y-23218929D01*
X6058214Y-23276071D01*
X6043928Y-23304643D01*
X6029643Y-23318929D01*
X6001071Y-23333214D01*
X5972500Y-23333214D01*
X5943928Y-23318929D01*
X5929643Y-23304643D01*
X5915357Y-23276071D01*
X5901071Y-23218929D01*
X5901071Y-23147500D01*
X5915357Y-23090357D01*
X5929643Y-23061786D01*
X5943928Y-23047500D01*
X5972500Y-23033214D01*
X6201071Y-23304643D02*
X6215357Y-23318929D01*
X6201071Y-23333214D01*
X6186786Y-23318929D01*
X6201071Y-23304643D01*
X6201071Y-23333214D01*
X6315357Y-23033214D02*
X6501071Y-23033214D01*
X6401071Y-23147500D01*
X6443928Y-23147500D01*
X6472500Y-23161786D01*
X6486785Y-23176071D01*
X6501071Y-23204643D01*
X6501071Y-23276071D01*
X6486785Y-23304643D01*
X6472500Y-23318929D01*
X6443928Y-23333214D01*
X6358214Y-23333214D01*
X6329643Y-23318929D01*
X6315357Y-23304643D01*
X6786785Y-23333214D02*
X6615357Y-23333214D01*
X6701071Y-23333214D02*
X6701071Y-23033214D01*
X6672500Y-23076071D01*
X6643928Y-23104643D01*
X6615357Y-23118929D01*
X7058214Y-23033214D02*
X6915357Y-23033214D01*
X6901071Y-23176071D01*
X6915357Y-23161786D01*
X6943928Y-23147500D01*
X7015357Y-23147500D01*
X7043928Y-23161786D01*
X7058214Y-23176071D01*
X7072500Y-23204643D01*
X7072500Y-23276071D01*
X7058214Y-23304643D01*
X7043928Y-23318929D01*
X7015357Y-23333214D01*
X6943928Y-23333214D01*
X6915357Y-23318929D01*
X6901071Y-23304643D01*
X7186786Y-23033214D02*
X7186786Y-23090357D01*
X7301071Y-23033214D02*
X7301071Y-23090357D01*
X7743928Y-23447500D02*
X7729643Y-23433214D01*
X7701071Y-23390357D01*
X7686785Y-23361786D01*
X7672500Y-23318929D01*
X7658214Y-23247500D01*
X7658214Y-23190357D01*
X7672500Y-23118929D01*
X7686785Y-23076071D01*
X7701071Y-23047500D01*
X7729643Y-23004643D01*
X7743928Y-22990357D01*
X8015357Y-23333214D02*
X7843928Y-23333214D01*
X7929643Y-23333214D02*
X7929643Y-23033214D01*
X7901071Y-23076071D01*
X7872500Y-23104643D01*
X7843928Y-23118929D01*
X8372500Y-23333214D02*
X8372500Y-23033214D01*
X8501071Y-23333214D02*
X8501071Y-23176071D01*
X8486786Y-23147500D01*
X8458214Y-23133214D01*
X8415357Y-23133214D01*
X8386785Y-23147500D01*
X8372500Y-23161786D01*
X8686786Y-23333214D02*
X8658214Y-23318929D01*
X8643928Y-23304643D01*
X8629643Y-23276071D01*
X8629643Y-23190357D01*
X8643928Y-23161786D01*
X8658214Y-23147500D01*
X8686786Y-23133214D01*
X8729643Y-23133214D01*
X8758214Y-23147500D01*
X8772500Y-23161786D01*
X8786786Y-23190357D01*
X8786786Y-23276071D01*
X8772500Y-23304643D01*
X8758214Y-23318929D01*
X8729643Y-23333214D01*
X8686786Y-23333214D01*
X8958214Y-23333214D02*
X8929643Y-23318929D01*
X8915357Y-23290357D01*
X8915357Y-23033214D01*
X9186786Y-23318929D02*
X9158214Y-23333214D01*
X9101071Y-23333214D01*
X9072500Y-23318929D01*
X9058214Y-23290357D01*
X9058214Y-23176071D01*
X9072500Y-23147500D01*
X9101071Y-23133214D01*
X9158214Y-23133214D01*
X9186786Y-23147500D01*
X9201071Y-23176071D01*
X9201071Y-23204643D01*
X9058214Y-23233214D01*
X9301071Y-23447500D02*
X9315357Y-23433214D01*
X9343929Y-23390357D01*
X9358214Y-23361786D01*
X9372500Y-23318929D01*
X9386786Y-23247500D01*
X9386786Y-23190357D01*
X9372500Y-23118929D01*
X9358214Y-23076071D01*
X9343929Y-23047500D01*
X9315357Y-23004643D01*
X9301071Y-22990357D01*
M02*
