M48
;DRILL file {KiCad 4.0.7} date 04/29/19 13:35:59
;FORMAT={-:-/ absolute / metric / decimal}
FMAT,2
METRIC,TZ
T1C0.600
T2C0.800
T3C0.890
T4C1.000
T5C1.001
T6C1.016
T7C1.100
T8C1.300
%
G90
G05
M71
T1
X108.Y-111.8
X113.9Y-75.3
X115.3Y-115.8
X116.23Y-103.53
X116.484Y-98.501
X116.9Y-116.1
X118.4Y-75.9
X129.Y-104.
X129.6Y-105.5
X136.246Y-86.512
X138.633Y-77.775
X141.935Y-117.958
X142.7Y-74.2
X144.192Y-79.526
X148.387Y-122.53
X150.825Y-114.881
X152.063Y-87.24
X153.6Y-109.
X154.336Y-84.126
X154.5Y-73.2
X155.804Y-112.725
X158.293Y-107.391
X158.5Y-112.2
X158.9Y-70.8
X160.7Y-86.2
X161.5Y-114.1
X161.9Y-111.7
X165.1Y-72.3
X170.4Y-61.1
X173.Y-84.3
T2
X104.6Y-92.9
X107.4Y-84.3
X116.8Y-88.8
X117.754Y-67.005
X118.8Y-115.8
X119.6Y-88.9
X119.685Y-63.195
X121.4Y-115.7
X122.2Y-88.6
X122.6Y-81.3
X122.9Y-79.1
X124.9Y-88.8
X125.8Y-72.5
X129.3Y-66.
X129.941Y-110.523
X131.2Y-121.8
X131.8Y-118.9
X134.01Y-67.208
X134.3Y-112.2
X138.836Y-93.675
X139.649Y-105.308
X140.7Y-98.5
X141.2Y-82.8
X148.59Y-105.258
X149.141Y-67.835
X152.603Y-80.906
X152.603Y-82.906
X152.603Y-104.121
X152.603Y-106.121
X154.5Y-69.9
X159.5Y-91.5
X160.7Y-108.4
X161.8Y-94.7
X161.9Y-69.8
X164.1Y-98.5
X164.2Y-89.6
X164.6Y-70.1
X165.1Y-76.3
X172.Y-104.3
T3
X168.553Y-91.415
X168.553Y-93.955
X168.553Y-111.735
X168.553Y-114.275
X171.093Y-90.145
X171.093Y-92.685
X171.093Y-110.465
X171.093Y-113.005
T4
X169.418Y-63.627
X171.958Y-63.627
X174.498Y-63.627
X177.038Y-63.627
X179.578Y-63.627
T5
X100.03Y-100.42
X100.03Y-102.96
X100.03Y-105.5
X100.03Y-108.04
X100.03Y-110.58
X102.57Y-100.42
X102.57Y-102.96
X102.57Y-105.5
X102.57Y-108.04
X102.57Y-110.58
T6
X101.7Y-69.7
X101.7Y-72.24
X101.7Y-74.78
X101.7Y-77.32
X101.7Y-79.86
X101.7Y-82.4
X101.7Y-84.94
X101.7Y-87.48
X111.252Y-118.872
X113.792Y-118.872
X116.332Y-118.872
X117.094Y-86.106
X118.872Y-118.872
X119.634Y-86.106
X120.65Y-67.056
X121.412Y-118.872
X122.174Y-86.106
X123.19Y-67.056
X123.952Y-118.872
X124.714Y-86.106
X125.73Y-67.056
T7
X125.7Y-76.6
X125.7Y-81.1
X132.2Y-76.6
X132.2Y-81.1
T8
X114.554Y-68.707
X130.8Y-72.3
X131.Y-68.3
X149.911Y-100.279
T0
M30
