G04 #@! TF.FileFunction,Legend,Top*
%FSLAX46Y46*%
G04 Gerber Fmt 4.6, Leading zero omitted, Abs format (unit mm)*
G04 Created by KiCad (PCBNEW 4.0.7) date 10/02/18 16:36:01*
%MOMM*%
%LPD*%
G01*
G04 APERTURE LIST*
%ADD10C,0.100000*%
%ADD11C,0.250000*%
%ADD12C,0.120000*%
%ADD13C,0.152400*%
%ADD14C,0.304800*%
%ADD15C,0.500000*%
%ADD16C,0.200000*%
%ADD17C,0.150000*%
%ADD18C,0.050000*%
%ADD19C,0.203200*%
G04 APERTURE END LIST*
D10*
D11*
X142211480Y-107520200D02*
X136311060Y-107520200D01*
X136311060Y-107520200D02*
X136311060Y-104319800D01*
X136311060Y-104319800D02*
X142211480Y-104319800D01*
X142211480Y-104319800D02*
X142211480Y-107520200D01*
D12*
X146290000Y-87620000D02*
X146290000Y-90300000D01*
X146290000Y-96000000D02*
X146290000Y-93320000D01*
X154670000Y-95240000D02*
X154670000Y-93320000D01*
X154670000Y-88380000D02*
X154670000Y-90300000D01*
X146290000Y-87620000D02*
X153910000Y-87620000D01*
X153910000Y-87620000D02*
X154670000Y-88380000D01*
X154670000Y-95240000D02*
X153910000Y-96000000D01*
X153910000Y-96000000D02*
X146290000Y-96000000D01*
X124130000Y-106680000D02*
X126810000Y-106680000D01*
X132510000Y-106680000D02*
X129830000Y-106680000D01*
X131750000Y-98300000D02*
X129830000Y-98300000D01*
X124890000Y-98300000D02*
X126810000Y-98300000D01*
X124130000Y-106680000D02*
X124130000Y-99060000D01*
X124130000Y-99060000D02*
X124890000Y-98300000D01*
X131750000Y-98300000D02*
X132510000Y-99060000D01*
X132510000Y-99060000D02*
X132510000Y-106680000D01*
D13*
X142871600Y-106343400D02*
X142871600Y-109518400D01*
X155368400Y-100196600D02*
X155368400Y-100145800D01*
X155368400Y-100145800D02*
X155368400Y-97021600D01*
X155368400Y-106394200D02*
X152244200Y-109518400D01*
X155368400Y-100145800D02*
X152244200Y-97021600D01*
X155368400Y-97021600D02*
X142871600Y-97021600D01*
X142871600Y-97021600D02*
X142871600Y-100196600D01*
X142871600Y-109518400D02*
X155368400Y-109518400D01*
X155368400Y-109518400D02*
X155368400Y-106343400D01*
D12*
X128770000Y-96710000D02*
X132070000Y-96710000D01*
X132070000Y-96710000D02*
X132070000Y-91310000D01*
X128770000Y-96710000D02*
X128770000Y-91310000D01*
D14*
X125490000Y-88300000D02*
X128030000Y-88300000D01*
X128030000Y-88300000D02*
X128030000Y-93380000D01*
X128030000Y-93380000D02*
X125490000Y-93380000D01*
X125490000Y-93380000D02*
X125490000Y-88300000D01*
X128030000Y-113700000D02*
X125490000Y-113700000D01*
X125490000Y-113700000D02*
X125490000Y-108620000D01*
X125490000Y-108620000D02*
X128030000Y-108620000D01*
X128030000Y-108620000D02*
X128030000Y-113700000D01*
X158510000Y-108630000D02*
X155970000Y-108630000D01*
X155970000Y-108630000D02*
X155970000Y-103550000D01*
X155970000Y-103550000D02*
X158510000Y-103550000D01*
X158510000Y-103550000D02*
X158510000Y-108630000D01*
X158510000Y-98470000D02*
X155970000Y-98470000D01*
X155970000Y-98470000D02*
X155970000Y-93390000D01*
X155970000Y-93390000D02*
X158510000Y-93390000D01*
X158510000Y-93390000D02*
X158510000Y-98470000D01*
D15*
X159160000Y-112650000D02*
X159660000Y-112650000D01*
X155660000Y-112650000D02*
X155160000Y-112650000D01*
X155160000Y-112650000D02*
X155410000Y-112650000D01*
X154230000Y-112660000D02*
X154730000Y-112660000D01*
X150730000Y-112660000D02*
X150230000Y-112660000D01*
X150230000Y-112660000D02*
X150480000Y-112660000D01*
X139180000Y-109690000D02*
X138680000Y-109690000D01*
X142680000Y-109690000D02*
X143180000Y-109690000D01*
X143180000Y-109690000D02*
X142930000Y-109690000D01*
D11*
X135669800Y-114201480D02*
X135669800Y-108301060D01*
X135669800Y-108301060D02*
X138870200Y-108301060D01*
X138870200Y-108301060D02*
X138870200Y-114201480D01*
X138870200Y-114201480D02*
X135669800Y-114201480D01*
X135291480Y-114790200D02*
X129391060Y-114790200D01*
X129391060Y-114790200D02*
X129391060Y-111589800D01*
X129391060Y-111589800D02*
X135291480Y-111589800D01*
X135291480Y-111589800D02*
X135291480Y-114790200D01*
X135291480Y-111280200D02*
X129391060Y-111280200D01*
X129391060Y-111280200D02*
X129391060Y-108079800D01*
X129391060Y-108079800D02*
X135291480Y-108079800D01*
X135291480Y-108079800D02*
X135291480Y-111280200D01*
D15*
X128530000Y-95440000D02*
X129030000Y-95440000D01*
X125030000Y-95440000D02*
X124530000Y-95440000D01*
X124530000Y-95440000D02*
X124780000Y-95440000D01*
D16*
X138933207Y-106522725D02*
X138599620Y-106046172D01*
X138361344Y-106522725D02*
X138361344Y-105521965D01*
X138742586Y-105521965D01*
X138837897Y-105569620D01*
X138885552Y-105617275D01*
X138933207Y-105712586D01*
X138933207Y-105855551D01*
X138885552Y-105950862D01*
X138837897Y-105998517D01*
X138742586Y-106046172D01*
X138361344Y-106046172D01*
X139886312Y-106522725D02*
X139314449Y-106522725D01*
X139600380Y-106522725D02*
X139600380Y-105521965D01*
X139505070Y-105664930D01*
X139409759Y-105760241D01*
X139314449Y-105807896D01*
D17*
X148792857Y-91877143D02*
X148745238Y-91924762D01*
X148602381Y-91972381D01*
X148507143Y-91972381D01*
X148364285Y-91924762D01*
X148269047Y-91829524D01*
X148221428Y-91734286D01*
X148173809Y-91543810D01*
X148173809Y-91400952D01*
X148221428Y-91210476D01*
X148269047Y-91115238D01*
X148364285Y-91020000D01*
X148507143Y-90972381D01*
X148602381Y-90972381D01*
X148745238Y-91020000D01*
X148792857Y-91067619D01*
X149364285Y-91972381D02*
X149269047Y-91924762D01*
X149221428Y-91877143D01*
X149173809Y-91781905D01*
X149173809Y-91496190D01*
X149221428Y-91400952D01*
X149269047Y-91353333D01*
X149364285Y-91305714D01*
X149507143Y-91305714D01*
X149602381Y-91353333D01*
X149650000Y-91400952D01*
X149697619Y-91496190D01*
X149697619Y-91781905D01*
X149650000Y-91877143D01*
X149602381Y-91924762D01*
X149507143Y-91972381D01*
X149364285Y-91972381D01*
X150554762Y-91305714D02*
X150554762Y-91972381D01*
X150126190Y-91305714D02*
X150126190Y-91829524D01*
X150173809Y-91924762D01*
X150269047Y-91972381D01*
X150411905Y-91972381D01*
X150507143Y-91924762D01*
X150554762Y-91877143D01*
X150888095Y-91305714D02*
X151269047Y-91305714D01*
X151030952Y-90972381D02*
X151030952Y-91829524D01*
X151078571Y-91924762D01*
X151173809Y-91972381D01*
X151269047Y-91972381D01*
X152126191Y-91972381D02*
X151554762Y-91972381D01*
X151840476Y-91972381D02*
X151840476Y-90972381D01*
X151745238Y-91115238D01*
X151650000Y-91210476D01*
X151554762Y-91258095D01*
X154879048Y-87981429D02*
X155640953Y-87981429D01*
X155260001Y-88362381D02*
X155260001Y-87600476D01*
X127352858Y-102657143D02*
X127305239Y-102704762D01*
X127162382Y-102752381D01*
X127067144Y-102752381D01*
X126924286Y-102704762D01*
X126829048Y-102609524D01*
X126781429Y-102514286D01*
X126733810Y-102323810D01*
X126733810Y-102180952D01*
X126781429Y-101990476D01*
X126829048Y-101895238D01*
X126924286Y-101800000D01*
X127067144Y-101752381D01*
X127162382Y-101752381D01*
X127305239Y-101800000D01*
X127352858Y-101847619D01*
X127781429Y-102752381D02*
X127781429Y-102085714D01*
X127781429Y-101752381D02*
X127733810Y-101800000D01*
X127781429Y-101847619D01*
X127829048Y-101800000D01*
X127781429Y-101752381D01*
X127781429Y-101847619D01*
X128257619Y-102085714D02*
X128257619Y-102752381D01*
X128257619Y-102180952D02*
X128305238Y-102133333D01*
X128400476Y-102085714D01*
X128543334Y-102085714D01*
X128638572Y-102133333D01*
X128686191Y-102228571D01*
X128686191Y-102752381D01*
X129686191Y-102752381D02*
X129114762Y-102752381D01*
X129400476Y-102752381D02*
X129400476Y-101752381D01*
X129305238Y-101895238D01*
X129210000Y-101990476D01*
X129114762Y-102038095D01*
X124491429Y-98090952D02*
X124491429Y-97329047D01*
X124872381Y-97709999D02*
X124110476Y-97709999D01*
D18*
X148895962Y-103643818D02*
X148112995Y-103643818D01*
X148112995Y-101999588D01*
X150305302Y-103643818D02*
X149365742Y-103643818D01*
X149835522Y-103643818D02*
X149835522Y-101999588D01*
X149678928Y-102234478D01*
X149522335Y-102391072D01*
X149365742Y-102469368D01*
X146696725Y-88215675D02*
X146775075Y-88137325D01*
X146931775Y-88058975D01*
X147323525Y-88058975D01*
X147480225Y-88137325D01*
X147558575Y-88215675D01*
X147636925Y-88372375D01*
X147636925Y-88529075D01*
X147558575Y-88764125D01*
X146618375Y-89704325D01*
X147636925Y-89704325D01*
X148263725Y-88215675D02*
X148342075Y-88137325D01*
X148498775Y-88058975D01*
X148890525Y-88058975D01*
X149047225Y-88137325D01*
X149125575Y-88215675D01*
X149203925Y-88372375D01*
X149203925Y-88529075D01*
X149125575Y-88764125D01*
X148185375Y-89704325D01*
X149203925Y-89704325D01*
X150222475Y-88058975D02*
X150379175Y-88058975D01*
X150535875Y-88137325D01*
X150614225Y-88215675D01*
X150692575Y-88372375D01*
X150770925Y-88685775D01*
X150770925Y-89077525D01*
X150692575Y-89390925D01*
X150614225Y-89547625D01*
X150535875Y-89625975D01*
X150379175Y-89704325D01*
X150222475Y-89704325D01*
X150065775Y-89625975D01*
X149987425Y-89547625D01*
X149909075Y-89390925D01*
X149830725Y-89077525D01*
X149830725Y-88685775D01*
X149909075Y-88372375D01*
X149987425Y-88215675D01*
X150065775Y-88137325D01*
X150222475Y-88058975D01*
X152181225Y-88607425D02*
X152181225Y-89704325D01*
X151476075Y-88607425D02*
X151476075Y-89469275D01*
X151554425Y-89625975D01*
X151711125Y-89704325D01*
X151946175Y-89704325D01*
X152102875Y-89625975D01*
X152181225Y-89547625D01*
X152964725Y-89704325D02*
X152964725Y-88058975D01*
X152964725Y-88842475D02*
X153904925Y-88842475D01*
X153904925Y-89704325D02*
X153904925Y-88058975D01*
D17*
X129681905Y-93832381D02*
X129681905Y-92832381D01*
X129920000Y-92832381D01*
X130062858Y-92880000D01*
X130158096Y-92975238D01*
X130205715Y-93070476D01*
X130253334Y-93260952D01*
X130253334Y-93403810D01*
X130205715Y-93594286D01*
X130158096Y-93689524D01*
X130062858Y-93784762D01*
X129920000Y-93832381D01*
X129681905Y-93832381D01*
X131205715Y-93832381D02*
X130634286Y-93832381D01*
X130920000Y-93832381D02*
X130920000Y-92832381D01*
X130824762Y-92975238D01*
X130729524Y-93070476D01*
X130634286Y-93118095D01*
D19*
X128441333Y-87889338D02*
X128441333Y-88959767D01*
X128392953Y-89173852D01*
X128296191Y-89316576D01*
X128151048Y-89387938D01*
X128054286Y-89387938D01*
X129457333Y-89387938D02*
X128876762Y-89387938D01*
X129167048Y-89387938D02*
X129167048Y-87889338D01*
X129070286Y-88103424D01*
X128973524Y-88246148D01*
X128876762Y-88317510D01*
X126421333Y-106849338D02*
X126421333Y-107919767D01*
X126372953Y-108133852D01*
X126276191Y-108276576D01*
X126131048Y-108347938D01*
X126034286Y-108347938D01*
X126856762Y-106992062D02*
X126905143Y-106920700D01*
X127001905Y-106849338D01*
X127243809Y-106849338D01*
X127340571Y-106920700D01*
X127388952Y-106992062D01*
X127437333Y-107134786D01*
X127437333Y-107277510D01*
X127388952Y-107491595D01*
X126808381Y-108347938D01*
X127437333Y-108347938D01*
X156901333Y-101399338D02*
X156901333Y-102469767D01*
X156852953Y-102683852D01*
X156756191Y-102826576D01*
X156611048Y-102897938D01*
X156514286Y-102897938D01*
X157288381Y-101399338D02*
X157917333Y-101399338D01*
X157578667Y-101970233D01*
X157723809Y-101970233D01*
X157820571Y-102041595D01*
X157868952Y-102112957D01*
X157917333Y-102255681D01*
X157917333Y-102612490D01*
X157868952Y-102755214D01*
X157820571Y-102826576D01*
X157723809Y-102897938D01*
X157433524Y-102897938D01*
X157336762Y-102826576D01*
X157288381Y-102755214D01*
X156671333Y-91499338D02*
X156671333Y-92569767D01*
X156622953Y-92783852D01*
X156526191Y-92926576D01*
X156381048Y-92997938D01*
X156284286Y-92997938D01*
X157590571Y-91998871D02*
X157590571Y-92997938D01*
X157348667Y-91427976D02*
X157106762Y-92498405D01*
X157735714Y-92498405D01*
D16*
X137103207Y-111662725D02*
X136769620Y-111186172D01*
X136531344Y-111662725D02*
X136531344Y-110661965D01*
X136912586Y-110661965D01*
X137007897Y-110709620D01*
X137055552Y-110757275D01*
X137103207Y-110852586D01*
X137103207Y-110995551D01*
X137055552Y-111090862D01*
X137007897Y-111138517D01*
X136912586Y-111186172D01*
X136531344Y-111186172D01*
X137484449Y-110757275D02*
X137532104Y-110709620D01*
X137627415Y-110661965D01*
X137865691Y-110661965D01*
X137961001Y-110709620D01*
X138008657Y-110757275D01*
X138056312Y-110852586D01*
X138056312Y-110947896D01*
X138008657Y-111090862D01*
X137436794Y-111662725D01*
X138056312Y-111662725D01*
D18*
X136516453Y-90729013D02*
X136516453Y-92060907D01*
X136594800Y-92217600D01*
X136673147Y-92295947D01*
X136829840Y-92374293D01*
X137143227Y-92374293D01*
X137299920Y-92295947D01*
X137378267Y-92217600D01*
X137456613Y-92060907D01*
X137456613Y-90729013D01*
X139101894Y-92374293D02*
X138161734Y-92374293D01*
X138631814Y-92374293D02*
X138631814Y-90729013D01*
X138475120Y-90964053D01*
X138318427Y-91120747D01*
X138161734Y-91199093D01*
X164758417Y-87193750D02*
X163975522Y-87193750D01*
X163975522Y-85549670D01*
X165306444Y-87193750D02*
X165306444Y-85549670D01*
X165854470Y-86724013D01*
X166402497Y-85549670D01*
X166402497Y-87193750D01*
X167107103Y-85706250D02*
X167185393Y-85627960D01*
X167341972Y-85549670D01*
X167733419Y-85549670D01*
X167889998Y-85627960D01*
X167968288Y-85706250D01*
X168046577Y-85862829D01*
X168046577Y-86019408D01*
X167968288Y-86254276D01*
X167028814Y-87193750D01*
X168046577Y-87193750D01*
X169534078Y-85549670D02*
X168751183Y-85549670D01*
X168672893Y-86332566D01*
X168751183Y-86254276D01*
X168907762Y-86175987D01*
X169299209Y-86175987D01*
X169455788Y-86254276D01*
X169534078Y-86332566D01*
X169612367Y-86489145D01*
X169612367Y-86880592D01*
X169534078Y-87037171D01*
X169455788Y-87115461D01*
X169299209Y-87193750D01*
X168907762Y-87193750D01*
X168751183Y-87115461D01*
X168672893Y-87037171D01*
X170160394Y-85549670D02*
X171256447Y-85549670D01*
X170551841Y-87193750D01*
X172665658Y-85549670D02*
X171882763Y-85549670D01*
X171804473Y-86332566D01*
X171882763Y-86254276D01*
X172039342Y-86175987D01*
X172430789Y-86175987D01*
X172587368Y-86254276D01*
X172665658Y-86332566D01*
X172743947Y-86489145D01*
X172743947Y-86880592D01*
X172665658Y-87037171D01*
X172587368Y-87115461D01*
X172430789Y-87193750D01*
X172039342Y-87193750D01*
X171882763Y-87115461D01*
X171804473Y-87037171D01*
X173448553Y-87193750D02*
X173448553Y-85549670D01*
X173448553Y-86332566D02*
X174388027Y-86332566D01*
X174388027Y-87193750D02*
X174388027Y-85549670D01*
X174936054Y-85549670D02*
X175484081Y-87193750D01*
X176032107Y-85549670D01*
X176501844Y-87115461D02*
X176736713Y-87193750D01*
X177128160Y-87193750D01*
X177284739Y-87115461D01*
X177363029Y-87037171D01*
X177441318Y-86880592D01*
X177441318Y-86724013D01*
X177363029Y-86567434D01*
X177284739Y-86489145D01*
X177128160Y-86410855D01*
X176815002Y-86332566D01*
X176658423Y-86254276D01*
X176580134Y-86175987D01*
X176501844Y-86019408D01*
X176501844Y-85862829D01*
X176580134Y-85706250D01*
X176658423Y-85627960D01*
X176815002Y-85549670D01*
X177206450Y-85549670D01*
X177441318Y-85627960D01*
X178145924Y-86567434D02*
X179398556Y-86567434D01*
X180103162Y-86724013D02*
X180886057Y-86724013D01*
X179946583Y-87193750D02*
X180494610Y-85549670D01*
X181042636Y-87193750D01*
X181590663Y-87193750D02*
X181590663Y-85549670D01*
X181982110Y-85549670D01*
X182216979Y-85627960D01*
X182373558Y-85784539D01*
X182451847Y-85941118D01*
X182530137Y-86254276D01*
X182530137Y-86489145D01*
X182451847Y-86802303D01*
X182373558Y-86958882D01*
X182216979Y-87115461D01*
X181982110Y-87193750D01*
X181590663Y-87193750D01*
X183704480Y-85549670D02*
X183704480Y-86724013D01*
X183626190Y-86958882D01*
X183469611Y-87115461D01*
X183234743Y-87193750D01*
X183078164Y-87193750D01*
D16*
X132183207Y-113537414D02*
X132135552Y-113585070D01*
X131992586Y-113632725D01*
X131897276Y-113632725D01*
X131754310Y-113585070D01*
X131658999Y-113489759D01*
X131611344Y-113394449D01*
X131563689Y-113203828D01*
X131563689Y-113060862D01*
X131611344Y-112870241D01*
X131658999Y-112774930D01*
X131754310Y-112679620D01*
X131897276Y-112631965D01*
X131992586Y-112631965D01*
X132135552Y-112679620D01*
X132183207Y-112727275D01*
X133136312Y-113632725D02*
X132564449Y-113632725D01*
X132850380Y-113632725D02*
X132850380Y-112631965D01*
X132755070Y-112774930D01*
X132659759Y-112870241D01*
X132564449Y-112917896D01*
X132133207Y-110217414D02*
X132085552Y-110265070D01*
X131942586Y-110312725D01*
X131847276Y-110312725D01*
X131704310Y-110265070D01*
X131608999Y-110169759D01*
X131561344Y-110074449D01*
X131513689Y-109883828D01*
X131513689Y-109740862D01*
X131561344Y-109550241D01*
X131608999Y-109454930D01*
X131704310Y-109359620D01*
X131847276Y-109311965D01*
X131942586Y-109311965D01*
X132085552Y-109359620D01*
X132133207Y-109407275D01*
X132514449Y-109407275D02*
X132562104Y-109359620D01*
X132657415Y-109311965D01*
X132895691Y-109311965D01*
X132991001Y-109359620D01*
X133038657Y-109407275D01*
X133086312Y-109502586D01*
X133086312Y-109597896D01*
X133038657Y-109740862D01*
X132466794Y-110312725D01*
X133086312Y-110312725D01*
M02*
