G04 #@! TF.FileFunction,Other,ECO2*
%FSLAX46Y46*%
G04 Gerber Fmt 4.6, Leading zero omitted, Abs format (unit mm)*
G04 Created by KiCad (PCBNEW 4.0.7) date 10/02/18 16:36:01*
%MOMM*%
%LPD*%
G01*
G04 APERTURE LIST*
%ADD10C,0.100000*%
%ADD11C,0.300000*%
G04 APERTURE END LIST*
D10*
D11*
X135714287Y-77928571D02*
X136642858Y-77928571D01*
X136142858Y-78500000D01*
X136357144Y-78500000D01*
X136500001Y-78571429D01*
X136571430Y-78642857D01*
X136642858Y-78785714D01*
X136642858Y-79142857D01*
X136571430Y-79285714D01*
X136500001Y-79357143D01*
X136357144Y-79428571D01*
X135928572Y-79428571D01*
X135785715Y-79357143D01*
X135714287Y-79285714D01*
X137928572Y-77928571D02*
X137642858Y-77928571D01*
X137500001Y-78000000D01*
X137428572Y-78071429D01*
X137285715Y-78285714D01*
X137214286Y-78571429D01*
X137214286Y-79142857D01*
X137285715Y-79285714D01*
X137357143Y-79357143D01*
X137500001Y-79428571D01*
X137785715Y-79428571D01*
X137928572Y-79357143D01*
X138000001Y-79285714D01*
X138071429Y-79142857D01*
X138071429Y-78785714D01*
X138000001Y-78642857D01*
X137928572Y-78571429D01*
X137785715Y-78500000D01*
X137500001Y-78500000D01*
X137357143Y-78571429D01*
X137285715Y-78642857D01*
X137214286Y-78785714D01*
X138785714Y-79357143D02*
X138785714Y-79428571D01*
X138714286Y-79571429D01*
X138642857Y-79642857D01*
X139714286Y-77928571D02*
X139857143Y-77928571D01*
X140000000Y-78000000D01*
X140071429Y-78071429D01*
X140142858Y-78214286D01*
X140214286Y-78500000D01*
X140214286Y-78857143D01*
X140142858Y-79142857D01*
X140071429Y-79285714D01*
X140000000Y-79357143D01*
X139857143Y-79428571D01*
X139714286Y-79428571D01*
X139571429Y-79357143D01*
X139500000Y-79285714D01*
X139428572Y-79142857D01*
X139357143Y-78857143D01*
X139357143Y-78500000D01*
X139428572Y-78214286D01*
X139500000Y-78071429D01*
X139571429Y-78000000D01*
X139714286Y-77928571D01*
X141142857Y-77928571D02*
X141285714Y-77928571D01*
X141428571Y-78000000D01*
X141500000Y-78071429D01*
X141571429Y-78214286D01*
X141642857Y-78500000D01*
X141642857Y-78857143D01*
X141571429Y-79142857D01*
X141500000Y-79285714D01*
X141428571Y-79357143D01*
X141285714Y-79428571D01*
X141142857Y-79428571D01*
X141000000Y-79357143D01*
X140928571Y-79285714D01*
X140857143Y-79142857D01*
X140785714Y-78857143D01*
X140785714Y-78500000D01*
X140857143Y-78214286D01*
X140928571Y-78071429D01*
X141000000Y-78000000D01*
X141142857Y-77928571D01*
X142571428Y-77928571D02*
X142714285Y-77928571D01*
X142857142Y-78000000D01*
X142928571Y-78071429D01*
X143000000Y-78214286D01*
X143071428Y-78500000D01*
X143071428Y-78857143D01*
X143000000Y-79142857D01*
X142928571Y-79285714D01*
X142857142Y-79357143D01*
X142714285Y-79428571D01*
X142571428Y-79428571D01*
X142428571Y-79357143D01*
X142357142Y-79285714D01*
X142285714Y-79142857D01*
X142214285Y-78857143D01*
X142214285Y-78500000D01*
X142285714Y-78214286D01*
X142357142Y-78071429D01*
X142428571Y-78000000D01*
X142571428Y-77928571D01*
X144857142Y-79428571D02*
X144857142Y-78428571D01*
X144857142Y-78571429D02*
X144928570Y-78500000D01*
X145071428Y-78428571D01*
X145285713Y-78428571D01*
X145428570Y-78500000D01*
X145499999Y-78642857D01*
X145499999Y-79428571D01*
X145499999Y-78642857D02*
X145571428Y-78500000D01*
X145714285Y-78428571D01*
X145928570Y-78428571D01*
X146071428Y-78500000D01*
X146142856Y-78642857D01*
X146142856Y-79428571D01*
X146857142Y-79428571D02*
X146857142Y-78428571D01*
X146857142Y-78571429D02*
X146928570Y-78500000D01*
X147071428Y-78428571D01*
X147285713Y-78428571D01*
X147428570Y-78500000D01*
X147499999Y-78642857D01*
X147499999Y-79428571D01*
X147499999Y-78642857D02*
X147571428Y-78500000D01*
X147714285Y-78428571D01*
X147928570Y-78428571D01*
X148071428Y-78500000D01*
X148142856Y-78642857D01*
X148142856Y-79428571D01*
X124000000Y-80100000D02*
X160000000Y-80100000D01*
X124000000Y-87000000D02*
X124000000Y-77400000D01*
X160000000Y-87000000D02*
X160000000Y-77400000D01*
X160000000Y-80100000D02*
X158873496Y-80686421D01*
X160000000Y-80100000D02*
X158873496Y-79513579D01*
X124000000Y-80100000D02*
X125126504Y-80686421D01*
X124000000Y-80100000D02*
X125126504Y-79513579D01*
X118808571Y-94785715D02*
X118880000Y-94857144D01*
X118951429Y-95000001D01*
X118951429Y-95357144D01*
X118880000Y-95500001D01*
X118808571Y-95571430D01*
X118665714Y-95642858D01*
X118522857Y-95642858D01*
X118308571Y-95571430D01*
X117451429Y-94714287D01*
X117451429Y-95642858D01*
X118308571Y-96500001D02*
X118380000Y-96357143D01*
X118451429Y-96285715D01*
X118594286Y-96214286D01*
X118665714Y-96214286D01*
X118808571Y-96285715D01*
X118880000Y-96357143D01*
X118951429Y-96500001D01*
X118951429Y-96785715D01*
X118880000Y-96928572D01*
X118808571Y-97000001D01*
X118665714Y-97071429D01*
X118594286Y-97071429D01*
X118451429Y-97000001D01*
X118380000Y-96928572D01*
X118308571Y-96785715D01*
X118308571Y-96500001D01*
X118237143Y-96357143D01*
X118165714Y-96285715D01*
X118022857Y-96214286D01*
X117737143Y-96214286D01*
X117594286Y-96285715D01*
X117522857Y-96357143D01*
X117451429Y-96500001D01*
X117451429Y-96785715D01*
X117522857Y-96928572D01*
X117594286Y-97000001D01*
X117737143Y-97071429D01*
X118022857Y-97071429D01*
X118165714Y-97000001D01*
X118237143Y-96928572D01*
X118308571Y-96785715D01*
X117522857Y-97785714D02*
X117451429Y-97785714D01*
X117308571Y-97714286D01*
X117237143Y-97642857D01*
X118951429Y-98714286D02*
X118951429Y-98857143D01*
X118880000Y-99000000D01*
X118808571Y-99071429D01*
X118665714Y-99142858D01*
X118380000Y-99214286D01*
X118022857Y-99214286D01*
X117737143Y-99142858D01*
X117594286Y-99071429D01*
X117522857Y-99000000D01*
X117451429Y-98857143D01*
X117451429Y-98714286D01*
X117522857Y-98571429D01*
X117594286Y-98500000D01*
X117737143Y-98428572D01*
X118022857Y-98357143D01*
X118380000Y-98357143D01*
X118665714Y-98428572D01*
X118808571Y-98500000D01*
X118880000Y-98571429D01*
X118951429Y-98714286D01*
X118951429Y-100142857D02*
X118951429Y-100285714D01*
X118880000Y-100428571D01*
X118808571Y-100500000D01*
X118665714Y-100571429D01*
X118380000Y-100642857D01*
X118022857Y-100642857D01*
X117737143Y-100571429D01*
X117594286Y-100500000D01*
X117522857Y-100428571D01*
X117451429Y-100285714D01*
X117451429Y-100142857D01*
X117522857Y-100000000D01*
X117594286Y-99928571D01*
X117737143Y-99857143D01*
X118022857Y-99785714D01*
X118380000Y-99785714D01*
X118665714Y-99857143D01*
X118808571Y-99928571D01*
X118880000Y-100000000D01*
X118951429Y-100142857D01*
X118951429Y-101571428D02*
X118951429Y-101714285D01*
X118880000Y-101857142D01*
X118808571Y-101928571D01*
X118665714Y-102000000D01*
X118380000Y-102071428D01*
X118022857Y-102071428D01*
X117737143Y-102000000D01*
X117594286Y-101928571D01*
X117522857Y-101857142D01*
X117451429Y-101714285D01*
X117451429Y-101571428D01*
X117522857Y-101428571D01*
X117594286Y-101357142D01*
X117737143Y-101285714D01*
X118022857Y-101214285D01*
X118380000Y-101214285D01*
X118665714Y-101285714D01*
X118808571Y-101357142D01*
X118880000Y-101428571D01*
X118951429Y-101571428D01*
X117451429Y-103857142D02*
X118451429Y-103857142D01*
X118308571Y-103857142D02*
X118380000Y-103928570D01*
X118451429Y-104071428D01*
X118451429Y-104285713D01*
X118380000Y-104428570D01*
X118237143Y-104499999D01*
X117451429Y-104499999D01*
X118237143Y-104499999D02*
X118380000Y-104571428D01*
X118451429Y-104714285D01*
X118451429Y-104928570D01*
X118380000Y-105071428D01*
X118237143Y-105142856D01*
X117451429Y-105142856D01*
X117451429Y-105857142D02*
X118451429Y-105857142D01*
X118308571Y-105857142D02*
X118380000Y-105928570D01*
X118451429Y-106071428D01*
X118451429Y-106285713D01*
X118380000Y-106428570D01*
X118237143Y-106499999D01*
X117451429Y-106499999D01*
X118237143Y-106499999D02*
X118380000Y-106571428D01*
X118451429Y-106714285D01*
X118451429Y-106928570D01*
X118380000Y-107071428D01*
X118237143Y-107142856D01*
X117451429Y-107142856D01*
X119480000Y-87000000D02*
X119480000Y-115000000D01*
X124000000Y-87000000D02*
X116780000Y-87000000D01*
X124000000Y-115000000D02*
X116780000Y-115000000D01*
X119480000Y-115000000D02*
X118893579Y-113873496D01*
X119480000Y-115000000D02*
X120066421Y-113873496D01*
X119480000Y-87000000D02*
X118893579Y-88126504D01*
X119480000Y-87000000D02*
X120066421Y-88126504D01*
M02*
