%FSLAX45Y45*%
G04 Gerber Fmt 4.5, Leading zero omitted, Abs format (unit mm)*
G04 Created by KiCad (PCBNEW 4.0.7) date 10/02/18 16:36:15*
%MOMM*%
%LPD*%
G01*
G04 APERTURE LIST*
%ADD10C,0.127000*%
%ADD11C,0.025400*%
%ADD12C,0.200000*%
%ADD13C,0.300000*%
G04 APERTURE END LIST*
D10*
D11*
X12400000Y-11500000D02*
X12400000Y-8700000D01*
X16000000Y-11500000D02*
X12400000Y-11500000D01*
X16000000Y-8700000D02*
X16000000Y-11500000D01*
X12400000Y-8700000D02*
X16000000Y-8700000D01*
D12*
X13005000Y-8817000D02*
X13065000Y-8877000D01*
X13065000Y-8817000D02*
X13005000Y-8877000D01*
X13374000Y-10615000D02*
X13434000Y-10675000D01*
X13434000Y-10615000D02*
X13374000Y-10675000D01*
X14384000Y-9151000D02*
X14444000Y-9211000D01*
X14444000Y-9151000D02*
X14384000Y-9211000D01*
X14386000Y-8872000D02*
X14446000Y-8932000D01*
X14446000Y-8872000D02*
X14386000Y-8932000D01*
X14391000Y-9396000D02*
X14451000Y-9456000D01*
X14451000Y-9396000D02*
X14391000Y-9456000D01*
X14747000Y-11234000D02*
X14807000Y-11294000D01*
X14807000Y-11234000D02*
X14747000Y-11294000D01*
X15724000Y-8832000D02*
X15784000Y-8892000D01*
X15784000Y-8832000D02*
X15724000Y-8892000D01*
X12726800Y-8957000D02*
G75*
G03X12726800Y-8957000I-50800J0D01*
G01*
X12726800Y-9211000D02*
G75*
G03X12726800Y-9211000I-50800J0D01*
G01*
X12726800Y-10989000D02*
G75*
G03X12726800Y-10989000I-50800J0D01*
G01*
X12726800Y-11243000D02*
G75*
G03X12726800Y-11243000I-50800J0D01*
G01*
X15774800Y-9466000D02*
G75*
G03X15774800Y-9466000I-50800J0D01*
G01*
X15774800Y-9720000D02*
G75*
G03X15774800Y-9720000I-50800J0D01*
G01*
X15774800Y-10482000D02*
G75*
G03X15774800Y-10482000I-50800J0D01*
G01*
X15774800Y-10736000D02*
G75*
G03X15774800Y-10736000I-50800J0D01*
G01*
X12678000Y-9478976D02*
X12678000Y-9609024D01*
X12612976Y-9544000D02*
X12743024Y-9544000D01*
X14093000Y-10903976D02*
X14093000Y-11034024D01*
X14027976Y-10969000D02*
X14158024Y-10969000D01*
X15248000Y-11200976D02*
X15248000Y-11331024D01*
X15182976Y-11266000D02*
X15313024Y-11266000D01*
X15741000Y-11199976D02*
X15741000Y-11330024D01*
X15675976Y-11265000D02*
X15806024Y-11265000D01*
D13*
X12670158Y-11966984D02*
X12670158Y-11666984D01*
X12741587Y-11666984D01*
X12784444Y-11681270D01*
X12813016Y-11709841D01*
X12827301Y-11738413D01*
X12841587Y-11795556D01*
X12841587Y-11838413D01*
X12827301Y-11895556D01*
X12813016Y-11924127D01*
X12784444Y-11952699D01*
X12741587Y-11966984D01*
X12670158Y-11966984D01*
X12970158Y-11966984D02*
X12970158Y-11766984D01*
X12970158Y-11824127D02*
X12984444Y-11795556D01*
X12998730Y-11781270D01*
X13027301Y-11766984D01*
X13055873Y-11766984D01*
X13155873Y-11966984D02*
X13155873Y-11766984D01*
X13155873Y-11666984D02*
X13141587Y-11681270D01*
X13155873Y-11695556D01*
X13170158Y-11681270D01*
X13155873Y-11666984D01*
X13155873Y-11695556D01*
X13341587Y-11966984D02*
X13313016Y-11952699D01*
X13298730Y-11924127D01*
X13298730Y-11666984D01*
X13498730Y-11966984D02*
X13470158Y-11952699D01*
X13455873Y-11924127D01*
X13455873Y-11666984D01*
X13841587Y-11966984D02*
X13841587Y-11666984D01*
X13941587Y-11881270D01*
X14041587Y-11666984D01*
X14041587Y-11966984D01*
X14313016Y-11966984D02*
X14313016Y-11809841D01*
X14298730Y-11781270D01*
X14270158Y-11766984D01*
X14213016Y-11766984D01*
X14184444Y-11781270D01*
X14313016Y-11952699D02*
X14284444Y-11966984D01*
X14213016Y-11966984D01*
X14184444Y-11952699D01*
X14170158Y-11924127D01*
X14170158Y-11895556D01*
X14184444Y-11866984D01*
X14213016Y-11852699D01*
X14284444Y-11852699D01*
X14313016Y-11838413D01*
X14455873Y-11766984D02*
X14455873Y-12066984D01*
X14455873Y-11781270D02*
X14484444Y-11766984D01*
X14541587Y-11766984D01*
X14570158Y-11781270D01*
X14584444Y-11795556D01*
X14598730Y-11824127D01*
X14598730Y-11909841D01*
X14584444Y-11938413D01*
X14570158Y-11952699D01*
X14541587Y-11966984D01*
X14484444Y-11966984D01*
X14455873Y-11952699D01*
X14727301Y-11938413D02*
X14741587Y-11952699D01*
X14727301Y-11966984D01*
X14713016Y-11952699D01*
X14727301Y-11938413D01*
X14727301Y-11966984D01*
X14727301Y-11781270D02*
X14741587Y-11795556D01*
X14727301Y-11809841D01*
X14713016Y-11795556D01*
X14727301Y-11781270D01*
X14727301Y-11809841D01*
X12338730Y-12431270D02*
X12398730Y-12491270D01*
X12398730Y-12431270D02*
X12338730Y-12491270D01*
X12727301Y-12296984D02*
X12755873Y-12296984D01*
X12784444Y-12311270D01*
X12798730Y-12325556D01*
X12813016Y-12354127D01*
X12827301Y-12411270D01*
X12827301Y-12482699D01*
X12813016Y-12539841D01*
X12798730Y-12568413D01*
X12784444Y-12582699D01*
X12755873Y-12596984D01*
X12727301Y-12596984D01*
X12698730Y-12582699D01*
X12684444Y-12568413D01*
X12670158Y-12539841D01*
X12655873Y-12482699D01*
X12655873Y-12411270D01*
X12670158Y-12354127D01*
X12684444Y-12325556D01*
X12698730Y-12311270D01*
X12727301Y-12296984D01*
X12955873Y-12568413D02*
X12970158Y-12582699D01*
X12955873Y-12596984D01*
X12941587Y-12582699D01*
X12955873Y-12568413D01*
X12955873Y-12596984D01*
X13227301Y-12296984D02*
X13170158Y-12296984D01*
X13141587Y-12311270D01*
X13127301Y-12325556D01*
X13098730Y-12368413D01*
X13084444Y-12425556D01*
X13084444Y-12539841D01*
X13098730Y-12568413D01*
X13113016Y-12582699D01*
X13141587Y-12596984D01*
X13198730Y-12596984D01*
X13227301Y-12582699D01*
X13241587Y-12568413D01*
X13255873Y-12539841D01*
X13255873Y-12468413D01*
X13241587Y-12439841D01*
X13227301Y-12425556D01*
X13198730Y-12411270D01*
X13141587Y-12411270D01*
X13113016Y-12425556D01*
X13098730Y-12439841D01*
X13084444Y-12468413D01*
X13441587Y-12296984D02*
X13470158Y-12296984D01*
X13498730Y-12311270D01*
X13513016Y-12325556D01*
X13527301Y-12354127D01*
X13541587Y-12411270D01*
X13541587Y-12482699D01*
X13527301Y-12539841D01*
X13513016Y-12568413D01*
X13498730Y-12582699D01*
X13470158Y-12596984D01*
X13441587Y-12596984D01*
X13413016Y-12582699D01*
X13398730Y-12568413D01*
X13384444Y-12539841D01*
X13370158Y-12482699D01*
X13370158Y-12411270D01*
X13384444Y-12354127D01*
X13398730Y-12325556D01*
X13413016Y-12311270D01*
X13441587Y-12296984D01*
X13670158Y-12596984D02*
X13670158Y-12396984D01*
X13670158Y-12425556D02*
X13684444Y-12411270D01*
X13713016Y-12396984D01*
X13755873Y-12396984D01*
X13784444Y-12411270D01*
X13798730Y-12439841D01*
X13798730Y-12596984D01*
X13798730Y-12439841D02*
X13813016Y-12411270D01*
X13841587Y-12396984D01*
X13884444Y-12396984D01*
X13913016Y-12411270D01*
X13927301Y-12439841D01*
X13927301Y-12596984D01*
X14070158Y-12596984D02*
X14070158Y-12396984D01*
X14070158Y-12425556D02*
X14084444Y-12411270D01*
X14113016Y-12396984D01*
X14155873Y-12396984D01*
X14184444Y-12411270D01*
X14198730Y-12439841D01*
X14198730Y-12596984D01*
X14198730Y-12439841D02*
X14213016Y-12411270D01*
X14241587Y-12396984D01*
X14284444Y-12396984D01*
X14313016Y-12411270D01*
X14327301Y-12439841D01*
X14327301Y-12596984D01*
X14913016Y-12282699D02*
X14655873Y-12668413D01*
X15298730Y-12296984D02*
X15327301Y-12296984D01*
X15355873Y-12311270D01*
X15370158Y-12325556D01*
X15384444Y-12354127D01*
X15398730Y-12411270D01*
X15398730Y-12482699D01*
X15384444Y-12539841D01*
X15370158Y-12568413D01*
X15355873Y-12582699D01*
X15327301Y-12596984D01*
X15298730Y-12596984D01*
X15270158Y-12582699D01*
X15255873Y-12568413D01*
X15241587Y-12539841D01*
X15227301Y-12482699D01*
X15227301Y-12411270D01*
X15241587Y-12354127D01*
X15255873Y-12325556D01*
X15270158Y-12311270D01*
X15298730Y-12296984D01*
X15527301Y-12568413D02*
X15541587Y-12582699D01*
X15527301Y-12596984D01*
X15513016Y-12582699D01*
X15527301Y-12568413D01*
X15527301Y-12596984D01*
X15727301Y-12296984D02*
X15755873Y-12296984D01*
X15784444Y-12311270D01*
X15798730Y-12325556D01*
X15813015Y-12354127D01*
X15827301Y-12411270D01*
X15827301Y-12482699D01*
X15813015Y-12539841D01*
X15798730Y-12568413D01*
X15784444Y-12582699D01*
X15755873Y-12596984D01*
X15727301Y-12596984D01*
X15698730Y-12582699D01*
X15684444Y-12568413D01*
X15670158Y-12539841D01*
X15655873Y-12482699D01*
X15655873Y-12411270D01*
X15670158Y-12354127D01*
X15684444Y-12325556D01*
X15698730Y-12311270D01*
X15727301Y-12296984D01*
X15941587Y-12325556D02*
X15955873Y-12311270D01*
X15984444Y-12296984D01*
X16055873Y-12296984D01*
X16084444Y-12311270D01*
X16098730Y-12325556D01*
X16113015Y-12354127D01*
X16113015Y-12382699D01*
X16098730Y-12425556D01*
X15927301Y-12596984D01*
X16113015Y-12596984D01*
X16370158Y-12396984D02*
X16370158Y-12596984D01*
X16298730Y-12282699D02*
X16227301Y-12496984D01*
X16413015Y-12496984D01*
X16513016Y-12296984D02*
X16513016Y-12354127D01*
X16627301Y-12296984D02*
X16627301Y-12354127D01*
X17070158Y-12711270D02*
X17055873Y-12696984D01*
X17027301Y-12654127D01*
X17013016Y-12625556D01*
X16998730Y-12582699D01*
X16984444Y-12511270D01*
X16984444Y-12454127D01*
X16998730Y-12382699D01*
X17013016Y-12339841D01*
X17027301Y-12311270D01*
X17055873Y-12268413D01*
X17070158Y-12254127D01*
X17155873Y-12296984D02*
X17355873Y-12296984D01*
X17227301Y-12596984D01*
X17698730Y-12596984D02*
X17698730Y-12296984D01*
X17827301Y-12596984D02*
X17827301Y-12439841D01*
X17813016Y-12411270D01*
X17784444Y-12396984D01*
X17741587Y-12396984D01*
X17713016Y-12411270D01*
X17698730Y-12425556D01*
X18013016Y-12596984D02*
X17984444Y-12582699D01*
X17970158Y-12568413D01*
X17955873Y-12539841D01*
X17955873Y-12454127D01*
X17970158Y-12425556D01*
X17984444Y-12411270D01*
X18013016Y-12396984D01*
X18055873Y-12396984D01*
X18084444Y-12411270D01*
X18098730Y-12425556D01*
X18113016Y-12454127D01*
X18113016Y-12539841D01*
X18098730Y-12568413D01*
X18084444Y-12582699D01*
X18055873Y-12596984D01*
X18013016Y-12596984D01*
X18284444Y-12596984D02*
X18255873Y-12582699D01*
X18241587Y-12554127D01*
X18241587Y-12296984D01*
X18513016Y-12582699D02*
X18484444Y-12596984D01*
X18427301Y-12596984D01*
X18398730Y-12582699D01*
X18384444Y-12554127D01*
X18384444Y-12439841D01*
X18398730Y-12411270D01*
X18427301Y-12396984D01*
X18484444Y-12396984D01*
X18513016Y-12411270D01*
X18527301Y-12439841D01*
X18527301Y-12468413D01*
X18384444Y-12496984D01*
X18641587Y-12582699D02*
X18670159Y-12596984D01*
X18727301Y-12596984D01*
X18755873Y-12582699D01*
X18770159Y-12554127D01*
X18770159Y-12539841D01*
X18755873Y-12511270D01*
X18727301Y-12496984D01*
X18684444Y-12496984D01*
X18655873Y-12482699D01*
X18641587Y-12454127D01*
X18641587Y-12439841D01*
X18655873Y-12411270D01*
X18684444Y-12396984D01*
X18727301Y-12396984D01*
X18755873Y-12411270D01*
X18870158Y-12711270D02*
X18884444Y-12696984D01*
X18913016Y-12654127D01*
X18927301Y-12625556D01*
X18941587Y-12582699D01*
X18955873Y-12511270D01*
X18955873Y-12454127D01*
X18941587Y-12382699D01*
X18927301Y-12339841D01*
X18913016Y-12311270D01*
X18884444Y-12268413D01*
X18870158Y-12254127D01*
X12398730Y-12857270D02*
G75*
G03X12398730Y-12857270I-50800J0D01*
G01*
X12827301Y-12992984D02*
X12655873Y-12992984D01*
X12741587Y-12992984D02*
X12741587Y-12692984D01*
X12713016Y-12735841D01*
X12684444Y-12764413D01*
X12655873Y-12778699D01*
X12955873Y-12964413D02*
X12970158Y-12978699D01*
X12955873Y-12992984D01*
X12941587Y-12978699D01*
X12955873Y-12964413D01*
X12955873Y-12992984D01*
X13155873Y-12692984D02*
X13184444Y-12692984D01*
X13213016Y-12707270D01*
X13227301Y-12721556D01*
X13241587Y-12750127D01*
X13255873Y-12807270D01*
X13255873Y-12878699D01*
X13241587Y-12935841D01*
X13227301Y-12964413D01*
X13213016Y-12978699D01*
X13184444Y-12992984D01*
X13155873Y-12992984D01*
X13127301Y-12978699D01*
X13113016Y-12964413D01*
X13098730Y-12935841D01*
X13084444Y-12878699D01*
X13084444Y-12807270D01*
X13098730Y-12750127D01*
X13113016Y-12721556D01*
X13127301Y-12707270D01*
X13155873Y-12692984D01*
X13370158Y-12721556D02*
X13384444Y-12707270D01*
X13413016Y-12692984D01*
X13484444Y-12692984D01*
X13513016Y-12707270D01*
X13527301Y-12721556D01*
X13541587Y-12750127D01*
X13541587Y-12778699D01*
X13527301Y-12821556D01*
X13355873Y-12992984D01*
X13541587Y-12992984D01*
X13670158Y-12992984D02*
X13670158Y-12792984D01*
X13670158Y-12821556D02*
X13684444Y-12807270D01*
X13713016Y-12792984D01*
X13755873Y-12792984D01*
X13784444Y-12807270D01*
X13798730Y-12835841D01*
X13798730Y-12992984D01*
X13798730Y-12835841D02*
X13813016Y-12807270D01*
X13841587Y-12792984D01*
X13884444Y-12792984D01*
X13913016Y-12807270D01*
X13927301Y-12835841D01*
X13927301Y-12992984D01*
X14070158Y-12992984D02*
X14070158Y-12792984D01*
X14070158Y-12821556D02*
X14084444Y-12807270D01*
X14113016Y-12792984D01*
X14155873Y-12792984D01*
X14184444Y-12807270D01*
X14198730Y-12835841D01*
X14198730Y-12992984D01*
X14198730Y-12835841D02*
X14213016Y-12807270D01*
X14241587Y-12792984D01*
X14284444Y-12792984D01*
X14313016Y-12807270D01*
X14327301Y-12835841D01*
X14327301Y-12992984D01*
X14913016Y-12678699D02*
X14655873Y-13064413D01*
X15298730Y-12692984D02*
X15327301Y-12692984D01*
X15355873Y-12707270D01*
X15370158Y-12721556D01*
X15384444Y-12750127D01*
X15398730Y-12807270D01*
X15398730Y-12878699D01*
X15384444Y-12935841D01*
X15370158Y-12964413D01*
X15355873Y-12978699D01*
X15327301Y-12992984D01*
X15298730Y-12992984D01*
X15270158Y-12978699D01*
X15255873Y-12964413D01*
X15241587Y-12935841D01*
X15227301Y-12878699D01*
X15227301Y-12807270D01*
X15241587Y-12750127D01*
X15255873Y-12721556D01*
X15270158Y-12707270D01*
X15298730Y-12692984D01*
X15527301Y-12964413D02*
X15541587Y-12978699D01*
X15527301Y-12992984D01*
X15513016Y-12978699D01*
X15527301Y-12964413D01*
X15527301Y-12992984D01*
X15727301Y-12692984D02*
X15755873Y-12692984D01*
X15784444Y-12707270D01*
X15798730Y-12721556D01*
X15813015Y-12750127D01*
X15827301Y-12807270D01*
X15827301Y-12878699D01*
X15813015Y-12935841D01*
X15798730Y-12964413D01*
X15784444Y-12978699D01*
X15755873Y-12992984D01*
X15727301Y-12992984D01*
X15698730Y-12978699D01*
X15684444Y-12964413D01*
X15670158Y-12935841D01*
X15655873Y-12878699D01*
X15655873Y-12807270D01*
X15670158Y-12750127D01*
X15684444Y-12721556D01*
X15698730Y-12707270D01*
X15727301Y-12692984D01*
X16084444Y-12792984D02*
X16084444Y-12992984D01*
X16013015Y-12678699D02*
X15941587Y-12892984D01*
X16127301Y-12892984D01*
X16298730Y-12692984D02*
X16327301Y-12692984D01*
X16355873Y-12707270D01*
X16370158Y-12721556D01*
X16384444Y-12750127D01*
X16398730Y-12807270D01*
X16398730Y-12878699D01*
X16384444Y-12935841D01*
X16370158Y-12964413D01*
X16355873Y-12978699D01*
X16327301Y-12992984D01*
X16298730Y-12992984D01*
X16270158Y-12978699D01*
X16255873Y-12964413D01*
X16241587Y-12935841D01*
X16227301Y-12878699D01*
X16227301Y-12807270D01*
X16241587Y-12750127D01*
X16255873Y-12721556D01*
X16270158Y-12707270D01*
X16298730Y-12692984D01*
X16513016Y-12692984D02*
X16513016Y-12750127D01*
X16627301Y-12692984D02*
X16627301Y-12750127D01*
X17070158Y-13107270D02*
X17055873Y-13092984D01*
X17027301Y-13050127D01*
X17013016Y-13021556D01*
X16998730Y-12978699D01*
X16984444Y-12907270D01*
X16984444Y-12850127D01*
X16998730Y-12778699D01*
X17013016Y-12735841D01*
X17027301Y-12707270D01*
X17055873Y-12664413D01*
X17070158Y-12650127D01*
X17227301Y-12821556D02*
X17198730Y-12807270D01*
X17184444Y-12792984D01*
X17170158Y-12764413D01*
X17170158Y-12750127D01*
X17184444Y-12721556D01*
X17198730Y-12707270D01*
X17227301Y-12692984D01*
X17284444Y-12692984D01*
X17313016Y-12707270D01*
X17327301Y-12721556D01*
X17341587Y-12750127D01*
X17341587Y-12764413D01*
X17327301Y-12792984D01*
X17313016Y-12807270D01*
X17284444Y-12821556D01*
X17227301Y-12821556D01*
X17198730Y-12835841D01*
X17184444Y-12850127D01*
X17170158Y-12878699D01*
X17170158Y-12935841D01*
X17184444Y-12964413D01*
X17198730Y-12978699D01*
X17227301Y-12992984D01*
X17284444Y-12992984D01*
X17313016Y-12978699D01*
X17327301Y-12964413D01*
X17341587Y-12935841D01*
X17341587Y-12878699D01*
X17327301Y-12850127D01*
X17313016Y-12835841D01*
X17284444Y-12821556D01*
X17698730Y-12992984D02*
X17698730Y-12692984D01*
X17827301Y-12992984D02*
X17827301Y-12835841D01*
X17813016Y-12807270D01*
X17784444Y-12792984D01*
X17741587Y-12792984D01*
X17713016Y-12807270D01*
X17698730Y-12821556D01*
X18013016Y-12992984D02*
X17984444Y-12978699D01*
X17970158Y-12964413D01*
X17955873Y-12935841D01*
X17955873Y-12850127D01*
X17970158Y-12821556D01*
X17984444Y-12807270D01*
X18013016Y-12792984D01*
X18055873Y-12792984D01*
X18084444Y-12807270D01*
X18098730Y-12821556D01*
X18113016Y-12850127D01*
X18113016Y-12935841D01*
X18098730Y-12964413D01*
X18084444Y-12978699D01*
X18055873Y-12992984D01*
X18013016Y-12992984D01*
X18284444Y-12992984D02*
X18255873Y-12978699D01*
X18241587Y-12950127D01*
X18241587Y-12692984D01*
X18513016Y-12978699D02*
X18484444Y-12992984D01*
X18427301Y-12992984D01*
X18398730Y-12978699D01*
X18384444Y-12950127D01*
X18384444Y-12835841D01*
X18398730Y-12807270D01*
X18427301Y-12792984D01*
X18484444Y-12792984D01*
X18513016Y-12807270D01*
X18527301Y-12835841D01*
X18527301Y-12864413D01*
X18384444Y-12892984D01*
X18641587Y-12978699D02*
X18670159Y-12992984D01*
X18727301Y-12992984D01*
X18755873Y-12978699D01*
X18770159Y-12950127D01*
X18770159Y-12935841D01*
X18755873Y-12907270D01*
X18727301Y-12892984D01*
X18684444Y-12892984D01*
X18655873Y-12878699D01*
X18641587Y-12850127D01*
X18641587Y-12835841D01*
X18655873Y-12807270D01*
X18684444Y-12792984D01*
X18727301Y-12792984D01*
X18755873Y-12807270D01*
X18870158Y-13107270D02*
X18884444Y-13092984D01*
X18913016Y-13050127D01*
X18927301Y-13021556D01*
X18941587Y-12978699D01*
X18955873Y-12907270D01*
X18955873Y-12850127D01*
X18941587Y-12778699D01*
X18927301Y-12735841D01*
X18913016Y-12707270D01*
X18884444Y-12664413D01*
X18870158Y-12650127D01*
X12333706Y-13188246D02*
X12333706Y-13318294D01*
X12268682Y-13253270D02*
X12398730Y-13253270D01*
X12827301Y-13388984D02*
X12655873Y-13388984D01*
X12741587Y-13388984D02*
X12741587Y-13088984D01*
X12713016Y-13131841D01*
X12684444Y-13160413D01*
X12655873Y-13174699D01*
X12955873Y-13360413D02*
X12970158Y-13374699D01*
X12955873Y-13388984D01*
X12941587Y-13374699D01*
X12955873Y-13360413D01*
X12955873Y-13388984D01*
X13070158Y-13088984D02*
X13255873Y-13088984D01*
X13155873Y-13203270D01*
X13198730Y-13203270D01*
X13227301Y-13217556D01*
X13241587Y-13231841D01*
X13255873Y-13260413D01*
X13255873Y-13331841D01*
X13241587Y-13360413D01*
X13227301Y-13374699D01*
X13198730Y-13388984D01*
X13113016Y-13388984D01*
X13084444Y-13374699D01*
X13070158Y-13360413D01*
X13441587Y-13088984D02*
X13470158Y-13088984D01*
X13498730Y-13103270D01*
X13513016Y-13117556D01*
X13527301Y-13146127D01*
X13541587Y-13203270D01*
X13541587Y-13274699D01*
X13527301Y-13331841D01*
X13513016Y-13360413D01*
X13498730Y-13374699D01*
X13470158Y-13388984D01*
X13441587Y-13388984D01*
X13413016Y-13374699D01*
X13398730Y-13360413D01*
X13384444Y-13331841D01*
X13370158Y-13274699D01*
X13370158Y-13203270D01*
X13384444Y-13146127D01*
X13398730Y-13117556D01*
X13413016Y-13103270D01*
X13441587Y-13088984D01*
X13670158Y-13388984D02*
X13670158Y-13188984D01*
X13670158Y-13217556D02*
X13684444Y-13203270D01*
X13713016Y-13188984D01*
X13755873Y-13188984D01*
X13784444Y-13203270D01*
X13798730Y-13231841D01*
X13798730Y-13388984D01*
X13798730Y-13231841D02*
X13813016Y-13203270D01*
X13841587Y-13188984D01*
X13884444Y-13188984D01*
X13913016Y-13203270D01*
X13927301Y-13231841D01*
X13927301Y-13388984D01*
X14070158Y-13388984D02*
X14070158Y-13188984D01*
X14070158Y-13217556D02*
X14084444Y-13203270D01*
X14113016Y-13188984D01*
X14155873Y-13188984D01*
X14184444Y-13203270D01*
X14198730Y-13231841D01*
X14198730Y-13388984D01*
X14198730Y-13231841D02*
X14213016Y-13203270D01*
X14241587Y-13188984D01*
X14284444Y-13188984D01*
X14313016Y-13203270D01*
X14327301Y-13231841D01*
X14327301Y-13388984D01*
X14913016Y-13074699D02*
X14655873Y-13460413D01*
X15298730Y-13088984D02*
X15327301Y-13088984D01*
X15355873Y-13103270D01*
X15370158Y-13117556D01*
X15384444Y-13146127D01*
X15398730Y-13203270D01*
X15398730Y-13274699D01*
X15384444Y-13331841D01*
X15370158Y-13360413D01*
X15355873Y-13374699D01*
X15327301Y-13388984D01*
X15298730Y-13388984D01*
X15270158Y-13374699D01*
X15255873Y-13360413D01*
X15241587Y-13331841D01*
X15227301Y-13274699D01*
X15227301Y-13203270D01*
X15241587Y-13146127D01*
X15255873Y-13117556D01*
X15270158Y-13103270D01*
X15298730Y-13088984D01*
X15527301Y-13360413D02*
X15541587Y-13374699D01*
X15527301Y-13388984D01*
X15513016Y-13374699D01*
X15527301Y-13360413D01*
X15527301Y-13388984D01*
X15727301Y-13088984D02*
X15755873Y-13088984D01*
X15784444Y-13103270D01*
X15798730Y-13117556D01*
X15813015Y-13146127D01*
X15827301Y-13203270D01*
X15827301Y-13274699D01*
X15813015Y-13331841D01*
X15798730Y-13360413D01*
X15784444Y-13374699D01*
X15755873Y-13388984D01*
X15727301Y-13388984D01*
X15698730Y-13374699D01*
X15684444Y-13360413D01*
X15670158Y-13331841D01*
X15655873Y-13274699D01*
X15655873Y-13203270D01*
X15670158Y-13146127D01*
X15684444Y-13117556D01*
X15698730Y-13103270D01*
X15727301Y-13088984D01*
X16098730Y-13088984D02*
X15955873Y-13088984D01*
X15941587Y-13231841D01*
X15955873Y-13217556D01*
X15984444Y-13203270D01*
X16055873Y-13203270D01*
X16084444Y-13217556D01*
X16098730Y-13231841D01*
X16113015Y-13260413D01*
X16113015Y-13331841D01*
X16098730Y-13360413D01*
X16084444Y-13374699D01*
X16055873Y-13388984D01*
X15984444Y-13388984D01*
X15955873Y-13374699D01*
X15941587Y-13360413D01*
X16398730Y-13388984D02*
X16227301Y-13388984D01*
X16313015Y-13388984D02*
X16313015Y-13088984D01*
X16284444Y-13131841D01*
X16255873Y-13160413D01*
X16227301Y-13174699D01*
X16513016Y-13088984D02*
X16513016Y-13146127D01*
X16627301Y-13088984D02*
X16627301Y-13146127D01*
X17070158Y-13503270D02*
X17055873Y-13488984D01*
X17027301Y-13446127D01*
X17013016Y-13417556D01*
X16998730Y-13374699D01*
X16984444Y-13303270D01*
X16984444Y-13246127D01*
X16998730Y-13174699D01*
X17013016Y-13131841D01*
X17027301Y-13103270D01*
X17055873Y-13060413D01*
X17070158Y-13046127D01*
X17313016Y-13188984D02*
X17313016Y-13388984D01*
X17241587Y-13074699D02*
X17170158Y-13288984D01*
X17355873Y-13288984D01*
X17698730Y-13388984D02*
X17698730Y-13088984D01*
X17827301Y-13388984D02*
X17827301Y-13231841D01*
X17813016Y-13203270D01*
X17784444Y-13188984D01*
X17741587Y-13188984D01*
X17713016Y-13203270D01*
X17698730Y-13217556D01*
X18013016Y-13388984D02*
X17984444Y-13374699D01*
X17970158Y-13360413D01*
X17955873Y-13331841D01*
X17955873Y-13246127D01*
X17970158Y-13217556D01*
X17984444Y-13203270D01*
X18013016Y-13188984D01*
X18055873Y-13188984D01*
X18084444Y-13203270D01*
X18098730Y-13217556D01*
X18113016Y-13246127D01*
X18113016Y-13331841D01*
X18098730Y-13360413D01*
X18084444Y-13374699D01*
X18055873Y-13388984D01*
X18013016Y-13388984D01*
X18284444Y-13388984D02*
X18255873Y-13374699D01*
X18241587Y-13346127D01*
X18241587Y-13088984D01*
X18513016Y-13374699D02*
X18484444Y-13388984D01*
X18427301Y-13388984D01*
X18398730Y-13374699D01*
X18384444Y-13346127D01*
X18384444Y-13231841D01*
X18398730Y-13203270D01*
X18427301Y-13188984D01*
X18484444Y-13188984D01*
X18513016Y-13203270D01*
X18527301Y-13231841D01*
X18527301Y-13260413D01*
X18384444Y-13288984D01*
X18641587Y-13374699D02*
X18670159Y-13388984D01*
X18727301Y-13388984D01*
X18755873Y-13374699D01*
X18770159Y-13346127D01*
X18770159Y-13331841D01*
X18755873Y-13303270D01*
X18727301Y-13288984D01*
X18684444Y-13288984D01*
X18655873Y-13274699D01*
X18641587Y-13246127D01*
X18641587Y-13231841D01*
X18655873Y-13203270D01*
X18684444Y-13188984D01*
X18727301Y-13188984D01*
X18755873Y-13203270D01*
X18870158Y-13503270D02*
X18884444Y-13488984D01*
X18913016Y-13446127D01*
X18927301Y-13417556D01*
X18941587Y-13374699D01*
X18955873Y-13303270D01*
X18955873Y-13246127D01*
X18941587Y-13174699D01*
X18927301Y-13131841D01*
X18913016Y-13103270D01*
X18884444Y-13060413D01*
X18870158Y-13046127D01*
M02*
