G04 #@! TF.FileFunction,Drawing*
%FSLAX46Y46*%
G04 Gerber Fmt 4.6, Leading zero omitted, Abs format (unit mm)*
G04 Created by KiCad (PCBNEW 4.0.7) date 10/02/18 16:36:01*
%MOMM*%
%LPD*%
G01*
G04 APERTURE LIST*
%ADD10C,0.100000*%
%ADD11C,0.152400*%
G04 APERTURE END LIST*
D10*
D11*
X155368400Y-106394200D02*
X152244200Y-109518400D01*
X155368400Y-100145800D02*
X152244200Y-97021600D01*
X155368400Y-97021600D02*
X142871600Y-97021600D01*
X142871600Y-97021600D02*
X142871600Y-109518400D01*
X142871600Y-109518400D02*
X155368400Y-109518400D01*
X155368400Y-109518400D02*
X155368400Y-97021600D01*
X134929000Y-96208000D02*
X133963800Y-96208000D01*
X133963800Y-96208000D02*
X133963800Y-101923000D01*
X133963800Y-101923000D02*
X134929000Y-101923000D01*
X134929000Y-101923000D02*
X134929000Y-96208000D01*
X136630800Y-96208000D02*
X135665600Y-96208000D01*
X135665600Y-96208000D02*
X135665600Y-101923000D01*
X135665600Y-101923000D02*
X136630800Y-101923000D01*
X136630800Y-101923000D02*
X136630800Y-96208000D01*
X138332600Y-96208000D02*
X137367400Y-96208000D01*
X137367400Y-96208000D02*
X137367400Y-101923000D01*
X137367400Y-101923000D02*
X138332600Y-101923000D01*
X138332600Y-101923000D02*
X138332600Y-96208000D01*
X140034400Y-96208000D02*
X139069200Y-96208000D01*
X139069200Y-96208000D02*
X139069200Y-101923000D01*
X139069200Y-101923000D02*
X140034400Y-101923000D01*
X140034400Y-101923000D02*
X140034400Y-96208000D01*
X141736200Y-96208000D02*
X140771000Y-96208000D01*
X140771000Y-96208000D02*
X140771000Y-101923000D01*
X140771000Y-101923000D02*
X141736200Y-101923000D01*
X141736200Y-101923000D02*
X141736200Y-96208000D01*
X132770000Y-96208000D02*
X142930000Y-96208000D01*
X142930000Y-96208000D02*
X142930000Y-87572000D01*
X142930000Y-87572000D02*
X132770000Y-87572000D01*
X132770000Y-87572000D02*
X132770000Y-96208000D01*
M02*
