G04 #@! TF.FileFunction,Copper,L2,Bot,Signal*
%FSLAX46Y46*%
G04 Gerber Fmt 4.6, Leading zero omitted, Abs format (unit mm)*
G04 Created by KiCad (PCBNEW 4.0.7) date 10/02/18 16:36:01*
%MOMM*%
%LPD*%
G01*
G04 APERTURE LIST*
%ADD10C,0.100000*%
%ADD11C,0.300000*%
%ADD12R,2.006600X2.006600*%
%ADD13C,2.006600*%
%ADD14C,2.999740*%
%ADD15C,1.500000*%
%ADD16C,0.800000*%
%ADD17C,1.000000*%
%ADD18C,0.254000*%
G04 APERTURE END LIST*
D10*
D11*
X152364285Y-106043571D02*
X152364285Y-104543571D01*
X152007142Y-104543571D01*
X151792857Y-104615000D01*
X151649999Y-104757857D01*
X151578571Y-104900714D01*
X151507142Y-105186429D01*
X151507142Y-105400714D01*
X151578571Y-105686429D01*
X151649999Y-105829286D01*
X151792857Y-105972143D01*
X152007142Y-106043571D01*
X152364285Y-106043571D01*
X150864285Y-106043571D02*
X150864285Y-105043571D01*
X150864285Y-104543571D02*
X150935714Y-104615000D01*
X150864285Y-104686429D01*
X150792857Y-104615000D01*
X150864285Y-104543571D01*
X150864285Y-104686429D01*
X149578571Y-105972143D02*
X149721428Y-106043571D01*
X150007142Y-106043571D01*
X150149999Y-105972143D01*
X150221428Y-105829286D01*
X150221428Y-105257857D01*
X150149999Y-105115000D01*
X150007142Y-105043571D01*
X149721428Y-105043571D01*
X149578571Y-105115000D01*
X149507142Y-105257857D01*
X149507142Y-105400714D01*
X150221428Y-105543571D01*
X149078571Y-105043571D02*
X148507142Y-105043571D01*
X148864285Y-104543571D02*
X148864285Y-105829286D01*
X148792857Y-105972143D01*
X148649999Y-106043571D01*
X148507142Y-106043571D01*
X148007142Y-106043571D02*
X148007142Y-105043571D01*
X148007142Y-105329286D02*
X147935714Y-105186429D01*
X147864285Y-105115000D01*
X147721428Y-105043571D01*
X147578571Y-105043571D01*
X147078571Y-106043571D02*
X147078571Y-105043571D01*
X147078571Y-104543571D02*
X147150000Y-104615000D01*
X147078571Y-104686429D01*
X147007143Y-104615000D01*
X147078571Y-104543571D01*
X147078571Y-104686429D01*
X145721428Y-105972143D02*
X145864285Y-106043571D01*
X146149999Y-106043571D01*
X146292857Y-105972143D01*
X146364285Y-105900714D01*
X146435714Y-105757857D01*
X146435714Y-105329286D01*
X146364285Y-105186429D01*
X146292857Y-105115000D01*
X146149999Y-105043571D01*
X145864285Y-105043571D01*
X145721428Y-105115000D01*
X145078571Y-106043571D02*
X145078571Y-104543571D01*
X144435714Y-106043571D02*
X144435714Y-105257857D01*
X144507143Y-105115000D01*
X144650000Y-105043571D01*
X144864285Y-105043571D01*
X145007143Y-105115000D01*
X145078571Y-105186429D01*
X153435714Y-107093571D02*
X152578571Y-107093571D01*
X153007142Y-108593571D02*
X153007142Y-107093571D01*
X152078571Y-108450714D02*
X152007143Y-108522143D01*
X152078571Y-108593571D01*
X152150000Y-108522143D01*
X152078571Y-108450714D01*
X152078571Y-108593571D01*
X151364285Y-107807857D02*
X150864285Y-107807857D01*
X150649999Y-108593571D02*
X151364285Y-108593571D01*
X151364285Y-107093571D01*
X150649999Y-107093571D01*
X149292856Y-108593571D02*
X150007142Y-108593571D01*
X150007142Y-107093571D01*
X148792856Y-108022143D02*
X147649999Y-108022143D01*
X146935713Y-107807857D02*
X146435713Y-107807857D01*
X146221427Y-108593571D02*
X146935713Y-108593571D01*
X146935713Y-107093571D01*
X146221427Y-107093571D01*
X145649999Y-107236429D02*
X145578570Y-107165000D01*
X145435713Y-107093571D01*
X145078570Y-107093571D01*
X144935713Y-107165000D01*
X144864284Y-107236429D01*
X144792856Y-107379286D01*
X144792856Y-107522143D01*
X144864284Y-107736429D01*
X145721427Y-108593571D01*
X144792856Y-108593571D01*
X144221428Y-108165000D02*
X143507142Y-108165000D01*
X144364285Y-108593571D02*
X143864285Y-107093571D01*
X143364285Y-108593571D01*
D12*
X126760000Y-89570000D03*
D13*
X126760000Y-92110000D03*
D12*
X126760000Y-112430000D03*
D13*
X126760000Y-109890000D03*
D12*
X157240000Y-107360000D03*
D13*
X157240000Y-104820000D03*
D12*
X157240000Y-97200000D03*
D13*
X157240000Y-94660000D03*
D14*
X157410000Y-112650000D03*
X152480000Y-112660000D03*
X140930000Y-109690000D03*
X126780000Y-95440000D03*
D15*
X144140000Y-91810000D03*
X144210000Y-94260000D03*
X144160000Y-89020000D03*
X130350000Y-88470000D03*
X157540000Y-88620000D03*
X134040000Y-106450000D03*
X147770000Y-112640000D03*
D16*
X143600000Y-91270000D02*
X143600000Y-91140000D01*
X144140000Y-91810000D02*
X143600000Y-91270000D01*
X141090000Y-91140000D02*
X139750000Y-91140000D01*
X144210000Y-94260000D02*
X141090000Y-91140000D01*
X141560000Y-91200000D02*
X141560000Y-91140000D01*
X141620000Y-91140000D02*
X141560000Y-91200000D01*
X142040000Y-91140000D02*
X141620000Y-91140000D01*
X144160000Y-89020000D02*
X142040000Y-91140000D01*
D17*
X129340000Y-89480000D02*
X129340000Y-101550000D01*
X130350000Y-88470000D02*
X129340000Y-89480000D01*
X155020000Y-91140000D02*
X143600000Y-91140000D01*
X143600000Y-91140000D02*
X141560000Y-91140000D01*
X157540000Y-88620000D02*
X155020000Y-91140000D01*
X141560000Y-91140000D02*
X139750000Y-91140000D01*
X139750000Y-91140000D02*
X129340000Y-101550000D01*
X126850000Y-104040000D02*
X126850000Y-111420000D01*
X129340000Y-101550000D02*
X126850000Y-104040000D01*
X140250000Y-112660000D02*
X134040000Y-106450000D01*
X147750000Y-112660000D02*
X140250000Y-112660000D01*
D16*
X147770000Y-112640000D02*
X147750000Y-112660000D01*
D18*
G36*
X159352300Y-111740257D02*
X159242632Y-111475495D01*
X158923877Y-111315728D01*
X157589605Y-112650000D01*
X158923877Y-113984272D01*
X159242632Y-113824505D01*
X159352300Y-113544740D01*
X159352300Y-114352300D01*
X158649830Y-114352300D01*
X158744272Y-114163877D01*
X157410000Y-112829605D01*
X156075728Y-114163877D01*
X156170170Y-114352300D01*
X153806544Y-114352300D01*
X154288800Y-113870886D01*
X154614499Y-113086515D01*
X154615214Y-112266217D01*
X155267405Y-112266217D01*
X155283633Y-113115366D01*
X155577368Y-113824505D01*
X155896123Y-113984272D01*
X157230395Y-112650000D01*
X155896123Y-111315728D01*
X155577368Y-111475495D01*
X155267405Y-112266217D01*
X154615214Y-112266217D01*
X154615240Y-112237211D01*
X154290910Y-111452273D01*
X153975312Y-111136123D01*
X156075728Y-111136123D01*
X157410000Y-112470395D01*
X158744272Y-111136123D01*
X158584505Y-110817368D01*
X157793783Y-110507405D01*
X156944634Y-110523633D01*
X156235495Y-110817368D01*
X156075728Y-111136123D01*
X153975312Y-111136123D01*
X153690886Y-110851200D01*
X152906515Y-110525501D01*
X152057211Y-110524760D01*
X151272273Y-110849090D01*
X150671200Y-111449114D01*
X150345501Y-112233485D01*
X150344760Y-113082789D01*
X150669090Y-113867727D01*
X151152817Y-114352300D01*
X124647700Y-114352300D01*
X124647700Y-112715750D01*
X125121700Y-112715750D01*
X125121700Y-113559609D01*
X125218373Y-113792998D01*
X125397001Y-113971627D01*
X125630390Y-114068300D01*
X126474250Y-114068300D01*
X126633000Y-113909550D01*
X126633000Y-112557000D01*
X126887000Y-112557000D01*
X126887000Y-113909550D01*
X127045750Y-114068300D01*
X127889610Y-114068300D01*
X128122999Y-113971627D01*
X128301627Y-113792998D01*
X128398300Y-113559609D01*
X128398300Y-112715750D01*
X128239550Y-112557000D01*
X126887000Y-112557000D01*
X126633000Y-112557000D01*
X125280450Y-112557000D01*
X125121700Y-112715750D01*
X124647700Y-112715750D01*
X124647700Y-109624674D01*
X125110811Y-109624674D01*
X125134812Y-110275988D01*
X125337884Y-110766247D01*
X125524658Y-110835496D01*
X125397001Y-110888373D01*
X125218373Y-111067002D01*
X125121700Y-111300391D01*
X125121700Y-112144250D01*
X125280450Y-112303000D01*
X126633000Y-112303000D01*
X126633000Y-112283000D01*
X126887000Y-112283000D01*
X126887000Y-112303000D01*
X128239550Y-112303000D01*
X128398300Y-112144250D01*
X128398300Y-111300391D01*
X128301627Y-111067002D01*
X128122999Y-110888373D01*
X127995342Y-110835496D01*
X128182116Y-110766247D01*
X128409189Y-110155326D01*
X128385188Y-109504012D01*
X128182116Y-109013753D01*
X127914919Y-108914686D01*
X126939605Y-109890000D01*
X126953748Y-109904143D01*
X126774143Y-110083748D01*
X126760000Y-110069605D01*
X126745858Y-110083748D01*
X126566253Y-109904143D01*
X126580395Y-109890000D01*
X125605081Y-108914686D01*
X125337884Y-109013753D01*
X125110811Y-109624674D01*
X124647700Y-109624674D01*
X124647700Y-108735081D01*
X125784686Y-108735081D01*
X126760000Y-109710395D01*
X127735314Y-108735081D01*
X127636247Y-108467884D01*
X127025326Y-108240811D01*
X126374012Y-108264812D01*
X125883753Y-108467884D01*
X125784686Y-108735081D01*
X124647700Y-108735081D01*
X124647700Y-106724285D01*
X132654760Y-106724285D01*
X132865169Y-107233515D01*
X133254436Y-107623461D01*
X133763298Y-107834759D01*
X133819676Y-107834808D01*
X139447434Y-113462566D01*
X139815654Y-113708603D01*
X140250000Y-113795000D01*
X146966007Y-113795000D01*
X146984436Y-113813461D01*
X147493298Y-114024759D01*
X148044285Y-114025240D01*
X148553515Y-113814831D01*
X148943461Y-113425564D01*
X149154759Y-112916702D01*
X149155240Y-112365715D01*
X148944831Y-111856485D01*
X148555564Y-111466539D01*
X148046702Y-111255241D01*
X147495715Y-111254760D01*
X146986485Y-111465169D01*
X146926550Y-111525000D01*
X142079425Y-111525000D01*
X142137727Y-111500910D01*
X142738800Y-110900886D01*
X143064499Y-110116515D01*
X143064688Y-109900000D01*
X154213572Y-109900000D01*
X154213572Y-107645750D01*
X155601700Y-107645750D01*
X155601700Y-108489609D01*
X155698373Y-108722998D01*
X155877001Y-108901627D01*
X156110390Y-108998300D01*
X156954250Y-108998300D01*
X157113000Y-108839550D01*
X157113000Y-107487000D01*
X157367000Y-107487000D01*
X157367000Y-108839550D01*
X157525750Y-108998300D01*
X158369610Y-108998300D01*
X158602999Y-108901627D01*
X158781627Y-108722998D01*
X158878300Y-108489609D01*
X158878300Y-107645750D01*
X158719550Y-107487000D01*
X157367000Y-107487000D01*
X157113000Y-107487000D01*
X155760450Y-107487000D01*
X155601700Y-107645750D01*
X154213572Y-107645750D01*
X154213572Y-104554674D01*
X155590811Y-104554674D01*
X155614812Y-105205988D01*
X155817884Y-105696247D01*
X156004658Y-105765496D01*
X155877001Y-105818373D01*
X155698373Y-105997002D01*
X155601700Y-106230391D01*
X155601700Y-107074250D01*
X155760450Y-107233000D01*
X157113000Y-107233000D01*
X157113000Y-107213000D01*
X157367000Y-107213000D01*
X157367000Y-107233000D01*
X158719550Y-107233000D01*
X158878300Y-107074250D01*
X158878300Y-106230391D01*
X158781627Y-105997002D01*
X158602999Y-105818373D01*
X158475342Y-105765496D01*
X158662116Y-105696247D01*
X158889189Y-105085326D01*
X158865188Y-104434012D01*
X158662116Y-103943753D01*
X158394919Y-103844686D01*
X157419605Y-104820000D01*
X157433748Y-104834143D01*
X157254143Y-105013748D01*
X157240000Y-104999605D01*
X157225858Y-105013748D01*
X157046253Y-104834143D01*
X157060395Y-104820000D01*
X156085081Y-103844686D01*
X155817884Y-103943753D01*
X155590811Y-104554674D01*
X154213572Y-104554674D01*
X154213572Y-103665081D01*
X156264686Y-103665081D01*
X157240000Y-104640395D01*
X158215314Y-103665081D01*
X158116247Y-103397884D01*
X157505326Y-103170811D01*
X156854012Y-103194812D01*
X156363753Y-103397884D01*
X156264686Y-103665081D01*
X154213572Y-103665081D01*
X154213572Y-103530000D01*
X142586429Y-103530000D01*
X142586429Y-108327522D01*
X142140886Y-107881200D01*
X141356515Y-107555501D01*
X140507211Y-107554760D01*
X139722273Y-107879090D01*
X139121200Y-108479114D01*
X138795501Y-109263485D01*
X138795207Y-109600075D01*
X135425193Y-106230061D01*
X135425240Y-106175715D01*
X135214831Y-105666485D01*
X134825564Y-105276539D01*
X134316702Y-105065241D01*
X133765715Y-105064760D01*
X133256485Y-105275169D01*
X132866539Y-105664436D01*
X132655241Y-106173298D01*
X132654760Y-106724285D01*
X124647700Y-106724285D01*
X124647700Y-95869904D01*
X124969090Y-96647727D01*
X125569114Y-97248800D01*
X126353485Y-97574499D01*
X127202789Y-97575240D01*
X127987727Y-97250910D01*
X128588800Y-96650886D01*
X128777394Y-96196700D01*
X155589260Y-96196700D01*
X155589260Y-98203300D01*
X155633538Y-98438617D01*
X155772610Y-98654741D01*
X155984810Y-98799731D01*
X156236700Y-98850740D01*
X158243300Y-98850740D01*
X158478617Y-98806462D01*
X158694741Y-98667390D01*
X158839731Y-98455190D01*
X158890740Y-98203300D01*
X158890740Y-96196700D01*
X158846462Y-95961383D01*
X158707390Y-95745259D01*
X158567515Y-95649687D01*
X158628073Y-95589234D01*
X158878015Y-94987308D01*
X158878584Y-94335552D01*
X158629693Y-93733190D01*
X158169234Y-93271927D01*
X157567308Y-93021985D01*
X156915552Y-93021416D01*
X156313190Y-93270307D01*
X155851927Y-93730766D01*
X155601985Y-94332692D01*
X155601416Y-94984448D01*
X155850307Y-95586810D01*
X155913485Y-95650099D01*
X155785259Y-95732610D01*
X155640269Y-95944810D01*
X155589260Y-96196700D01*
X128777394Y-96196700D01*
X128914499Y-95866515D01*
X128915240Y-95017211D01*
X128590910Y-94232273D01*
X127990886Y-93631200D01*
X127680480Y-93502308D01*
X127686810Y-93499693D01*
X128148073Y-93039234D01*
X128398015Y-92437308D01*
X128398584Y-91785552D01*
X128149693Y-91183190D01*
X128086515Y-91119901D01*
X128214741Y-91037390D01*
X128359731Y-90825190D01*
X128410740Y-90573300D01*
X128410740Y-88566700D01*
X128366462Y-88331383D01*
X128227390Y-88115259D01*
X128015190Y-87970269D01*
X127763300Y-87919260D01*
X125756700Y-87919260D01*
X125521383Y-87963538D01*
X125305259Y-88102610D01*
X125160269Y-88314810D01*
X125109260Y-88566700D01*
X125109260Y-90573300D01*
X125153538Y-90808617D01*
X125292610Y-91024741D01*
X125432485Y-91120313D01*
X125371927Y-91180766D01*
X125121985Y-91782692D01*
X125121416Y-92434448D01*
X125370307Y-93036810D01*
X125830766Y-93498073D01*
X125859990Y-93510208D01*
X125572273Y-93629090D01*
X124971200Y-94229114D01*
X124647700Y-95008189D01*
X124647700Y-87647700D01*
X159352300Y-87647700D01*
X159352300Y-111740257D01*
X159352300Y-111740257D01*
G37*
X159352300Y-111740257D02*
X159242632Y-111475495D01*
X158923877Y-111315728D01*
X157589605Y-112650000D01*
X158923877Y-113984272D01*
X159242632Y-113824505D01*
X159352300Y-113544740D01*
X159352300Y-114352300D01*
X158649830Y-114352300D01*
X158744272Y-114163877D01*
X157410000Y-112829605D01*
X156075728Y-114163877D01*
X156170170Y-114352300D01*
X153806544Y-114352300D01*
X154288800Y-113870886D01*
X154614499Y-113086515D01*
X154615214Y-112266217D01*
X155267405Y-112266217D01*
X155283633Y-113115366D01*
X155577368Y-113824505D01*
X155896123Y-113984272D01*
X157230395Y-112650000D01*
X155896123Y-111315728D01*
X155577368Y-111475495D01*
X155267405Y-112266217D01*
X154615214Y-112266217D01*
X154615240Y-112237211D01*
X154290910Y-111452273D01*
X153975312Y-111136123D01*
X156075728Y-111136123D01*
X157410000Y-112470395D01*
X158744272Y-111136123D01*
X158584505Y-110817368D01*
X157793783Y-110507405D01*
X156944634Y-110523633D01*
X156235495Y-110817368D01*
X156075728Y-111136123D01*
X153975312Y-111136123D01*
X153690886Y-110851200D01*
X152906515Y-110525501D01*
X152057211Y-110524760D01*
X151272273Y-110849090D01*
X150671200Y-111449114D01*
X150345501Y-112233485D01*
X150344760Y-113082789D01*
X150669090Y-113867727D01*
X151152817Y-114352300D01*
X124647700Y-114352300D01*
X124647700Y-112715750D01*
X125121700Y-112715750D01*
X125121700Y-113559609D01*
X125218373Y-113792998D01*
X125397001Y-113971627D01*
X125630390Y-114068300D01*
X126474250Y-114068300D01*
X126633000Y-113909550D01*
X126633000Y-112557000D01*
X126887000Y-112557000D01*
X126887000Y-113909550D01*
X127045750Y-114068300D01*
X127889610Y-114068300D01*
X128122999Y-113971627D01*
X128301627Y-113792998D01*
X128398300Y-113559609D01*
X128398300Y-112715750D01*
X128239550Y-112557000D01*
X126887000Y-112557000D01*
X126633000Y-112557000D01*
X125280450Y-112557000D01*
X125121700Y-112715750D01*
X124647700Y-112715750D01*
X124647700Y-109624674D01*
X125110811Y-109624674D01*
X125134812Y-110275988D01*
X125337884Y-110766247D01*
X125524658Y-110835496D01*
X125397001Y-110888373D01*
X125218373Y-111067002D01*
X125121700Y-111300391D01*
X125121700Y-112144250D01*
X125280450Y-112303000D01*
X126633000Y-112303000D01*
X126633000Y-112283000D01*
X126887000Y-112283000D01*
X126887000Y-112303000D01*
X128239550Y-112303000D01*
X128398300Y-112144250D01*
X128398300Y-111300391D01*
X128301627Y-111067002D01*
X128122999Y-110888373D01*
X127995342Y-110835496D01*
X128182116Y-110766247D01*
X128409189Y-110155326D01*
X128385188Y-109504012D01*
X128182116Y-109013753D01*
X127914919Y-108914686D01*
X126939605Y-109890000D01*
X126953748Y-109904143D01*
X126774143Y-110083748D01*
X126760000Y-110069605D01*
X126745858Y-110083748D01*
X126566253Y-109904143D01*
X126580395Y-109890000D01*
X125605081Y-108914686D01*
X125337884Y-109013753D01*
X125110811Y-109624674D01*
X124647700Y-109624674D01*
X124647700Y-108735081D01*
X125784686Y-108735081D01*
X126760000Y-109710395D01*
X127735314Y-108735081D01*
X127636247Y-108467884D01*
X127025326Y-108240811D01*
X126374012Y-108264812D01*
X125883753Y-108467884D01*
X125784686Y-108735081D01*
X124647700Y-108735081D01*
X124647700Y-106724285D01*
X132654760Y-106724285D01*
X132865169Y-107233515D01*
X133254436Y-107623461D01*
X133763298Y-107834759D01*
X133819676Y-107834808D01*
X139447434Y-113462566D01*
X139815654Y-113708603D01*
X140250000Y-113795000D01*
X146966007Y-113795000D01*
X146984436Y-113813461D01*
X147493298Y-114024759D01*
X148044285Y-114025240D01*
X148553515Y-113814831D01*
X148943461Y-113425564D01*
X149154759Y-112916702D01*
X149155240Y-112365715D01*
X148944831Y-111856485D01*
X148555564Y-111466539D01*
X148046702Y-111255241D01*
X147495715Y-111254760D01*
X146986485Y-111465169D01*
X146926550Y-111525000D01*
X142079425Y-111525000D01*
X142137727Y-111500910D01*
X142738800Y-110900886D01*
X143064499Y-110116515D01*
X143064688Y-109900000D01*
X154213572Y-109900000D01*
X154213572Y-107645750D01*
X155601700Y-107645750D01*
X155601700Y-108489609D01*
X155698373Y-108722998D01*
X155877001Y-108901627D01*
X156110390Y-108998300D01*
X156954250Y-108998300D01*
X157113000Y-108839550D01*
X157113000Y-107487000D01*
X157367000Y-107487000D01*
X157367000Y-108839550D01*
X157525750Y-108998300D01*
X158369610Y-108998300D01*
X158602999Y-108901627D01*
X158781627Y-108722998D01*
X158878300Y-108489609D01*
X158878300Y-107645750D01*
X158719550Y-107487000D01*
X157367000Y-107487000D01*
X157113000Y-107487000D01*
X155760450Y-107487000D01*
X155601700Y-107645750D01*
X154213572Y-107645750D01*
X154213572Y-104554674D01*
X155590811Y-104554674D01*
X155614812Y-105205988D01*
X155817884Y-105696247D01*
X156004658Y-105765496D01*
X155877001Y-105818373D01*
X155698373Y-105997002D01*
X155601700Y-106230391D01*
X155601700Y-107074250D01*
X155760450Y-107233000D01*
X157113000Y-107233000D01*
X157113000Y-107213000D01*
X157367000Y-107213000D01*
X157367000Y-107233000D01*
X158719550Y-107233000D01*
X158878300Y-107074250D01*
X158878300Y-106230391D01*
X158781627Y-105997002D01*
X158602999Y-105818373D01*
X158475342Y-105765496D01*
X158662116Y-105696247D01*
X158889189Y-105085326D01*
X158865188Y-104434012D01*
X158662116Y-103943753D01*
X158394919Y-103844686D01*
X157419605Y-104820000D01*
X157433748Y-104834143D01*
X157254143Y-105013748D01*
X157240000Y-104999605D01*
X157225858Y-105013748D01*
X157046253Y-104834143D01*
X157060395Y-104820000D01*
X156085081Y-103844686D01*
X155817884Y-103943753D01*
X155590811Y-104554674D01*
X154213572Y-104554674D01*
X154213572Y-103665081D01*
X156264686Y-103665081D01*
X157240000Y-104640395D01*
X158215314Y-103665081D01*
X158116247Y-103397884D01*
X157505326Y-103170811D01*
X156854012Y-103194812D01*
X156363753Y-103397884D01*
X156264686Y-103665081D01*
X154213572Y-103665081D01*
X154213572Y-103530000D01*
X142586429Y-103530000D01*
X142586429Y-108327522D01*
X142140886Y-107881200D01*
X141356515Y-107555501D01*
X140507211Y-107554760D01*
X139722273Y-107879090D01*
X139121200Y-108479114D01*
X138795501Y-109263485D01*
X138795207Y-109600075D01*
X135425193Y-106230061D01*
X135425240Y-106175715D01*
X135214831Y-105666485D01*
X134825564Y-105276539D01*
X134316702Y-105065241D01*
X133765715Y-105064760D01*
X133256485Y-105275169D01*
X132866539Y-105664436D01*
X132655241Y-106173298D01*
X132654760Y-106724285D01*
X124647700Y-106724285D01*
X124647700Y-95869904D01*
X124969090Y-96647727D01*
X125569114Y-97248800D01*
X126353485Y-97574499D01*
X127202789Y-97575240D01*
X127987727Y-97250910D01*
X128588800Y-96650886D01*
X128777394Y-96196700D01*
X155589260Y-96196700D01*
X155589260Y-98203300D01*
X155633538Y-98438617D01*
X155772610Y-98654741D01*
X155984810Y-98799731D01*
X156236700Y-98850740D01*
X158243300Y-98850740D01*
X158478617Y-98806462D01*
X158694741Y-98667390D01*
X158839731Y-98455190D01*
X158890740Y-98203300D01*
X158890740Y-96196700D01*
X158846462Y-95961383D01*
X158707390Y-95745259D01*
X158567515Y-95649687D01*
X158628073Y-95589234D01*
X158878015Y-94987308D01*
X158878584Y-94335552D01*
X158629693Y-93733190D01*
X158169234Y-93271927D01*
X157567308Y-93021985D01*
X156915552Y-93021416D01*
X156313190Y-93270307D01*
X155851927Y-93730766D01*
X155601985Y-94332692D01*
X155601416Y-94984448D01*
X155850307Y-95586810D01*
X155913485Y-95650099D01*
X155785259Y-95732610D01*
X155640269Y-95944810D01*
X155589260Y-96196700D01*
X128777394Y-96196700D01*
X128914499Y-95866515D01*
X128915240Y-95017211D01*
X128590910Y-94232273D01*
X127990886Y-93631200D01*
X127680480Y-93502308D01*
X127686810Y-93499693D01*
X128148073Y-93039234D01*
X128398015Y-92437308D01*
X128398584Y-91785552D01*
X128149693Y-91183190D01*
X128086515Y-91119901D01*
X128214741Y-91037390D01*
X128359731Y-90825190D01*
X128410740Y-90573300D01*
X128410740Y-88566700D01*
X128366462Y-88331383D01*
X128227390Y-88115259D01*
X128015190Y-87970269D01*
X127763300Y-87919260D01*
X125756700Y-87919260D01*
X125521383Y-87963538D01*
X125305259Y-88102610D01*
X125160269Y-88314810D01*
X125109260Y-88566700D01*
X125109260Y-90573300D01*
X125153538Y-90808617D01*
X125292610Y-91024741D01*
X125432485Y-91120313D01*
X125371927Y-91180766D01*
X125121985Y-91782692D01*
X125121416Y-92434448D01*
X125370307Y-93036810D01*
X125830766Y-93498073D01*
X125859990Y-93510208D01*
X125572273Y-93629090D01*
X124971200Y-94229114D01*
X124647700Y-95008189D01*
X124647700Y-87647700D01*
X159352300Y-87647700D01*
X159352300Y-111740257D01*
M02*
