M48
;DRILL file {KiCad 4.0.7} date 05/15/19 11:18:53
;FORMAT={-:-/ absolute / metric / decimal}
FMAT,2
METRIC,TZ
T1C0.800
T2C1.000
T3C1.001
T4C1.100
T5C1.200
T6C1.300
T7C1.340
T8C2.100
%
G90
G05
M71
T1
X101.8Y-75.2
X108.1Y-87.6
X108.6Y-78.6
X109.9Y-80.8
X113.8Y-76.
X113.9Y-73.2
X116.5Y-79.2
X117.984Y-53.143
X119.Y-63.9
X129.3Y-68.8
X134.2Y-68.8
X138.8Y-90.
X139.5Y-86.2
X141.7Y-76.6
X145.139Y-77.258
X147.3Y-77.
X149.803Y-77.272
X163.1Y-71.6
X165.4Y-73.4
X166.6Y-50.4
X169.9Y-76.9
X171.6Y-80.2
T2
X121.5Y-87.52
X121.5Y-90.06
X121.5Y-92.6
X126.2Y-87.52
X126.2Y-90.06
X126.2Y-92.6
X129.1Y-60.62
X129.1Y-63.16
X129.1Y-65.7
X131.2Y-87.52
X131.2Y-90.06
X131.2Y-92.6
X135.8Y-87.52
X135.8Y-90.06
X135.8Y-92.6
X141.9Y-59.2
X144.2Y-87.52
X144.2Y-90.06
X144.2Y-92.6
X144.44Y-59.2
X152.8Y-87.52
X152.8Y-90.06
X152.8Y-92.6
X161.8Y-87.52
X161.8Y-90.06
X161.8Y-92.6
X169.9Y-45.9
X170.9Y-87.52
X170.9Y-90.06
X170.9Y-92.6
X172.44Y-45.9
X174.98Y-45.9
T3
X106.1Y-62.2
X106.1Y-64.74
X106.1Y-67.28
X106.1Y-69.82
X106.1Y-72.36
X108.64Y-62.2
X108.64Y-64.74
X108.64Y-67.28
X108.64Y-69.82
X108.64Y-72.36
T4
X119.2Y-75.3
X119.2Y-79.8
X125.7Y-75.3
X125.7Y-79.8
T5
X148.6Y-84.1
X148.6Y-94.26
X157.6Y-84.
X157.6Y-94.16
X166.3Y-83.8
X166.3Y-93.96
X175.2Y-83.8
X175.2Y-93.96
T6
X106.1Y-47.1
X111.4Y-95.8
X115.1Y-52.4
X116.7Y-95.8
X121.Y-52.4
X122.Y-69.1
X122.5Y-61.
X128.4Y-52.8
X132.8Y-52.8
X143.Y-52.2
X147.5Y-52.2
X155.4Y-51.5
X160.9Y-51.5
X173.6Y-50.
T7
X115.21Y-47.36
X117.75Y-47.36
X120.29Y-47.36
X130.3Y-47.4
X132.84Y-47.4
X135.38Y-47.4
X145.Y-47.1
X147.54Y-47.1
X150.08Y-47.1
X158.4Y-47.
X160.94Y-47.
X163.48Y-47.
T8
X180.3Y-49.3
X180.3Y-61.3
X180.3Y-73.3
X180.3Y-85.3
X184.8Y-49.3
X184.8Y-61.3
X184.8Y-73.3
X184.8Y-85.3
T0
M30
