%FSLAX45Y45*%
G04 Gerber Fmt 4.5, Leading zero omitted, Abs format (unit mm)*
G04 Created by KiCad (PCBNEW 4.0.7) date 06/06/19 18:33:32*
%MOMM*%
%LPD*%
G01*
G04 APERTURE LIST*
%ADD10C,0.127000*%
%ADD11C,0.150000*%
%ADD12C,0.200000*%
%ADD13C,0.300000*%
G04 APERTURE END LIST*
D10*
D11*
X18821400Y-12509500D02*
X18821400Y-5854700D01*
X9588500Y-12509500D02*
X18821400Y-12509500D01*
X9588500Y-5854700D02*
X9588500Y-12509500D01*
X18821400Y-5854700D02*
X9588500Y-5854700D01*
D12*
X10770000Y-11150000D02*
X10830000Y-11210000D01*
X10830000Y-11150000D02*
X10770000Y-11210000D01*
X11500000Y-11550000D02*
X11560000Y-11610000D01*
X11560000Y-11550000D02*
X11500000Y-11610000D01*
X11593000Y-10323000D02*
X11653000Y-10383000D01*
X11653000Y-10323000D02*
X11593000Y-10383000D01*
X11618400Y-9820120D02*
X11678400Y-9880120D01*
X11678400Y-9820120D02*
X11618400Y-9880120D01*
X11660000Y-11580000D02*
X11720000Y-11640000D01*
X11720000Y-11580000D02*
X11660000Y-11640000D01*
X11670000Y-8080000D02*
X11730000Y-8140000D01*
X11730000Y-8080000D02*
X11670000Y-8140000D01*
X11840000Y-7170000D02*
X11900000Y-7230000D01*
X11900000Y-7170000D02*
X11840000Y-7230000D01*
X12240000Y-7130000D02*
X12300000Y-7190000D01*
X12300000Y-7130000D02*
X12240000Y-7190000D01*
X12870000Y-10370000D02*
X12930000Y-10430000D01*
X12930000Y-10370000D02*
X12870000Y-10430000D01*
X12930000Y-10520000D02*
X12990000Y-10580000D01*
X12990000Y-10520000D02*
X12930000Y-10580000D01*
X13594600Y-8621240D02*
X13654600Y-8681240D01*
X13654600Y-8621240D02*
X13594600Y-8681240D01*
X13833300Y-7747480D02*
X13893300Y-7807480D01*
X13893300Y-7747480D02*
X13833300Y-7807480D01*
X14163500Y-11765800D02*
X14223500Y-11825800D01*
X14223500Y-11765800D02*
X14163500Y-11825800D01*
X14240000Y-7390000D02*
X14300000Y-7450000D01*
X14300000Y-7390000D02*
X14240000Y-7450000D01*
X14389200Y-7922650D02*
X14449200Y-7982650D01*
X14449200Y-7922650D02*
X14389200Y-7982650D01*
X14808700Y-12223000D02*
X14868700Y-12283000D01*
X14868700Y-12223000D02*
X14808700Y-12283000D01*
X15052500Y-11458100D02*
X15112500Y-11518100D01*
X15112500Y-11458100D02*
X15052500Y-11518100D01*
X15176300Y-8693990D02*
X15236300Y-8753990D01*
X15236300Y-8693990D02*
X15176300Y-8753990D01*
X15330000Y-10870000D02*
X15390000Y-10930000D01*
X15390000Y-10870000D02*
X15330000Y-10930000D01*
X15403600Y-8382590D02*
X15463600Y-8442590D01*
X15463600Y-8382590D02*
X15403600Y-8442590D01*
X15420000Y-7290000D02*
X15480000Y-7350000D01*
X15480000Y-7290000D02*
X15420000Y-7350000D01*
X15550400Y-11242500D02*
X15610400Y-11302500D01*
X15610400Y-11242500D02*
X15550400Y-11302500D01*
X15799300Y-10709100D02*
X15859300Y-10769100D01*
X15859300Y-10709100D02*
X15799300Y-10769100D01*
X15820000Y-11190000D02*
X15880000Y-11250000D01*
X15880000Y-11190000D02*
X15820000Y-11250000D01*
X15860000Y-7050000D02*
X15920000Y-7110000D01*
X15920000Y-7050000D02*
X15860000Y-7110000D01*
X16040000Y-8590000D02*
X16100000Y-8650000D01*
X16100000Y-8590000D02*
X16040000Y-8650000D01*
X16120000Y-11380000D02*
X16180000Y-11440000D01*
X16180000Y-11380000D02*
X16120000Y-11440000D01*
X16160000Y-11140000D02*
X16220000Y-11200000D01*
X16220000Y-11140000D02*
X16160000Y-11200000D01*
X16480000Y-7200000D02*
X16540000Y-7260000D01*
X16540000Y-7200000D02*
X16480000Y-7260000D01*
X17010000Y-6080000D02*
X17070000Y-6140000D01*
X17070000Y-6080000D02*
X17010000Y-6140000D01*
X17270000Y-8400000D02*
X17330000Y-8460000D01*
X17330000Y-8400000D02*
X17270000Y-8460000D01*
X10500000Y-9290000D02*
G75*
G03X10500000Y-9290000I-40000J0D01*
G01*
X10780000Y-8430000D02*
G75*
G03X10780000Y-8430000I-40000J0D01*
G01*
X11720000Y-8880000D02*
G75*
G03X11720000Y-8880000I-40000J0D01*
G01*
X11920000Y-11580000D02*
G75*
G03X11920000Y-11580000I-40000J0D01*
G01*
X12000000Y-8890000D02*
G75*
G03X12000000Y-8890000I-40000J0D01*
G01*
X12008500Y-6319520D02*
G75*
G03X12008500Y-6319520I-40000J0D01*
G01*
X12180000Y-11570000D02*
G75*
G03X12180000Y-11570000I-40000J0D01*
G01*
X12260000Y-8860000D02*
G75*
G03X12260000Y-8860000I-40000J0D01*
G01*
X12300000Y-8130000D02*
G75*
G03X12300000Y-8130000I-40000J0D01*
G01*
X12530000Y-8880000D02*
G75*
G03X12530000Y-8880000I-40000J0D01*
G01*
X12620000Y-7250000D02*
G75*
G03X12620000Y-7250000I-40000J0D01*
G01*
X12970000Y-6600000D02*
G75*
G03X12970000Y-6600000I-40000J0D01*
G01*
X13034140Y-11052270D02*
G75*
G03X13034140Y-11052270I-40000J0D01*
G01*
X13160000Y-12180000D02*
G75*
G03X13160000Y-12180000I-40000J0D01*
G01*
X13220000Y-11890000D02*
G75*
G03X13220000Y-11890000I-40000J0D01*
G01*
X13441000Y-6720840D02*
G75*
G03X13441000Y-6720840I-40000J0D01*
G01*
X13470000Y-11220000D02*
G75*
G03X13470000Y-11220000I-40000J0D01*
G01*
X13923600Y-9367520D02*
G75*
G03X13923600Y-9367520I-40000J0D01*
G01*
X14004900Y-10530800D02*
G75*
G03X14004900Y-10530800I-40000J0D01*
G01*
X14110000Y-9850000D02*
G75*
G03X14110000Y-9850000I-40000J0D01*
G01*
X14160000Y-8280000D02*
G75*
G03X14160000Y-8280000I-40000J0D01*
G01*
X14899000Y-10525800D02*
G75*
G03X14899000Y-10525800I-40000J0D01*
G01*
X14954110Y-6783500D02*
G75*
G03X14954110Y-6783500I-40000J0D01*
G01*
X15300300Y-8090560D02*
G75*
G03X15300300Y-8090560I-40000J0D01*
G01*
X15300300Y-8290560D02*
G75*
G03X15300300Y-8290560I-40000J0D01*
G01*
X15300300Y-10412100D02*
G75*
G03X15300300Y-10412100I-40000J0D01*
G01*
X15300300Y-10612100D02*
G75*
G03X15300300Y-10612100I-40000J0D01*
G01*
X15490000Y-6990000D02*
G75*
G03X15490000Y-6990000I-40000J0D01*
G01*
X15990000Y-9150000D02*
G75*
G03X15990000Y-9150000I-40000J0D01*
G01*
X16110000Y-10840000D02*
G75*
G03X16110000Y-10840000I-40000J0D01*
G01*
X16220000Y-9470000D02*
G75*
G03X16220000Y-9470000I-40000J0D01*
G01*
X16230000Y-6980000D02*
G75*
G03X16230000Y-6980000I-40000J0D01*
G01*
X16450000Y-9850000D02*
G75*
G03X16450000Y-9850000I-40000J0D01*
G01*
X16460000Y-8960000D02*
G75*
G03X16460000Y-8960000I-40000J0D01*
G01*
X16500000Y-7010000D02*
G75*
G03X16500000Y-7010000I-40000J0D01*
G01*
X16550000Y-7630000D02*
G75*
G03X16550000Y-7630000I-40000J0D01*
G01*
X17240000Y-10430000D02*
G75*
G03X17240000Y-10430000I-40000J0D01*
G01*
X16855300Y-9096960D02*
X16855300Y-9185960D01*
X16810800Y-9141460D02*
X16899800Y-9141460D01*
X16855300Y-9350960D02*
X16855300Y-9439960D01*
X16810800Y-9395460D02*
X16899800Y-9395460D01*
X16855300Y-11129000D02*
X16855300Y-11218000D01*
X16810800Y-11173500D02*
X16899800Y-11173500D01*
X16855300Y-11383000D02*
X16855300Y-11472000D01*
X16810800Y-11427500D02*
X16899800Y-11427500D01*
X17109300Y-8969960D02*
X17109300Y-9058960D01*
X17064800Y-9014460D02*
X17153800Y-9014460D01*
X17109300Y-9223960D02*
X17109300Y-9312960D01*
X17064800Y-9268460D02*
X17153800Y-9268460D01*
X17109300Y-11002000D02*
X17109300Y-11091000D01*
X17064800Y-11046500D02*
X17153800Y-11046500D01*
X17109300Y-11256000D02*
X17109300Y-11345000D01*
X17064800Y-11300500D02*
X17153800Y-11300500D01*
X16977156Y-6398056D02*
X16977156Y-6327344D01*
X16906444Y-6327344D01*
X16906444Y-6398056D01*
X16977156Y-6398056D01*
X17231156Y-6398056D02*
X17231156Y-6327344D01*
X17160444Y-6327344D01*
X17160444Y-6398056D01*
X17231156Y-6398056D01*
X17485156Y-6398056D02*
X17485156Y-6327344D01*
X17414444Y-6327344D01*
X17414444Y-6398056D01*
X17485156Y-6398056D01*
X17739156Y-6398056D02*
X17739156Y-6327344D01*
X17668444Y-6327344D01*
X17668444Y-6398056D01*
X17739156Y-6398056D01*
X17993156Y-6398056D02*
X17993156Y-6327344D01*
X17922444Y-6327344D01*
X17922444Y-6398056D01*
X17993156Y-6398056D01*
X10003000Y-10092038D02*
X10053038Y-10042000D01*
X10003000Y-9991962D01*
X9952962Y-10042000D01*
X10003000Y-10092038D01*
X10003000Y-10346038D02*
X10053038Y-10296000D01*
X10003000Y-10245962D01*
X9952962Y-10296000D01*
X10003000Y-10346038D01*
X10003000Y-10600038D02*
X10053038Y-10550000D01*
X10003000Y-10499962D01*
X9952962Y-10550000D01*
X10003000Y-10600038D01*
X10003000Y-10854038D02*
X10053038Y-10804000D01*
X10003000Y-10753962D01*
X9952962Y-10804000D01*
X10003000Y-10854038D01*
X10003000Y-11108038D02*
X10053038Y-11058000D01*
X10003000Y-11007962D01*
X9952962Y-11058000D01*
X10003000Y-11108038D01*
X10257000Y-10092038D02*
X10307038Y-10042000D01*
X10257000Y-9991962D01*
X10206962Y-10042000D01*
X10257000Y-10092038D01*
X10257000Y-10346038D02*
X10307038Y-10296000D01*
X10257000Y-10245962D01*
X10206962Y-10296000D01*
X10257000Y-10346038D01*
X10257000Y-10600038D02*
X10307038Y-10550000D01*
X10257000Y-10499962D01*
X10206962Y-10550000D01*
X10257000Y-10600038D01*
X10257000Y-10854038D02*
X10307038Y-10804000D01*
X10257000Y-10753962D01*
X10206962Y-10804000D01*
X10257000Y-10854038D01*
X10257000Y-11108038D02*
X10307038Y-11058000D01*
X10257000Y-11007962D01*
X10206962Y-11058000D01*
X10257000Y-11108038D01*
X10119200Y-6919200D02*
X10220800Y-7020800D01*
X10220800Y-6919200D02*
X10119200Y-7020800D01*
X10220800Y-6970000D02*
G75*
G03X10220800Y-6970000I-50800J0D01*
G01*
X10119200Y-7173200D02*
X10220800Y-7274800D01*
X10220800Y-7173200D02*
X10119200Y-7274800D01*
X10220800Y-7224000D02*
G75*
G03X10220800Y-7224000I-50800J0D01*
G01*
X10119200Y-7427200D02*
X10220800Y-7528800D01*
X10220800Y-7427200D02*
X10119200Y-7528800D01*
X10220800Y-7478000D02*
G75*
G03X10220800Y-7478000I-50800J0D01*
G01*
X10119200Y-7681200D02*
X10220800Y-7782800D01*
X10220800Y-7681200D02*
X10119200Y-7782800D01*
X10220800Y-7732000D02*
G75*
G03X10220800Y-7732000I-50800J0D01*
G01*
X10119200Y-7935200D02*
X10220800Y-8036800D01*
X10220800Y-7935200D02*
X10119200Y-8036800D01*
X10220800Y-7986000D02*
G75*
G03X10220800Y-7986000I-50800J0D01*
G01*
X10119200Y-8189200D02*
X10220800Y-8290800D01*
X10220800Y-8189200D02*
X10119200Y-8290800D01*
X10220800Y-8240000D02*
G75*
G03X10220800Y-8240000I-50800J0D01*
G01*
X10119200Y-8443200D02*
X10220800Y-8544800D01*
X10220800Y-8443200D02*
X10119200Y-8544800D01*
X10220800Y-8494000D02*
G75*
G03X10220800Y-8494000I-50800J0D01*
G01*
X10119200Y-8697200D02*
X10220800Y-8798800D01*
X10220800Y-8697200D02*
X10119200Y-8798800D01*
X10220800Y-8748000D02*
G75*
G03X10220800Y-8748000I-50800J0D01*
G01*
X11074400Y-11836400D02*
X11176000Y-11938000D01*
X11176000Y-11836400D02*
X11074400Y-11938000D01*
X11176000Y-11887200D02*
G75*
G03X11176000Y-11887200I-50800J0D01*
G01*
X11328400Y-11836400D02*
X11430000Y-11938000D01*
X11430000Y-11836400D02*
X11328400Y-11938000D01*
X11430000Y-11887200D02*
G75*
G03X11430000Y-11887200I-50800J0D01*
G01*
X11582400Y-11836400D02*
X11684000Y-11938000D01*
X11684000Y-11836400D02*
X11582400Y-11938000D01*
X11684000Y-11887200D02*
G75*
G03X11684000Y-11887200I-50800J0D01*
G01*
X11658600Y-8559800D02*
X11760200Y-8661400D01*
X11760200Y-8559800D02*
X11658600Y-8661400D01*
X11760200Y-8610600D02*
G75*
G03X11760200Y-8610600I-50800J0D01*
G01*
X11836400Y-11836400D02*
X11938000Y-11938000D01*
X11938000Y-11836400D02*
X11836400Y-11938000D01*
X11938000Y-11887200D02*
G75*
G03X11938000Y-11887200I-50800J0D01*
G01*
X11912600Y-8559800D02*
X12014200Y-8661400D01*
X12014200Y-8559800D02*
X11912600Y-8661400D01*
X12014200Y-8610600D02*
G75*
G03X12014200Y-8610600I-50800J0D01*
G01*
X12014200Y-6654800D02*
X12115800Y-6756400D01*
X12115800Y-6654800D02*
X12014200Y-6756400D01*
X12115800Y-6705600D02*
G75*
G03X12115800Y-6705600I-50800J0D01*
G01*
X12090400Y-11836400D02*
X12192000Y-11938000D01*
X12192000Y-11836400D02*
X12090400Y-11938000D01*
X12192000Y-11887200D02*
G75*
G03X12192000Y-11887200I-50800J0D01*
G01*
X12166600Y-8559800D02*
X12268200Y-8661400D01*
X12268200Y-8559800D02*
X12166600Y-8661400D01*
X12268200Y-8610600D02*
G75*
G03X12268200Y-8610600I-50800J0D01*
G01*
X12268200Y-6654800D02*
X12369800Y-6756400D01*
X12369800Y-6654800D02*
X12268200Y-6756400D01*
X12369800Y-6705600D02*
G75*
G03X12369800Y-6705600I-50800J0D01*
G01*
X12344400Y-11836400D02*
X12446000Y-11938000D01*
X12446000Y-11836400D02*
X12344400Y-11938000D01*
X12446000Y-11887200D02*
G75*
G03X12446000Y-11887200I-50800J0D01*
G01*
X12420600Y-8559800D02*
X12522200Y-8661400D01*
X12522200Y-8559800D02*
X12420600Y-8661400D01*
X12522200Y-8610600D02*
G75*
G03X12522200Y-8610600I-50800J0D01*
G01*
X12522200Y-6654800D02*
X12623800Y-6756400D01*
X12623800Y-6654800D02*
X12522200Y-6756400D01*
X12623800Y-6705600D02*
G75*
G03X12623800Y-6705600I-50800J0D01*
G01*
X12515000Y-7605000D02*
X12625000Y-7715000D01*
X12625000Y-7605000D02*
X12515000Y-7715000D01*
X12570000Y-7605000D02*
X12570000Y-7715000D01*
X12515000Y-7660000D02*
X12625000Y-7660000D01*
X12515000Y-8055000D02*
X12625000Y-8165000D01*
X12625000Y-8055000D02*
X12515000Y-8165000D01*
X12570000Y-8055000D02*
X12570000Y-8165000D01*
X12515000Y-8110000D02*
X12625000Y-8110000D01*
X13165000Y-7605000D02*
X13275000Y-7715000D01*
X13275000Y-7605000D02*
X13165000Y-7715000D01*
X13220000Y-7605000D02*
X13220000Y-7715000D01*
X13165000Y-7660000D02*
X13275000Y-7660000D01*
X13165000Y-8055000D02*
X13275000Y-8165000D01*
X13275000Y-8055000D02*
X13165000Y-8165000D01*
X13220000Y-8055000D02*
X13220000Y-8165000D01*
X13165000Y-8110000D02*
X13275000Y-8110000D01*
X11244976Y-6484976D02*
X11375024Y-6615024D01*
X11375024Y-6484976D02*
X11244976Y-6615024D01*
X11355979Y-6595979D02*
X11355979Y-6504021D01*
X11264021Y-6504021D01*
X11264021Y-6595979D01*
X11355979Y-6595979D01*
X13014976Y-7164976D02*
X13145024Y-7295024D01*
X13145024Y-7164976D02*
X13014976Y-7295024D01*
X13125979Y-7275979D02*
X13125979Y-7184021D01*
X13034021Y-7184021D01*
X13034021Y-7275979D01*
X13125979Y-7275979D01*
X13034976Y-6764976D02*
X13165024Y-6895024D01*
X13165024Y-6764976D02*
X13034976Y-6895024D01*
X13145979Y-6875979D02*
X13145979Y-6784021D01*
X13054021Y-6784021D01*
X13054021Y-6875979D01*
X13145979Y-6875979D01*
X14926076Y-9962876D02*
X15056124Y-10092924D01*
X15056124Y-9962876D02*
X14926076Y-10092924D01*
X15037079Y-10073879D02*
X15037079Y-9981921D01*
X14945121Y-9981921D01*
X14945121Y-10073879D01*
X15037079Y-10073879D01*
D13*
X9852429Y-12982714D02*
X9852429Y-12682714D01*
X9923857Y-12682714D01*
X9966714Y-12697000D01*
X9995286Y-12725571D01*
X10009571Y-12754143D01*
X10023857Y-12811286D01*
X10023857Y-12854143D01*
X10009571Y-12911286D01*
X9995286Y-12939857D01*
X9966714Y-12968429D01*
X9923857Y-12982714D01*
X9852429Y-12982714D01*
X10152429Y-12982714D02*
X10152429Y-12782714D01*
X10152429Y-12839857D02*
X10166714Y-12811286D01*
X10181000Y-12797000D01*
X10209571Y-12782714D01*
X10238143Y-12782714D01*
X10338143Y-12982714D02*
X10338143Y-12782714D01*
X10338143Y-12682714D02*
X10323857Y-12697000D01*
X10338143Y-12711286D01*
X10352429Y-12697000D01*
X10338143Y-12682714D01*
X10338143Y-12711286D01*
X10523857Y-12982714D02*
X10495286Y-12968429D01*
X10481000Y-12939857D01*
X10481000Y-12682714D01*
X10681000Y-12982714D02*
X10652429Y-12968429D01*
X10638143Y-12939857D01*
X10638143Y-12682714D01*
X11023857Y-12982714D02*
X11023857Y-12682714D01*
X11123857Y-12897000D01*
X11223857Y-12682714D01*
X11223857Y-12982714D01*
X11495286Y-12982714D02*
X11495286Y-12825571D01*
X11481000Y-12797000D01*
X11452428Y-12782714D01*
X11395286Y-12782714D01*
X11366714Y-12797000D01*
X11495286Y-12968429D02*
X11466714Y-12982714D01*
X11395286Y-12982714D01*
X11366714Y-12968429D01*
X11352428Y-12939857D01*
X11352428Y-12911286D01*
X11366714Y-12882714D01*
X11395286Y-12868429D01*
X11466714Y-12868429D01*
X11495286Y-12854143D01*
X11638143Y-12782714D02*
X11638143Y-13082714D01*
X11638143Y-12797000D02*
X11666714Y-12782714D01*
X11723857Y-12782714D01*
X11752428Y-12797000D01*
X11766714Y-12811286D01*
X11781000Y-12839857D01*
X11781000Y-12925571D01*
X11766714Y-12954143D01*
X11752428Y-12968429D01*
X11723857Y-12982714D01*
X11666714Y-12982714D01*
X11638143Y-12968429D01*
X11909571Y-12954143D02*
X11923857Y-12968429D01*
X11909571Y-12982714D01*
X11895286Y-12968429D01*
X11909571Y-12954143D01*
X11909571Y-12982714D01*
X11909571Y-12797000D02*
X11923857Y-12811286D01*
X11909571Y-12825571D01*
X11895286Y-12811286D01*
X11909571Y-12797000D01*
X11909571Y-12825571D01*
X9521000Y-13447000D02*
X9581000Y-13507000D01*
X9581000Y-13447000D02*
X9521000Y-13507000D01*
X9909571Y-13312714D02*
X9938143Y-13312714D01*
X9966714Y-13327000D01*
X9981000Y-13341286D01*
X9995286Y-13369857D01*
X10009571Y-13427000D01*
X10009571Y-13498429D01*
X9995286Y-13555571D01*
X9981000Y-13584143D01*
X9966714Y-13598429D01*
X9938143Y-13612714D01*
X9909571Y-13612714D01*
X9881000Y-13598429D01*
X9866714Y-13584143D01*
X9852429Y-13555571D01*
X9838143Y-13498429D01*
X9838143Y-13427000D01*
X9852429Y-13369857D01*
X9866714Y-13341286D01*
X9881000Y-13327000D01*
X9909571Y-13312714D01*
X10138143Y-13584143D02*
X10152429Y-13598429D01*
X10138143Y-13612714D01*
X10123857Y-13598429D01*
X10138143Y-13584143D01*
X10138143Y-13612714D01*
X10409571Y-13312714D02*
X10352428Y-13312714D01*
X10323857Y-13327000D01*
X10309571Y-13341286D01*
X10281000Y-13384143D01*
X10266714Y-13441286D01*
X10266714Y-13555571D01*
X10281000Y-13584143D01*
X10295286Y-13598429D01*
X10323857Y-13612714D01*
X10381000Y-13612714D01*
X10409571Y-13598429D01*
X10423857Y-13584143D01*
X10438143Y-13555571D01*
X10438143Y-13484143D01*
X10423857Y-13455571D01*
X10409571Y-13441286D01*
X10381000Y-13427000D01*
X10323857Y-13427000D01*
X10295286Y-13441286D01*
X10281000Y-13455571D01*
X10266714Y-13484143D01*
X10623857Y-13312714D02*
X10652429Y-13312714D01*
X10681000Y-13327000D01*
X10695286Y-13341286D01*
X10709571Y-13369857D01*
X10723857Y-13427000D01*
X10723857Y-13498429D01*
X10709571Y-13555571D01*
X10695286Y-13584143D01*
X10681000Y-13598429D01*
X10652429Y-13612714D01*
X10623857Y-13612714D01*
X10595286Y-13598429D01*
X10581000Y-13584143D01*
X10566714Y-13555571D01*
X10552429Y-13498429D01*
X10552429Y-13427000D01*
X10566714Y-13369857D01*
X10581000Y-13341286D01*
X10595286Y-13327000D01*
X10623857Y-13312714D01*
X10852429Y-13612714D02*
X10852429Y-13412714D01*
X10852429Y-13441286D02*
X10866714Y-13427000D01*
X10895286Y-13412714D01*
X10938143Y-13412714D01*
X10966714Y-13427000D01*
X10981000Y-13455571D01*
X10981000Y-13612714D01*
X10981000Y-13455571D02*
X10995286Y-13427000D01*
X11023857Y-13412714D01*
X11066714Y-13412714D01*
X11095286Y-13427000D01*
X11109571Y-13455571D01*
X11109571Y-13612714D01*
X11252428Y-13612714D02*
X11252428Y-13412714D01*
X11252428Y-13441286D02*
X11266714Y-13427000D01*
X11295286Y-13412714D01*
X11338143Y-13412714D01*
X11366714Y-13427000D01*
X11381000Y-13455571D01*
X11381000Y-13612714D01*
X11381000Y-13455571D02*
X11395286Y-13427000D01*
X11423857Y-13412714D01*
X11466714Y-13412714D01*
X11495286Y-13427000D01*
X11509571Y-13455571D01*
X11509571Y-13612714D01*
X12095286Y-13298429D02*
X11838143Y-13684143D01*
X12481000Y-13312714D02*
X12509571Y-13312714D01*
X12538143Y-13327000D01*
X12552428Y-13341286D01*
X12566714Y-13369857D01*
X12581000Y-13427000D01*
X12581000Y-13498429D01*
X12566714Y-13555571D01*
X12552428Y-13584143D01*
X12538143Y-13598429D01*
X12509571Y-13612714D01*
X12481000Y-13612714D01*
X12452428Y-13598429D01*
X12438143Y-13584143D01*
X12423857Y-13555571D01*
X12409571Y-13498429D01*
X12409571Y-13427000D01*
X12423857Y-13369857D01*
X12438143Y-13341286D01*
X12452428Y-13327000D01*
X12481000Y-13312714D01*
X12709571Y-13584143D02*
X12723857Y-13598429D01*
X12709571Y-13612714D01*
X12695286Y-13598429D01*
X12709571Y-13584143D01*
X12709571Y-13612714D01*
X12909571Y-13312714D02*
X12938143Y-13312714D01*
X12966714Y-13327000D01*
X12981000Y-13341286D01*
X12995285Y-13369857D01*
X13009571Y-13427000D01*
X13009571Y-13498429D01*
X12995285Y-13555571D01*
X12981000Y-13584143D01*
X12966714Y-13598429D01*
X12938143Y-13612714D01*
X12909571Y-13612714D01*
X12881000Y-13598429D01*
X12866714Y-13584143D01*
X12852428Y-13555571D01*
X12838143Y-13498429D01*
X12838143Y-13427000D01*
X12852428Y-13369857D01*
X12866714Y-13341286D01*
X12881000Y-13327000D01*
X12909571Y-13312714D01*
X13123857Y-13341286D02*
X13138143Y-13327000D01*
X13166714Y-13312714D01*
X13238143Y-13312714D01*
X13266714Y-13327000D01*
X13281000Y-13341286D01*
X13295285Y-13369857D01*
X13295285Y-13398429D01*
X13281000Y-13441286D01*
X13109571Y-13612714D01*
X13295285Y-13612714D01*
X13552428Y-13412714D02*
X13552428Y-13612714D01*
X13481000Y-13298429D02*
X13409571Y-13512714D01*
X13595285Y-13512714D01*
X13695286Y-13312714D02*
X13695286Y-13369857D01*
X13809571Y-13312714D02*
X13809571Y-13369857D01*
X14252428Y-13727000D02*
X14238143Y-13712714D01*
X14209571Y-13669857D01*
X14195285Y-13641286D01*
X14181000Y-13598429D01*
X14166714Y-13527000D01*
X14166714Y-13469857D01*
X14181000Y-13398429D01*
X14195285Y-13355571D01*
X14209571Y-13327000D01*
X14238143Y-13284143D01*
X14252428Y-13269857D01*
X14338143Y-13312714D02*
X14523857Y-13312714D01*
X14423857Y-13427000D01*
X14466714Y-13427000D01*
X14495285Y-13441286D01*
X14509571Y-13455571D01*
X14523857Y-13484143D01*
X14523857Y-13555571D01*
X14509571Y-13584143D01*
X14495285Y-13598429D01*
X14466714Y-13612714D01*
X14381000Y-13612714D01*
X14352428Y-13598429D01*
X14338143Y-13584143D01*
X14809571Y-13612714D02*
X14638143Y-13612714D01*
X14723857Y-13612714D02*
X14723857Y-13312714D01*
X14695285Y-13355571D01*
X14666714Y-13384143D01*
X14638143Y-13398429D01*
X15166714Y-13612714D02*
X15166714Y-13312714D01*
X15295285Y-13612714D02*
X15295285Y-13455571D01*
X15281000Y-13427000D01*
X15252428Y-13412714D01*
X15209571Y-13412714D01*
X15181000Y-13427000D01*
X15166714Y-13441286D01*
X15481000Y-13612714D02*
X15452428Y-13598429D01*
X15438143Y-13584143D01*
X15423857Y-13555571D01*
X15423857Y-13469857D01*
X15438143Y-13441286D01*
X15452428Y-13427000D01*
X15481000Y-13412714D01*
X15523857Y-13412714D01*
X15552428Y-13427000D01*
X15566714Y-13441286D01*
X15581000Y-13469857D01*
X15581000Y-13555571D01*
X15566714Y-13584143D01*
X15552428Y-13598429D01*
X15523857Y-13612714D01*
X15481000Y-13612714D01*
X15752428Y-13612714D02*
X15723857Y-13598429D01*
X15709571Y-13569857D01*
X15709571Y-13312714D01*
X15981000Y-13598429D02*
X15952428Y-13612714D01*
X15895286Y-13612714D01*
X15866714Y-13598429D01*
X15852428Y-13569857D01*
X15852428Y-13455571D01*
X15866714Y-13427000D01*
X15895286Y-13412714D01*
X15952428Y-13412714D01*
X15981000Y-13427000D01*
X15995286Y-13455571D01*
X15995286Y-13484143D01*
X15852428Y-13512714D01*
X16109571Y-13598429D02*
X16138143Y-13612714D01*
X16195286Y-13612714D01*
X16223857Y-13598429D01*
X16238143Y-13569857D01*
X16238143Y-13555571D01*
X16223857Y-13527000D01*
X16195286Y-13512714D01*
X16152428Y-13512714D01*
X16123857Y-13498429D01*
X16109571Y-13469857D01*
X16109571Y-13455571D01*
X16123857Y-13427000D01*
X16152428Y-13412714D01*
X16195286Y-13412714D01*
X16223857Y-13427000D01*
X16338143Y-13727000D02*
X16352428Y-13712714D01*
X16381000Y-13669857D01*
X16395286Y-13641286D01*
X16409571Y-13598429D01*
X16423857Y-13527000D01*
X16423857Y-13469857D01*
X16409571Y-13398429D01*
X16395286Y-13355571D01*
X16381000Y-13327000D01*
X16352428Y-13284143D01*
X16338143Y-13269857D01*
X9581000Y-13873000D02*
G75*
G03X9581000Y-13873000I-40000J0D01*
G01*
X9909571Y-13708714D02*
X9938143Y-13708714D01*
X9966714Y-13723000D01*
X9981000Y-13737286D01*
X9995286Y-13765857D01*
X10009571Y-13823000D01*
X10009571Y-13894429D01*
X9995286Y-13951571D01*
X9981000Y-13980143D01*
X9966714Y-13994429D01*
X9938143Y-14008714D01*
X9909571Y-14008714D01*
X9881000Y-13994429D01*
X9866714Y-13980143D01*
X9852429Y-13951571D01*
X9838143Y-13894429D01*
X9838143Y-13823000D01*
X9852429Y-13765857D01*
X9866714Y-13737286D01*
X9881000Y-13723000D01*
X9909571Y-13708714D01*
X10138143Y-13980143D02*
X10152429Y-13994429D01*
X10138143Y-14008714D01*
X10123857Y-13994429D01*
X10138143Y-13980143D01*
X10138143Y-14008714D01*
X10323857Y-13837286D02*
X10295286Y-13823000D01*
X10281000Y-13808714D01*
X10266714Y-13780143D01*
X10266714Y-13765857D01*
X10281000Y-13737286D01*
X10295286Y-13723000D01*
X10323857Y-13708714D01*
X10381000Y-13708714D01*
X10409571Y-13723000D01*
X10423857Y-13737286D01*
X10438143Y-13765857D01*
X10438143Y-13780143D01*
X10423857Y-13808714D01*
X10409571Y-13823000D01*
X10381000Y-13837286D01*
X10323857Y-13837286D01*
X10295286Y-13851571D01*
X10281000Y-13865857D01*
X10266714Y-13894429D01*
X10266714Y-13951571D01*
X10281000Y-13980143D01*
X10295286Y-13994429D01*
X10323857Y-14008714D01*
X10381000Y-14008714D01*
X10409571Y-13994429D01*
X10423857Y-13980143D01*
X10438143Y-13951571D01*
X10438143Y-13894429D01*
X10423857Y-13865857D01*
X10409571Y-13851571D01*
X10381000Y-13837286D01*
X10623857Y-13708714D02*
X10652429Y-13708714D01*
X10681000Y-13723000D01*
X10695286Y-13737286D01*
X10709571Y-13765857D01*
X10723857Y-13823000D01*
X10723857Y-13894429D01*
X10709571Y-13951571D01*
X10695286Y-13980143D01*
X10681000Y-13994429D01*
X10652429Y-14008714D01*
X10623857Y-14008714D01*
X10595286Y-13994429D01*
X10581000Y-13980143D01*
X10566714Y-13951571D01*
X10552429Y-13894429D01*
X10552429Y-13823000D01*
X10566714Y-13765857D01*
X10581000Y-13737286D01*
X10595286Y-13723000D01*
X10623857Y-13708714D01*
X10852429Y-14008714D02*
X10852429Y-13808714D01*
X10852429Y-13837286D02*
X10866714Y-13823000D01*
X10895286Y-13808714D01*
X10938143Y-13808714D01*
X10966714Y-13823000D01*
X10981000Y-13851571D01*
X10981000Y-14008714D01*
X10981000Y-13851571D02*
X10995286Y-13823000D01*
X11023857Y-13808714D01*
X11066714Y-13808714D01*
X11095286Y-13823000D01*
X11109571Y-13851571D01*
X11109571Y-14008714D01*
X11252428Y-14008714D02*
X11252428Y-13808714D01*
X11252428Y-13837286D02*
X11266714Y-13823000D01*
X11295286Y-13808714D01*
X11338143Y-13808714D01*
X11366714Y-13823000D01*
X11381000Y-13851571D01*
X11381000Y-14008714D01*
X11381000Y-13851571D02*
X11395286Y-13823000D01*
X11423857Y-13808714D01*
X11466714Y-13808714D01*
X11495286Y-13823000D01*
X11509571Y-13851571D01*
X11509571Y-14008714D01*
X12095286Y-13694429D02*
X11838143Y-14080143D01*
X12481000Y-13708714D02*
X12509571Y-13708714D01*
X12538143Y-13723000D01*
X12552428Y-13737286D01*
X12566714Y-13765857D01*
X12581000Y-13823000D01*
X12581000Y-13894429D01*
X12566714Y-13951571D01*
X12552428Y-13980143D01*
X12538143Y-13994429D01*
X12509571Y-14008714D01*
X12481000Y-14008714D01*
X12452428Y-13994429D01*
X12438143Y-13980143D01*
X12423857Y-13951571D01*
X12409571Y-13894429D01*
X12409571Y-13823000D01*
X12423857Y-13765857D01*
X12438143Y-13737286D01*
X12452428Y-13723000D01*
X12481000Y-13708714D01*
X12709571Y-13980143D02*
X12723857Y-13994429D01*
X12709571Y-14008714D01*
X12695286Y-13994429D01*
X12709571Y-13980143D01*
X12709571Y-14008714D01*
X12909571Y-13708714D02*
X12938143Y-13708714D01*
X12966714Y-13723000D01*
X12981000Y-13737286D01*
X12995285Y-13765857D01*
X13009571Y-13823000D01*
X13009571Y-13894429D01*
X12995285Y-13951571D01*
X12981000Y-13980143D01*
X12966714Y-13994429D01*
X12938143Y-14008714D01*
X12909571Y-14008714D01*
X12881000Y-13994429D01*
X12866714Y-13980143D01*
X12852428Y-13951571D01*
X12838143Y-13894429D01*
X12838143Y-13823000D01*
X12852428Y-13765857D01*
X12866714Y-13737286D01*
X12881000Y-13723000D01*
X12909571Y-13708714D01*
X13109571Y-13708714D02*
X13295285Y-13708714D01*
X13195285Y-13823000D01*
X13238143Y-13823000D01*
X13266714Y-13837286D01*
X13281000Y-13851571D01*
X13295285Y-13880143D01*
X13295285Y-13951571D01*
X13281000Y-13980143D01*
X13266714Y-13994429D01*
X13238143Y-14008714D01*
X13152428Y-14008714D01*
X13123857Y-13994429D01*
X13109571Y-13980143D01*
X13581000Y-14008714D02*
X13409571Y-14008714D01*
X13495285Y-14008714D02*
X13495285Y-13708714D01*
X13466714Y-13751571D01*
X13438143Y-13780143D01*
X13409571Y-13794429D01*
X13695286Y-13708714D02*
X13695286Y-13765857D01*
X13809571Y-13708714D02*
X13809571Y-13765857D01*
X14252428Y-14123000D02*
X14238143Y-14108714D01*
X14209571Y-14065857D01*
X14195285Y-14037286D01*
X14181000Y-13994429D01*
X14166714Y-13923000D01*
X14166714Y-13865857D01*
X14181000Y-13794429D01*
X14195285Y-13751571D01*
X14209571Y-13723000D01*
X14238143Y-13680143D01*
X14252428Y-13665857D01*
X14338143Y-13708714D02*
X14523857Y-13708714D01*
X14423857Y-13823000D01*
X14466714Y-13823000D01*
X14495285Y-13837286D01*
X14509571Y-13851571D01*
X14523857Y-13880143D01*
X14523857Y-13951571D01*
X14509571Y-13980143D01*
X14495285Y-13994429D01*
X14466714Y-14008714D01*
X14381000Y-14008714D01*
X14352428Y-13994429D01*
X14338143Y-13980143D01*
X14623857Y-13708714D02*
X14823857Y-13708714D01*
X14695285Y-14008714D01*
X15166714Y-14008714D02*
X15166714Y-13708714D01*
X15295285Y-14008714D02*
X15295285Y-13851571D01*
X15281000Y-13823000D01*
X15252428Y-13808714D01*
X15209571Y-13808714D01*
X15181000Y-13823000D01*
X15166714Y-13837286D01*
X15481000Y-14008714D02*
X15452428Y-13994429D01*
X15438143Y-13980143D01*
X15423857Y-13951571D01*
X15423857Y-13865857D01*
X15438143Y-13837286D01*
X15452428Y-13823000D01*
X15481000Y-13808714D01*
X15523857Y-13808714D01*
X15552428Y-13823000D01*
X15566714Y-13837286D01*
X15581000Y-13865857D01*
X15581000Y-13951571D01*
X15566714Y-13980143D01*
X15552428Y-13994429D01*
X15523857Y-14008714D01*
X15481000Y-14008714D01*
X15752428Y-14008714D02*
X15723857Y-13994429D01*
X15709571Y-13965857D01*
X15709571Y-13708714D01*
X15981000Y-13994429D02*
X15952428Y-14008714D01*
X15895286Y-14008714D01*
X15866714Y-13994429D01*
X15852428Y-13965857D01*
X15852428Y-13851571D01*
X15866714Y-13823000D01*
X15895286Y-13808714D01*
X15952428Y-13808714D01*
X15981000Y-13823000D01*
X15995286Y-13851571D01*
X15995286Y-13880143D01*
X15852428Y-13908714D01*
X16109571Y-13994429D02*
X16138143Y-14008714D01*
X16195286Y-14008714D01*
X16223857Y-13994429D01*
X16238143Y-13965857D01*
X16238143Y-13951571D01*
X16223857Y-13923000D01*
X16195286Y-13908714D01*
X16152428Y-13908714D01*
X16123857Y-13894429D01*
X16109571Y-13865857D01*
X16109571Y-13851571D01*
X16123857Y-13823000D01*
X16152428Y-13808714D01*
X16195286Y-13808714D01*
X16223857Y-13823000D01*
X16338143Y-14123000D02*
X16352428Y-14108714D01*
X16381000Y-14065857D01*
X16395286Y-14037286D01*
X16409571Y-13994429D01*
X16423857Y-13923000D01*
X16423857Y-13865857D01*
X16409571Y-13794429D01*
X16395286Y-13751571D01*
X16381000Y-13723000D01*
X16352428Y-13680143D01*
X16338143Y-13665857D01*
X9536500Y-14224500D02*
X9536500Y-14313500D01*
X9492000Y-14269000D02*
X9581000Y-14269000D01*
X9909571Y-14104714D02*
X9938143Y-14104714D01*
X9966714Y-14119000D01*
X9981000Y-14133286D01*
X9995286Y-14161857D01*
X10009571Y-14219000D01*
X10009571Y-14290429D01*
X9995286Y-14347571D01*
X9981000Y-14376143D01*
X9966714Y-14390429D01*
X9938143Y-14404714D01*
X9909571Y-14404714D01*
X9881000Y-14390429D01*
X9866714Y-14376143D01*
X9852429Y-14347571D01*
X9838143Y-14290429D01*
X9838143Y-14219000D01*
X9852429Y-14161857D01*
X9866714Y-14133286D01*
X9881000Y-14119000D01*
X9909571Y-14104714D01*
X10138143Y-14376143D02*
X10152429Y-14390429D01*
X10138143Y-14404714D01*
X10123857Y-14390429D01*
X10138143Y-14376143D01*
X10138143Y-14404714D01*
X10323857Y-14233286D02*
X10295286Y-14219000D01*
X10281000Y-14204714D01*
X10266714Y-14176143D01*
X10266714Y-14161857D01*
X10281000Y-14133286D01*
X10295286Y-14119000D01*
X10323857Y-14104714D01*
X10381000Y-14104714D01*
X10409571Y-14119000D01*
X10423857Y-14133286D01*
X10438143Y-14161857D01*
X10438143Y-14176143D01*
X10423857Y-14204714D01*
X10409571Y-14219000D01*
X10381000Y-14233286D01*
X10323857Y-14233286D01*
X10295286Y-14247571D01*
X10281000Y-14261857D01*
X10266714Y-14290429D01*
X10266714Y-14347571D01*
X10281000Y-14376143D01*
X10295286Y-14390429D01*
X10323857Y-14404714D01*
X10381000Y-14404714D01*
X10409571Y-14390429D01*
X10423857Y-14376143D01*
X10438143Y-14347571D01*
X10438143Y-14290429D01*
X10423857Y-14261857D01*
X10409571Y-14247571D01*
X10381000Y-14233286D01*
X10581000Y-14404714D02*
X10638143Y-14404714D01*
X10666714Y-14390429D01*
X10681000Y-14376143D01*
X10709571Y-14333286D01*
X10723857Y-14276143D01*
X10723857Y-14161857D01*
X10709571Y-14133286D01*
X10695286Y-14119000D01*
X10666714Y-14104714D01*
X10609571Y-14104714D01*
X10581000Y-14119000D01*
X10566714Y-14133286D01*
X10552429Y-14161857D01*
X10552429Y-14233286D01*
X10566714Y-14261857D01*
X10581000Y-14276143D01*
X10609571Y-14290429D01*
X10666714Y-14290429D01*
X10695286Y-14276143D01*
X10709571Y-14261857D01*
X10723857Y-14233286D01*
X10852429Y-14404714D02*
X10852429Y-14204714D01*
X10852429Y-14233286D02*
X10866714Y-14219000D01*
X10895286Y-14204714D01*
X10938143Y-14204714D01*
X10966714Y-14219000D01*
X10981000Y-14247571D01*
X10981000Y-14404714D01*
X10981000Y-14247571D02*
X10995286Y-14219000D01*
X11023857Y-14204714D01*
X11066714Y-14204714D01*
X11095286Y-14219000D01*
X11109571Y-14247571D01*
X11109571Y-14404714D01*
X11252428Y-14404714D02*
X11252428Y-14204714D01*
X11252428Y-14233286D02*
X11266714Y-14219000D01*
X11295286Y-14204714D01*
X11338143Y-14204714D01*
X11366714Y-14219000D01*
X11381000Y-14247571D01*
X11381000Y-14404714D01*
X11381000Y-14247571D02*
X11395286Y-14219000D01*
X11423857Y-14204714D01*
X11466714Y-14204714D01*
X11495286Y-14219000D01*
X11509571Y-14247571D01*
X11509571Y-14404714D01*
X12095286Y-14090429D02*
X11838143Y-14476143D01*
X12481000Y-14104714D02*
X12509571Y-14104714D01*
X12538143Y-14119000D01*
X12552428Y-14133286D01*
X12566714Y-14161857D01*
X12581000Y-14219000D01*
X12581000Y-14290429D01*
X12566714Y-14347571D01*
X12552428Y-14376143D01*
X12538143Y-14390429D01*
X12509571Y-14404714D01*
X12481000Y-14404714D01*
X12452428Y-14390429D01*
X12438143Y-14376143D01*
X12423857Y-14347571D01*
X12409571Y-14290429D01*
X12409571Y-14219000D01*
X12423857Y-14161857D01*
X12438143Y-14133286D01*
X12452428Y-14119000D01*
X12481000Y-14104714D01*
X12709571Y-14376143D02*
X12723857Y-14390429D01*
X12709571Y-14404714D01*
X12695286Y-14390429D01*
X12709571Y-14376143D01*
X12709571Y-14404714D01*
X12909571Y-14104714D02*
X12938143Y-14104714D01*
X12966714Y-14119000D01*
X12981000Y-14133286D01*
X12995285Y-14161857D01*
X13009571Y-14219000D01*
X13009571Y-14290429D01*
X12995285Y-14347571D01*
X12981000Y-14376143D01*
X12966714Y-14390429D01*
X12938143Y-14404714D01*
X12909571Y-14404714D01*
X12881000Y-14390429D01*
X12866714Y-14376143D01*
X12852428Y-14347571D01*
X12838143Y-14290429D01*
X12838143Y-14219000D01*
X12852428Y-14161857D01*
X12866714Y-14133286D01*
X12881000Y-14119000D01*
X12909571Y-14104714D01*
X13109571Y-14104714D02*
X13295285Y-14104714D01*
X13195285Y-14219000D01*
X13238143Y-14219000D01*
X13266714Y-14233286D01*
X13281000Y-14247571D01*
X13295285Y-14276143D01*
X13295285Y-14347571D01*
X13281000Y-14376143D01*
X13266714Y-14390429D01*
X13238143Y-14404714D01*
X13152428Y-14404714D01*
X13123857Y-14390429D01*
X13109571Y-14376143D01*
X13566714Y-14104714D02*
X13423857Y-14104714D01*
X13409571Y-14247571D01*
X13423857Y-14233286D01*
X13452428Y-14219000D01*
X13523857Y-14219000D01*
X13552428Y-14233286D01*
X13566714Y-14247571D01*
X13581000Y-14276143D01*
X13581000Y-14347571D01*
X13566714Y-14376143D01*
X13552428Y-14390429D01*
X13523857Y-14404714D01*
X13452428Y-14404714D01*
X13423857Y-14390429D01*
X13409571Y-14376143D01*
X13695286Y-14104714D02*
X13695286Y-14161857D01*
X13809571Y-14104714D02*
X13809571Y-14161857D01*
X14252428Y-14519000D02*
X14238143Y-14504714D01*
X14209571Y-14461857D01*
X14195285Y-14433286D01*
X14181000Y-14390429D01*
X14166714Y-14319000D01*
X14166714Y-14261857D01*
X14181000Y-14190429D01*
X14195285Y-14147571D01*
X14209571Y-14119000D01*
X14238143Y-14076143D01*
X14252428Y-14061857D01*
X14409571Y-14233286D02*
X14381000Y-14219000D01*
X14366714Y-14204714D01*
X14352428Y-14176143D01*
X14352428Y-14161857D01*
X14366714Y-14133286D01*
X14381000Y-14119000D01*
X14409571Y-14104714D01*
X14466714Y-14104714D01*
X14495285Y-14119000D01*
X14509571Y-14133286D01*
X14523857Y-14161857D01*
X14523857Y-14176143D01*
X14509571Y-14204714D01*
X14495285Y-14219000D01*
X14466714Y-14233286D01*
X14409571Y-14233286D01*
X14381000Y-14247571D01*
X14366714Y-14261857D01*
X14352428Y-14290429D01*
X14352428Y-14347571D01*
X14366714Y-14376143D01*
X14381000Y-14390429D01*
X14409571Y-14404714D01*
X14466714Y-14404714D01*
X14495285Y-14390429D01*
X14509571Y-14376143D01*
X14523857Y-14347571D01*
X14523857Y-14290429D01*
X14509571Y-14261857D01*
X14495285Y-14247571D01*
X14466714Y-14233286D01*
X14881000Y-14404714D02*
X14881000Y-14104714D01*
X15009571Y-14404714D02*
X15009571Y-14247571D01*
X14995285Y-14219000D01*
X14966714Y-14204714D01*
X14923857Y-14204714D01*
X14895285Y-14219000D01*
X14881000Y-14233286D01*
X15195285Y-14404714D02*
X15166714Y-14390429D01*
X15152428Y-14376143D01*
X15138143Y-14347571D01*
X15138143Y-14261857D01*
X15152428Y-14233286D01*
X15166714Y-14219000D01*
X15195285Y-14204714D01*
X15238143Y-14204714D01*
X15266714Y-14219000D01*
X15281000Y-14233286D01*
X15295285Y-14261857D01*
X15295285Y-14347571D01*
X15281000Y-14376143D01*
X15266714Y-14390429D01*
X15238143Y-14404714D01*
X15195285Y-14404714D01*
X15466714Y-14404714D02*
X15438143Y-14390429D01*
X15423857Y-14361857D01*
X15423857Y-14104714D01*
X15695286Y-14390429D02*
X15666714Y-14404714D01*
X15609571Y-14404714D01*
X15581000Y-14390429D01*
X15566714Y-14361857D01*
X15566714Y-14247571D01*
X15581000Y-14219000D01*
X15609571Y-14204714D01*
X15666714Y-14204714D01*
X15695286Y-14219000D01*
X15709571Y-14247571D01*
X15709571Y-14276143D01*
X15566714Y-14304714D01*
X15823857Y-14390429D02*
X15852428Y-14404714D01*
X15909571Y-14404714D01*
X15938143Y-14390429D01*
X15952428Y-14361857D01*
X15952428Y-14347571D01*
X15938143Y-14319000D01*
X15909571Y-14304714D01*
X15866714Y-14304714D01*
X15838143Y-14290429D01*
X15823857Y-14261857D01*
X15823857Y-14247571D01*
X15838143Y-14219000D01*
X15866714Y-14204714D01*
X15909571Y-14204714D01*
X15938143Y-14219000D01*
X16052428Y-14519000D02*
X16066714Y-14504714D01*
X16095286Y-14461857D01*
X16109571Y-14433286D01*
X16123857Y-14390429D01*
X16138143Y-14319000D01*
X16138143Y-14261857D01*
X16123857Y-14190429D01*
X16109571Y-14147571D01*
X16095286Y-14119000D01*
X16066714Y-14076143D01*
X16052428Y-14061857D01*
X9566356Y-14700356D02*
X9566356Y-14629644D01*
X9495644Y-14629644D01*
X9495644Y-14700356D01*
X9566356Y-14700356D01*
X10009571Y-14800714D02*
X9838143Y-14800714D01*
X9923857Y-14800714D02*
X9923857Y-14500714D01*
X9895286Y-14543571D01*
X9866714Y-14572143D01*
X9838143Y-14586429D01*
X10138143Y-14772143D02*
X10152429Y-14786429D01*
X10138143Y-14800714D01*
X10123857Y-14786429D01*
X10138143Y-14772143D01*
X10138143Y-14800714D01*
X10338143Y-14500714D02*
X10366714Y-14500714D01*
X10395286Y-14515000D01*
X10409571Y-14529286D01*
X10423857Y-14557857D01*
X10438143Y-14615000D01*
X10438143Y-14686429D01*
X10423857Y-14743571D01*
X10409571Y-14772143D01*
X10395286Y-14786429D01*
X10366714Y-14800714D01*
X10338143Y-14800714D01*
X10309571Y-14786429D01*
X10295286Y-14772143D01*
X10281000Y-14743571D01*
X10266714Y-14686429D01*
X10266714Y-14615000D01*
X10281000Y-14557857D01*
X10295286Y-14529286D01*
X10309571Y-14515000D01*
X10338143Y-14500714D01*
X10623857Y-14500714D02*
X10652429Y-14500714D01*
X10681000Y-14515000D01*
X10695286Y-14529286D01*
X10709571Y-14557857D01*
X10723857Y-14615000D01*
X10723857Y-14686429D01*
X10709571Y-14743571D01*
X10695286Y-14772143D01*
X10681000Y-14786429D01*
X10652429Y-14800714D01*
X10623857Y-14800714D01*
X10595286Y-14786429D01*
X10581000Y-14772143D01*
X10566714Y-14743571D01*
X10552429Y-14686429D01*
X10552429Y-14615000D01*
X10566714Y-14557857D01*
X10581000Y-14529286D01*
X10595286Y-14515000D01*
X10623857Y-14500714D01*
X10852429Y-14800714D02*
X10852429Y-14600714D01*
X10852429Y-14629286D02*
X10866714Y-14615000D01*
X10895286Y-14600714D01*
X10938143Y-14600714D01*
X10966714Y-14615000D01*
X10981000Y-14643571D01*
X10981000Y-14800714D01*
X10981000Y-14643571D02*
X10995286Y-14615000D01*
X11023857Y-14600714D01*
X11066714Y-14600714D01*
X11095286Y-14615000D01*
X11109571Y-14643571D01*
X11109571Y-14800714D01*
X11252428Y-14800714D02*
X11252428Y-14600714D01*
X11252428Y-14629286D02*
X11266714Y-14615000D01*
X11295286Y-14600714D01*
X11338143Y-14600714D01*
X11366714Y-14615000D01*
X11381000Y-14643571D01*
X11381000Y-14800714D01*
X11381000Y-14643571D02*
X11395286Y-14615000D01*
X11423857Y-14600714D01*
X11466714Y-14600714D01*
X11495286Y-14615000D01*
X11509571Y-14643571D01*
X11509571Y-14800714D01*
X12095286Y-14486429D02*
X11838143Y-14872143D01*
X12481000Y-14500714D02*
X12509571Y-14500714D01*
X12538143Y-14515000D01*
X12552428Y-14529286D01*
X12566714Y-14557857D01*
X12581000Y-14615000D01*
X12581000Y-14686429D01*
X12566714Y-14743571D01*
X12552428Y-14772143D01*
X12538143Y-14786429D01*
X12509571Y-14800714D01*
X12481000Y-14800714D01*
X12452428Y-14786429D01*
X12438143Y-14772143D01*
X12423857Y-14743571D01*
X12409571Y-14686429D01*
X12409571Y-14615000D01*
X12423857Y-14557857D01*
X12438143Y-14529286D01*
X12452428Y-14515000D01*
X12481000Y-14500714D01*
X12709571Y-14772143D02*
X12723857Y-14786429D01*
X12709571Y-14800714D01*
X12695286Y-14786429D01*
X12709571Y-14772143D01*
X12709571Y-14800714D01*
X12909571Y-14500714D02*
X12938143Y-14500714D01*
X12966714Y-14515000D01*
X12981000Y-14529286D01*
X12995285Y-14557857D01*
X13009571Y-14615000D01*
X13009571Y-14686429D01*
X12995285Y-14743571D01*
X12981000Y-14772143D01*
X12966714Y-14786429D01*
X12938143Y-14800714D01*
X12909571Y-14800714D01*
X12881000Y-14786429D01*
X12866714Y-14772143D01*
X12852428Y-14743571D01*
X12838143Y-14686429D01*
X12838143Y-14615000D01*
X12852428Y-14557857D01*
X12866714Y-14529286D01*
X12881000Y-14515000D01*
X12909571Y-14500714D01*
X13109571Y-14500714D02*
X13295285Y-14500714D01*
X13195285Y-14615000D01*
X13238143Y-14615000D01*
X13266714Y-14629286D01*
X13281000Y-14643571D01*
X13295285Y-14672143D01*
X13295285Y-14743571D01*
X13281000Y-14772143D01*
X13266714Y-14786429D01*
X13238143Y-14800714D01*
X13152428Y-14800714D01*
X13123857Y-14786429D01*
X13109571Y-14772143D01*
X13438143Y-14800714D02*
X13495285Y-14800714D01*
X13523857Y-14786429D01*
X13538143Y-14772143D01*
X13566714Y-14729286D01*
X13581000Y-14672143D01*
X13581000Y-14557857D01*
X13566714Y-14529286D01*
X13552428Y-14515000D01*
X13523857Y-14500714D01*
X13466714Y-14500714D01*
X13438143Y-14515000D01*
X13423857Y-14529286D01*
X13409571Y-14557857D01*
X13409571Y-14629286D01*
X13423857Y-14657857D01*
X13438143Y-14672143D01*
X13466714Y-14686429D01*
X13523857Y-14686429D01*
X13552428Y-14672143D01*
X13566714Y-14657857D01*
X13581000Y-14629286D01*
X13695286Y-14500714D02*
X13695286Y-14557857D01*
X13809571Y-14500714D02*
X13809571Y-14557857D01*
X14252428Y-14915000D02*
X14238143Y-14900714D01*
X14209571Y-14857857D01*
X14195285Y-14829286D01*
X14181000Y-14786429D01*
X14166714Y-14715000D01*
X14166714Y-14657857D01*
X14181000Y-14586429D01*
X14195285Y-14543571D01*
X14209571Y-14515000D01*
X14238143Y-14472143D01*
X14252428Y-14457857D01*
X14509571Y-14500714D02*
X14366714Y-14500714D01*
X14352428Y-14643571D01*
X14366714Y-14629286D01*
X14395285Y-14615000D01*
X14466714Y-14615000D01*
X14495285Y-14629286D01*
X14509571Y-14643571D01*
X14523857Y-14672143D01*
X14523857Y-14743571D01*
X14509571Y-14772143D01*
X14495285Y-14786429D01*
X14466714Y-14800714D01*
X14395285Y-14800714D01*
X14366714Y-14786429D01*
X14352428Y-14772143D01*
X14881000Y-14800714D02*
X14881000Y-14500714D01*
X15009571Y-14800714D02*
X15009571Y-14643571D01*
X14995285Y-14615000D01*
X14966714Y-14600714D01*
X14923857Y-14600714D01*
X14895285Y-14615000D01*
X14881000Y-14629286D01*
X15195285Y-14800714D02*
X15166714Y-14786429D01*
X15152428Y-14772143D01*
X15138143Y-14743571D01*
X15138143Y-14657857D01*
X15152428Y-14629286D01*
X15166714Y-14615000D01*
X15195285Y-14600714D01*
X15238143Y-14600714D01*
X15266714Y-14615000D01*
X15281000Y-14629286D01*
X15295285Y-14657857D01*
X15295285Y-14743571D01*
X15281000Y-14772143D01*
X15266714Y-14786429D01*
X15238143Y-14800714D01*
X15195285Y-14800714D01*
X15466714Y-14800714D02*
X15438143Y-14786429D01*
X15423857Y-14757857D01*
X15423857Y-14500714D01*
X15695286Y-14786429D02*
X15666714Y-14800714D01*
X15609571Y-14800714D01*
X15581000Y-14786429D01*
X15566714Y-14757857D01*
X15566714Y-14643571D01*
X15581000Y-14615000D01*
X15609571Y-14600714D01*
X15666714Y-14600714D01*
X15695286Y-14615000D01*
X15709571Y-14643571D01*
X15709571Y-14672143D01*
X15566714Y-14700714D01*
X15823857Y-14786429D02*
X15852428Y-14800714D01*
X15909571Y-14800714D01*
X15938143Y-14786429D01*
X15952428Y-14757857D01*
X15952428Y-14743571D01*
X15938143Y-14715000D01*
X15909571Y-14700714D01*
X15866714Y-14700714D01*
X15838143Y-14686429D01*
X15823857Y-14657857D01*
X15823857Y-14643571D01*
X15838143Y-14615000D01*
X15866714Y-14600714D01*
X15909571Y-14600714D01*
X15938143Y-14615000D01*
X16052428Y-14915000D02*
X16066714Y-14900714D01*
X16095286Y-14857857D01*
X16109571Y-14829286D01*
X16123857Y-14786429D01*
X16138143Y-14715000D01*
X16138143Y-14657857D01*
X16123857Y-14586429D01*
X16109571Y-14543571D01*
X16095286Y-14515000D01*
X16066714Y-14472143D01*
X16052428Y-14457857D01*
X9530962Y-15111038D02*
X9581000Y-15061000D01*
X9530962Y-15010962D01*
X9480924Y-15061000D01*
X9530962Y-15111038D01*
X10009571Y-15196714D02*
X9838143Y-15196714D01*
X9923857Y-15196714D02*
X9923857Y-14896714D01*
X9895286Y-14939571D01*
X9866714Y-14968143D01*
X9838143Y-14982429D01*
X10138143Y-15168143D02*
X10152429Y-15182429D01*
X10138143Y-15196714D01*
X10123857Y-15182429D01*
X10138143Y-15168143D01*
X10138143Y-15196714D01*
X10338143Y-14896714D02*
X10366714Y-14896714D01*
X10395286Y-14911000D01*
X10409571Y-14925286D01*
X10423857Y-14953857D01*
X10438143Y-15011000D01*
X10438143Y-15082429D01*
X10423857Y-15139571D01*
X10409571Y-15168143D01*
X10395286Y-15182429D01*
X10366714Y-15196714D01*
X10338143Y-15196714D01*
X10309571Y-15182429D01*
X10295286Y-15168143D01*
X10281000Y-15139571D01*
X10266714Y-15082429D01*
X10266714Y-15011000D01*
X10281000Y-14953857D01*
X10295286Y-14925286D01*
X10309571Y-14911000D01*
X10338143Y-14896714D01*
X10623857Y-14896714D02*
X10652429Y-14896714D01*
X10681000Y-14911000D01*
X10695286Y-14925286D01*
X10709571Y-14953857D01*
X10723857Y-15011000D01*
X10723857Y-15082429D01*
X10709571Y-15139571D01*
X10695286Y-15168143D01*
X10681000Y-15182429D01*
X10652429Y-15196714D01*
X10623857Y-15196714D01*
X10595286Y-15182429D01*
X10581000Y-15168143D01*
X10566714Y-15139571D01*
X10552429Y-15082429D01*
X10552429Y-15011000D01*
X10566714Y-14953857D01*
X10581000Y-14925286D01*
X10595286Y-14911000D01*
X10623857Y-14896714D01*
X10852429Y-15196714D02*
X10852429Y-14996714D01*
X10852429Y-15025286D02*
X10866714Y-15011000D01*
X10895286Y-14996714D01*
X10938143Y-14996714D01*
X10966714Y-15011000D01*
X10981000Y-15039571D01*
X10981000Y-15196714D01*
X10981000Y-15039571D02*
X10995286Y-15011000D01*
X11023857Y-14996714D01*
X11066714Y-14996714D01*
X11095286Y-15011000D01*
X11109571Y-15039571D01*
X11109571Y-15196714D01*
X11252428Y-15196714D02*
X11252428Y-14996714D01*
X11252428Y-15025286D02*
X11266714Y-15011000D01*
X11295286Y-14996714D01*
X11338143Y-14996714D01*
X11366714Y-15011000D01*
X11381000Y-15039571D01*
X11381000Y-15196714D01*
X11381000Y-15039571D02*
X11395286Y-15011000D01*
X11423857Y-14996714D01*
X11466714Y-14996714D01*
X11495286Y-15011000D01*
X11509571Y-15039571D01*
X11509571Y-15196714D01*
X12095286Y-14882429D02*
X11838143Y-15268143D01*
X12481000Y-14896714D02*
X12509571Y-14896714D01*
X12538143Y-14911000D01*
X12552428Y-14925286D01*
X12566714Y-14953857D01*
X12581000Y-15011000D01*
X12581000Y-15082429D01*
X12566714Y-15139571D01*
X12552428Y-15168143D01*
X12538143Y-15182429D01*
X12509571Y-15196714D01*
X12481000Y-15196714D01*
X12452428Y-15182429D01*
X12438143Y-15168143D01*
X12423857Y-15139571D01*
X12409571Y-15082429D01*
X12409571Y-15011000D01*
X12423857Y-14953857D01*
X12438143Y-14925286D01*
X12452428Y-14911000D01*
X12481000Y-14896714D01*
X12709571Y-15168143D02*
X12723857Y-15182429D01*
X12709571Y-15196714D01*
X12695286Y-15182429D01*
X12709571Y-15168143D01*
X12709571Y-15196714D01*
X12909571Y-14896714D02*
X12938143Y-14896714D01*
X12966714Y-14911000D01*
X12981000Y-14925286D01*
X12995285Y-14953857D01*
X13009571Y-15011000D01*
X13009571Y-15082429D01*
X12995285Y-15139571D01*
X12981000Y-15168143D01*
X12966714Y-15182429D01*
X12938143Y-15196714D01*
X12909571Y-15196714D01*
X12881000Y-15182429D01*
X12866714Y-15168143D01*
X12852428Y-15139571D01*
X12838143Y-15082429D01*
X12838143Y-15011000D01*
X12852428Y-14953857D01*
X12866714Y-14925286D01*
X12881000Y-14911000D01*
X12909571Y-14896714D01*
X13109571Y-14896714D02*
X13295285Y-14896714D01*
X13195285Y-15011000D01*
X13238143Y-15011000D01*
X13266714Y-15025286D01*
X13281000Y-15039571D01*
X13295285Y-15068143D01*
X13295285Y-15139571D01*
X13281000Y-15168143D01*
X13266714Y-15182429D01*
X13238143Y-15196714D01*
X13152428Y-15196714D01*
X13123857Y-15182429D01*
X13109571Y-15168143D01*
X13438143Y-15196714D02*
X13495285Y-15196714D01*
X13523857Y-15182429D01*
X13538143Y-15168143D01*
X13566714Y-15125286D01*
X13581000Y-15068143D01*
X13581000Y-14953857D01*
X13566714Y-14925286D01*
X13552428Y-14911000D01*
X13523857Y-14896714D01*
X13466714Y-14896714D01*
X13438143Y-14911000D01*
X13423857Y-14925286D01*
X13409571Y-14953857D01*
X13409571Y-15025286D01*
X13423857Y-15053857D01*
X13438143Y-15068143D01*
X13466714Y-15082429D01*
X13523857Y-15082429D01*
X13552428Y-15068143D01*
X13566714Y-15053857D01*
X13581000Y-15025286D01*
X13695286Y-14896714D02*
X13695286Y-14953857D01*
X13809571Y-14896714D02*
X13809571Y-14953857D01*
X14252428Y-15311000D02*
X14238143Y-15296714D01*
X14209571Y-15253857D01*
X14195285Y-15225286D01*
X14181000Y-15182429D01*
X14166714Y-15111000D01*
X14166714Y-15053857D01*
X14181000Y-14982429D01*
X14195285Y-14939571D01*
X14209571Y-14911000D01*
X14238143Y-14868143D01*
X14252428Y-14853857D01*
X14523857Y-15196714D02*
X14352428Y-15196714D01*
X14438143Y-15196714D02*
X14438143Y-14896714D01*
X14409571Y-14939571D01*
X14381000Y-14968143D01*
X14352428Y-14982429D01*
X14709571Y-14896714D02*
X14738143Y-14896714D01*
X14766714Y-14911000D01*
X14781000Y-14925286D01*
X14795285Y-14953857D01*
X14809571Y-15011000D01*
X14809571Y-15082429D01*
X14795285Y-15139571D01*
X14781000Y-15168143D01*
X14766714Y-15182429D01*
X14738143Y-15196714D01*
X14709571Y-15196714D01*
X14681000Y-15182429D01*
X14666714Y-15168143D01*
X14652428Y-15139571D01*
X14638143Y-15082429D01*
X14638143Y-15011000D01*
X14652428Y-14953857D01*
X14666714Y-14925286D01*
X14681000Y-14911000D01*
X14709571Y-14896714D01*
X15166714Y-15196714D02*
X15166714Y-14896714D01*
X15295285Y-15196714D02*
X15295285Y-15039571D01*
X15281000Y-15011000D01*
X15252428Y-14996714D01*
X15209571Y-14996714D01*
X15181000Y-15011000D01*
X15166714Y-15025286D01*
X15481000Y-15196714D02*
X15452428Y-15182429D01*
X15438143Y-15168143D01*
X15423857Y-15139571D01*
X15423857Y-15053857D01*
X15438143Y-15025286D01*
X15452428Y-15011000D01*
X15481000Y-14996714D01*
X15523857Y-14996714D01*
X15552428Y-15011000D01*
X15566714Y-15025286D01*
X15581000Y-15053857D01*
X15581000Y-15139571D01*
X15566714Y-15168143D01*
X15552428Y-15182429D01*
X15523857Y-15196714D01*
X15481000Y-15196714D01*
X15752428Y-15196714D02*
X15723857Y-15182429D01*
X15709571Y-15153857D01*
X15709571Y-14896714D01*
X15981000Y-15182429D02*
X15952428Y-15196714D01*
X15895286Y-15196714D01*
X15866714Y-15182429D01*
X15852428Y-15153857D01*
X15852428Y-15039571D01*
X15866714Y-15011000D01*
X15895286Y-14996714D01*
X15952428Y-14996714D01*
X15981000Y-15011000D01*
X15995286Y-15039571D01*
X15995286Y-15068143D01*
X15852428Y-15096714D01*
X16109571Y-15182429D02*
X16138143Y-15196714D01*
X16195286Y-15196714D01*
X16223857Y-15182429D01*
X16238143Y-15153857D01*
X16238143Y-15139571D01*
X16223857Y-15111000D01*
X16195286Y-15096714D01*
X16152428Y-15096714D01*
X16123857Y-15082429D01*
X16109571Y-15053857D01*
X16109571Y-15039571D01*
X16123857Y-15011000D01*
X16152428Y-14996714D01*
X16195286Y-14996714D01*
X16223857Y-15011000D01*
X16338143Y-15311000D02*
X16352428Y-15296714D01*
X16381000Y-15253857D01*
X16395286Y-15225286D01*
X16409571Y-15182429D01*
X16423857Y-15111000D01*
X16423857Y-15053857D01*
X16409571Y-14982429D01*
X16395286Y-14939571D01*
X16381000Y-14911000D01*
X16352428Y-14868143D01*
X16338143Y-14853857D01*
X9479400Y-15406200D02*
X9581000Y-15507800D01*
X9581000Y-15406200D02*
X9479400Y-15507800D01*
X9581000Y-15457000D02*
G75*
G03X9581000Y-15457000I-50800J0D01*
G01*
X10009571Y-15592714D02*
X9838143Y-15592714D01*
X9923857Y-15592714D02*
X9923857Y-15292714D01*
X9895286Y-15335571D01*
X9866714Y-15364143D01*
X9838143Y-15378429D01*
X10138143Y-15564143D02*
X10152429Y-15578429D01*
X10138143Y-15592714D01*
X10123857Y-15578429D01*
X10138143Y-15564143D01*
X10138143Y-15592714D01*
X10338143Y-15292714D02*
X10366714Y-15292714D01*
X10395286Y-15307000D01*
X10409571Y-15321286D01*
X10423857Y-15349857D01*
X10438143Y-15407000D01*
X10438143Y-15478429D01*
X10423857Y-15535571D01*
X10409571Y-15564143D01*
X10395286Y-15578429D01*
X10366714Y-15592714D01*
X10338143Y-15592714D01*
X10309571Y-15578429D01*
X10295286Y-15564143D01*
X10281000Y-15535571D01*
X10266714Y-15478429D01*
X10266714Y-15407000D01*
X10281000Y-15349857D01*
X10295286Y-15321286D01*
X10309571Y-15307000D01*
X10338143Y-15292714D01*
X10552429Y-15321286D02*
X10566714Y-15307000D01*
X10595286Y-15292714D01*
X10666714Y-15292714D01*
X10695286Y-15307000D01*
X10709571Y-15321286D01*
X10723857Y-15349857D01*
X10723857Y-15378429D01*
X10709571Y-15421286D01*
X10538143Y-15592714D01*
X10723857Y-15592714D01*
X10852429Y-15592714D02*
X10852429Y-15392714D01*
X10852429Y-15421286D02*
X10866714Y-15407000D01*
X10895286Y-15392714D01*
X10938143Y-15392714D01*
X10966714Y-15407000D01*
X10981000Y-15435571D01*
X10981000Y-15592714D01*
X10981000Y-15435571D02*
X10995286Y-15407000D01*
X11023857Y-15392714D01*
X11066714Y-15392714D01*
X11095286Y-15407000D01*
X11109571Y-15435571D01*
X11109571Y-15592714D01*
X11252428Y-15592714D02*
X11252428Y-15392714D01*
X11252428Y-15421286D02*
X11266714Y-15407000D01*
X11295286Y-15392714D01*
X11338143Y-15392714D01*
X11366714Y-15407000D01*
X11381000Y-15435571D01*
X11381000Y-15592714D01*
X11381000Y-15435571D02*
X11395286Y-15407000D01*
X11423857Y-15392714D01*
X11466714Y-15392714D01*
X11495286Y-15407000D01*
X11509571Y-15435571D01*
X11509571Y-15592714D01*
X12095286Y-15278429D02*
X11838143Y-15664143D01*
X12481000Y-15292714D02*
X12509571Y-15292714D01*
X12538143Y-15307000D01*
X12552428Y-15321286D01*
X12566714Y-15349857D01*
X12581000Y-15407000D01*
X12581000Y-15478429D01*
X12566714Y-15535571D01*
X12552428Y-15564143D01*
X12538143Y-15578429D01*
X12509571Y-15592714D01*
X12481000Y-15592714D01*
X12452428Y-15578429D01*
X12438143Y-15564143D01*
X12423857Y-15535571D01*
X12409571Y-15478429D01*
X12409571Y-15407000D01*
X12423857Y-15349857D01*
X12438143Y-15321286D01*
X12452428Y-15307000D01*
X12481000Y-15292714D01*
X12709571Y-15564143D02*
X12723857Y-15578429D01*
X12709571Y-15592714D01*
X12695286Y-15578429D01*
X12709571Y-15564143D01*
X12709571Y-15592714D01*
X12909571Y-15292714D02*
X12938143Y-15292714D01*
X12966714Y-15307000D01*
X12981000Y-15321286D01*
X12995285Y-15349857D01*
X13009571Y-15407000D01*
X13009571Y-15478429D01*
X12995285Y-15535571D01*
X12981000Y-15564143D01*
X12966714Y-15578429D01*
X12938143Y-15592714D01*
X12909571Y-15592714D01*
X12881000Y-15578429D01*
X12866714Y-15564143D01*
X12852428Y-15535571D01*
X12838143Y-15478429D01*
X12838143Y-15407000D01*
X12852428Y-15349857D01*
X12866714Y-15321286D01*
X12881000Y-15307000D01*
X12909571Y-15292714D01*
X13266714Y-15392714D02*
X13266714Y-15592714D01*
X13195285Y-15278429D02*
X13123857Y-15492714D01*
X13309571Y-15492714D01*
X13481000Y-15292714D02*
X13509571Y-15292714D01*
X13538143Y-15307000D01*
X13552428Y-15321286D01*
X13566714Y-15349857D01*
X13581000Y-15407000D01*
X13581000Y-15478429D01*
X13566714Y-15535571D01*
X13552428Y-15564143D01*
X13538143Y-15578429D01*
X13509571Y-15592714D01*
X13481000Y-15592714D01*
X13452428Y-15578429D01*
X13438143Y-15564143D01*
X13423857Y-15535571D01*
X13409571Y-15478429D01*
X13409571Y-15407000D01*
X13423857Y-15349857D01*
X13438143Y-15321286D01*
X13452428Y-15307000D01*
X13481000Y-15292714D01*
X13695286Y-15292714D02*
X13695286Y-15349857D01*
X13809571Y-15292714D02*
X13809571Y-15349857D01*
X14252428Y-15707000D02*
X14238143Y-15692714D01*
X14209571Y-15649857D01*
X14195285Y-15621286D01*
X14181000Y-15578429D01*
X14166714Y-15507000D01*
X14166714Y-15449857D01*
X14181000Y-15378429D01*
X14195285Y-15335571D01*
X14209571Y-15307000D01*
X14238143Y-15264143D01*
X14252428Y-15249857D01*
X14352428Y-15321286D02*
X14366714Y-15307000D01*
X14395285Y-15292714D01*
X14466714Y-15292714D01*
X14495285Y-15307000D01*
X14509571Y-15321286D01*
X14523857Y-15349857D01*
X14523857Y-15378429D01*
X14509571Y-15421286D01*
X14338143Y-15592714D01*
X14523857Y-15592714D01*
X14809571Y-15592714D02*
X14638143Y-15592714D01*
X14723857Y-15592714D02*
X14723857Y-15292714D01*
X14695285Y-15335571D01*
X14666714Y-15364143D01*
X14638143Y-15378429D01*
X15166714Y-15592714D02*
X15166714Y-15292714D01*
X15295285Y-15592714D02*
X15295285Y-15435571D01*
X15281000Y-15407000D01*
X15252428Y-15392714D01*
X15209571Y-15392714D01*
X15181000Y-15407000D01*
X15166714Y-15421286D01*
X15481000Y-15592714D02*
X15452428Y-15578429D01*
X15438143Y-15564143D01*
X15423857Y-15535571D01*
X15423857Y-15449857D01*
X15438143Y-15421286D01*
X15452428Y-15407000D01*
X15481000Y-15392714D01*
X15523857Y-15392714D01*
X15552428Y-15407000D01*
X15566714Y-15421286D01*
X15581000Y-15449857D01*
X15581000Y-15535571D01*
X15566714Y-15564143D01*
X15552428Y-15578429D01*
X15523857Y-15592714D01*
X15481000Y-15592714D01*
X15752428Y-15592714D02*
X15723857Y-15578429D01*
X15709571Y-15549857D01*
X15709571Y-15292714D01*
X15981000Y-15578429D02*
X15952428Y-15592714D01*
X15895286Y-15592714D01*
X15866714Y-15578429D01*
X15852428Y-15549857D01*
X15852428Y-15435571D01*
X15866714Y-15407000D01*
X15895286Y-15392714D01*
X15952428Y-15392714D01*
X15981000Y-15407000D01*
X15995286Y-15435571D01*
X15995286Y-15464143D01*
X15852428Y-15492714D01*
X16109571Y-15578429D02*
X16138143Y-15592714D01*
X16195286Y-15592714D01*
X16223857Y-15578429D01*
X16238143Y-15549857D01*
X16238143Y-15535571D01*
X16223857Y-15507000D01*
X16195286Y-15492714D01*
X16152428Y-15492714D01*
X16123857Y-15478429D01*
X16109571Y-15449857D01*
X16109571Y-15435571D01*
X16123857Y-15407000D01*
X16152428Y-15392714D01*
X16195286Y-15392714D01*
X16223857Y-15407000D01*
X16338143Y-15707000D02*
X16352428Y-15692714D01*
X16381000Y-15649857D01*
X16395286Y-15621286D01*
X16409571Y-15578429D01*
X16423857Y-15507000D01*
X16423857Y-15449857D01*
X16409571Y-15378429D01*
X16395286Y-15335571D01*
X16381000Y-15307000D01*
X16352428Y-15264143D01*
X16338143Y-15249857D01*
X9471000Y-15798000D02*
X9581000Y-15908000D01*
X9581000Y-15798000D02*
X9471000Y-15908000D01*
X9526000Y-15798000D02*
X9526000Y-15908000D01*
X9471000Y-15853000D02*
X9581000Y-15853000D01*
X10009571Y-15988714D02*
X9838143Y-15988714D01*
X9923857Y-15988714D02*
X9923857Y-15688714D01*
X9895286Y-15731571D01*
X9866714Y-15760143D01*
X9838143Y-15774429D01*
X10138143Y-15960143D02*
X10152429Y-15974429D01*
X10138143Y-15988714D01*
X10123857Y-15974429D01*
X10138143Y-15960143D01*
X10138143Y-15988714D01*
X10438143Y-15988714D02*
X10266714Y-15988714D01*
X10352428Y-15988714D02*
X10352428Y-15688714D01*
X10323857Y-15731571D01*
X10295286Y-15760143D01*
X10266714Y-15774429D01*
X10623857Y-15688714D02*
X10652429Y-15688714D01*
X10681000Y-15703000D01*
X10695286Y-15717286D01*
X10709571Y-15745857D01*
X10723857Y-15803000D01*
X10723857Y-15874429D01*
X10709571Y-15931571D01*
X10695286Y-15960143D01*
X10681000Y-15974429D01*
X10652429Y-15988714D01*
X10623857Y-15988714D01*
X10595286Y-15974429D01*
X10581000Y-15960143D01*
X10566714Y-15931571D01*
X10552429Y-15874429D01*
X10552429Y-15803000D01*
X10566714Y-15745857D01*
X10581000Y-15717286D01*
X10595286Y-15703000D01*
X10623857Y-15688714D01*
X10852429Y-15988714D02*
X10852429Y-15788714D01*
X10852429Y-15817286D02*
X10866714Y-15803000D01*
X10895286Y-15788714D01*
X10938143Y-15788714D01*
X10966714Y-15803000D01*
X10981000Y-15831571D01*
X10981000Y-15988714D01*
X10981000Y-15831571D02*
X10995286Y-15803000D01*
X11023857Y-15788714D01*
X11066714Y-15788714D01*
X11095286Y-15803000D01*
X11109571Y-15831571D01*
X11109571Y-15988714D01*
X11252428Y-15988714D02*
X11252428Y-15788714D01*
X11252428Y-15817286D02*
X11266714Y-15803000D01*
X11295286Y-15788714D01*
X11338143Y-15788714D01*
X11366714Y-15803000D01*
X11381000Y-15831571D01*
X11381000Y-15988714D01*
X11381000Y-15831571D02*
X11395286Y-15803000D01*
X11423857Y-15788714D01*
X11466714Y-15788714D01*
X11495286Y-15803000D01*
X11509571Y-15831571D01*
X11509571Y-15988714D01*
X12095286Y-15674429D02*
X11838143Y-16060143D01*
X12481000Y-15688714D02*
X12509571Y-15688714D01*
X12538143Y-15703000D01*
X12552428Y-15717286D01*
X12566714Y-15745857D01*
X12581000Y-15803000D01*
X12581000Y-15874429D01*
X12566714Y-15931571D01*
X12552428Y-15960143D01*
X12538143Y-15974429D01*
X12509571Y-15988714D01*
X12481000Y-15988714D01*
X12452428Y-15974429D01*
X12438143Y-15960143D01*
X12423857Y-15931571D01*
X12409571Y-15874429D01*
X12409571Y-15803000D01*
X12423857Y-15745857D01*
X12438143Y-15717286D01*
X12452428Y-15703000D01*
X12481000Y-15688714D01*
X12709571Y-15960143D02*
X12723857Y-15974429D01*
X12709571Y-15988714D01*
X12695286Y-15974429D01*
X12709571Y-15960143D01*
X12709571Y-15988714D01*
X12909571Y-15688714D02*
X12938143Y-15688714D01*
X12966714Y-15703000D01*
X12981000Y-15717286D01*
X12995285Y-15745857D01*
X13009571Y-15803000D01*
X13009571Y-15874429D01*
X12995285Y-15931571D01*
X12981000Y-15960143D01*
X12966714Y-15974429D01*
X12938143Y-15988714D01*
X12909571Y-15988714D01*
X12881000Y-15974429D01*
X12866714Y-15960143D01*
X12852428Y-15931571D01*
X12838143Y-15874429D01*
X12838143Y-15803000D01*
X12852428Y-15745857D01*
X12866714Y-15717286D01*
X12881000Y-15703000D01*
X12909571Y-15688714D01*
X13266714Y-15788714D02*
X13266714Y-15988714D01*
X13195285Y-15674429D02*
X13123857Y-15888714D01*
X13309571Y-15888714D01*
X13395285Y-15688714D02*
X13581000Y-15688714D01*
X13481000Y-15803000D01*
X13523857Y-15803000D01*
X13552428Y-15817286D01*
X13566714Y-15831571D01*
X13581000Y-15860143D01*
X13581000Y-15931571D01*
X13566714Y-15960143D01*
X13552428Y-15974429D01*
X13523857Y-15988714D01*
X13438143Y-15988714D01*
X13409571Y-15974429D01*
X13395285Y-15960143D01*
X13695286Y-15688714D02*
X13695286Y-15745857D01*
X13809571Y-15688714D02*
X13809571Y-15745857D01*
X14252428Y-16103000D02*
X14238143Y-16088714D01*
X14209571Y-16045857D01*
X14195285Y-16017286D01*
X14181000Y-15974429D01*
X14166714Y-15903000D01*
X14166714Y-15845857D01*
X14181000Y-15774429D01*
X14195285Y-15731571D01*
X14209571Y-15703000D01*
X14238143Y-15660143D01*
X14252428Y-15645857D01*
X14495285Y-15788714D02*
X14495285Y-15988714D01*
X14423857Y-15674429D02*
X14352428Y-15888714D01*
X14538143Y-15888714D01*
X14881000Y-15988714D02*
X14881000Y-15688714D01*
X15009571Y-15988714D02*
X15009571Y-15831571D01*
X14995285Y-15803000D01*
X14966714Y-15788714D01*
X14923857Y-15788714D01*
X14895285Y-15803000D01*
X14881000Y-15817286D01*
X15195285Y-15988714D02*
X15166714Y-15974429D01*
X15152428Y-15960143D01*
X15138143Y-15931571D01*
X15138143Y-15845857D01*
X15152428Y-15817286D01*
X15166714Y-15803000D01*
X15195285Y-15788714D01*
X15238143Y-15788714D01*
X15266714Y-15803000D01*
X15281000Y-15817286D01*
X15295285Y-15845857D01*
X15295285Y-15931571D01*
X15281000Y-15960143D01*
X15266714Y-15974429D01*
X15238143Y-15988714D01*
X15195285Y-15988714D01*
X15466714Y-15988714D02*
X15438143Y-15974429D01*
X15423857Y-15945857D01*
X15423857Y-15688714D01*
X15695286Y-15974429D02*
X15666714Y-15988714D01*
X15609571Y-15988714D01*
X15581000Y-15974429D01*
X15566714Y-15945857D01*
X15566714Y-15831571D01*
X15581000Y-15803000D01*
X15609571Y-15788714D01*
X15666714Y-15788714D01*
X15695286Y-15803000D01*
X15709571Y-15831571D01*
X15709571Y-15860143D01*
X15566714Y-15888714D01*
X15823857Y-15974429D02*
X15852428Y-15988714D01*
X15909571Y-15988714D01*
X15938143Y-15974429D01*
X15952428Y-15945857D01*
X15952428Y-15931571D01*
X15938143Y-15903000D01*
X15909571Y-15888714D01*
X15866714Y-15888714D01*
X15838143Y-15874429D01*
X15823857Y-15845857D01*
X15823857Y-15831571D01*
X15838143Y-15803000D01*
X15866714Y-15788714D01*
X15909571Y-15788714D01*
X15938143Y-15803000D01*
X16052428Y-16103000D02*
X16066714Y-16088714D01*
X16095286Y-16045857D01*
X16109571Y-16017286D01*
X16123857Y-15974429D01*
X16138143Y-15903000D01*
X16138143Y-15845857D01*
X16123857Y-15774429D01*
X16109571Y-15731571D01*
X16095286Y-15703000D01*
X16066714Y-15660143D01*
X16052428Y-15645857D01*
X9450952Y-16183976D02*
X9581000Y-16314024D01*
X9581000Y-16183976D02*
X9450952Y-16314024D01*
X9561955Y-16294979D02*
X9561955Y-16203021D01*
X9469997Y-16203021D01*
X9469997Y-16294979D01*
X9561955Y-16294979D01*
X10009571Y-16384714D02*
X9838143Y-16384714D01*
X9923857Y-16384714D02*
X9923857Y-16084714D01*
X9895286Y-16127571D01*
X9866714Y-16156143D01*
X9838143Y-16170429D01*
X10138143Y-16356143D02*
X10152429Y-16370429D01*
X10138143Y-16384714D01*
X10123857Y-16370429D01*
X10138143Y-16356143D01*
X10138143Y-16384714D01*
X10252428Y-16084714D02*
X10438143Y-16084714D01*
X10338143Y-16199000D01*
X10381000Y-16199000D01*
X10409571Y-16213286D01*
X10423857Y-16227571D01*
X10438143Y-16256143D01*
X10438143Y-16327571D01*
X10423857Y-16356143D01*
X10409571Y-16370429D01*
X10381000Y-16384714D01*
X10295286Y-16384714D01*
X10266714Y-16370429D01*
X10252428Y-16356143D01*
X10623857Y-16084714D02*
X10652429Y-16084714D01*
X10681000Y-16099000D01*
X10695286Y-16113286D01*
X10709571Y-16141857D01*
X10723857Y-16199000D01*
X10723857Y-16270429D01*
X10709571Y-16327571D01*
X10695286Y-16356143D01*
X10681000Y-16370429D01*
X10652429Y-16384714D01*
X10623857Y-16384714D01*
X10595286Y-16370429D01*
X10581000Y-16356143D01*
X10566714Y-16327571D01*
X10552429Y-16270429D01*
X10552429Y-16199000D01*
X10566714Y-16141857D01*
X10581000Y-16113286D01*
X10595286Y-16099000D01*
X10623857Y-16084714D01*
X10852429Y-16384714D02*
X10852429Y-16184714D01*
X10852429Y-16213286D02*
X10866714Y-16199000D01*
X10895286Y-16184714D01*
X10938143Y-16184714D01*
X10966714Y-16199000D01*
X10981000Y-16227571D01*
X10981000Y-16384714D01*
X10981000Y-16227571D02*
X10995286Y-16199000D01*
X11023857Y-16184714D01*
X11066714Y-16184714D01*
X11095286Y-16199000D01*
X11109571Y-16227571D01*
X11109571Y-16384714D01*
X11252428Y-16384714D02*
X11252428Y-16184714D01*
X11252428Y-16213286D02*
X11266714Y-16199000D01*
X11295286Y-16184714D01*
X11338143Y-16184714D01*
X11366714Y-16199000D01*
X11381000Y-16227571D01*
X11381000Y-16384714D01*
X11381000Y-16227571D02*
X11395286Y-16199000D01*
X11423857Y-16184714D01*
X11466714Y-16184714D01*
X11495286Y-16199000D01*
X11509571Y-16227571D01*
X11509571Y-16384714D01*
X12095286Y-16070429D02*
X11838143Y-16456143D01*
X12481000Y-16084714D02*
X12509571Y-16084714D01*
X12538143Y-16099000D01*
X12552428Y-16113286D01*
X12566714Y-16141857D01*
X12581000Y-16199000D01*
X12581000Y-16270429D01*
X12566714Y-16327571D01*
X12552428Y-16356143D01*
X12538143Y-16370429D01*
X12509571Y-16384714D01*
X12481000Y-16384714D01*
X12452428Y-16370429D01*
X12438143Y-16356143D01*
X12423857Y-16327571D01*
X12409571Y-16270429D01*
X12409571Y-16199000D01*
X12423857Y-16141857D01*
X12438143Y-16113286D01*
X12452428Y-16099000D01*
X12481000Y-16084714D01*
X12709571Y-16356143D02*
X12723857Y-16370429D01*
X12709571Y-16384714D01*
X12695286Y-16370429D01*
X12709571Y-16356143D01*
X12709571Y-16384714D01*
X12909571Y-16084714D02*
X12938143Y-16084714D01*
X12966714Y-16099000D01*
X12981000Y-16113286D01*
X12995285Y-16141857D01*
X13009571Y-16199000D01*
X13009571Y-16270429D01*
X12995285Y-16327571D01*
X12981000Y-16356143D01*
X12966714Y-16370429D01*
X12938143Y-16384714D01*
X12909571Y-16384714D01*
X12881000Y-16370429D01*
X12866714Y-16356143D01*
X12852428Y-16327571D01*
X12838143Y-16270429D01*
X12838143Y-16199000D01*
X12852428Y-16141857D01*
X12866714Y-16113286D01*
X12881000Y-16099000D01*
X12909571Y-16084714D01*
X13281000Y-16084714D02*
X13138143Y-16084714D01*
X13123857Y-16227571D01*
X13138143Y-16213286D01*
X13166714Y-16199000D01*
X13238143Y-16199000D01*
X13266714Y-16213286D01*
X13281000Y-16227571D01*
X13295285Y-16256143D01*
X13295285Y-16327571D01*
X13281000Y-16356143D01*
X13266714Y-16370429D01*
X13238143Y-16384714D01*
X13166714Y-16384714D01*
X13138143Y-16370429D01*
X13123857Y-16356143D01*
X13581000Y-16384714D02*
X13409571Y-16384714D01*
X13495285Y-16384714D02*
X13495285Y-16084714D01*
X13466714Y-16127571D01*
X13438143Y-16156143D01*
X13409571Y-16170429D01*
X13695286Y-16084714D02*
X13695286Y-16141857D01*
X13809571Y-16084714D02*
X13809571Y-16141857D01*
X14252428Y-16499000D02*
X14238143Y-16484714D01*
X14209571Y-16441857D01*
X14195285Y-16413286D01*
X14181000Y-16370429D01*
X14166714Y-16299000D01*
X14166714Y-16241857D01*
X14181000Y-16170429D01*
X14195285Y-16127571D01*
X14209571Y-16099000D01*
X14238143Y-16056143D01*
X14252428Y-16041857D01*
X14495285Y-16184714D02*
X14495285Y-16384714D01*
X14423857Y-16070429D02*
X14352428Y-16284714D01*
X14538143Y-16284714D01*
X14881000Y-16384714D02*
X14881000Y-16084714D01*
X15009571Y-16384714D02*
X15009571Y-16227571D01*
X14995285Y-16199000D01*
X14966714Y-16184714D01*
X14923857Y-16184714D01*
X14895285Y-16199000D01*
X14881000Y-16213286D01*
X15195285Y-16384714D02*
X15166714Y-16370429D01*
X15152428Y-16356143D01*
X15138143Y-16327571D01*
X15138143Y-16241857D01*
X15152428Y-16213286D01*
X15166714Y-16199000D01*
X15195285Y-16184714D01*
X15238143Y-16184714D01*
X15266714Y-16199000D01*
X15281000Y-16213286D01*
X15295285Y-16241857D01*
X15295285Y-16327571D01*
X15281000Y-16356143D01*
X15266714Y-16370429D01*
X15238143Y-16384714D01*
X15195285Y-16384714D01*
X15466714Y-16384714D02*
X15438143Y-16370429D01*
X15423857Y-16341857D01*
X15423857Y-16084714D01*
X15695286Y-16370429D02*
X15666714Y-16384714D01*
X15609571Y-16384714D01*
X15581000Y-16370429D01*
X15566714Y-16341857D01*
X15566714Y-16227571D01*
X15581000Y-16199000D01*
X15609571Y-16184714D01*
X15666714Y-16184714D01*
X15695286Y-16199000D01*
X15709571Y-16227571D01*
X15709571Y-16256143D01*
X15566714Y-16284714D01*
X15823857Y-16370429D02*
X15852428Y-16384714D01*
X15909571Y-16384714D01*
X15938143Y-16370429D01*
X15952428Y-16341857D01*
X15952428Y-16327571D01*
X15938143Y-16299000D01*
X15909571Y-16284714D01*
X15866714Y-16284714D01*
X15838143Y-16270429D01*
X15823857Y-16241857D01*
X15823857Y-16227571D01*
X15838143Y-16199000D01*
X15866714Y-16184714D01*
X15909571Y-16184714D01*
X15938143Y-16199000D01*
X16052428Y-16499000D02*
X16066714Y-16484714D01*
X16095286Y-16441857D01*
X16109571Y-16413286D01*
X16123857Y-16370429D01*
X16138143Y-16299000D01*
X16138143Y-16241857D01*
X16123857Y-16170429D01*
X16109571Y-16127571D01*
X16095286Y-16099000D01*
X16066714Y-16056143D01*
X16052428Y-16041857D01*
M02*
