%FSLAX45Y45*%
G04 Gerber Fmt 4.5, Leading zero omitted, Abs format (unit mm)*
G04 Created by KiCad (PCBNEW 4.0.7) date 06/06/19 18:33:32*
%MOMM*%
%LPD*%
G01*
G04 APERTURE LIST*
%ADD10C,0.127000*%
%ADD11C,0.150000*%
%ADD12C,0.200000*%
%ADD13C,0.300000*%
G04 APERTURE END LIST*
D10*
D11*
X18821400Y-12509500D02*
X18821400Y-5854700D01*
X9588500Y-12509500D02*
X18821400Y-12509500D01*
X9588500Y-5854700D02*
X9588500Y-12509500D01*
X18821400Y-5854700D02*
X9588500Y-5854700D01*
D12*
X17581800Y-8661460D02*
X17906800Y-8986460D01*
X17906800Y-8661460D02*
X17581800Y-8986460D01*
X17581800Y-9423460D02*
X17906800Y-9748460D01*
X17906800Y-9423460D02*
X17581800Y-9748460D01*
X17581800Y-10693500D02*
X17906800Y-11018500D01*
X17906800Y-10693500D02*
X17581800Y-11018500D01*
X17581800Y-11455500D02*
X17906800Y-11780500D01*
X17906800Y-11455500D02*
X17581800Y-11780500D01*
X17871500Y-6619300D02*
X18196500Y-6944300D01*
X18196500Y-6619300D02*
X17871500Y-6944300D01*
X17871500Y-7635300D02*
X18196500Y-7960300D01*
X18196500Y-7635300D02*
X17871500Y-7960300D01*
X10315006Y-12030000D02*
G75*
G03X10315006Y-12030000I-175006J0D01*
G01*
X17675006Y-12190000D02*
G75*
G03X17675006Y-12190000I-175006J0D01*
G01*
D13*
X9852429Y-12982714D02*
X9852429Y-12682714D01*
X9923857Y-12682714D01*
X9966714Y-12697000D01*
X9995286Y-12725571D01*
X10009571Y-12754143D01*
X10023857Y-12811286D01*
X10023857Y-12854143D01*
X10009571Y-12911286D01*
X9995286Y-12939857D01*
X9966714Y-12968429D01*
X9923857Y-12982714D01*
X9852429Y-12982714D01*
X10152429Y-12982714D02*
X10152429Y-12782714D01*
X10152429Y-12839857D02*
X10166714Y-12811286D01*
X10181000Y-12797000D01*
X10209571Y-12782714D01*
X10238143Y-12782714D01*
X10338143Y-12982714D02*
X10338143Y-12782714D01*
X10338143Y-12682714D02*
X10323857Y-12697000D01*
X10338143Y-12711286D01*
X10352429Y-12697000D01*
X10338143Y-12682714D01*
X10338143Y-12711286D01*
X10523857Y-12982714D02*
X10495286Y-12968429D01*
X10481000Y-12939857D01*
X10481000Y-12682714D01*
X10681000Y-12982714D02*
X10652429Y-12968429D01*
X10638143Y-12939857D01*
X10638143Y-12682714D01*
X11023857Y-12982714D02*
X11023857Y-12682714D01*
X11123857Y-12897000D01*
X11223857Y-12682714D01*
X11223857Y-12982714D01*
X11495286Y-12982714D02*
X11495286Y-12825571D01*
X11481000Y-12797000D01*
X11452428Y-12782714D01*
X11395286Y-12782714D01*
X11366714Y-12797000D01*
X11495286Y-12968429D02*
X11466714Y-12982714D01*
X11395286Y-12982714D01*
X11366714Y-12968429D01*
X11352428Y-12939857D01*
X11352428Y-12911286D01*
X11366714Y-12882714D01*
X11395286Y-12868429D01*
X11466714Y-12868429D01*
X11495286Y-12854143D01*
X11638143Y-12782714D02*
X11638143Y-13082714D01*
X11638143Y-12797000D02*
X11666714Y-12782714D01*
X11723857Y-12782714D01*
X11752428Y-12797000D01*
X11766714Y-12811286D01*
X11781000Y-12839857D01*
X11781000Y-12925571D01*
X11766714Y-12954143D01*
X11752428Y-12968429D01*
X11723857Y-12982714D01*
X11666714Y-12982714D01*
X11638143Y-12968429D01*
X11909571Y-12954143D02*
X11923857Y-12968429D01*
X11909571Y-12982714D01*
X11895286Y-12968429D01*
X11909571Y-12954143D01*
X11909571Y-12982714D01*
X11909571Y-12797000D02*
X11923857Y-12811286D01*
X11909571Y-12825571D01*
X11895286Y-12811286D01*
X11909571Y-12797000D01*
X11909571Y-12825571D01*
X9256000Y-13314500D02*
X9581000Y-13639500D01*
X9581000Y-13314500D02*
X9256000Y-13639500D01*
X9823857Y-13312714D02*
X10009571Y-13312714D01*
X9909571Y-13427000D01*
X9952429Y-13427000D01*
X9981000Y-13441286D01*
X9995286Y-13455571D01*
X10009571Y-13484143D01*
X10009571Y-13555571D01*
X9995286Y-13584143D01*
X9981000Y-13598429D01*
X9952429Y-13612714D01*
X9866714Y-13612714D01*
X9838143Y-13598429D01*
X9823857Y-13584143D01*
X10138143Y-13584143D02*
X10152429Y-13598429D01*
X10138143Y-13612714D01*
X10123857Y-13598429D01*
X10138143Y-13584143D01*
X10138143Y-13612714D01*
X10266714Y-13341286D02*
X10281000Y-13327000D01*
X10309571Y-13312714D01*
X10381000Y-13312714D01*
X10409571Y-13327000D01*
X10423857Y-13341286D01*
X10438143Y-13369857D01*
X10438143Y-13398429D01*
X10423857Y-13441286D01*
X10252428Y-13612714D01*
X10438143Y-13612714D01*
X10709571Y-13312714D02*
X10566714Y-13312714D01*
X10552429Y-13455571D01*
X10566714Y-13441286D01*
X10595286Y-13427000D01*
X10666714Y-13427000D01*
X10695286Y-13441286D01*
X10709571Y-13455571D01*
X10723857Y-13484143D01*
X10723857Y-13555571D01*
X10709571Y-13584143D01*
X10695286Y-13598429D01*
X10666714Y-13612714D01*
X10595286Y-13612714D01*
X10566714Y-13598429D01*
X10552429Y-13584143D01*
X10852429Y-13612714D02*
X10852429Y-13412714D01*
X10852429Y-13441286D02*
X10866714Y-13427000D01*
X10895286Y-13412714D01*
X10938143Y-13412714D01*
X10966714Y-13427000D01*
X10981000Y-13455571D01*
X10981000Y-13612714D01*
X10981000Y-13455571D02*
X10995286Y-13427000D01*
X11023857Y-13412714D01*
X11066714Y-13412714D01*
X11095286Y-13427000D01*
X11109571Y-13455571D01*
X11109571Y-13612714D01*
X11252428Y-13612714D02*
X11252428Y-13412714D01*
X11252428Y-13441286D02*
X11266714Y-13427000D01*
X11295286Y-13412714D01*
X11338143Y-13412714D01*
X11366714Y-13427000D01*
X11381000Y-13455571D01*
X11381000Y-13612714D01*
X11381000Y-13455571D02*
X11395286Y-13427000D01*
X11423857Y-13412714D01*
X11466714Y-13412714D01*
X11495286Y-13427000D01*
X11509571Y-13455571D01*
X11509571Y-13612714D01*
X12095286Y-13298429D02*
X11838143Y-13684143D01*
X12481000Y-13312714D02*
X12509571Y-13312714D01*
X12538143Y-13327000D01*
X12552428Y-13341286D01*
X12566714Y-13369857D01*
X12581000Y-13427000D01*
X12581000Y-13498429D01*
X12566714Y-13555571D01*
X12552428Y-13584143D01*
X12538143Y-13598429D01*
X12509571Y-13612714D01*
X12481000Y-13612714D01*
X12452428Y-13598429D01*
X12438143Y-13584143D01*
X12423857Y-13555571D01*
X12409571Y-13498429D01*
X12409571Y-13427000D01*
X12423857Y-13369857D01*
X12438143Y-13341286D01*
X12452428Y-13327000D01*
X12481000Y-13312714D01*
X12709571Y-13584143D02*
X12723857Y-13598429D01*
X12709571Y-13612714D01*
X12695286Y-13598429D01*
X12709571Y-13584143D01*
X12709571Y-13612714D01*
X13009571Y-13612714D02*
X12838143Y-13612714D01*
X12923857Y-13612714D02*
X12923857Y-13312714D01*
X12895285Y-13355571D01*
X12866714Y-13384143D01*
X12838143Y-13398429D01*
X13123857Y-13341286D02*
X13138143Y-13327000D01*
X13166714Y-13312714D01*
X13238143Y-13312714D01*
X13266714Y-13327000D01*
X13281000Y-13341286D01*
X13295285Y-13369857D01*
X13295285Y-13398429D01*
X13281000Y-13441286D01*
X13109571Y-13612714D01*
X13295285Y-13612714D01*
X13466714Y-13441286D02*
X13438143Y-13427000D01*
X13423857Y-13412714D01*
X13409571Y-13384143D01*
X13409571Y-13369857D01*
X13423857Y-13341286D01*
X13438143Y-13327000D01*
X13466714Y-13312714D01*
X13523857Y-13312714D01*
X13552428Y-13327000D01*
X13566714Y-13341286D01*
X13581000Y-13369857D01*
X13581000Y-13384143D01*
X13566714Y-13412714D01*
X13552428Y-13427000D01*
X13523857Y-13441286D01*
X13466714Y-13441286D01*
X13438143Y-13455571D01*
X13423857Y-13469857D01*
X13409571Y-13498429D01*
X13409571Y-13555571D01*
X13423857Y-13584143D01*
X13438143Y-13598429D01*
X13466714Y-13612714D01*
X13523857Y-13612714D01*
X13552428Y-13598429D01*
X13566714Y-13584143D01*
X13581000Y-13555571D01*
X13581000Y-13498429D01*
X13566714Y-13469857D01*
X13552428Y-13455571D01*
X13523857Y-13441286D01*
X13695286Y-13312714D02*
X13695286Y-13369857D01*
X13809571Y-13312714D02*
X13809571Y-13369857D01*
X14252428Y-13727000D02*
X14238143Y-13712714D01*
X14209571Y-13669857D01*
X14195285Y-13641286D01*
X14181000Y-13598429D01*
X14166714Y-13527000D01*
X14166714Y-13469857D01*
X14181000Y-13398429D01*
X14195285Y-13355571D01*
X14209571Y-13327000D01*
X14238143Y-13284143D01*
X14252428Y-13269857D01*
X14495285Y-13312714D02*
X14438143Y-13312714D01*
X14409571Y-13327000D01*
X14395285Y-13341286D01*
X14366714Y-13384143D01*
X14352428Y-13441286D01*
X14352428Y-13555571D01*
X14366714Y-13584143D01*
X14381000Y-13598429D01*
X14409571Y-13612714D01*
X14466714Y-13612714D01*
X14495285Y-13598429D01*
X14509571Y-13584143D01*
X14523857Y-13555571D01*
X14523857Y-13484143D01*
X14509571Y-13455571D01*
X14495285Y-13441286D01*
X14466714Y-13427000D01*
X14409571Y-13427000D01*
X14381000Y-13441286D01*
X14366714Y-13455571D01*
X14352428Y-13484143D01*
X14881000Y-13612714D02*
X14881000Y-13312714D01*
X15009571Y-13612714D02*
X15009571Y-13455571D01*
X14995285Y-13427000D01*
X14966714Y-13412714D01*
X14923857Y-13412714D01*
X14895285Y-13427000D01*
X14881000Y-13441286D01*
X15195285Y-13612714D02*
X15166714Y-13598429D01*
X15152428Y-13584143D01*
X15138143Y-13555571D01*
X15138143Y-13469857D01*
X15152428Y-13441286D01*
X15166714Y-13427000D01*
X15195285Y-13412714D01*
X15238143Y-13412714D01*
X15266714Y-13427000D01*
X15281000Y-13441286D01*
X15295285Y-13469857D01*
X15295285Y-13555571D01*
X15281000Y-13584143D01*
X15266714Y-13598429D01*
X15238143Y-13612714D01*
X15195285Y-13612714D01*
X15466714Y-13612714D02*
X15438143Y-13598429D01*
X15423857Y-13569857D01*
X15423857Y-13312714D01*
X15695286Y-13598429D02*
X15666714Y-13612714D01*
X15609571Y-13612714D01*
X15581000Y-13598429D01*
X15566714Y-13569857D01*
X15566714Y-13455571D01*
X15581000Y-13427000D01*
X15609571Y-13412714D01*
X15666714Y-13412714D01*
X15695286Y-13427000D01*
X15709571Y-13455571D01*
X15709571Y-13484143D01*
X15566714Y-13512714D01*
X15823857Y-13598429D02*
X15852428Y-13612714D01*
X15909571Y-13612714D01*
X15938143Y-13598429D01*
X15952428Y-13569857D01*
X15952428Y-13555571D01*
X15938143Y-13527000D01*
X15909571Y-13512714D01*
X15866714Y-13512714D01*
X15838143Y-13498429D01*
X15823857Y-13469857D01*
X15823857Y-13455571D01*
X15838143Y-13427000D01*
X15866714Y-13412714D01*
X15909571Y-13412714D01*
X15938143Y-13427000D01*
X16052428Y-13727000D02*
X16066714Y-13712714D01*
X16095286Y-13669857D01*
X16109571Y-13641286D01*
X16123857Y-13598429D01*
X16138143Y-13527000D01*
X16138143Y-13469857D01*
X16123857Y-13398429D01*
X16109571Y-13355571D01*
X16095286Y-13327000D01*
X16066714Y-13284143D01*
X16052428Y-13269857D01*
X16595286Y-13727000D02*
X16581000Y-13712714D01*
X16552428Y-13669857D01*
X16538143Y-13641286D01*
X16523857Y-13598429D01*
X16509571Y-13527000D01*
X16509571Y-13469857D01*
X16523857Y-13398429D01*
X16538143Y-13355571D01*
X16552428Y-13327000D01*
X16581000Y-13284143D01*
X16595286Y-13269857D01*
X16709571Y-13412714D02*
X16709571Y-13612714D01*
X16709571Y-13441286D02*
X16723857Y-13427000D01*
X16752428Y-13412714D01*
X16795286Y-13412714D01*
X16823857Y-13427000D01*
X16838143Y-13455571D01*
X16838143Y-13612714D01*
X17023857Y-13612714D02*
X16995286Y-13598429D01*
X16981000Y-13584143D01*
X16966714Y-13555571D01*
X16966714Y-13469857D01*
X16981000Y-13441286D01*
X16995286Y-13427000D01*
X17023857Y-13412714D01*
X17066714Y-13412714D01*
X17095286Y-13427000D01*
X17109571Y-13441286D01*
X17123857Y-13469857D01*
X17123857Y-13555571D01*
X17109571Y-13584143D01*
X17095286Y-13598429D01*
X17066714Y-13612714D01*
X17023857Y-13612714D01*
X17209571Y-13412714D02*
X17323857Y-13412714D01*
X17252429Y-13312714D02*
X17252429Y-13569857D01*
X17266714Y-13598429D01*
X17295286Y-13612714D01*
X17323857Y-13612714D01*
X17652429Y-13412714D02*
X17652429Y-13712714D01*
X17652429Y-13427000D02*
X17681000Y-13412714D01*
X17738143Y-13412714D01*
X17766714Y-13427000D01*
X17781000Y-13441286D01*
X17795286Y-13469857D01*
X17795286Y-13555571D01*
X17781000Y-13584143D01*
X17766714Y-13598429D01*
X17738143Y-13612714D01*
X17681000Y-13612714D01*
X17652429Y-13598429D01*
X17966714Y-13612714D02*
X17938143Y-13598429D01*
X17923857Y-13569857D01*
X17923857Y-13312714D01*
X18209571Y-13612714D02*
X18209571Y-13455571D01*
X18195286Y-13427000D01*
X18166714Y-13412714D01*
X18109571Y-13412714D01*
X18081000Y-13427000D01*
X18209571Y-13598429D02*
X18181000Y-13612714D01*
X18109571Y-13612714D01*
X18081000Y-13598429D01*
X18066714Y-13569857D01*
X18066714Y-13541286D01*
X18081000Y-13512714D01*
X18109571Y-13498429D01*
X18181000Y-13498429D01*
X18209571Y-13484143D01*
X18309571Y-13412714D02*
X18423857Y-13412714D01*
X18352429Y-13312714D02*
X18352429Y-13569857D01*
X18366714Y-13598429D01*
X18395286Y-13612714D01*
X18423857Y-13612714D01*
X18638143Y-13598429D02*
X18609572Y-13612714D01*
X18552429Y-13612714D01*
X18523857Y-13598429D01*
X18509572Y-13569857D01*
X18509572Y-13455571D01*
X18523857Y-13427000D01*
X18552429Y-13412714D01*
X18609572Y-13412714D01*
X18638143Y-13427000D01*
X18652429Y-13455571D01*
X18652429Y-13484143D01*
X18509572Y-13512714D01*
X18909572Y-13612714D02*
X18909572Y-13312714D01*
X18909572Y-13598429D02*
X18881000Y-13612714D01*
X18823857Y-13612714D01*
X18795286Y-13598429D01*
X18781000Y-13584143D01*
X18766714Y-13555571D01*
X18766714Y-13469857D01*
X18781000Y-13441286D01*
X18795286Y-13427000D01*
X18823857Y-13412714D01*
X18881000Y-13412714D01*
X18909572Y-13427000D01*
X19023857Y-13727000D02*
X19038143Y-13712714D01*
X19066714Y-13669857D01*
X19081000Y-13641286D01*
X19095286Y-13598429D01*
X19109572Y-13527000D01*
X19109572Y-13469857D01*
X19095286Y-13398429D01*
X19081000Y-13355571D01*
X19066714Y-13327000D01*
X19038143Y-13284143D01*
X19023857Y-13269857D01*
X9581000Y-13932000D02*
G75*
G03X9581000Y-13932000I-175006J0D01*
G01*
X9823857Y-13767714D02*
X10009571Y-13767714D01*
X9909571Y-13882000D01*
X9952429Y-13882000D01*
X9981000Y-13896286D01*
X9995286Y-13910571D01*
X10009571Y-13939143D01*
X10009571Y-14010571D01*
X9995286Y-14039143D01*
X9981000Y-14053429D01*
X9952429Y-14067714D01*
X9866714Y-14067714D01*
X9838143Y-14053429D01*
X9823857Y-14039143D01*
X10138143Y-14039143D02*
X10152429Y-14053429D01*
X10138143Y-14067714D01*
X10123857Y-14053429D01*
X10138143Y-14039143D01*
X10138143Y-14067714D01*
X10423857Y-13767714D02*
X10281000Y-13767714D01*
X10266714Y-13910571D01*
X10281000Y-13896286D01*
X10309571Y-13882000D01*
X10381000Y-13882000D01*
X10409571Y-13896286D01*
X10423857Y-13910571D01*
X10438143Y-13939143D01*
X10438143Y-14010571D01*
X10423857Y-14039143D01*
X10409571Y-14053429D01*
X10381000Y-14067714D01*
X10309571Y-14067714D01*
X10281000Y-14053429D01*
X10266714Y-14039143D01*
X10623857Y-13767714D02*
X10652429Y-13767714D01*
X10681000Y-13782000D01*
X10695286Y-13796286D01*
X10709571Y-13824857D01*
X10723857Y-13882000D01*
X10723857Y-13953429D01*
X10709571Y-14010571D01*
X10695286Y-14039143D01*
X10681000Y-14053429D01*
X10652429Y-14067714D01*
X10623857Y-14067714D01*
X10595286Y-14053429D01*
X10581000Y-14039143D01*
X10566714Y-14010571D01*
X10552429Y-13953429D01*
X10552429Y-13882000D01*
X10566714Y-13824857D01*
X10581000Y-13796286D01*
X10595286Y-13782000D01*
X10623857Y-13767714D01*
X10852429Y-14067714D02*
X10852429Y-13867714D01*
X10852429Y-13896286D02*
X10866714Y-13882000D01*
X10895286Y-13867714D01*
X10938143Y-13867714D01*
X10966714Y-13882000D01*
X10981000Y-13910571D01*
X10981000Y-14067714D01*
X10981000Y-13910571D02*
X10995286Y-13882000D01*
X11023857Y-13867714D01*
X11066714Y-13867714D01*
X11095286Y-13882000D01*
X11109571Y-13910571D01*
X11109571Y-14067714D01*
X11252428Y-14067714D02*
X11252428Y-13867714D01*
X11252428Y-13896286D02*
X11266714Y-13882000D01*
X11295286Y-13867714D01*
X11338143Y-13867714D01*
X11366714Y-13882000D01*
X11381000Y-13910571D01*
X11381000Y-14067714D01*
X11381000Y-13910571D02*
X11395286Y-13882000D01*
X11423857Y-13867714D01*
X11466714Y-13867714D01*
X11495286Y-13882000D01*
X11509571Y-13910571D01*
X11509571Y-14067714D01*
X12095286Y-13753429D02*
X11838143Y-14139143D01*
X12481000Y-13767714D02*
X12509571Y-13767714D01*
X12538143Y-13782000D01*
X12552428Y-13796286D01*
X12566714Y-13824857D01*
X12581000Y-13882000D01*
X12581000Y-13953429D01*
X12566714Y-14010571D01*
X12552428Y-14039143D01*
X12538143Y-14053429D01*
X12509571Y-14067714D01*
X12481000Y-14067714D01*
X12452428Y-14053429D01*
X12438143Y-14039143D01*
X12423857Y-14010571D01*
X12409571Y-13953429D01*
X12409571Y-13882000D01*
X12423857Y-13824857D01*
X12438143Y-13796286D01*
X12452428Y-13782000D01*
X12481000Y-13767714D01*
X12709571Y-14039143D02*
X12723857Y-14053429D01*
X12709571Y-14067714D01*
X12695286Y-14053429D01*
X12709571Y-14039143D01*
X12709571Y-14067714D01*
X13009571Y-14067714D02*
X12838143Y-14067714D01*
X12923857Y-14067714D02*
X12923857Y-13767714D01*
X12895285Y-13810571D01*
X12866714Y-13839143D01*
X12838143Y-13853429D01*
X13109571Y-13767714D02*
X13295285Y-13767714D01*
X13195285Y-13882000D01*
X13238143Y-13882000D01*
X13266714Y-13896286D01*
X13281000Y-13910571D01*
X13295285Y-13939143D01*
X13295285Y-14010571D01*
X13281000Y-14039143D01*
X13266714Y-14053429D01*
X13238143Y-14067714D01*
X13152428Y-14067714D01*
X13123857Y-14053429D01*
X13109571Y-14039143D01*
X13466714Y-13896286D02*
X13438143Y-13882000D01*
X13423857Y-13867714D01*
X13409571Y-13839143D01*
X13409571Y-13824857D01*
X13423857Y-13796286D01*
X13438143Y-13782000D01*
X13466714Y-13767714D01*
X13523857Y-13767714D01*
X13552428Y-13782000D01*
X13566714Y-13796286D01*
X13581000Y-13824857D01*
X13581000Y-13839143D01*
X13566714Y-13867714D01*
X13552428Y-13882000D01*
X13523857Y-13896286D01*
X13466714Y-13896286D01*
X13438143Y-13910571D01*
X13423857Y-13924857D01*
X13409571Y-13953429D01*
X13409571Y-14010571D01*
X13423857Y-14039143D01*
X13438143Y-14053429D01*
X13466714Y-14067714D01*
X13523857Y-14067714D01*
X13552428Y-14053429D01*
X13566714Y-14039143D01*
X13581000Y-14010571D01*
X13581000Y-13953429D01*
X13566714Y-13924857D01*
X13552428Y-13910571D01*
X13523857Y-13896286D01*
X13695286Y-13767714D02*
X13695286Y-13824857D01*
X13809571Y-13767714D02*
X13809571Y-13824857D01*
X14252428Y-14182000D02*
X14238143Y-14167714D01*
X14209571Y-14124857D01*
X14195285Y-14096286D01*
X14181000Y-14053429D01*
X14166714Y-13982000D01*
X14166714Y-13924857D01*
X14181000Y-13853429D01*
X14195285Y-13810571D01*
X14209571Y-13782000D01*
X14238143Y-13739143D01*
X14252428Y-13724857D01*
X14352428Y-13796286D02*
X14366714Y-13782000D01*
X14395285Y-13767714D01*
X14466714Y-13767714D01*
X14495285Y-13782000D01*
X14509571Y-13796286D01*
X14523857Y-13824857D01*
X14523857Y-13853429D01*
X14509571Y-13896286D01*
X14338143Y-14067714D01*
X14523857Y-14067714D01*
X14881000Y-14067714D02*
X14881000Y-13767714D01*
X15009571Y-14067714D02*
X15009571Y-13910571D01*
X14995285Y-13882000D01*
X14966714Y-13867714D01*
X14923857Y-13867714D01*
X14895285Y-13882000D01*
X14881000Y-13896286D01*
X15195285Y-14067714D02*
X15166714Y-14053429D01*
X15152428Y-14039143D01*
X15138143Y-14010571D01*
X15138143Y-13924857D01*
X15152428Y-13896286D01*
X15166714Y-13882000D01*
X15195285Y-13867714D01*
X15238143Y-13867714D01*
X15266714Y-13882000D01*
X15281000Y-13896286D01*
X15295285Y-13924857D01*
X15295285Y-14010571D01*
X15281000Y-14039143D01*
X15266714Y-14053429D01*
X15238143Y-14067714D01*
X15195285Y-14067714D01*
X15466714Y-14067714D02*
X15438143Y-14053429D01*
X15423857Y-14024857D01*
X15423857Y-13767714D01*
X15695286Y-14053429D02*
X15666714Y-14067714D01*
X15609571Y-14067714D01*
X15581000Y-14053429D01*
X15566714Y-14024857D01*
X15566714Y-13910571D01*
X15581000Y-13882000D01*
X15609571Y-13867714D01*
X15666714Y-13867714D01*
X15695286Y-13882000D01*
X15709571Y-13910571D01*
X15709571Y-13939143D01*
X15566714Y-13967714D01*
X15823857Y-14053429D02*
X15852428Y-14067714D01*
X15909571Y-14067714D01*
X15938143Y-14053429D01*
X15952428Y-14024857D01*
X15952428Y-14010571D01*
X15938143Y-13982000D01*
X15909571Y-13967714D01*
X15866714Y-13967714D01*
X15838143Y-13953429D01*
X15823857Y-13924857D01*
X15823857Y-13910571D01*
X15838143Y-13882000D01*
X15866714Y-13867714D01*
X15909571Y-13867714D01*
X15938143Y-13882000D01*
X16052428Y-14182000D02*
X16066714Y-14167714D01*
X16095286Y-14124857D01*
X16109571Y-14096286D01*
X16123857Y-14053429D01*
X16138143Y-13982000D01*
X16138143Y-13924857D01*
X16123857Y-13853429D01*
X16109571Y-13810571D01*
X16095286Y-13782000D01*
X16066714Y-13739143D01*
X16052428Y-13724857D01*
X16595286Y-14182000D02*
X16581000Y-14167714D01*
X16552428Y-14124857D01*
X16538143Y-14096286D01*
X16523857Y-14053429D01*
X16509571Y-13982000D01*
X16509571Y-13924857D01*
X16523857Y-13853429D01*
X16538143Y-13810571D01*
X16552428Y-13782000D01*
X16581000Y-13739143D01*
X16595286Y-13724857D01*
X16709571Y-13867714D02*
X16709571Y-14067714D01*
X16709571Y-13896286D02*
X16723857Y-13882000D01*
X16752428Y-13867714D01*
X16795286Y-13867714D01*
X16823857Y-13882000D01*
X16838143Y-13910571D01*
X16838143Y-14067714D01*
X17023857Y-14067714D02*
X16995286Y-14053429D01*
X16981000Y-14039143D01*
X16966714Y-14010571D01*
X16966714Y-13924857D01*
X16981000Y-13896286D01*
X16995286Y-13882000D01*
X17023857Y-13867714D01*
X17066714Y-13867714D01*
X17095286Y-13882000D01*
X17109571Y-13896286D01*
X17123857Y-13924857D01*
X17123857Y-14010571D01*
X17109571Y-14039143D01*
X17095286Y-14053429D01*
X17066714Y-14067714D01*
X17023857Y-14067714D01*
X17209571Y-13867714D02*
X17323857Y-13867714D01*
X17252429Y-13767714D02*
X17252429Y-14024857D01*
X17266714Y-14053429D01*
X17295286Y-14067714D01*
X17323857Y-14067714D01*
X17652429Y-13867714D02*
X17652429Y-14167714D01*
X17652429Y-13882000D02*
X17681000Y-13867714D01*
X17738143Y-13867714D01*
X17766714Y-13882000D01*
X17781000Y-13896286D01*
X17795286Y-13924857D01*
X17795286Y-14010571D01*
X17781000Y-14039143D01*
X17766714Y-14053429D01*
X17738143Y-14067714D01*
X17681000Y-14067714D01*
X17652429Y-14053429D01*
X17966714Y-14067714D02*
X17938143Y-14053429D01*
X17923857Y-14024857D01*
X17923857Y-13767714D01*
X18209571Y-14067714D02*
X18209571Y-13910571D01*
X18195286Y-13882000D01*
X18166714Y-13867714D01*
X18109571Y-13867714D01*
X18081000Y-13882000D01*
X18209571Y-14053429D02*
X18181000Y-14067714D01*
X18109571Y-14067714D01*
X18081000Y-14053429D01*
X18066714Y-14024857D01*
X18066714Y-13996286D01*
X18081000Y-13967714D01*
X18109571Y-13953429D01*
X18181000Y-13953429D01*
X18209571Y-13939143D01*
X18309571Y-13867714D02*
X18423857Y-13867714D01*
X18352429Y-13767714D02*
X18352429Y-14024857D01*
X18366714Y-14053429D01*
X18395286Y-14067714D01*
X18423857Y-14067714D01*
X18638143Y-14053429D02*
X18609572Y-14067714D01*
X18552429Y-14067714D01*
X18523857Y-14053429D01*
X18509572Y-14024857D01*
X18509572Y-13910571D01*
X18523857Y-13882000D01*
X18552429Y-13867714D01*
X18609572Y-13867714D01*
X18638143Y-13882000D01*
X18652429Y-13910571D01*
X18652429Y-13939143D01*
X18509572Y-13967714D01*
X18909572Y-14067714D02*
X18909572Y-13767714D01*
X18909572Y-14053429D02*
X18881000Y-14067714D01*
X18823857Y-14067714D01*
X18795286Y-14053429D01*
X18781000Y-14039143D01*
X18766714Y-14010571D01*
X18766714Y-13924857D01*
X18781000Y-13896286D01*
X18795286Y-13882000D01*
X18823857Y-13867714D01*
X18881000Y-13867714D01*
X18909572Y-13882000D01*
X19023857Y-14182000D02*
X19038143Y-14167714D01*
X19066714Y-14124857D01*
X19081000Y-14096286D01*
X19095286Y-14053429D01*
X19109572Y-13982000D01*
X19109572Y-13924857D01*
X19095286Y-13853429D01*
X19081000Y-13810571D01*
X19066714Y-13782000D01*
X19038143Y-13739143D01*
X19023857Y-13724857D01*
M02*
